<?xml version="1.0" encoding="utf-8"?>
<!-- Generator: Adobe Illustrator 16.0.0, SVG Export Plug-In . SVG Version: 6.00 Build 0)  -->
<!DOCTYPE svg PUBLIC "-//W3C//DTD SVG 1.1//EN" "http://www.w3.org/Graphics/SVG/1.1/DTD/svg11.dtd">
<svg version="1.1" id="Layer_2" xmlns="http://www.w3.org/2000/svg" xmlns:xlink="http://www.w3.org/1999/xlink" x="0px" y="0px"
	 width="310.833px" height="229.709px" viewBox="0 0 310.833 229.709" enable-background="new 0 0 310.833 229.709"
	 xml:space="preserve">
<g opacity="0.55">
	<path fill="#87D5FF" d="M117.563,132.961l-8-3.573l-0.455,0.336l0.051-0.707l-0.081-0.093l-0.02-0.397l0.05-0.055l-0.522-0.015
		l-1.793-0.81l-1.905,1.608l0.278-0.787l-1.358-0.675l-1.519,0.521l1.674-3.135l-0.806-1.641l-0.577-0.605l-3.068-0.791
		l-1.103,0.146l-1.28-0.735l-0.916-1.701l-1.614-0.187l0.71-0.653l-1.169-0.396l-0.383-0.34l-0.121,0.138l-0.148-0.408l0.887-0.18
		l-2.077,0.091l0.486,0.114l-5.557-1.374l0.369,0.48l-1.682,0.469l0.077-0.016l0.418-0.992l-3.91,1.739l-0.995,1.909l-4.316-1.047
		l0.098,0.158l-1.631-2.637l0.325-2.405l-0.321-0.489l0.153,0.124l-0.878-0.566l0.081,0.038l-3.579-0.105l0.482-2.531l0.154,0.501
		l0.401-2.903l-3.506,2.407l0.108-0.06l-3.757,0.116l0.121,0.069l-0.301-0.141l0.129,0.04l-1.697-2.854l0.296,0.671l-0.308-5.581
		l0.854-0.886l0.303-0.033l0.352-0.161l-0.192,0.132l1.466-0.98l-0.2,0.151l0.829-0.55l-0.077,0.156l2.263,0.228l0.084,0.229
		l0.852-0.204l0.672,0.515l0.19-0.032l-0.347-0.631l0.136-0.323l-0.87-0.088l2.546-0.237l0.212,0.051l0.925-0.062l-0.283,0.007
		l0.73,0.105l-0.062,0.153l2.518,2.23l0.024,0.193l0.602,0.492l0.9,1.582l-0.173-0.004l0.894-0.548l-0.486-2.298l0.073-0.164
		l0.129,0.572l-0.846-3.062l0.548-1.176l0.134,0.05l0.011-0.11l0.603-0.282l0.606-0.565l0.028,0.153l1.065-0.882l0.021,0.219
		l0.443-0.757l0.769-0.045l-0.475-0.363l0.026-0.36l1.112-0.231l-0.058-0.183l-0.792-0.266l0.435,0.11l-0.036-0.072l0.104,0.043
		l0.001-0.13l0.282,0.162l0.245,0.284l-1.474-1.471l0.424-0.173l0.334-0.025l0.053-0.04l-0.692-0.586l0.658,0.483l0.071-0.17
		l-0.66-1.029l0.121,0.592l0.019-0.097l0.453,0.3l-0.289-0.519l0.243,0.24L81.767,92l0.196-0.338l0.046,0.081l0.025-0.116
		l0.027,0.059l0.22-0.205l-0.01,0.081l0.084-0.006l-0.112,0.099l0.109,0.034l-0.293,0.312l0.072-0.059l-0.17,0.213l-0.009,0.197
		l0.292,0.107l0.029,0.307l0.093-0.07l-0.065,1.19l0.738-1.194l-0.097-0.223l0.097-1.388l0.104,1.031l0.764-1.041l-0.013,0.205
		l0.095-1.472l-0.015,0.504l2.229-1.059l0.208,0.051l0.817-0.295l-0.73-0.303l0.928-1.572l-0.007,0.071l0.142,0.016l0.011-0.144
		l0.123-0.087L87.784,87l0.682-0.614l0.045,0.134l-0.088,0.108l3.589-1.692l0.273,0.117l-0.371,0.542l1.184-0.043l-0.659,0.36
		l-0.268-0.332l-1.1,0.673l0.194-0.067l-0.552,0.339l0.238-0.139l0.45,1.062l1.067-0.977l2.267-0.923l-2.228-0.693l0.192-0.091
		l-1.277-1.062l0.529-0.672l-0.294-0.074l0.038-0.058l-1.462-0.19l1.881-0.893l0.262,0.038l-9.016,4.076l3.168-3.694l2.402-0.76
		l-0.052-0.052l10.536-3.583l-0.269-0.172l-1.376-1.802l-2.118,0.524l2.568-1.072l-2.089-0.286l0.343-0.428l-1.013,0.137
		l0.048-0.792l-0.635-0.383l-0.106-0.377l-0.502-0.113l-0.419-0.421l0.173-0.038l0.793,0.185l-1.623-1.629l0.111-0.49l-0.347,0.101
		l0.27-0.906l-0.643,0.004l0.168-0.28l-0.387-0.585l-0.465-0.344l-0.224,0.307l-0.008,0.483l-0.321,0.091l-0.364,0.569l-1.582,1.079
		l-0.067-0.511l-0.264,0.329l-0.839,0.292l-0.956-1.064l-0.429-1.594l0.988-1.299l-2.355-0.729l-0.451-0.311l-2.493-0.538
		l-1.579,0.908L80.38,67.64l0.508,0.014l0.206,1.566l-2.029,5.98l1.086,2.792l-0.391,1.203l-0.382,0.492l-1.291-0.407l-3.876-4.561
		l-6.017-2.272l-1.684-1.623l-0.537-0.961l0.169-1.811l1.335-2.426l0.582,0.259l0.508-0.56l-0.388-0.277l-0.066-1.01l-1.058-0.801
		l3.03,0.229l0.076-0.202l1.885-0.372l-2.71-1.978l1.025-0.06l-0.083-0.086l2.745-0.682l0.008-0.133l2.524,0.385l-1.13-0.95
		l0.722,0.096l1.993-3.016l0.541-0.343l-3.618-1.047l0.572,1.592l-1.433,1.841l-1.531-0.946l-1.618-0.134l-0.705-1.569l0.524-0.213
		l-0.88-0.104l0.248-0.168l-1.492-0.047l0.783-0.562l-0.46-0.1l0.164-0.201l0.644,0.114l-3.693-2.186l0.4,0.127l-0.412,1.241
		l0.006,0.224l2.102,1.784l-0.992,0.895l0.976,0.232l-2.221,2.446l0.214,0.458l-0.546-0.622l0.862,0.056l0.002-0.205l-0.476-1.588
		l-1.566-0.203l-0.606,0.375l1.154,0.592l-1.316-0.496l0.238,0.378l-8.849-0.717l2.527-0.462l-1.738,0.843l0.55,1.671l-0.087,0.687
		l-1.062-0.988l-5.958-1.172l1.262-0.728l-9.022-1.488l-0.444-0.947l0.19,0.055l-2.765-0.569l0.261,0.157l-1.177,0.851l0.146-0.398
		l-1.791,1.138l-0.304-0.228L33.19,56.71l3.091-1.994l-3.981,1.24l-0.2-0.645l-1.003,0.982l0.296,0.495l-14.351-2.65l0.151-0.166
		l-0.399-0.386l-3.36-0.182l-0.214-0.731l-3.165,1.183l0.597,0.17l-0.412,0.376l-0.197-0.083l-0.01-0.214l0.123-0.147l-1.812,0.623
		l0.269-0.146l-1.24,1.311l-2.579,0.758L4.418,57.26l0.088-0.074l-0.207,0.095l5.628,2.8l-2.04-0.675l1.351,1.002L6.662,60.37
		l0.12-0.51L7,59.864L3.315,61.03l1.553,0.679l-0.692,0.144l4.668,0.996l-2.835,2.437l0.175-0.114l-1.047,1.334l0.584,0.655
		L5.68,67.454l1.364,0.081L6.77,67.597l-0.4,0.337l-0.843,0.065l2.292,0.349l0.634-0.532l0.259,1.998l-0.43,0.582l2.743,0.298
		l0.121-0.709l1.717-0.201l-0.561,2.017l-1.251,0.76L9.89,73.826l-0.78-0.218l-1.853,1.397l1.832-0.834l1.325-0.098l1.188-0.683
		l0.169-0.429l4.08-2.864l-0.73-0.34l0.436-0.604l0.394-0.263l0.155-0.568l3.179-1.557l0.222,0.792l-2.357,1.487l0.661-0.064
		l-0.788,0.613l2.854-1.527l0.763-0.94l1.259,0.138l-0.092,0.389l-0.153,0.105l0.77,0.1l-0.193,0.222l1.037-0.245l2.82,0.979
		l2.078,0.085l-0.256,0.284l-0.44,0.082l2.846,1.163l-0.493-0.319l0.78-0.218l0.278,0.188l0.632,0.811l-0.354-1.191l0.088-0.007
		l-0.073-0.127l0.104-0.139l1.863,1.919l0.066,0.383l1.344,1.649l-0.577,0.582l0.09,0.18l0.933-0.62l0.865,0.239l-0.02,0.988
		l0.217-0.596l0.202,0.115l-0.056,1.453l0.94,0.435l0.518,0.677l-0.84-0.33l0.732,0.749l-0.187,0.628l0.146,0.654l0.939-1.204
		l0.253,0.895l-0.871,0.076l0.89,0.329l0.15,0.729l0.532,0.418l-0.472,0.108l0.779-0.069l0.583-0.25l0.785,0.769l0.312,0.558
		l0.604,0.312l-0.127,2.459l0.302-0.51l-0.207,0.21l0.119-0.779l-1.659-0.264l0.49,1.541l0.255-0.009l-0.09,0.568l-0.083-0.185
		l-0.025,0.348l0.733,0.134l-0.917,2.878l0.078-0.014l0.006,2.709l-0.054,0.032L42,92.931l-0.087-0.102l-0.018,0.235l1.265-0.066
		l-0.468,0.569l6.871,9.289l-0.831-0.153l1.614,0.821l2.705,3.666l-1.537-3.605l0.062,0.288l-2.756-4.945l9.041,11.641l3.987,2.207
		l4.946,0.486l4.738,2.451l-0.173-0.073l1.027-0.062l0.129,0.349l-0.284-0.014l4.113,4.208l2.463,0.487l0.224-0.938l1.417,0.084
		l0.292,0.312l-0.568,0.062l0.814,1.519l-0.041,1.768l0.096-0.03l0.044,0.259l0.241,0.025l-2.752,3.857L78.811,129l0.141-0.242
		l-0.503,3.04l1.804,4.391l6.369,6.963l-2.426,21.541l1.216-0.248l-0.096,0.955l-0.173,0.076l-0.259,3.062l-0.868,1.189l0.179-0.81
		l-0.564,0.431l0.487-0.816l-0.944,0.756l-0.435,0.828l0.383-0.452l0.73,1.159l-0.447,0.119l0.807-0.051l0.284,0.565l-1.03-0.194
		l0.494,0.52l-0.182,1.125l0.33,0.119l-0.681,0.648l0.583,0.354l0.254-0.021l-1.236,0.21l1,1.055l1.157,0.137l-0.528-0.295
		l0.447,1.029l-1.39-0.303l0.559,0.821l1.833-0.267l-1.323,0.734l0.432,0.251l1.197-0.709l-0.632,0.782l-0.448-0.201l3.451-1.197
		l-0.92-0.82l0.418-1.772l2.365-2.386l-0.309-2.822l1.946-2.307l-0.423-0.346l0.479-0.393l-0.515-1.46l2.296-1.438l0.108-0.007
		l4.583-2.94l-1.274-3.756l3.293,2.154l2.582-3.845l0.065,0.071l-0.013-0.67l0.631,0.205l-1.267,1.746l2.886-5.775l-0.046-0.461
		l0.469-0.053l-0.048,0.086l0.218-0.334l3.703-1.823l-0.255,0.042l0.763-0.301l2.388-1.873l1.148-5.797l-0.035,0.086l-0.069-0.444
		l0.204-0.69l1.313-1.357l-0.029,0.162l1.258-1.478L117.563,132.961L117.563,132.961z M80.44,88.224l-3.528,1.375l-0.364-0.293
		l0.686-0.965l0.185,0.193l-0.575,0.437L80.44,88.224L80.44,88.224z M79.778,87.549l1.776-0.576l0.593,0.044L82,87.041l0.152-0.163
		l-0.614,0.016l1.53-0.418l-0.242,0.507l-0.137,0.108L79.778,87.549L79.778,87.549z M69.193,84.037l3.19-2.2l-0.176,0.409
		l0.265-0.59l2.885,1.129l2.744,2.116l1.019,0.375l0.625,0.79l0.015,0.112L78.035,85.7l-0.604,2.298l-0.826-0.93l-0.063-0.363
		l0.156-0.818l-1.448-0.761l-0.483,1.049l-0.062-0.034l0.048-0.423l-1.57,3.674l0.057-3.248l-0.062-0.068l-0.51,0.309l0.882-1.418
		l0.306,0.312l2.314-0.38l-0.908-0.842l-2.96-0.033l-0.17-0.462l-1.933,0.674l0.07-0.385L69.193,84.037L69.193,84.037z
		 M99.894,78.787l-1.481,1.065l-0.688,1.536l-0.009,0.266l-0.711,0.263l2.543,1.01l-0.231,0.342l1.152-0.175l-1.007,0.762
		l1.275-0.635l-0.076,0.186l0.493-0.411l-0.159,0.942l1.256-0.931l-0.353,0.313l0.172-0.749l-0.814,0.137l0.637-0.667l-0.847,0.26
		l-0.304-1.246l-0.76,0.496l-0.019-0.452l-0.611,0.042l-0.063-0.54l-0.568,0.362L99.894,78.787L99.894,78.787z M83.721,166.06
		l0.703-0.631l-0.486-0.686L83.721,166.06L83.721,166.06z M83.54,167.794l0.558,0.624l0.125-1.12l-0.169-0.145l-0.615,0.535
		L83.54,167.794L83.54,167.794z M40.712,82.171l0.755-0.073l-4.125-2.446l0.717,0.236l-0.019,0.199l-0.323,0.308l1.485,0.505
		l0.262,0.64l0.873-0.133L40.712,82.171L40.712,82.171z M31.904,72.705l-1.011-0.301l0.828,0.83L31.904,72.705L31.904,72.705z
		 M31.061,71.831l0.239-0.354l-0.305-0.332l-0.386-0.074l-0.153-0.148L31.061,71.831L31.061,71.831z M32.845,73.624l-0.087,0.3
		l1.39,1.213l-0.523-0.884l0.394-0.009L32.845,73.624L32.845,73.624z M91.38,178.746l-2.465-1.806l-1.837-0.379l0.879,0.766
		l0.268,1.154l-0.23,0.193l-1.132-0.662l-0.057-0.324l0.331,0.937h-1.389L91.38,178.746L91.38,178.746z M85.422,177.687
		l-0.681-0.248l-0.641,0.039l0.929,0.371L85.422,177.687L85.422,177.687z M89.043,179.748l-1.541-0.707l-0.089,0.295l0.693,0.407
		L89.043,179.748L89.043,179.748z M85.891,178.274l0.635-0.139l-0.837-0.264L85.891,178.274L85.891,178.274z M132.97,63.655
		l2.187-1.233l0.542-0.618l-1.168-1.271l0.446-0.395l-3.178,0.317l0.133,0.595l-1.133-0.054l-0.713-0.438l-0.719,1.144l-0.454-0.637
		l0.121-0.341l-1.178-0.669l0.348,0.247l-0.113,0.562l-0.703-0.22l-0.078,0.203l0.206,0.182l-0.491,0.295l1.728,0.127l-0.57,0.348
		l0.64,0.032l-1.943,0.429l2.092,0.326l-0.397,0.427l0.507-0.089l-1.063,0.403l0.042,0.347l1.337-0.145l2.466,0.623L132.97,63.655
		L132.97,63.655z M126.648,55.678l-0.001-0.22l1.794-0.792l-4.656,0.121l0.962-0.563l-2.201-0.074l1.639-1.798l4.058,1.158
		l0.017-0.604l0.393-0.778l-4.034-1.549l3.748,0.956l-4.524-1.64l0.777-0.088l-0.526-0.399l2.14-0.17l-0.638-0.514l4.304,0.591
		l-1.266-1.786l0.811-0.146l-1.025-0.79l-0.323-2.756l1.656-1.642l1.188,0.062l-1.959-0.12l4.848-5.181l-0.712-0.351l4.582-1.813
		l-7.793-0.981l-8.06-0.192l7.186-1.124l-9.027-0.818l5.355-0.592l-11.123-0.236l0.699,0.45l-7.336,0.445l4.397,0.521l-8.271,0.514
		l1.245,1.122l-2.99-0.834l-0.458,1.376l-4.905-0.673l2.277,1.262l-5.507,0.949l-0.988,1.555l-4.975,2.523l-0.094,1.752l3.169,1
		l-3.73,0.63l0.893-0.108l1.356,0.603l-1.176,0.444l11.359,3.221l-0.837,0.672l1.341,1.837l0.074,1.333l0.636-0.32l0.705,1.146
		l0.316-1.119l0.182,1.243l1.434-0.146l-1.157,0.563l1.153,0.472l0.954,0.915l-3.321-0.433l3.639,1.049l-0.673,1.214l0.669,0.058
		l-0.817,0.641l0.38-0.114l-2.211,0.768l1.866-0.18l-2.168,1.272l2.446-0.341l0.235,0.371l-2.577,1.962l2.052-1.032l-1.861,1.182
		l1.976,0.417l-0.715,2.116l0.673-0.776l-0.07,0.217l0.224-0.79l0.817,1.038l-0.709-0.153l-0.75,0.484l1.092-0.147l0.151,0.135
		l-1.105,0.283l1.506,1.294l0.206,1.077l0.623,0.201l0.909,1.409l0.035,0.345l-0.057-0.128l1.654-0.503l0.968,0.727l-0.537,0.362
		l-0.01,0.217l0.991-0.09l0.136,0.444l0.351,0.084l-0.256-0.211l0.013-0.693l1.164-1.488l-0.306-1.32l0.659-0.651l0.937-2.576
		l1.293-0.333l0.908-0.935l0.659-0.355l-0.347-0.176l0.174,1.058l1.226-0.524l0.127,0.248l0.44-0.86l3.04-2.885l1.379,0.274
		L126.648,55.678L126.648,55.678z M89.81,111.533l0.948-0.417l0.021,0.036L89.81,111.533L89.81,111.533z M81.676,111.592
		l-1.422-0.371l0.962,0.557l0.392-0.219l-0.022,0.022L81.676,111.592L81.676,111.592z M83.01,109.853l0.84-0.293l-2.772-1.226
		l0.19-0.027l-3.535-1.352l-2.784,1.234l2.083-0.546l1.367,0.236l2.378,2.014l2.202-0.134L83.01,109.853L83.01,109.853z
		 M88.53,111.34l-0.804-0.833l0.336-0.099l-3.611-0.396l0.937,0.968l-1.83,0.152l2.61,0.715L88.53,111.34L88.53,111.34z
		 M142.652,72.01l-0.064,0.585l0.465,0.115l-0.369,1.711l0.534-1.078l0.168,0.09l0.186,0.264l-0.28,1.482l1.61-0.311l0.246,1.92
		l-1.161,0.455l0.104,0.428l-1.101,0.754l1.006,0.25l-0.124,0.103l1.546-0.194l-2.767,1.867l3.711-0.83l-0.072-0.085l2.432-0.525
		l-0.85-0.115l0.281-0.299l-1.212-2.289l0.666,0.134l-0.171-0.592l-3.181-2.341l0.411-0.322l-0.708-1.476l0.928-1.306l-1.807,0.933
		l-0.365,0.411L142.652,72.01L142.652,72.01z M141.719,70.795l-0.293,0.627l0.455-0.344L141.719,70.795L141.719,70.795z
		 M78.557,63.761l-0.314-0.189l-1.06-0.176l-2.854-2.084l-1.675,2.674L78.557,63.761L78.557,63.761z M138.961,78.135l0.04,0.016
		l0.267,0.282l-0.448,0.311l0.511-0.092l-0.266,0.224l2.464-0.87l0.55,0.004l-0.119-0.113l0.21-2.013l0.567-0.331l-0.097-0.209
		l0.16,0.127l-1.615-1.084l0.055,0.073l-0.307,0.389l-0.079-0.253l-0.87,0.596l0.542,0.047l-1.683,0.569l0.136,0.094l0.067-0.024
		l-0.05,0.271l0.166,0.301l-0.064,0.243l-0.069,0.06l0.812,0.157l-0.848,0.733l0.973-0.126l-0.964,0.316l0.115,0.176L138.961,78.135
		L138.961,78.135z M69.12,34.608l1.263-0.13l-0.675,0.417l2.586-0.195l-1.384,0.558l3.665-0.074l-3.711,0.745l5.13-0.466
		l-2.856,1.031l3.772-0.282l-0.568,0.384l5.151-1.703l-1.572,0.962l1.603,0.146l-5.27,1.097l2.458,1.267l-2.963,1.173l-0.852-0.034
		l2.42,0.181l-4.981,1.489l1.401-0.308l-0.255,0.484l1.232-0.826l-0.109,0.533l1.988,0.456l-5.99,2.699l0.88,0.126l0.043-0.623
		l0.864,0.332l4.259-0.244l0.398-1.002l0.35-0.437l5.551-1.469l-1.05-0.342l1.703-0.396l-3.562-0.661l3.521-0.292l-2.076-0.539
		l3.175-0.161l-1.252-0.459l2.837-0.147l-0.607-0.377l6.254-2.754l-3.384,0.468l6.452-2.21l-6.236-0.652l1.758-0.577l-4.294-0.2
		l0.415,0.252l-1.476,0.382l-3.834-0.607l1.338,0.844l-3.94-0.637l1.207,0.488l-2.517,0.337l1.937,1.375l-2.853-0.705l0.336,0.27
		l-3.658-0.315l1.35,0.487L69.12,34.608L69.12,34.608z M85.188,52.346l-0.515,0.507l-0.873-0.19l-0.483,0.103l0.051-0.529
		l-0.433-0.053l0.855-0.426l-1.471,0.414l-2.385-1.008l0.098,0.75l-1.116-0.471l-0.693,0.117l-4.09-1.612l1.029,0.5l-0.315,0.676
		l0.292,0.529l-1.397,0.092l0.781,1.335l-1.363,0.197l1.346-0.534l0.065-3.805l-1.883,4.337L70.7,53.197l7.397,1.979L77.4,54.685
		l1.93-0.467l0.291-0.312l1.664,1.45l0.769-0.014l0.504,0.676l-0.805,0.765l1.605-0.516l0.552,0.491l0.19,0.021l0.259,4.618
		l-1.931,0.261l0.375,0.455l-0.077,0.176l0.46,0.069l0.202-0.054l1.211,0.342l1.624,1.361l-0.525,0.221l5.097,1.922l-2.407-2.375
		l0.83,0.025l2.392,1.481l0.364-0.366l-0.436-1.156l0.453,0.698l0.218-0.62l-1.016-0.821l0.055-0.265l-1.003-0.426l-1.761-1.931
		l1.344,0.233l-0.601-0.611l0.746-0.22l1.166,0.592l1.041-0.159l-0.094,1.68l0.245-0.395l0.569,0.654l0.127-1.286l1.26-0.256
		l-0.482-0.524l0.369-0.336l0.661-0.066l-2.016-0.189l0.569-0.591l-1.426-0.167l0.594,0.005l0.135-0.316l-0.846-0.617l-0.485,0.459
		l-0.851-0.229l0.154-0.655l-0.405,0.368l-0.026-0.611l-2.257-0.627l1.254,0.126l0.114-0.222l-1.108-0.245l2.028-0.139l-2.208-0.481
		l0.208-0.707l-0.9-0.097l1.459-0.734l-2.637,0.605l-1.034-1.08l1.242-0.696L85.188,52.346L85.188,52.346z M156.745,38.325
		l1.141,0.808l0.275,0.595l-0.893,0.005l2.811,1.001l0.641-0.665l1.201,0.201l0.334,0.459l-2.459,0.76l2.341,0.379l-2.583,0.46
		l6.322-2.203l-0.764-0.453l0.229-0.146l-2.658-0.62l-1.139,0.776l-3.254-1.127l1.174-0.37l-0.006-0.106L156.745,38.325
		L156.745,38.325z M226.193,37.201l4.963-0.104l0.378-0.738l-3.943-0.185L226.193,37.201L226.193,37.201z M231.303,37.399
		l-3.879,1.299l5.891,1.013l-0.762-0.627l-0.881-1.401L231.303,37.399L231.303,37.399z M265.15,46.396l5.257,0.452l-0.895-1.184
		l2.812,0.225l-6.572-0.396L265.15,46.396L265.15,46.396z M233.601,40.33l-0.838,1.099l5.198-1.029l-2.516-0.452l0.59-0.876
		l-0.728,0.083L233.601,40.33L233.601,40.33z M163.26,37.611l2.097,0.602l-0.953,0.302l2.74,0.343l3.565-1.375l-3.353-0.12
		l-0.709,0.268l-2.297-0.808l-0.065,0.586l-1.393,0.039L163.26,37.611L163.26,37.611z M168.892,41.944l-1.244-0.72l-2.769-0.608
		l0.283,0.109l0.939,0.914l-0.623,0.845l1.286,0.259L168.892,41.944L168.892,41.944z M203.493,44.2l-7.967,2.31l0.496,0.361
		l-0.311,0.778l-2.039,1.216l3.029-0.08l2.533-1.937l5.912-1.96L203.493,44.2L203.493,44.2z M191.801,51.611l1.57,0.855l0.182,0.309
		l0.457,0.323l-0.258,0.086l-0.404,0.306l3.643,0.224l-1.027-3.922l-2.627,0.463L191.801,51.611L191.801,51.611z M7.432,75.14
		l-1.519,0.21l0.069,0.148l1.495-0.294L7.432,75.14L7.432,75.14z M5.233,68.331l-1.495,0.095L5.233,68.331L5.233,68.331z
		 M2.601,64.499l-2.563-0.658L0,64.216L2.601,64.499L2.601,64.499z M3.403,76.56l-1.084,0.78L3.403,76.56L3.403,76.56z
		 M4.642,76.313L4.5,76.336l0.273-0.27l-1.354,0.708l1.287-0.433L4.642,76.313L4.642,76.313z M16.64,71.627l-0.7-0.383l-0.398,0.39
		l0.002,0.411l-0.595,0.254l0.238,0.092l0.318-0.038L16.64,71.627L16.64,71.627z M60.84,55.261l-6.012-5.495l0.542,2.125
		l-2.881-1.786l0.391,0.561l-1.452,0.49l0.537-0.574l-2.792,0.194l-2.766,1.485l2.094,0.261l-2.639,0.82l5.791,1.015l-3.837,1.472
		l10.088,0.611l1.058-0.412l-0.269-0.696L60.84,55.261L60.84,55.261z M59.466,44.733l-1.086,0.278l-0.159,0.181l0.811,0.025
		l-0.234,0.268L59.466,44.733L59.466,44.733z M64.784,46.828L64.784,46.828L64.784,46.828L64.784,46.828z M82.366,57.317
		L82.366,57.317L82.366,57.317L82.366,57.317z M64.53,51.179l-1.531-0.964l1.023-0.783l-0.33-0.098l0.53-0.319l-2.774-0.354
		l0.271,0.07l-0.902,0.092l0.379,0.562l-0.856-0.092l1.454,0.477l-0.261,0.5l1.55,1.688l1.307-0.748L64.53,51.179L64.53,51.179z
		 M64.92,55.949l-1.944-0.332l-0.952,0.637l3.684,0.339L64.92,55.949L64.92,55.949z M69.157,49.624l0.769-0.928l-3.729,0.339
		l0.417,1.478L69.157,49.624L69.157,49.624z M39.519,51.786l5.151-0.45l3.757-2.036l-3.199-0.849l-0.382-0.361l-4.408-0.193
		L39.519,51.786L39.519,51.786z M52.885,41.674l-2.574,0.63L52.885,41.674L52.885,41.674z M66.241,37.632l-1.826-0.169l2.036,0.773
		l-1.143,0.609l3.807,0.087l-2.458,0.718l1.971,0.846l-0.842,0.154l2.884,0.533l-0.47-0.807l1.714,0.21l0.181-1.033l-0.028,0.637
		l2.421-1.09l-1.935-0.564l-0.539-0.999l-0.238-0.028l-5.169-2.414l0.846,0.353l-1.957,0.633l1.362,0.553l-1.893-0.261l0.501,0.639
		l1.104,0.336L66.241,37.632L66.241,37.632z M61.595,37.924l1.045,0.311L61.595,37.924L61.595,37.924z M63.278,40.414l0.031,0.053
		l0.958,0.753l-0.613,0.113l1.999-0.248L63.278,40.414L63.278,40.414z M62.482,43.996l0.114,0.263l-1.717-0.018l0.784,0.287
		l-0.327,0.073l0.702,0.219L61.9,45.177l-2.092-0.6l0.499,0.086l0.108,0.427l0.394,0.336l-1.567,0.344l3.094-0.171l-1.302,0.504
		l-0.017,0.102l2.625,0.375l0.29-0.501L62.482,43.996L62.482,43.996z M65.089,42.439l2.454-0.319L65.089,42.439L65.089,42.439z
		 M70.363,47.561l1.165-0.473l1.564,0.573l-0.055-0.114l6.293-0.609l-0.842-0.198l0.082-0.781l-8.037-0.128l-1.513-1.139
		l1.878-0.066l-1.91-0.423l0.774,0.005l-2.569,0.084l-2.815-0.826l0.354,0.207l-0.426,0.078l4.121,1.8l1.046,1.558L70.363,47.561
		L70.363,47.561z M42.218,44.783l2.662-0.302l1.464-0.82l1.725-0.24l-0.446-0.355l0.738-0.308l-1.059-0.128l-5.323,2.212
		L42.218,44.783L42.218,44.783z M49.1,41.921l0.849-0.081l-1.211-0.281L49.1,41.921L49.1,41.921z M49.688,44.675l-1.634-0.177
		l0.003,0.105l0.896,0.17l-1.61,0.425l1.428,0.057l-1.866,0.436l1.753-0.105l-2.128,0.747l5.638,0.077l-2.87,0.944l4.831-0.544
		l1.578-1.179l-0.952-0.217l-0.331-0.488l-1.257,0.272L49.688,44.675L49.688,44.675z M50.333,40.976L50.333,40.976L50.333,40.976
		L50.333,40.976z M56.89,39.577l0.485,0.383l0.93-0.168l0.442,0.342l-1.395,0.406l1.944,0.274l0.133-0.949l-0.133-0.169
		L56.89,39.577L56.89,39.577z M300.661,160.565l-1.916-0.032l-0.574-1.087l-0.488,0.423l-0.43-1.104l0.162,0.012l-0.168-0.404
		l0.008,0.002l-0.812-0.505l-0.141,0.13l-0.206-0.527l-0.291,0.023l0.791,0.831l0.483,1.139l0.635,0.577l-0.168,0.128l0.168,0.579
		l-0.672,1.329l0.42,2.151l1.412-0.623l1.397-1.438L300.661,160.565L300.661,160.565z M297.036,164.187l-0.086-0.006l0.225-0.226
		l-0.432,0.256l0.176-0.358l-0.91-0.402l-0.877,0.854l-0.78,1.557l-0.037-0.172l-0.201,0.32l-0.104,0.062l-0.264,0.018l0.077,0.077
		l-0.461,0.252l0.043,0.021l-0.063,0.095l-2.033,1.481l-0.049-0.136l-0.129,0.267l-0.025,0.219l-0.064,0.128l-0.201-0.003
		l0.062,0.132l0.011,0.19l-0.244,0.188l-0.06,0.161l0.229-0.091l1.982,0.531l1.521-1.635l0.207-0.678l0.684-0.585l0.471,0.073
		l-0.092,0.062l0.043-0.382l1.583-2.417L297.036,164.187L297.036,164.187z M254.064,118.414L254.064,118.414L254.064,118.414
		L254.064,118.414z M252.631,118.556l0.658,0.693l0.273-1.576L252.631,118.556L252.631,118.556z M251.853,116.242l-1.013-0.716
		l0.904,0.959L251.853,116.242L251.853,116.242z M250.125,127.769l0.793,3.987l0.48-2.487l1.484,1.422l-1.172-2.097l1.785-0.936
		l-2.918-0.587l4.463-1.354l-0.104-0.156l-4.522,2.168L250.125,127.769L250.125,127.769z M252.29,116.836l-0.063,1.249l0.808-0.859
		L252.29,116.836L252.29,116.836z M254.247,117.188l0.617,1.25l-0.033-0.287l0.133,0.152L254.247,117.188L254.247,117.188z
		 M253.604,116.362l-0.277-0.12l-0.066,0.567l0.763,0.149L253.604,116.362L253.604,116.362z M274.883,165.065l-1.28-0.961l-1.83-0.5
		l0.444,1.547l0.082-0.051l0.117,0.354l-0.23-0.269l0.882,1.157l0.662-0.206l0.259-0.377l0.133,0.25l0.287,0.192l0.137-0.039
		l0.229-1.244L274.883,165.065L274.883,165.065z M279.377,151.657l-9.547-15.521l-0.425,1.16l-0.077-0.068l0.041,0.715l-3.771,2.921
		l-0.54-3.403l-0.308-0.247l-0.24,0.411l-0.289-0.525l-3.529-0.478l0.773,0.733l-0.258,0.147l-0.963-0.196l-1.424,2.66l-1.344,0.165
		l-1.73-1.174l-1.33,1.733l0.123-0.146l0.106,0.521l-0.966-0.194l-0.071,1.173l-0.51-0.947l-7.581,5.338l-0.016-0.584l-0.028,4.112
		l-0.55-0.723l0.345,0.667l-0.427-0.229l-0.146,0.092l1.882,4.082l-0.328,2.742l4.192,0.762L262.036,155l1.498,2.618l0.729,0.381
		l1.557-2.295l-0.772,2.544l1.035-1.028l0.082,1.389h0.948l-0.274-0.029l4.892,2.568l-0.231-0.072l1.723,1l-0.157-0.416l3.302-2.141
		l1.004-2.433l-0.093-0.022L279.377,151.657L279.377,151.657z M246.86,134.161l-1.056-0.245l0.528,0.606L246.86,134.161
		L246.86,134.161z M177.102,95.403l0.079-0.066l-1.937,0.559l1.502,0.091L177.102,95.403L177.102,95.403z M157.191,73.939
		l0.504,1.143l0.005-1.419L157.191,73.939L157.191,73.939z M157.458,75.211L157.458,75.211L157.458,75.211L157.458,75.211z
		 M155.95,74.745L155.95,74.745L155.95,74.745L155.95,74.745z M159.303,93.069l-0.858-0.196l0.787,0.993l1.254,0.475l0.448-1.551
		L159.303,93.069L159.303,93.069z M154.534,90.29l0.1,0.806l0.651,0.73l0.454-0.911l-0.053-0.785L154.534,90.29L154.534,90.29z
		 M155.484,88.331l-0.32,0.064l-0.206,0.356l0.07,0.426l0.369,0.491L155.484,88.331L155.484,88.331z M237.939,128.58l1.291,0.604
		l-0.96-0.716L237.939,128.58L237.939,128.58z M241.129,125.974l0.771,2.473l0.834,1.025l2.959,0.277l0.156,0.12l1.485-0.213
		l-0.078-0.163l0.181-0.303l-0.06,0.021l-0.026-0.696l1.403-2.451l0.923,0.099l-1.026-0.89l-0.078-0.731l-0.109-0.035l-0.441-0.59
		l0.391-0.092l0.924-0.579l-0.278-0.493l0.849-0.179l0.006-0.143l-1.508-0.443l-0.611-0.614l-4.778,4.438l-1.089-0.371l-0.811,0.504
		l0.104-0.012L241.129,125.974L241.129,125.974z M244.652,134.06l1.245,0.414l-2.793-1.718l-2.842-0.606l-2.031,0.355l2.043,1.053
		L244.652,134.06L244.652,134.06z M241.157,110.107l1.311-0.321l-1.211,0.184l0.084,0.006L241.157,110.107L241.157,110.107z
		 M254.236,116.254l1.236,1.31L254.236,116.254L254.236,116.254z M258.801,97.635l0.326,0.467l-0.269-0.198l0.077,0.463l0.626-0.082
		l0.122,0.037l-0.378,1.251l0.334,0.106l0.058-0.507l0.025,0.66l1.04-2.113L258.801,97.635L258.801,97.635z M261.645,95.555
		l-1.721,1.477l1.055,0.131L264.977,96l0.223,0.45l2.561-1.013l-0.172,0.693l0.884-0.781l0.5-5.628l-0.562,0.27l-0.356-0.092
		l-2.63,3.699L261.645,95.555L261.645,95.555z M250.622,106.978l0.207,0.6l-0.011-0.005l0.472,0.46L250.622,106.978L250.622,106.978
		z M250.536,113.09l0.514,1.162l0.046,0.935l1.687,0.529l-0.098-0.638l1.422,0.774l-0.307-0.064l0.062-0.596l-0.647,0.043
		l-0.758-4.146L250.536,113.09L250.536,113.09z M217.775,120.669l-1.205-1.758l-0.295-0.083l-0.288,1.1L217.775,120.669
		L217.775,120.669z M190.711,139.79l-0.9-2.475l-1.116,2.244l-0.45,0.027l-0.326,0.654l-2.229,1.595l-0.914,3.063l0.228,2.877
		l2.129,1.047l1.828-3.113l1.266-5.475l0.4,0.445L190.711,139.79L190.711,139.79z M237.93,131.737l-0.561-2.533l-3.232-3.864
		l-4.859-3.08l5.715,7.583L237.93,131.737L237.93,131.737z M260.881,97.638l0.578,0.416l-0.057,0.132l1.321-0.46l0.479-0.546
		l-0.977-0.404L260.881,97.638L260.881,97.638z M276.855,135.817l0.183-0.088l-3.346-2.914l0.768-0.146l-5.504-3.346l-2.625-0.354
		l-3.037,0.502l-3.303-1.264l2.512,0.577l-0.111,0.163l-0.078,0.279l-1.484,0.141l1.328,0.529l0.278-0.304l3.86,2.233l0.451,1.009
		l0.27,0.283l0.062,0.678l0.744-0.051l1.459,1.012l0.336-0.778l1.443-0.152l-0.041-0.064l0.088,0.002l-0.247-0.414l2,0.651
		l2.501,1.751L276.855,135.817L276.855,135.817z M269.27,77.729l0.234,7.311l1.164-0.119l1.102-2.813l-2.042-6.375L269.27,77.729
		L269.27,77.729z M268.004,88.226l-0.209,1.465l0.914-0.378l-0.717-0.541l4.736-1.083l-0.396-0.979l-3.191-1.071L268.004,88.226
		L268.004,88.226z M252.426,134.438l0.49-0.467l0.139,0.03l-2.613,0.17L252.426,134.438L252.426,134.438z M249.607,134.415
		l-0.164-0.246l-0.821-0.229l0.41,0.379l-1.24,0.354L249.607,134.415L249.607,134.415z M255.192,134.906l1.621-0.729l-3.17,1.583
		L255.192,134.906L255.192,134.906z M249.697,135.202l1.542,0.42L249.697,135.202L249.697,135.202z M259.096,129.882l0.73,0.396
		l-2.514-0.541l0.021,0.232L259.096,129.882L259.096,129.882z M310.833,60.562l-0.709-0.149l-2.064-1.162l-0.291,0.305l0.162-0.312
		l-1.195-0.031l0.418,1.226l-1.125-1.609l-2.574-1.764l0.271,0.443l-0.598-0.583l0.184,0.111l-9.411-2.299l-0.28,0.729l-7.988,1.624
		l-0.969-3.184l-6.84-0.515l0.283-0.063l-1.714-0.317l-1.009-0.766l0.037-0.075l0.901-0.211l-4.315,0.225l0.063-0.273l1.002-0.336
		l-0.192,0.305l0.709-0.557l-2.287,0.059l1.773-0.146l-4.427-0.38l-1.665,0.412l0.03,0.265l0.868-0.044l-0.713,0.381l0.537,0.726
		l-1.836,0.415l-4.457-1.099l-2.742,0.295l-0.291-0.339l-1.198-0.733l1.337,0.513l-0.742-0.708l0.154-0.582l0.432-0.352
		l-3.007-0.547l-2.64,0.703l0.195,0.178l-3.713-0.553l0.413-0.445l-4.313,0.283l-0.149,1.123l-0.752-2.138l-1.104-0.111
		l-1.617,0.379l1.031,0.115l-4.914,1.557l7.369-4.453l-1.095-0.656l0.888,0.46l-0.428-1.175l-0.283,0.326l-0.613-0.573l-4.772-0.368
		l0.897-0.599l-2.771-0.313l1.596-0.52l-3.759,1.616l-2.471,0.008l0.547,1.186l-5.626-0.185l1.087-0.085l-6.212,1.458l0.428,0.293
		l-1.398,0.5l1.234,0.473l-1.055,0.08l1.348,0.84l-0.733,1.124l0.271-1.146l-3.392,5.92l-0.192-0.018l-0.15-0.172l0.162-1.134
		l-0.558,0.862l0.87-1.977l-5-0.696l0.706,0.246l-1.89,0.066l2.619,1.425l-3.688-2.867l-0.771,5.287l3.229,0.77l1.092,1.929
		l-1.555-1.475l-6.953,2.625l1.438,0.062l0.58-0.309l0.469-6.875l-1.945-2.152l-2.402,2.91l0.043,2.31l1.926,0.904l-7.703-0.959
		l-0.92,1.708l-0.738-0.576l-4.273,0.836l1.057-1.071l-7.034,3.135l0.337-1.451l-2.883-1.21l0.662,3.845l-0.483-0.162l-2.659,1.873
		l-4.717,0.031l-1.365-2.195l0.254-0.16l-1.514-1.026l0.891,0.107l1.306,0.623l4.547-2.182l0.065,0.152l-5.736-1.492l-0.901-0.847
		l0.774,0.011l-3.618-0.788l1.872-0.303l-2.377,0.146l-0.254-0.659l-1.127,0.412l0.064-0.817l-1.389,1.277l0.633-1.087l-2.084,1.278
		l-1.725-0.342l0.539,0.568l-1.647,0.756l0.231-0.924l-0.586,0.787l-0.623,0.133l-2.055,1.256l0.898,0.064l-1.081,0.83l-0.593-0.098
		l-0.705,0.202l-0.016,0.196l0.696,0.472l-0.989,0.112l0.854,0.035l-1.266,0.649l0.062,0.706l-1.073,0.279l0.113,1.065l-1.391,0.808
		l0.289-0.082l-1.75,1.547l1.6-0.438l-0.242,0.141l-0.357,0.59l-2.026-0.099l0.192,0.922l-1.621,0.167l1.167-0.015l-2.574,0.931
		l1.403,0.206l-1.195,0.501l1.807,0.066l0.139,0.291l-2.229,0.223l0.55,0.451l0.034,0.723l-0.466,0.614l1.588-1.111l-1.058,0.898
		l0.384-0.031l-0.892,0.844l1.057-0.501l-0.035,0.704l0.282,0.966l0.189,0.101l2.059-0.886l1.104-1.142l0.681,0.917l-0.119,0.832
		l1.209,2.357l-0.158,0.181l0.355,1.051l2.461-1.387l1.008-2.356l-0.61-0.179l2.063-0.864l-0.562-0.04l-0.659-3.032l0.231,0.052
		l0.145-0.719l0.348-0.486l0.047-0.313l0.352-0.203l-0.162-0.01l1.016-0.573l0.006-0.114l1.64-2.472l0.58-0.409l2.767,0.36
		l-3.14,3.15l0.024,2.875l0.672,1.045l0.43,0.258l3.129-1.022l-0.062,0.276l1.793-0.101l-0.112-0.062l1.399,0.85l-5.211,0.633
		l-0.32,0.733l0.729,0.539l-2.222,0.932l-1.156,3.147l0.445-0.752l-2.3,1.033l0.312,0.132l-4.271,0.593l0.649,0.568l-4.05-0.973
		l-0.354-0.668l0.386-0.956l0.878-0.721l-0.271-1.574l-2.011,1.199l0.797,0.063l-0.886,0.114l0.351,1.762l1.04,1.851l-3.756,0.462
		l-1.054,1.765l-0.152,0.017l0.231,0.14l-0.042,0.096l-3.251,2.134l-1.972-0.232l0.412,1.133l-2.459,0.381l-0.075,0.146l-0.3,0.142
		l2.521,0.89l0.61,1.574l-0.152-0.031l0.567,0.813l-0.457-0.561l-0.141,0.911l0.145-0.024l-6.598,1.558l-0.309,2.899l0.389,1.917
		l-0.183-0.022l-0.099,1.391l1.832-0.241l0.401,0.437l0.154-0.079l2.688,0.174l2.823-1.991l0.44-2.065L148.989,90l1.797-2.17
		l2.113-0.094l1.043-0.433h1.285l4.596,3.24l1.188,2.651l2.248-1.87l-4.986-5.884l-0.09,0.082l1.16-0.169l0.065,0.833l1.383,0.591
		l-0.299,0.016l2.233,1.457l-0.583-0.169l1.375,0.587l0.581,2.068l1.569,1.485l0.154,0.431l1.364,0.522l-0.882,1.197l0.512,0.283
		l0.575-0.001l-0.372-1.07l0.654,0.1l-0.379-0.455l0.834,0.221l-1.244-1.175l0.65-0.306l-0.349-1.418l0.633,0.66l-0.231-0.289
		l0.48,0.257l0.34-0.182l-0.498-0.604l2.602,0.122l-0.508,0.554l2.365-0.94l0.088-0.224l-1.353-1.263l1.206-2.183l-0.07,0.011
		l0.248-0.43l-0.041,0.228l2.159-2.14l0.169-0.468l0.703,0.641l-0.878,0.065l0.192,0.246l1.559,0.242l0.061,0.159l-0.992,0.575
		l3.492,0.01l-1.154-1.111l-0.188,0.357l3.219-1.235l-0.18,0.119l0.633,0.085l-0.678,0.436l-0.631,0.029l0.624,0.582l-1.521,0.761
		l4.03,3.327l-1.954,1.125l-3.433-0.943l-5.233,0.999l0.686,0.272l-0.906,0.205l0.229,0.111l-1.037,0.042l-1.488,0.917l0.674-0.083
		l0.21,1.091l-0.731,0.173l0.836,1.278l0.84-0.052l-0.137,0.271l6.84-0.154l0.113,0.1l-3.404,5.275l-0.383,0.001l0.104-0.178
		l0.21,0.133l-1.352-0.072l0.311-0.141l-8.468-1.141l-4.241,1.425l-4.227-1.875l-0.418-0.419l0.354-3.074L157,94.038l-12.044,1.619
		l-1.979-0.479l-3.056,2.859l-1.17,3.32l-4.964,5.21l0.155-0.154l-1.07,2.713l0.444,0.085l0.073,1.094l0.12-0.035l-1.057,4.165
		l1.81,1.116l-0.651,0.16l-0.227,0.606l0.176,0.297l1.002,0.23l0.02,0.713l0.323,0.39l0.072-0.067l0.776,0.721l-0.002,0.336
		l0.676,0.754l0.364,0.773l6.37,2.239l-0.263-0.017l1.143-0.067l-0.491-0.007l1.366,0.091l-0.196,0.014l6.008-1.253l-0.258,0.133
		l1.723,0.696l0.079,0.117l-0.063,0.272l0.683,0.614l0.265-0.037l0.242,0.087l-0.08-0.299l1.625,0.046l0.927,0.697l0.226,3.112
		l-0.177,0.128l-0.378-0.255l-0.559,0.795l0.551,0.625l-0.266-0.014l0.225,0.504l0.656,0.551l-0.292-0.069l2.873,2.894l-0.013,2.688
		l0.033-0.094l-0.967,5.813l5.576,16.994l0.719,0.257l7.191-1.656l4.533-6.309l-0.09,0.168l2.176-3.439l-0.631-2.447l5.148-4.52
		l-0.136-3.261l-0.654-0.655l-0.376-1.896l1.376-4.915l8.847-10.728l-0.137,0.094l0.191-1.192l-7.5,0.224l0.41-1.146l-2.76-1.929
		l-2.264-5.253l0.092,0.058l-4.027-8.112l1.421,2.042l0.647-1.653l-0.301,1.377l3.706,4.702h-0.05l3.354,6.717l-0.078-0.053
		l0.679,2.278l10.421-4.174l2.251-2.732l0.01-2.621l-1.583-2.547l-1.044,1.205l-3.084,0.62l-0.29-0.243l-0.005-1.402l-0.394,1.238
		l-0.562-1.702l-0.785-0.759l-0.938-1.919l0.736-0.87l2.162,2.405l2.114,0.745l2.515,0.095l1.834,1.438l6.373-0.026l-0.289-0.043
		l1.301,1.421l0.184,0.016l0.221,0.134l0.041-0.094l0.525,0.005l1.471,0.685l-1.293,0.63l2.622,0.503l0.125-0.399l0.538,0.032
		l-0.229,0.478l0.488-0.048l-0.429,0.258l0.104-0.009l0.217,1.943l-0.131,0.266l0.117-0.156l0.824,3.29h-0.113l2.098,4.727
		l2.721,0.629l0.641-3.894l0.129,0.197l1.646-3.208l3.454-2.535l1.455-2.064l0.299,0.55l0.304-0.325l0.186,0.336l0.168-0.311
		l0.369-0.163l0.074,0.453l0.357-0.623l-0.027,0.396l0.221-0.12l0.293-0.669l-0.242-0.495l0.288-0.122l0.752,0.634l0.272,0.526
		l0.057-0.048l0.738,1.828l-0.014-0.237l0.28,0.14l-0.017,0.195l0.067,0.004l0.524,0.238l-0.184,0.48l0.475,0.072l0.174,0.482
		l-0.064,0.007l0.456,1.947l-0.034,0.53l0.198-0.243l0.39,0.074l1.291-1.14l0.752,0.729l0.363,2.541l0.045-0.288l0.58,1.954
		l-0.271,1.449l0.12-0.134l2.016,5.553l2.518,1.761l-0.924-2.276l-2.357-2.816l0.33,0.318l-0.327-1.097l1.8-3.34l0.288,0.166
		l1.868,3.099l0.91-1.203l0.263-0.188l0.28-0.067l0.123-0.144l2.24-1.33l0.026,0.088l-0.034-0.438l0.084,0.021l0.12-0.18
		l-0.17-1.085l0.035,0.078l-2.519-3.486l0.105,0.04l1.719-3.7l0.895,0.189l0.205,0.118l0.191,1.027l-0.084-0.009l0.45-0.821
		l2.3-0.775l0.457-0.823l0.557,0.745l2.66-1.159l0.409-0.797l1.528-0.83l-0.415-0.664l0.385-0.605l0.203-0.056l0.792-1.066
		l0.74-0.26l-0.059-0.59l-0.08-0.185l0.051-0.327l0.496-0.358l-1.623-0.345l1.444-0.631l-1.582-0.958l1.571,0.219l0.688-5.472
		l-3.125-0.493l-0.043-1.267l2.439-0.203l-0.562,0.651l3.771,0.046L254.575,93l0.477,0.072l-0.221,0.124l1.619,1.086l-0.596,0.129
		l0.371,1.089l-0.018,0.719l-0.104,0.066l0.044,0.055l0.687,0.225l1.933-1.531l-1.739-3.458l2.717-3.133l1.118-0.643l-0.126,0.191
		l0.381-0.226l-0.006,0.444l7.33-11.091l-1.874-1.406l-0.351,0.902l-0.356-0.491l-0.425-0.179l0.279-0.214l-0.438,0.54l-0.375,0.02
		l2.393-4.236l8.078-2.385l0.25-0.258l1.256-0.086l-0.157,0.078l1.526,0.341l-0.979,0.177l3.47-0.135l0.006-0.214l-0.875-0.212
		l5.289-3.041l-0.445,1.219l0.507-0.089l-0.177,0.498l4.502-2.355l-0.18,0.097L282.1,79.528l1.48-2.346l1.334-0.112l1.668-1.816
		l0.92-2.185l-0.057,0.587l0.217-2.133l-0.715,0.09l1.479-2.721l1.922-0.749l-0.144,0.81l3.578-0.148l7.248-4.672l-0.484-1.117
		l-3.16-0.438l2.296-0.245l-0.757-0.256l3.13-0.023v0.01l0.271-1.56l0.993-0.308l-0.354,0.521l5.635,2.221l-0.607-0.53l0.574-0.875
		l-0.314-0.323l1.441,0.238l-0.297-0.396L310.833,60.562L310.833,60.562z M194.486,90.241l-0.284,0.2l-1.23,0.148l0.078,0.775
		l0.172,0.166l-0.068,0.342l0.449,2.379l0.203-0.075l-3.01-0.12l-1.107-1.924l1.068-1.275l-1.868-1.915l-0.468-1.769l-0.157,0.341
		l-0.394-1.377l0.067,0.062l0.472-0.808l1.484-0.878l3.296,1.144l-1.422,0.841l-1.069-0.053l2.19,2.488L194.486,90.241
		L194.486,90.241z"/>
</g>
<rect x="61.195" y="78.391" fill="#FFFFFF" width="123.997" height="86.786"/>
<path opacity="0.2" fill="#ABE4FF" enable-background="new    " d="M130.718,192.789c0,13.717-11.122,24.847-24.846,24.847
	c-13.726,0-24.846-11.13-24.846-24.847c0-13.716,11.121-24.847,24.846-24.847S130.718,179.073,130.718,192.789z M205.022,167.942
	c-13.727,0-24.846,11.131-24.846,24.847c0,13.717,11.119,24.847,24.846,24.847c13.725,0,24.848-11.13,24.848-24.847
	C229.87,179.073,218.747,167.942,205.022,167.942z"/>
<polygon fill="#ABE4FF" points="235.889,192.789 66.211,192.789 66.211,159.844 244.683,159.844 "/>
<polygon fill="#4BA3CC" points="224.853,192.789 227.551,182.679 89.312,182.679 91.37,192.789 "/>
<g>
	<path fill="#005780" d="M105.872,167.942c-13.725,0-24.846,11.131-24.846,24.847h49.692
		C130.718,179.073,119.597,167.942,105.872,167.942z"/>
	<path fill="#005780" d="M205.022,167.942c-13.727,0-24.846,11.131-24.846,24.847h49.691
		C229.87,179.073,218.747,167.942,205.022,167.942z"/>
</g>
<path fill="#043573" d="M205.022,172.959c-10.954,0-19.83,8.883-19.83,19.83c0,10.946,8.876,19.83,19.83,19.83
	s19.83-8.884,19.83-19.83C224.852,181.842,215.977,172.959,205.022,172.959z"/>
<path fill="#0076AD" d="M205.022,180.147c-6.982,0-12.643,5.662-12.643,12.642s5.658,12.642,12.643,12.642
	s12.643-5.662,12.643-12.642C217.665,185.812,212.006,180.147,205.022,180.147z"/>
<circle fill="#ABE4FF" cx="205.022" cy="192.789" r="9.915"/>
<path fill="none" stroke="#4BA3CC" stroke-width="3" stroke-miterlimit="10" d="M205.022,199.151c3.516,0,6.363-2.851,6.363-6.362"
	/>
<path fill="none" stroke="#4BA3CC" stroke-width="3" stroke-miterlimit="10" d="M205.022,186.427c-3.516,0-6.361,2.85-6.361,6.362"
	/>
<rect x="66.211" y="83.724" fill="#F25A58" width="113.965" height="76.12"/>
<rect x="66.211" y="124.274" opacity="0.31" fill="#F25A58" enable-background="new    " width="113.965" height="35.569"/>
<circle fill="#005780" cx="205.022" cy="192.789" r="3.183"/>
<path fill="#043573" d="M105.872,172.959c-10.955,0-19.83,8.883-19.83,19.83c0,10.946,8.875,19.83,19.83,19.83
	c10.954,0,19.83-8.884,19.83-19.83C125.702,181.842,116.826,172.959,105.872,172.959z"/>
<path fill="#0076AD" d="M105.872,180.147c-6.983,0-12.642,5.662-12.642,12.642s5.658,12.642,12.642,12.642
	c6.983,0,12.642-5.662,12.642-12.642C118.514,185.812,112.855,180.147,105.872,180.147z"/>
<circle fill="#ABE4FF" cx="105.872" cy="192.789" r="9.915"/>
<path fill="none" stroke="#4BA3CC" stroke-width="3" stroke-miterlimit="10" d="M105.872,199.151c3.515,0,6.363-2.851,6.363-6.362"
	/>
<path fill="none" stroke="#4BA3CC" stroke-width="3" stroke-miterlimit="10" d="M105.872,186.427c-3.515,0-6.363,2.85-6.363,6.362"
	/>
<circle fill="#005780" cx="105.872" cy="192.789" r="3.183"/>
<path fill="#F2D795" d="M225.727,98.639h-40.534v64.405l4.871,2.657c4.435-2.455,9.531-3.856,14.959-3.856
	c16.39,0,29.789,12.745,30.866,28.852v2.094h8.794v-51.02L225.727,98.639z"/>
<polygon fill="#8BCAF5" points="235.188,142.192 235.188,139.785 220.689,106.797 194.688,106.797 194.688,142.192 "/>
<rect x="235.188" y="153.976" fill="#E18465" width="9.495" height="28.703"/>
<path fill="#5ECCFF" d="M208.946,15.351c2.65,0.005,3.496,1.946,3.908,3.142c0.413,1.195-2.559,1.816-3.447,1.816h-8.777
	c-0.891,0-1.992,0.625-2.451,1.387l-7.693,12.8c-0.459,0.763-1.562,1.387-2.451,1.387h-0.873c-0.892,0-1.392-0.691-1.113-1.537
	l4.09-12.425c0.277-0.845-0.223-1.537-1.112-1.537h-5.077c-0.891,0-2.066,0.254-2.615,0.955l-0.81,1.037
	c-0.548,0.701-1.53,1.275-2.183,1.275c-0.651,0-1.383,0-1.625,0c-0.241,0-0.223-0.695,0.041-1.545l0.584-1.884
	c0.266-0.85,0.521-1.83,0.568-1.983c0.047-0.153,0.049-0.396,0.004-0.541c-0.045-0.145-0.297-1.438-0.562-2.288l-0.595-1.914
	c-0.264-0.85-0.353-1.545-0.195-1.545c0.156,0,0.889,0,1.626,0c0.735,0,1.791,0.571,2.343,1.27l0.797,1.009
	c0.553,0.699,1.73,1.27,2.621,1.27h5.077c0.892,0,1.392-0.691,1.112-1.537l-4.09-12.426C185.769,0.691,186.269,0,187.159,0h0.873
	c0.891,0,1.997,0.622,2.461,1.381l7.676,12.588c0.463,0.76,1.57,1.382,2.461,1.382H208.946z"/>
<g>
	<circle fill="#F25A58" cx="34.473" cy="83.84" r="16.631"/>
	<g>
		
			<circle fill="none" stroke="#F1F0F4" stroke-width="1.2224" stroke-linecap="round" stroke-linejoin="round" stroke-miterlimit="10" cx="28.395" cy="91.119" r="1.365"/>
		
			<circle fill="none" stroke="#F1F0F4" stroke-width="1.2224" stroke-linecap="round" stroke-linejoin="round" stroke-miterlimit="10" cx="40.224" cy="91.119" r="1.365"/>
		
			<line fill="none" stroke="#F1F0F4" stroke-width="1.2224" stroke-linecap="round" stroke-linejoin="round" stroke-miterlimit="10" x1="30.385" y1="90.664" x2="38.416" y2="90.664"/>
		
			<line fill="none" stroke="#F1F0F4" stroke-width="1.2224" stroke-linecap="round" stroke-linejoin="round" stroke-miterlimit="10" x1="28.846" y1="89.405" x2="28.846" y2="78.391"/>
		
			<polyline fill="none" stroke="#F1F0F4" stroke-width="1.2224" stroke-linecap="round" stroke-linejoin="round" stroke-miterlimit="10" points="
			28.846,78.835 41.584,78.835 41.584,83.777 28.846,86.558 		"/>
		
			<polyline fill="none" stroke="#F1F0F4" stroke-width="1.2224" stroke-linecap="round" stroke-linejoin="round" stroke-miterlimit="10" points="
			28.846,78.835 27.287,75.196 24.3,75.196 		"/>
	</g>
</g>
<g opacity="0.18">
	<g>
		
			<line fill="none" stroke="#00AEFF" stroke-width="2" stroke-linecap="round" stroke-linejoin="round" stroke-miterlimit="10" x1="51.104" y1="124.606" x2="37.876" y2="137.834"/>
		
			<line fill="none" stroke="#00AEFF" stroke-width="2" stroke-linecap="round" stroke-linejoin="round" stroke-miterlimit="10" x1="37.876" y1="111.38" x2="51.104" y2="124.606"/>
	</g>
	
		<line fill="none" stroke="#00AEFF" stroke-width="2" stroke-linecap="round" stroke-linejoin="round" stroke-miterlimit="10" x1="14.8" y1="124.606" x2="51.104" y2="124.606"/>
</g>
<g opacity="0.18">
	<g>
		
			<line fill="none" stroke="#00AEFF" stroke-linecap="round" stroke-linejoin="round" stroke-miterlimit="10" x1="56.567" y1="158.392" x2="50.613" y2="164.347"/>
		
			<line fill="none" stroke="#00AEFF" stroke-linecap="round" stroke-linejoin="round" stroke-miterlimit="10" x1="50.613" y1="152.437" x2="56.567" y2="158.392"/>
	</g>
	
		<line fill="none" stroke="#00AEFF" stroke-linecap="round" stroke-linejoin="round" stroke-miterlimit="10" x1="40.224" y1="158.392" x2="56.567" y2="158.392"/>
</g>
<g opacity="0.3">
	<g>
		
			<line fill="none" stroke="#FFFFFF" stroke-width="0.4301" stroke-linecap="round" stroke-linejoin="round" stroke-miterlimit="10" x1="91.282" y1="145.164" x2="85.327" y2="151.119"/>
		
			<line fill="none" stroke="#FFFFFF" stroke-width="0.4301" stroke-linecap="round" stroke-linejoin="round" stroke-miterlimit="10" x1="85.327" y1="139.21" x2="91.282" y2="145.164"/>
	</g>
	
		<line fill="none" stroke="#FFFFFF" stroke-width="0.4301" stroke-linecap="round" stroke-linejoin="round" stroke-miterlimit="10" x1="74.938" y1="145.164" x2="91.282" y2="145.164"/>
</g>
<g opacity="0.18">
	<g>
		
			<line fill="none" stroke="#00AEFF" stroke-linecap="round" stroke-linejoin="round" stroke-miterlimit="10" x1="176.482" y1="217.636" x2="164.909" y2="229.209"/>
		
			<line fill="none" stroke="#00AEFF" stroke-linecap="round" stroke-linejoin="round" stroke-miterlimit="10" x1="164.909" y1="206.062" x2="176.482" y2="217.636"/>
	</g>
	
		<line fill="none" stroke="#00AEFF" stroke-linecap="round" stroke-linejoin="round" stroke-miterlimit="10" x1="144.716" y1="217.636" x2="176.482" y2="217.636"/>
</g>
<g opacity="0.5">
	<g>
		
			<line fill="none" stroke="#00AEFF" stroke-width="0.8359" stroke-linecap="round" stroke-linejoin="round" stroke-miterlimit="10" x1="150.28" y1="51.357" x2="138.706" y2="62.931"/>
		
			<line fill="none" stroke="#00AEFF" stroke-width="0.8359" stroke-linecap="round" stroke-linejoin="round" stroke-miterlimit="10" x1="138.706" y1="39.783" x2="150.28" y2="51.357"/>
	</g>
	
		<line fill="none" stroke="#00AEFF" stroke-width="0.8359" stroke-linecap="round" stroke-linejoin="round" stroke-miterlimit="10" x1="118.515" y1="51.357" x2="150.28" y2="51.357"/>
</g>
<path fill="#5ECCFF" d="M276.211,72.309c-1.383-5.548-6.363-9.678-12.336-9.678c-5.338,0-9.895,3.29-11.797,7.941
	c-1.117-0.964-2.554-1.566-4.142-1.566c-3.519,0-6.375,2.857-6.375,6.375c0,0.193,0.041,0.376,0.058,0.567
	c-3.734,1.303-6.433,5.086-6.433,9.262c0,5.279,4.283,9.83,9.562,9.83h30.281c6.159,0,11.156-5.264,11.156-11.423
	C286.188,77.859,281.809,72.907,276.211,72.309z"/>
<g opacity="0.18">
	<g>
		
			<line fill="none" stroke="#00AEFF" stroke-linecap="round" stroke-linejoin="round" stroke-miterlimit="10" x1="299.877" y1="148.142" x2="288.303" y2="159.716"/>
		
			<line fill="none" stroke="#00AEFF" stroke-linecap="round" stroke-linejoin="round" stroke-miterlimit="10" x1="288.303" y1="136.567" x2="299.877" y2="148.142"/>
	</g>
	
		<line fill="none" stroke="#00AEFF" stroke-linecap="round" stroke-linejoin="round" stroke-miterlimit="10" x1="268.111" y1="148.142" x2="299.877" y2="148.142"/>
</g>
<g>
	
		<line fill="none" stroke="#4BA3CC" stroke-width="0.5" stroke-linecap="round" stroke-linejoin="round" stroke-miterlimit="10" x1="25.3" y1="138.31" x2="43.3" y2="138.31"/>
	<path fill="none" stroke="#4BA3CC" stroke-width="0.5" stroke-linecap="round" stroke-linejoin="round" stroke-miterlimit="10" d="
		M34.601,142.042c0.509-0.43,1.198-0.732,2.009-0.732c1.634,0,2.19,1.149,2.19,2.018c0,1.443-1.67,2.604-3.644,4.419l-0.556,0.541
		v0.022h4.2"/>
	<g>
		
			<line fill="none" stroke="#4BA3CC" stroke-width="0.5" stroke-linecap="round" stroke-linejoin="round" stroke-miterlimit="10" x1="31.3" y1="134.31" x2="37.3" y2="134.31"/>
		
			<line fill="none" stroke="#4BA3CC" stroke-width="0.5" stroke-linecap="round" stroke-linejoin="round" stroke-miterlimit="10" x1="29.8" y1="135.81" x2="29.8" y2="132.81"/>
		
			<line fill="none" stroke="#4BA3CC" stroke-width="0.5" stroke-linecap="round" stroke-linejoin="round" stroke-miterlimit="10" x1="38.8" y1="135.81" x2="38.8" y2="132.81"/>
		
			<path fill="none" stroke="#4BA3CC" stroke-width="0.5" stroke-linecap="round" stroke-linejoin="round" stroke-miterlimit="10" d="
			M28.3,134.31h-3.05c-0.275,0-0.45,0.225-0.45,0.5v16c0,0.274,0.175,0.5,0.45,0.5h18c0.275,0,0.55-0.226,0.55-0.5v-16
			c0-0.275-0.275-0.5-0.55-0.5H40.3"/>
	</g>
	
		<polyline fill="none" stroke="#4BA3CC" stroke-width="0.5" stroke-linecap="round" stroke-linejoin="round" stroke-miterlimit="10" points="
		29.3,142.31 30.8,141.31 30.8,148.31 	"/>
</g>
<g>
	
		<circle fill="none" stroke="#FFFFFF" stroke-linecap="round" stroke-linejoin="round" stroke-miterlimit="10" cx="263.17" cy="81.841" r="8"/>
	
		<circle fill="none" stroke="#FFFFFF" stroke-linecap="round" stroke-linejoin="round" stroke-miterlimit="10" cx="263.17" cy="81.841" r="1"/>
	
		<line fill="none" stroke="#FFFFFF" stroke-linecap="round" stroke-linejoin="round" stroke-miterlimit="10" x1="263.17" y1="71.341" x2="263.17" y2="73.341"/>
	
		<line fill="none" stroke="#FFFFFF" stroke-linecap="round" stroke-linejoin="round" stroke-miterlimit="10" x1="270.051" y1="72.721" x2="272.172" y2="74.842"/>
	
		<line fill="none" stroke="#FFFFFF" stroke-linecap="round" stroke-linejoin="round" stroke-miterlimit="10" x1="261.644" y1="83.367" x2="262.463" y2="82.548"/>
	
		<line fill="none" stroke="#FFFFFF" stroke-linecap="round" stroke-linejoin="round" stroke-miterlimit="10" x1="263.877" y1="81.134" x2="267.911" y2="77.102"/>
	
		<line fill="none" stroke="#FFFFFF" stroke-linecap="round" stroke-linejoin="round" stroke-miterlimit="10" x1="269.431" y1="75.58" x2="271.17" y2="73.841"/>
</g>
<path fill="#FFFFFF" d="M213.825,63.188c0.719-2.89,3.312-5.04,6.424-5.04c2.778,0,5.151,1.713,6.143,4.135
	c0.582-0.502,1.33-0.815,2.156-0.815c1.832,0,3.32,1.488,3.32,3.32c0,0.101-0.021,0.196-0.029,0.296
	c1.945,0.678,3.35,2.648,3.35,4.823c0,2.75-2.23,5.119-4.979,5.119h-15.771c-3.208,0-5.81-2.741-5.81-5.949
	C208.629,66.078,210.909,63.499,213.825,63.188z"/>
<g opacity="0.25">
	<g>
		
			<line fill="none" stroke="#FFFFFF" stroke-width="2.128" stroke-linecap="round" stroke-linejoin="round" stroke-miterlimit="10" x1="156.993" y1="124.274" x2="132.363" y2="148.903"/>
		
			<line fill="none" stroke="#FFFFFF" stroke-width="2.128" stroke-linecap="round" stroke-linejoin="round" stroke-miterlimit="10" x1="132.363" y1="99.645" x2="156.993" y2="124.274"/>
	</g>
	
		<line fill="none" stroke="#FFFFFF" stroke-width="2.128" stroke-linecap="round" stroke-linejoin="round" stroke-miterlimit="10" x1="89.396" y1="124.274" x2="156.993" y2="124.274"/>
</g>
</svg>
