<?xml version="1.0" encoding="utf-8"?>
<!-- Generator: Adobe Illustrator 16.0.0, SVG Export Plug-In . SVG Version: 6.00 Build 0)  -->
<!DOCTYPE svg PUBLIC "-//W3C//DTD SVG 1.1//EN" "http://www.w3.org/Graphics/SVG/1.1/DTD/svg11.dtd">
<svg version="1.1" id="Layer_2" xmlns="http://www.w3.org/2000/svg" xmlns:xlink="http://www.w3.org/1999/xlink" x="0px" y="0px"
	 width="333.882px" height="283.81px" viewBox="0 0 333.882 283.81" enable-background="new 0 0 333.882 283.81"
	 xml:space="preserve">
<path fill="#043573" d="M245.282,84.41H91.279c-6.047,0-10.999,4.952-10.999,10.998v103.297c0,6.048,4.951,10.999,10.999,10.999
	h154.003c6.046,0,10.998-4.951,10.998-10.999V95.408C256.28,89.361,251.328,84.41,245.282,84.41z"/>
<g>
	<path fill="#FFFFFF" d="M245.385,197.094c0,0.55-0.449,1-1,1H92.175c-0.55,0-1-0.45-1-1V97.02c0-0.55,0.45-1,1-1h152.209
		c0.551,0,1,0.45,1,1V197.094z"/>
</g>
<path opacity="0.1" fill="#8CDDFF" d="M140.649,209.704h104.633c6.046,0,10.998-4.951,10.998-10.999V95.408
	c0-6.046-4.952-10.998-10.998-10.998h-55.678L140.649,209.704z"/>
<circle fill="#FF506A" cx="302.047" cy="144.658" r="19.686"/>
<circle fill="#FFA58F" cx="63.749" cy="55.51" r="19.685"/>
<circle fill="#E6BABA" cx="169.54" cy="31.371" r="19.685"/>
<g>
	<path fill="none" stroke="#FFFFFF" stroke-linecap="round" stroke-linejoin="round" stroke-miterlimit="10" d="M72.99,54.105
		c0,0-3.251-4.962-9.24-4.962c-5.988,0-9.24,4.962-9.24,4.962c-0.375,0.572-0.341,1.481,0.077,2.021c0,0,3.859,5.017,9.164,5.017
		c5.305,0,9.164-5.017,9.164-5.017C73.329,55.586,73.364,54.677,72.99,54.105z"/>
	
		<ellipse fill="none" stroke="#FFFFFF" stroke-linecap="round" stroke-linejoin="round" stroke-miterlimit="10" cx="63.744" cy="55.144" rx="2.97" ry="3"/>
</g>
<g>
	<path fill="none" stroke="#7AC2E6" stroke-linecap="round" stroke-linejoin="round" stroke-miterlimit="10" d="M59.808,199.791
		c-0.259-0.045-0.539-0.286-0.617-0.538c0,0-0.014-0.042-0.115-0.287c-0.102-0.246-0.122-0.285-0.122-0.285
		c-0.123-0.233-0.096-0.602,0.055-0.816l1.18-1.658c0.152-0.214,0.136-0.554-0.038-0.753l-1.227-1.228
		c-0.201-0.171-0.542-0.188-0.755-0.034l-1.658,1.177c-0.214,0.153-0.584,0.183-0.821,0.067l-0.569-0.232
		c-0.249-0.089-0.49-0.373-0.534-0.632l-0.338-2.004c-0.045-0.263-0.297-0.49-0.561-0.511h-1.734
		c-0.265,0.019-0.514,0.247-0.559,0.508l-0.34,2.005c-0.044,0.259-0.286,0.539-0.539,0.617c0,0-0.04,0.013-0.286,0.114
		c-0.246,0.103-0.284,0.121-0.284,0.121c-0.233,0.123-0.603,0.097-0.816-0.055l-1.659-1.178c-0.216-0.152-0.554-0.138-0.752,0.036
		l-1.23,1.228c-0.17,0.2-0.188,0.539-0.034,0.757l1.178,1.656c0.152,0.214,0.185,0.585,0.069,0.824l-0.236,0.566
		c-0.087,0.248-0.371,0.491-0.63,0.533l-2.005,0.341c-0.26,0.043-0.489,0.295-0.509,0.559v1.734c0.019,0.265,0.247,0.516,0.506,0.56
		l2.006,0.339c0.259,0.045,0.537,0.286,0.617,0.538c0,0,0.012,0.042,0.114,0.288c0.102,0.246,0.123,0.284,0.123,0.284
		c0.122,0.234,0.096,0.602-0.055,0.816l-1.18,1.658c-0.152,0.214-0.136,0.554,0.038,0.753l1.227,1.228
		c0.201,0.171,0.542,0.188,0.755,0.034l1.658-1.177c0.214-0.153,0.586-0.183,0.823-0.068l0.567,0.233
		c0.251,0.088,0.49,0.373,0.534,0.632l0.338,2.004c0.045,0.263,0.297,0.489,0.559,0.512l1.738-0.002
		c0.263-0.018,0.513-0.246,0.558-0.507l0.34-2.006c0.044-0.258,0.286-0.538,0.539-0.616c0,0,0.04-0.013,0.286-0.114
		c0.246-0.103,0.284-0.121,0.284-0.121c0.233-0.123,0.603-0.097,0.816,0.055l1.659,1.178c0.216,0.152,0.554,0.138,0.754-0.036
		l1.227-1.227c0.171-0.201,0.189-0.54,0.035-0.758l-1.177-1.656c-0.152-0.214-0.183-0.586-0.069-0.824l0.237-0.567
		c0.087-0.248,0.37-0.49,0.629-0.532l2.005-0.341c0.26-0.043,0.489-0.295,0.51-0.559l0-1.734c-0.019-0.265-0.247-0.516-0.506-0.56
		L59.808,199.791z"/>
	
		<circle fill="none" stroke="#7AC2E6" stroke-linecap="round" stroke-linejoin="round" stroke-miterlimit="10" cx="52.821" cy="201.557" r="4.399"/>
</g>
<g>
	<path fill="#DA516E" d="M260.73,44.623c0,0,0,9.186,0,14.346h16.316V41.709c-13.053,0-15.842,1.992-15.842,1.992
		C260.943,43.887,260.73,44.302,260.73,44.623z"/>
	<path fill="#FFB0CB" d="M277.047,78.834c0.184,0,0.367-0.04,0.507-0.12c0,0,15.81-9.035,15.81-18.358c0-0.416,0-0.883,0-1.388
		h-16.316V78.834z"/>
	<path fill="#EF9058" d="M260.73,58.968c0,0.505,0,0.973,0,1.388c0,9.323,15.811,18.358,15.811,18.358
		c0.139,0.08,0.322,0.12,0.506,0.12V58.968H260.73z"/>
	<path fill="#F2A3A2" d="M293.363,58.968c0-5.16,0-14.346,0-14.346c0-0.321-0.213-0.735-0.475-0.922c0,0-2.788-1.992-15.842-1.992
		v17.259H293.363z"/>
	<path fill="#FFFFFF" d="M292.889,43.701c0,0-2.788-1.992-15.842-1.992c-13.053,0-15.842,1.992-15.842,1.992
		c-0.262,0.187-0.475,0.601-0.475,0.922c0,0,0,11.072,0,15.734c0,9.323,15.811,18.358,15.811,18.358
		c0.278,0.159,0.733,0.159,1.013,0c0,0,15.81-9.035,15.81-18.358c0-4.662,0-15.734,0-15.734
		C293.363,44.302,293.15,43.888,292.889,43.701z M290.436,60.341c0,7.651-12.973,15.064-12.973,15.064
		c-0.229,0.13-0.603,0.13-0.831,0c0,0-12.974-7.414-12.974-15.064c0-3.825,0-12.91,0-12.91c0-0.263,0.175-0.603,0.39-0.756
		c0,0,2.288-1.634,12.999-1.634s12.999,1.634,12.999,1.634c0.215,0.153,0.39,0.493,0.39,0.756
		C290.436,47.431,290.436,56.516,290.436,60.341z"/>
	<path fill="#F25A58" d="M295.591,40.875c0,0-3.264-2.332-18.544-2.332c-15.279,0-18.544,2.332-18.544,2.332
		c-0.307,0.218-0.556,0.703-0.556,1.079c0,0,0,12.96,0,18.417c0,10.914,18.507,21.49,18.507,21.49c0.326,0.187,0.859,0.187,1.186,0
		c0,0,18.507-10.576,18.507-21.49c0-5.457,0-18.417,0-18.417C296.146,41.578,295.897,41.093,295.591,40.875z M292.72,60.353
		c0,8.956-15.187,17.633-15.187,17.633c-0.268,0.153-0.705,0.153-0.973,0c0,0-15.186-8.678-15.186-17.633c0-4.478,0-15.113,0-15.113
		c0-0.308,0.204-0.706,0.456-0.885c0,0,2.678-1.914,15.216-1.914s15.217,1.914,15.217,1.914c0.251,0.179,0.456,0.577,0.456,0.885
		C292.72,45.24,292.72,55.875,292.72,60.353z"/>
</g>
<g>
	<g>
		
			<line fill="none" stroke="#AEA3C2" stroke-width="2.27" stroke-linecap="round" stroke-linejoin="round" stroke-miterlimit="10" x1="174.961" y1="170.159" x2="198.465" y2="170.159"/>
	</g>
	<g>
		
			<line fill="none" stroke="#AEA3C2" stroke-width="2.27" stroke-linecap="round" stroke-linejoin="round" stroke-miterlimit="10" x1="174.961" y1="157.677" x2="198.465" y2="157.677"/>
	</g>
	<g>
		
			<line fill="none" stroke="#AEA3C2" stroke-width="2.27" stroke-linecap="round" stroke-linejoin="round" stroke-miterlimit="10" x1="174.961" y1="145.194" x2="198.465" y2="145.194"/>
	</g>
	<g>
		
			<line fill="none" stroke="#AEA3C2" stroke-width="2.27" stroke-linecap="round" stroke-linejoin="round" stroke-miterlimit="10" x1="174.961" y1="132.711" x2="198.465" y2="132.711"/>
	</g>
</g>
<g>
	<g>
		
			<line fill="none" stroke="#AEA3C2" stroke-width="2.27" stroke-linecap="round" stroke-linejoin="round" stroke-miterlimit="10" x1="205.67" y1="170.159" x2="229.173" y2="170.159"/>
	</g>
	<g>
		
			<line fill="none" stroke="#AEA3C2" stroke-width="2.27" stroke-linecap="round" stroke-linejoin="round" stroke-miterlimit="10" x1="205.67" y1="157.677" x2="229.173" y2="157.677"/>
	</g>
	<g>
		
			<line fill="none" stroke="#AEA3C2" stroke-width="2.27" stroke-linecap="round" stroke-linejoin="round" stroke-miterlimit="10" x1="205.67" y1="145.194" x2="229.173" y2="145.194"/>
	</g>
	<g>
		
			<line fill="none" stroke="#AEA3C2" stroke-width="2.27" stroke-linecap="round" stroke-linejoin="round" stroke-miterlimit="10" x1="205.67" y1="132.711" x2="229.173" y2="132.711"/>
	</g>
</g>
<line fill="#AEA3C2" stroke="#4BA3CC" stroke-width="2.27" stroke-linecap="round" stroke-linejoin="round" stroke-miterlimit="10" x1="174.961" y1="120.147" x2="229.173" y2="120.147"/>
<path fill="#F25A58" d="M138.781,154.041c-2.422-0.583-3.621-3.758-1.478-6.011c2.866-2.751,4.776-7.451,4.776-12.128
	c0-7.245-4.565-11.655-10.198-11.655c-5.633,0-10.199,4.411-10.199,11.655c0,4.662,1.897,9.347,4.748,12.102h-0.017
	c2.185,2.262,0.967,5.478-1.481,6.046c-9.48,1.831-16.361,7.068-16.361,10.99c0,4.828,10.436,5.827,23.311,5.827
	c12.875,0,23.311-0.999,23.311-5.827C155.192,161.112,148.287,155.863,138.781,154.041z"/>
<g>
	<path fill="#F25A58" d="M56.143,135.255c0.228-1.134-0.505-2.237-1.639-2.465l-34.885-7.022c-1.133-0.229-2.237,0.505-2.465,1.639
		l-4.544,22.573c-0.228,1.133,0.506,2.237,1.639,2.465l34.885,7.022c1.133,0.229,2.237-0.506,2.465-1.639L56.143,135.255z"/>
	<path opacity="0.31" fill="#73ADE6" d="M14.25,152.444l34.885,7.022c1.133,0.229,2.237-0.506,2.465-1.639l2.271-11.286
		l-38.989-7.848l-2.272,11.286C12.382,151.112,13.116,152.216,14.25,152.444z"/>
	
		<line fill="#04B1D9" stroke="#F2D795" stroke-width="1.0919" stroke-linecap="round" stroke-linejoin="round" stroke-miterlimit="10" x1="18.696" y1="146.265" x2="22.8" y2="147.091"/>
	
		<line fill="#D8444E" stroke="#73263A" stroke-width="1.0919" stroke-linecap="round" stroke-linejoin="round" stroke-miterlimit="10" x1="21.207" y1="130.696" x2="25.311" y2="131.522"/>
	
		<line fill="#04B1D9" stroke="#F2D795" stroke-width="1.0919" stroke-linecap="round" stroke-linejoin="round" stroke-miterlimit="10" x1="26.904" y1="147.917" x2="31.008" y2="148.744"/>
	
		<line fill="#04B1D9" stroke="#F2D795" stroke-width="1.0919" stroke-linecap="round" stroke-linejoin="round" stroke-miterlimit="10" x1="43.321" y1="151.222" x2="47.425" y2="152.048"/>
	
		<line fill="#04B1D9" stroke="#F2D795" stroke-width="1.0919" stroke-linecap="round" stroke-linejoin="round" stroke-miterlimit="10" x1="35.112" y1="149.57" x2="39.216" y2="150.396"/>
	<g>
		
			<rect x="22.152" y="137.22" transform="matrix(-0.9802 -0.1978 0.1978 -0.9802 17.1811 277.8253)" fill="#F2D795" width="0.625" height="1.669"/>
		
			<rect x="21.315" y="141.374" transform="matrix(0.9803 0.1976 -0.1976 0.9803 28.5276 -1.4637)" fill="#F2D795" width="0.566" height="1.669"/>
		<path fill="#F2D795" d="M23.029,139.065c0.179,0.098,0.307,0.259,0.362,0.452l1.808-0.073l0.035-0.175
			c0.161-0.797-0.36-1.58-1.157-1.741l-0.709-0.143L23.029,139.065z"/>
		<polygon fill="#F2D795" points="25.11,139.89 23.394,139.958 23.227,140.784 24.771,141.569 		"/>
		<path fill="#F2D795" d="M22.769,140.824l0.21-1.045c0.034-0.169-0.076-0.334-0.245-0.368l-1.045-0.21
			c-0.169-0.034-0.334,0.076-0.368,0.245l-0.21,1.045c-0.034,0.169,0.076,0.334,0.245,0.368l1.045,0.21
			C22.57,141.103,22.735,140.993,22.769,140.824z"/>
		<path fill="#F2D795" d="M23.072,141.2c-0.136,0.189-0.355,0.295-0.593,0.301l-0.336,1.667l0.768,0.155
			c0.797,0.161,1.58-0.36,1.741-1.157l0.03-0.148L23.072,141.2z"/>
		<path fill="#F2D795" d="M21.061,141.204c-0.169-0.093-0.29-0.242-0.349-0.422l-1.827,0.074L18.856,141
			c-0.16,0.797,0.36,1.58,1.157,1.74l0.71,0.143L21.061,141.204z"/>
		<path fill="#F2D795" d="M20.998,139.1c0.124-0.19,0.327-0.308,0.554-0.332l0.338-1.68l-0.71-0.143
			c-0.797-0.161-1.58,0.36-1.74,1.157l-0.038,0.186L20.998,139.1z"/>
		<polygon fill="#F2D795" points="19.312,138.737 18.975,140.411 20.691,140.341 20.855,139.522 		"/>
	</g>
</g>
<polyline fill="none" stroke="#FFFFFF" stroke-linecap="round" stroke-linejoin="round" stroke-miterlimit="10" points="
	178.527,30.996 175.793,28.067 176.027,27.979 176.027,27.814 176.027,24.621 174.027,24.621 174.027,26.496 174.027,26.693 
	173.818,26.601 169.575,23.121 160.552,30.996 "/>
<polyline fill="none" stroke="#FFFFFF" stroke-linecap="round" stroke-linejoin="round" stroke-miterlimit="10" points="
	163.027,33.121 163.027,32.384 163.027,39.621 167.027,39.621 167.027,34.621 172.027,34.621 172.027,39.621 176.027,39.621 
	176.027,32.385 176.027,33.121 "/>
<path fill="#D8444E" d="M193.258,218.235l10.467,10.467c-2.084,2.297-3.085,4.36-0.542,6.904l25.833,25.833
	c1.714,1.713,3.959,2.569,6.204,2.569s4.49-0.856,6.204-2.569l-45.685-45.685L193.258,218.235z"/>
<g>
	<path fill="none" stroke="#4BA3CC" stroke-width="0.5" stroke-linecap="round" stroke-linejoin="round" stroke-miterlimit="10" d="
		M114,68.592l1.868,0.934c0.342,0.171,0.842,0.089,1.111-0.18l6.387-6.386l0.784,0.785c0.811,0.811,2.068,0.748,2.793-0.138
		l4.435-5.418c0.726-0.887,0.657-2.274-0.152-3.085l-2.95-2.951c-0.812-0.812-2.2-0.879-3.088-0.154l-5.416,4.435
		c-0.888,0.726-0.948,1.983-0.139,2.794l0.784,0.785l-7.366,7.367c-0.271,0.271-0.212,0.631,0.13,0.802l0.164,0.082L114,68.592z"/>
	<path fill="none" stroke="#4BA3CC" stroke-width="0.5" stroke-linecap="round" stroke-linejoin="round" stroke-miterlimit="10" d="
		M128.095,57.249l-1.963-1.964c-0.272-0.271-0.271-0.712,0-0.983c0.269-0.27,0.712-0.27,0.981,0l1.964,1.965
		c0.271,0.271,0.27,0.712,0,0.982C128.807,57.519,128.367,57.519,128.095,57.249z"/>
	
		<polyline fill="none" stroke="#4BA3CC" stroke-width="0.5" stroke-linecap="round" stroke-linejoin="round" stroke-miterlimit="10" points="
		122.682,61.661 121.584,62.758 120.188,62.619 119.752,63.055 120.108,63.933 119.745,64.296 119.091,64.47 118.147,65.415 
		117.305,65.502 116.666,66.142 115.794,66.22 115.358,66.656 116.003,67.453 115.655,67.801 115.648,68.264 115.015,68.897 	"/>
</g>
<g>
	<path fill="none" stroke="#FFFFFF" stroke-linecap="round" stroke-linejoin="round" stroke-miterlimit="10" d="M299.487,136.779
		h-0.233v-1.965c0-0.361-0.278-0.655-0.62-0.655h-1.242c-0.342,0-0.62,0.294-0.62,0.655v1.965h-0.582
		c-0.342,0-0.671,0.291-0.731,0.645l-2.301,13.386c-0.061,0.354-0.11,0.94-0.11,1.3v1.048h6.207v-5.288
		c0-0.36,0.211-0.848,0.47-1.085l0.924-0.845c0.258-0.237,0.435-0.723,0.394-1.08l-0.858-7.432
		C300.142,137.072,299.829,136.779,299.487,136.779z"/>
	<path fill="none" stroke="#FFFFFF" stroke-linecap="round" stroke-linejoin="round" stroke-miterlimit="10" d="M304.607,136.779
		h0.232v-1.965c0-0.361,0.279-0.655,0.621-0.655h1.241c0.342,0,0.621,0.294,0.621,0.655v1.965h0.581
		c0.342,0,0.671,0.291,0.731,0.645l2.301,13.386c0.061,0.354,0.11,0.94,0.11,1.3v1.048h-6.207v-5.288
		c0-0.36-0.211-0.848-0.469-1.085l-0.924-0.845c-0.259-0.237-0.436-0.723-0.395-1.08l0.858-7.432
		C303.953,137.072,304.266,136.779,304.607,136.779z"/>
	
		<line fill="none" stroke="#FFFFFF" stroke-linecap="round" stroke-linejoin="round" stroke-miterlimit="10" x1="302.047" y1="145.658" x2="302.047" y2="140.658"/>
</g>
<g>
	<path fill="none" stroke="#7AC2E6" stroke-linecap="round" stroke-linejoin="round" stroke-miterlimit="10" d="M258.834,219.813
		c0-0.585-0.474-1.059-1.059-1.059h-7.883c-0.585,0-1.059,0.474-1.059,1.059v15.882c0,0.585,0.474,1.06,1.059,1.06h7.883
		c0.585,0,1.059-0.475,1.059-1.06V219.813z"/>
	
		<line fill="none" stroke="#7AC2E6" stroke-linecap="round" stroke-linejoin="round" stroke-miterlimit="10" x1="249.334" y1="234.755" x2="258.334" y2="234.755"/>
	
		<line fill="none" stroke="#7AC2E6" stroke-linecap="round" stroke-linejoin="round" stroke-miterlimit="10" x1="249.334" y1="220.755" x2="258.334" y2="220.755"/>
</g>
<g>
	
		<line fill="none" stroke="#F25A58" stroke-linecap="round" stroke-linejoin="round" stroke-miterlimit="10" x1="163.418" y1="281.31" x2="175.418" y2="281.31"/>
	
		<rect x="162.918" y="270.31" fill="none" stroke="#F25A58" stroke-linecap="round" stroke-linejoin="round" stroke-miterlimit="10" width="13" height="9"/>
	<polygon fill="none" stroke="#F25A58" stroke-linecap="round" stroke-linejoin="round" stroke-miterlimit="10" points="
		178.216,283.31 160.621,283.31 162.918,279.31 175.918,279.31 	"/>
	<polygon fill="none" stroke="#F25A58" stroke-linecap="round" stroke-linejoin="round" stroke-miterlimit="10" points="
		173.01,283.31 165.827,283.31 167.081,281.31 171.938,281.31 	"/>
</g>
<g>
	<path fill="none" stroke="#7AC2E6" stroke-linecap="round" stroke-linejoin="round" stroke-miterlimit="10" d="M290.205,188.628
		v-3.804c0-0.011,0-0.021-0.003-0.032c-0.047-2.619-2.512-4.74-5.509-4.735c-2.996,0.006-5.452,2.136-5.488,4.755
		c0,0.01,0,0.948,0,0.959v2.857"/>
	<path fill="none" stroke="#7AC2E6" stroke-linecap="round" stroke-linejoin="round" stroke-miterlimit="10" d="M290.705,190.057
		h-12c-0.367,0-0.5,0.253-0.5,0.562v7.875c0,0.31,0.133,0.562,0.5,0.562h12c0.367,0,0.5-0.253,0.5-0.562v-7.875
		C291.205,190.31,291.072,190.057,290.705,190.057z"/>
	<path fill="none" stroke="#7AC2E6" stroke-linecap="round" stroke-linejoin="round" stroke-miterlimit="10" d="M285.05,194.049
		l0.277,1.475c0.026,0.078,0.013,0.165-0.035,0.232s-0.126,0.107-0.208,0.107h-0.757c-0.083,0-0.16-0.04-0.208-0.107
		c-0.049-0.067-0.062-0.154-0.033-0.232l0.274-1.475c-0.406-0.147-0.679-0.533-0.679-0.964c0-0.567,0.46-1.028,1.024-1.028
		c0.563,0,1.022,0.461,1.022,1.028C285.729,193.516,285.456,193.901,285.05,194.049z"/>
</g>
<circle fill="none" stroke="#7AC2E6" stroke-linecap="round" stroke-linejoin="round" stroke-miterlimit="10" cx="285.205" cy="106.915" r="9.5"/>
<line fill="none" stroke="#7AC2E6" stroke-linecap="round" stroke-linejoin="round" stroke-miterlimit="10" x1="278.508" y1="113.612" x2="291.902" y2="100.217"/>
<g>
	
		<rect x="44.75" y="100.915" fill="none" stroke="#7AC2E6" stroke-linecap="round" stroke-linejoin="round" stroke-miterlimit="10" width="19" height="12"/>
	<polyline fill="none" stroke="#7AC2E6" stroke-linecap="round" stroke-linejoin="round" stroke-miterlimit="10" points="
		44.75,100.915 54.25,106.915 63.75,100.915 	"/>
</g>
<g>
	
		<circle fill="none" stroke="#7AC2E6" stroke-linecap="round" stroke-linejoin="round" stroke-miterlimit="10" cx="99.128" cy="236.983" r="2"/>
	
		<circle fill="none" stroke="#7AC2E6" stroke-linecap="round" stroke-linejoin="round" stroke-miterlimit="10" cx="102.222" cy="242.89" r="0.594"/>
	<path fill="none" stroke="#7AC2E6" stroke-linecap="round" stroke-linejoin="round" stroke-miterlimit="10" d="M107.628,228.983
		H91.91c-0.326,0-0.594,0.267-0.594,0.594s-0.267,0.594-0.594,0.594c-0.326,0-0.594,0.267-0.594,0.594v2.375
		c0,0.327,0.268,0.594,0.594,0.594c0.327,0,0.594,0.267,0.594,0.594v8.312c0,0.327-0.267,0.594-0.594,0.594
		c-0.326,0-0.594,0.267-0.594,0.594v2.375c0,0.327,0.268,0.594,0.594,0.594c0.327,0,0.594,0.267,0.594,0.594
		s0.268,0.594,0.594,0.594h15.719c0.327,0,0.594-0.267,0.594-0.594v-17.812C108.222,229.25,107.955,228.983,107.628,228.983z"/>
	<path fill="none" stroke="#7AC2E6" stroke-linecap="round" stroke-linejoin="round" stroke-miterlimit="10" d="M106.128,245.412
		c0,0.314-0.256,0.571-0.568,0.571H93.697c-0.312,0-0.568-0.257-0.568-0.571v-13.857c0-0.314,0.256-0.571,0.568-0.571h11.863
		c0.312,0,0.568,0.257,0.568,0.571V245.412z"/>
	
		<line fill="none" stroke="#7AC2E6" stroke-linecap="round" stroke-linejoin="round" stroke-miterlimit="10" x1="101.128" y1="235.983" x2="106.128" y2="235.983"/>
	
		<line fill="none" stroke="#7AC2E6" stroke-linecap="round" stroke-linejoin="round" stroke-miterlimit="10" x1="101.128" y1="237.983" x2="106.128" y2="237.983"/>
</g>
<g>
	<path fill="none" stroke="#7AC2E6" stroke-linecap="round" stroke-linejoin="round" stroke-miterlimit="10" d="M220.719,62.624
		c-0.571-0.138-0.854-0.887-0.349-1.418c0.676-0.649,1.127-1.758,1.127-2.861c0-1.709-1.077-2.75-2.406-2.75
		s-2.406,1.041-2.406,2.75c0,1.1,0.447,2.205,1.12,2.855h-0.004c0.516,0.534,0.229,1.292-0.35,1.427
		c-2.237,0.432-3.86,1.668-3.86,2.593c0,1.139,2.462,1.375,5.5,1.375s5.5-0.236,5.5-1.375
		C224.591,64.292,222.962,63.053,220.719,62.624z"/>
	
		<line fill="none" stroke="#7AC2E6" stroke-linecap="round" stroke-linejoin="round" stroke-miterlimit="10" x1="209.591" y1="64.094" x2="209.591" y2="58.094"/>
	
		<line fill="none" stroke="#7AC2E6" stroke-linecap="round" stroke-linejoin="round" stroke-miterlimit="10" x1="211.091" y1="65.594" x2="208.091" y2="65.594"/>
	
		<line fill="none" stroke="#7AC2E6" stroke-linecap="round" stroke-linejoin="round" stroke-miterlimit="10" x1="211.091" y1="56.594" x2="208.091" y2="56.594"/>
	<path fill="none" stroke="#7AC2E6" stroke-linecap="round" stroke-linejoin="round" stroke-miterlimit="10" d="M209.591,67.144v3
		c0,0.275,0.225,0.5,0.5,0.5h16c0.275,0,0.5-0.225,0.5-0.5v-18c0-0.275-0.225-0.5-0.5-0.5h-16c-0.275,0-0.5,0.225-0.5,0.5v3"/>
</g>
<g>
	<g>
		<path fill="none" stroke="#ABE4FF" stroke-linecap="round" stroke-linejoin="round" stroke-dasharray="4,6" d="M169.588,207.295
			c3.287,72.646-9.527,27.594-40.307,21.688c-16.565-3.179,0,35.025-16.785,42.069c-13.843,5.81-32.422-3.297-39.713-16.42
			c-4.498-8.096-3.735-18.077-1.619-27.093c2.117-9.017,5.469-17.856,5.783-27.112c0.314-9.256-3.251-19.443-11.493-23.668
			c-10.124-5.188-22.254,0.423-33.627,0.156c-17.811-0.418-33.219-18.16-31.136-35.854c0.574-4.878,2.333-9.698,5.533-13.425
			c8.658-10.087,24.524-9.326,37.217-5.378c9.38,2.917,20.751,6.722,28.039,0.134c2.46-2.224,3.939-5.315,5.188-8.387
			c2.467-6.069,4.21-13.22,1.053-18.961c-5.02-9.125-17.986-8.556-27.833-11.95C36.28,78.403,27.2,63.301,29.188,49.046
			c1.988-14.255,14.651-26.224,28.972-27.662c14.322-1.438,28.99,7.606,34.379,20.952c2.271,5.624,3.036,11.826,5.838,17.206
			c5.151,9.89,17.463,15.441,28.285,12.753c10.822-2.688,19.106-13.353,19.032-24.504c-0.06-9.067-5.007-17.841-3.674-26.81
			C144.016,7.56,159.448-0.042,173.005,0.53c12.249,0.517,25.287,7.112,28.884,18.833c3.128,10.192-1.5,20.909-4.072,31.256
			c-2.573,10.347-1.819,23.64,7.605,28.625c8.096,4.282,18.085-0.12,25.277-5.79c10.967-8.644,19.209-20.489,24.215-33.525
			c7.129-18.565,39.791-22.845,53.601,5.667c4.144,8.556,3.315,19.636-2.479,27.174c-6.862,8.928-12.171,10.965-22.716,14.916
			c-10.545,3.95-21.506,13.696-18.39,24.517c1.657,5.755,7.167,9.856,13.036,11.048c5.87,1.192,12.001-0.14,17.536-2.428
			c9.733-4.023,12.788-11.144,22.774-7.799c4.85,1.625,8.635,5.58,11.146,10.035c6.14,10.893,5.049,25.432-2.647,35.287
			c-7.695,9.855-21.536,14.438-33.593,11.123c-5.17-1.422-9.936-4.133-15.163-5.321c-5.229-1.188-11.472-0.436-14.721,3.829
			c-3.451,4.528-2.206,11.007-0.185,16.328c2.942,7.744,7.17,14.942,10.233,22.64s4.941,16.236,2.906,24.267
			c-2.036,8.03-8.825,15.26-17.098,15.696c-8.044,0.424-93.664-15.03-91.518,16.283"/>
		<g>
			<circle fill="#ABE4FF" cx="169.57" cy="207.48" r="3.76"/>
		</g>
		<g>
			<polygon fill="#ABE4FF" points="164.77,257.278 165.707,256.927 168.01,263.059 170.187,256.881 171.13,257.213 168.04,265.981 
							"/>
		</g>
	</g>
</g>
<g>
	
		<polygon fill="none" stroke="#F25A58" stroke-width="0.5" stroke-linecap="round" stroke-linejoin="round" stroke-miterlimit="10" points="
		173.04,192.048 169.54,194.048 166.04,192.048 166.04,188.048 169.54,186.048 173.04,188.048 	"/>
	
		<polyline fill="none" stroke="#F25A58" stroke-width="0.5" stroke-linecap="round" stroke-linejoin="round" stroke-miterlimit="10" points="
		163.04,196.896 163.04,193.762 169.54,190.048 176.04,193.762 176.04,196.896 	"/>
	
		<polyline fill="none" stroke="#F25A58" stroke-width="0.5" stroke-linecap="round" stroke-linejoin="round" stroke-miterlimit="10" points="
		176.04,183.048 176.04,186.182 169.54,189.896 163.04,186.182 163.04,183.048 	"/>
	
		<polyline fill="none" stroke="#F25A58" stroke-width="0.5" stroke-linecap="round" stroke-linejoin="round" stroke-miterlimit="10" points="
		167.04,187.333 167.04,184.476 169.54,183.048 172.04,184.476 172.04,187.333 	"/>
	
		<polyline fill="none" stroke="#F25A58" stroke-width="0.5" stroke-linecap="round" stroke-linejoin="round" stroke-miterlimit="10" points="
		171.04,182.048 171.04,183.762 169.54,184.619 168.04,183.762 168.04,182.048 	"/>
	
		<line fill="none" stroke="#F25A58" stroke-width="0.5" stroke-linecap="round" stroke-linejoin="round" stroke-miterlimit="10" x1="166.04" y1="190.048" x2="160.04" y2="190.048"/>
	
		<line fill="none" stroke="#F25A58" stroke-width="0.5" stroke-linecap="round" stroke-linejoin="round" stroke-miterlimit="10" x1="179.04" y1="190.048" x2="173.04" y2="190.048"/>
</g>
<g>
	<circle opacity="0.4" fill="#ABE4FF" cx="169.418" cy="189.434" r="37.584"/>
	<circle fill="none" stroke="#FFFFFF" stroke-width="11" stroke-miterlimit="10" cx="169.418" cy="189.434" r="37.584"/>
	<circle fill="none" stroke="#F25A58" stroke-width="5.8491" stroke-miterlimit="10" cx="169.418" cy="189.434" r="37.584"/>
</g>
<path fill="#F25A58" d="M241.424,249.031l-25.833-25.833c-2.544-2.543-4.607-1.543-6.903,0.542l-10.467-10.468l-4.963,4.963
	l10.467,10.467c-2.084,2.297-3.085,4.36-0.542,6.904l25.833,25.833c1.714,1.713,3.959,2.569,6.204,2.569s4.49-0.856,6.204-2.569
	C244.85,258.013,244.85,252.458,241.424,249.031z"/>
<path fill="none" stroke="#D8444E" stroke-width="5.8491" stroke-miterlimit="10" d="M207.003,189.434
	c0,20.757-16.827,37.584-37.585,37.584c-20.757,0-37.584-16.827-37.584-37.584"/>
</svg>
