<?xml version="1.0" encoding="utf-8"?>
<!-- Generator: Adobe Illustrator 16.0.0, SVG Export Plug-In . SVG Version: 6.00 Build 0)  -->
<!DOCTYPE svg PUBLIC "-//W3C//DTD SVG 1.1//EN" "http://www.w3.org/Graphics/SVG/1.1/DTD/svg11.dtd">
<svg version="1.1" id="Layer_2" xmlns="http://www.w3.org/2000/svg" xmlns:xlink="http://www.w3.org/1999/xlink" x="0px" y="0px"
	 width="385.994px" height="292.974px" viewBox="0 0 385.994 292.974" enable-background="new 0 0 385.994 292.974"
	 xml:space="preserve">
<path fill="#ABE4FF" d="M145.99,126.805l-9.934-4.438l-0.564,0.419l0.063-0.88l-0.101-0.113l-0.023-0.494l0.062-0.069l-0.649-0.017
	l-2.228-1.005l-2.365,1.998l0.345-0.977l-1.687-0.838l-1.886,0.648l2.079-3.893l-1-2.037l-0.716-0.751l-3.81-0.982l-1.37,0.18
	l-1.59-0.913l-1.137-2.112l-2.004-0.232l0.882-0.812l-1.452-0.491l-0.476-0.422l-0.15,0.171l-0.184-0.507l1.103-0.224l-2.58,0.113
	l0.604,0.142l-6.9-1.706l0.458,0.596l-2.088,0.584l0.095-0.021l0.52-1.231l-4.855,2.16l-1.236,2.37l-5.36-1.301l0.121,0.196
	l-2.025-3.275l0.403-2.985l-0.399-0.608l0.19,0.154l-1.09-0.703l0.101,0.047l-4.444-0.131l0.599-3.143l0.191,0.623L90,96.292
	l-4.353,2.99l0.134-0.075l-4.666,0.144l0.15,0.086l-0.373-0.175l0.16,0.049l-2.106-3.544l0.368,0.834l-0.382-6.931l1.06-1.101
	l0.376-0.04l0.437-0.2l-0.238,0.164l1.821-1.217l-0.249,0.188l1.03-0.684l-0.096,0.194l2.81,0.284l0.105,0.284l1.058-0.253
	l0.834,0.64l0.236-0.04l-0.431-0.784l0.169-0.401l-1.08-0.109l3.162-0.294l0.263,0.063l1.148-0.077l-0.352,0.008l0.907,0.131
	l-0.077,0.19l3.127,2.77l0.03,0.24l0.748,0.611l1.118,1.964l-0.215-0.005l1.11-0.681l-0.604-2.854l0.091-0.204l0.161,0.711
	l-1.05-3.803l0.681-1.46l0.166,0.062L97.2,83.83l0.749-0.35l0.753-0.703l0.035,0.19l1.323-1.096l0.026,0.272l0.55-0.94l0.955-0.056
	l-0.59-0.451l0.032-0.447l1.381-0.287l-0.072-0.228l-0.984-0.33l0.541,0.136l-0.045-0.089l0.128,0.054l0.002-0.162l0.35,0.201
	l0.304,0.354l-1.83-1.828l0.526-0.215l0.416-0.031l0.066-0.049l-0.859-0.728l0.818,0.6l0.087-0.211l-0.82-1.278l0.15,0.735
	l0.023-0.121l0.562,0.373L101.42,76.5l0.302,0.298l-0.175-0.857l0.244-0.419l0.057,0.101l0.032-0.144l0.034,0.073l0.274-0.254
	l-0.013,0.1l0.104-0.007l-0.139,0.123l0.136,0.043l-0.364,0.387L102,75.87l-0.211,0.265l-0.012,0.245l0.362,0.133l0.037,0.381
	l0.116-0.086l-0.081,1.478l0.917-1.482l-0.12-0.277l0.12-1.723l0.128,1.28l0.949-1.292l-0.017,0.254l0.118-1.828l-0.018,0.626
	l2.768-1.315l0.258,0.063l1.015-0.367l-0.907-0.376l1.152-1.953l-0.009,0.087l0.176,0.02l0.014-0.178l0.152-0.108l0.102,0.015
	l0.847-0.763l0.056,0.167l-0.108,0.134l4.457-2.101l0.339,0.146l-0.46,0.672l1.47-0.054l-0.818,0.448l-0.333-0.412l-1.365,0.836
	l0.241-0.083l-0.686,0.422l0.296-0.173l0.558,1.319l1.326-1.212l2.815-1.146l-2.767-0.86l0.239-0.114l-1.585-1.319l0.656-0.835
	l-0.366-0.091l0.047-0.072l-1.815-0.236l2.336-1.108l0.324,0.047l-11.196,5.062l3.935-4.588l2.983-0.943l-0.065-0.064l13.083-4.45
	l-0.333-0.213l-1.709-2.238l-2.63,0.651l3.189-1.332l-2.595-0.355l0.426-0.531l-1.257,0.169l0.059-0.984l-0.788-0.475l-0.133-0.468
	l-0.623-0.14l-0.52-0.522l0.215-0.047l0.985,0.229l-2.016-2.023l0.138-0.608l-0.431,0.125l0.335-1.125l-0.798,0.005l0.208-0.348
	l-0.479-0.727l-0.578-0.427l-0.278,0.381l-0.01,0.6l-0.398,0.114l-0.452,0.707l-1.965,1.339l-0.083-0.634l-0.328,0.409l-1.042,0.362
	l-1.187-1.32l-0.533-1.979l1.227-1.614l-2.925-0.905l-0.56-0.386l-3.096-0.667l-1.961,1.127l-0.711,1.186l0.631,0.017l0.256,1.946
	l-2.52,7.423l1.349,3.467l-0.485,1.494l-0.475,0.611l-1.603-0.506l-4.813-5.663l-7.472-2.822l-2.09-2.015l-0.667-1.193l0.209-2.249
	l1.659-3.013l0.723,0.321l0.631-0.695l-0.482-0.344l-0.082-1.253l-1.313-0.995l3.762,0.284l0.094-0.251l2.341-0.461l-3.366-2.457
	l1.273-0.074l-0.103-0.107l3.409-0.847l0.01-0.166l3.134,0.479l-1.403-1.179l0.897,0.12l2.476-3.746l0.672-0.426l-4.493-1.3
	l0.71,1.977l-1.779,2.287l-1.901-1.174l-2.01-0.167l-0.875-1.949l0.65-0.264l-1.093-0.129l0.308-0.208l-1.852-0.059l0.972-0.697
	l-0.571-0.124l0.204-0.25l0.799,0.142l-4.585-2.714l0.497,0.159l-0.512,1.541l0.008,0.277l2.61,2.215l-1.232,1.111l1.212,0.288
	l-2.758,3.038l0.266,0.568l-0.678-0.771l1.07,0.068l0.003-0.253l-0.591-1.972l-1.944-0.252l-0.753,0.465l1.434,0.735l-1.635-0.615
	l0.295,0.47l-10.988-0.89l3.139-0.575l-2.159,1.048l0.684,2.074l-0.109,0.853l-1.318-1.228l-7.399-1.455l1.567-0.904l-11.204-1.848
	l-0.552-1.176l0.236,0.068l-3.433-0.707l0.324,0.195l-1.461,1.056l0.183-0.494l-2.225,1.413l-0.377-0.283l-1.934,1.138l3.838-2.476
	l-4.943,1.54l-0.25-0.801l-1.245,1.22l0.368,0.614l-17.822-3.291l0.188-0.206l-0.496-0.479l-4.173-0.226l-0.265-0.907l-3.931,1.469
	l0.741,0.211l-0.511,0.468l-0.244-0.104l-0.012-0.265l0.153-0.183l-2.25,0.773l0.334-0.182l-1.541,1.628l-3.203,0.941l-0.468,0.939
	l0.109-0.093l-0.257,0.118l6.989,3.477l-2.533-0.837l1.677,1.245l-3.199-0.047l0.149-0.633l0.272,0.002l-4.576,1.448l1.928,0.843
	l-0.861,0.178l5.797,1.236l-3.521,3.026l0.217-0.142l-1.3,1.656l0.726,0.813l-0.051,0.364l1.695,0.101l-0.342,0.078l-0.497,0.418
	l-1.047,0.081l2.846,0.433l0.787-0.661l0.321,2.481l-0.533,0.723l3.406,0.37l0.15-0.881l2.132-0.249l-0.696,2.504l-1.553,0.944
	l-1.441,1.571l-0.969-0.271l-2.3,1.735l2.275-1.037l1.645-0.122l1.475-0.847l0.21-0.533l5.066-3.557l-0.907-0.422l0.542-0.75
	l0.489-0.327l0.192-0.706l3.947-1.934l0.275,0.984l-2.928,1.846l0.821-0.08l-0.979,0.762l3.544-1.896l0.948-1.167l1.563,0.171
	l-0.114,0.483l-0.19,0.13l0.956,0.124l-0.24,0.276l1.288-0.304l3.501,1.215l2.58,0.106l-0.318,0.352l-0.546,0.102l3.534,1.444
	l-0.613-0.396l0.97-0.271l0.345,0.233l0.785,1.007l-0.439-1.479l0.109-0.01l-0.09-0.157l0.129-0.173l2.314,2.383l0.082,0.475
	l1.67,2.048l-0.717,0.723l0.111,0.224l1.159-0.77l1.074,0.297l-0.025,1.227l0.27-0.739l0.25,0.143l-0.07,1.804l1.167,0.54
	l0.643,0.84l-1.042-0.408l0.91,0.93l-0.232,0.78l0.181,0.812l1.166-1.495l0.314,1.11l-1.081,0.095l1.105,0.408l0.186,0.906
	l0.661,0.519l-0.586,0.134l0.968-0.085l0.725-0.312l0.975,0.956l0.387,0.692l0.75,0.387l-0.158,3.054l0.375-0.633l-0.257,0.261
	l0.147-0.967l-2.06-0.327l0.608,1.913l0.317-0.011l-0.111,0.705l-0.104-0.229l-0.032,0.432l0.91,0.167l-1.139,3.574l0.097-0.018
	l0.007,3.365l-0.067,0.04l1.468,3.243l-0.108-0.127l-0.022,0.292l1.571-0.083l-0.581,0.706l8.532,11.535l-1.032-0.19l2.005,1.02
	l3.359,4.552l-1.909-4.477l0.077,0.358l-3.423-6.141l11.227,14.455l4.951,2.741l6.142,0.604l5.883,3.043l-0.215-0.09l1.276-0.077
	l0.16,0.433l-0.353-0.017l5.107,5.227l3.059,0.605l0.278-1.164l1.76,0.105l0.362,0.387l-0.705,0.077l1.011,1.884l-0.05,2.195
	l0.119-0.038l0.054,0.321l0.3,0.033l-3.418,4.79l0.294,1.83l0.175-0.301l-0.624,3.775l2.24,5.452l7.908,8.646l-3.013,26.75
	l1.511-0.308l-0.12,1.185l-0.215,0.097l-0.321,3.801l-1.078,1.478l0.223-1.004l-0.701,0.535l0.605-1.015l-1.172,0.938l-0.54,1.028
	l0.476-0.561l0.907,1.438l-0.556,0.148l1.002-0.063l0.353,0.703l-1.278-0.24l0.613,0.643l-0.226,1.397l0.41,0.149l-0.845,0.805
	l0.724,0.438l0.315-0.024l-1.535,0.261l1.242,1.31l1.436,0.168l-0.656-0.364l0.555,1.278l-1.726-0.377l0.693,1.021l2.275-0.33
	l-1.643,0.912l0.537,0.311l1.487-0.88l-0.786,0.971l-0.556-0.249l4.286-1.487l-1.143-1.02l0.519-2.201l2.937-2.963l-0.383-3.505
	l2.416-2.863l-0.525-0.429l0.595-0.487l-0.639-1.813l2.852-1.786l0.134-0.009l5.69-3.651l-1.582-4.665l4.09,2.676l3.206-4.774
	l0.081,0.088l-0.015-0.831l0.783,0.254l-1.574,2.167l3.583-7.172l-0.057-0.571l0.582-0.065l-0.06,0.105l0.271-0.414l4.598-2.265
	l-0.317,0.052l0.947-0.372l2.966-2.325l1.426-7.2l-0.044,0.105l-0.086-0.552l0.253-0.857l1.632-1.687l-0.037,0.202l1.562-1.833
	L145.99,126.805L145.99,126.805z M99.891,71.25l-4.381,1.707l-0.453-0.364l0.852-1.198l0.23,0.24l-0.714,0.542L99.891,71.25
	L99.891,71.25z M99.068,70.413l2.205-0.715l0.737,0.055l-0.182,0.028l0.19-0.202l-0.763,0.02l1.899-0.519l-0.3,0.63l-0.17,0.134
	L99.068,70.413L99.068,70.413z M85.925,66.051l3.961-2.731l-0.218,0.508l0.329-0.732l3.583,1.402l3.407,2.627l1.265,0.465
	l0.775,0.981l0.019,0.139l-2.142-0.593l-0.751,2.854l-1.025-1.155l-0.079-0.45l0.194-1.017l-1.798-0.945l-0.6,1.302l-0.077-0.041
	l0.061-0.526l-1.95,4.562l0.07-4.033l-0.078-0.084l-0.633,0.383l1.095-1.761l0.379,0.387l2.874-0.472l-1.127-1.046l-3.676-0.041
	l-0.212-0.574l-2.399,0.837l0.087-0.478L85.925,66.051L85.925,66.051z M124.049,59.532l-1.84,1.322l-0.854,1.908l-0.012,0.33
	l-0.883,0.327l3.158,1.254l-0.288,0.424l1.432-0.217l-1.251,0.947l1.583-0.789l-0.094,0.23l0.611-0.51l-0.197,1.17l1.559-1.156
	l-0.438,0.389l0.215-0.93l-1.011,0.171l0.791-0.829l-1.052,0.324l-0.377-1.548l-0.943,0.616l-0.024-0.562l-0.759,0.052l-0.079-0.67
	l-0.706,0.45L124.049,59.532L124.049,59.532z M103.964,167.908l0.873-0.783l-0.604-0.853L103.964,167.908L103.964,167.908z
	 M103.741,170.061l0.693,0.774l0.155-1.39l-0.21-0.18l-0.764,0.665L103.741,170.061L103.741,170.061z M50.557,63.734l0.938-0.09
	l-5.123-3.038l0.891,0.294l-0.023,0.247l-0.401,0.382l1.844,0.627l0.326,0.794l1.083-0.165L50.557,63.734L50.557,63.734z
	 M39.619,51.979l-1.256-0.373l1.028,1.031L39.619,51.979L39.619,51.979z M38.571,50.894l0.297-0.439l-0.378-0.413l-0.48-0.092
	l-0.19-0.185L38.571,50.894L38.571,50.894z M40.788,53.12l-0.109,0.373l1.726,1.505l-0.65-1.097l0.489-0.011L40.788,53.12
	L40.788,53.12z M113.476,183.662l-3.062-2.241l-2.282-0.472l1.092,0.951l0.333,1.434l-0.286,0.24l-1.405-0.822l-0.07-0.403
	l0.411,1.162h-1.725L113.476,183.662L113.476,183.662z M106.078,182.345l-0.845-0.308l-0.796,0.049l1.153,0.461L106.078,182.345
	L106.078,182.345z M110.574,184.906l-1.913-0.879l-0.111,0.366l0.861,0.507L110.574,184.906L110.574,184.906z M106.66,183.076
	l0.788-0.171l-1.039-0.327L106.66,183.076L106.66,183.076z M165.123,40.74l2.716-1.531l0.672-0.767l-1.451-1.579l0.555-0.49
	l-3.947,0.394l0.165,0.739l-1.407-0.066l-0.886-0.544l-0.893,1.42l-0.563-0.791l0.151-0.424l-1.463-0.83l0.432,0.307l-0.141,0.697
	l-0.873-0.273l-0.097,0.251l0.256,0.227l-0.609,0.367l2.146,0.158l-0.708,0.432l0.794,0.04l-2.413,0.532l2.598,0.405l-0.494,0.531
	l0.63-0.111l-1.32,0.501l0.052,0.431l1.661-0.18l3.062,0.773L165.123,40.74L165.123,40.74z M157.272,30.834l-0.001-0.273
	l2.228-0.983l-5.781,0.15l1.195-0.699l-2.733-0.092l2.036-2.232l5.039,1.439l0.021-0.751l0.489-0.967l-5.01-1.923l4.654,1.187
	l-5.619-2.037l0.965-0.109l-0.653-0.496l2.657-0.211l-0.792-0.638l5.345,0.733l-1.572-2.218l1.007-0.182l-1.273-0.98l-0.401-3.422
	l2.056-2.04l1.476,0.077l-2.433-0.149l6.021-6.433l-0.884-0.436l5.689-2.251l-9.678-1.219L151.31,3.44l8.922-1.396l-11.209-1.016
	l6.65-0.735L141.861,0l0.869,0.559l-9.11,0.552l5.461,0.647l-10.271,0.638l1.545,1.393l-3.712-1.036l-0.568,1.708l-6.091-0.835
	l2.828,1.567l-6.838,1.178l-1.227,1.931l-6.178,3.133l-0.117,2.175l3.936,1.242l-4.633,0.782l1.109-0.134l1.685,0.749l-1.461,0.552
	l14.105,3.999l-1.04,0.835l1.666,2.281l0.093,1.655l0.79-0.398l0.876,1.423l0.392-1.39l0.226,1.544l1.781-0.181l-1.436,0.699
	l1.432,0.585l1.185,1.136l-4.125-0.538l4.519,1.302l-0.836,1.508l0.832,0.072l-1.015,0.796l0.471-0.142l-2.746,0.954l2.317-0.224
	l-2.692,1.579l3.038-0.423l0.292,0.461l-3.2,2.437l2.548-1.282l-2.311,1.467l2.455,0.519l-0.888,2.628l0.836-0.964l-0.087,0.269
	l0.278-0.981l1.014,1.289l-0.88-0.19l-0.932,0.601l1.356-0.184l0.188,0.167l-1.373,0.351l1.871,1.607l0.255,1.337l0.773,0.249
	l1.128,1.75l0.043,0.429l-0.071-0.158l2.054-0.625l1.202,0.902l-0.666,0.45l-0.013,0.27l1.231-0.112l0.169,0.551l0.436,0.104
	l-0.318-0.263l0.016-0.86l1.445-1.848l-0.38-1.64l0.818-0.809l1.163-3.198l1.606-0.413l1.127-1.161l0.818-0.441l-0.431-0.218
	l0.216,1.313l1.521-0.65l0.158,0.308l0.546-1.068l3.774-3.582l1.714,0.34L157.272,30.834L157.272,30.834z M111.527,100.196
	l1.177-0.518l0.027,0.044L111.527,100.196L111.527,100.196z M101.426,100.269l-1.766-0.46l1.195,0.692l0.487-0.272l-0.028,0.027
	L101.426,100.269L101.426,100.269z M103.083,98.109l1.043-0.364l-3.443-1.522l0.236-0.035l-4.39-1.679l-3.457,1.532l2.586-0.678
	l1.698,0.294l2.953,2.501l2.734-0.167L103.083,98.109L103.083,98.109z M109.937,99.957l-0.998-1.035l0.417-0.122l-4.484-0.493
	l1.164,1.202l-2.273,0.189l3.241,0.888L109.937,99.957L109.937,99.957z M177.146,51.116l-0.08,0.727l0.578,0.143l-0.458,2.125
	l0.663-1.338l0.209,0.111l0.231,0.328l-0.349,1.841l2-0.386l0.305,2.384l-1.442,0.565l0.13,0.533l-1.367,0.936l1.25,0.311
	l-0.154,0.127l1.92-0.241l-3.436,2.318l4.608-1.031l-0.089-0.105l3.02-0.652l-1.056-0.144l0.35-0.371l-1.506-2.842l0.827,0.166
	l-0.213-0.735l-3.95-2.907l0.511-0.4l-0.879-1.833l1.153-1.621l-2.244,1.158l-0.453,0.51L177.146,51.116L177.146,51.116z
	 M175.988,49.607l-0.364,0.779l0.564-0.427L175.988,49.607L175.988,49.607z M97.552,40.873l-0.39-0.235l-1.316-0.219l-3.543-2.588
	l-2.08,3.321L97.552,40.873L97.552,40.873z M172.562,58.722l0.049,0.02l0.332,0.351l-0.557,0.386l0.635-0.114l-0.331,0.278
	l3.06-1.081l0.683,0.004l-0.147-0.14l0.261-2.5l0.705-0.411l-0.12-0.26l0.199,0.157l-2.006-1.346l0.068,0.09l-0.38,0.482
	l-0.098-0.314l-1.081,0.74l0.673,0.059l-2.09,0.707l0.169,0.116l0.083-0.029l-0.062,0.336l0.206,0.374l-0.08,0.302l-0.086,0.075
	l1.009,0.195l-1.052,0.91l1.208-0.157l-1.197,0.392l0.143,0.219L172.562,58.722L172.562,58.722z M85.834,4.67l1.568-0.162
	l-0.839,0.518l3.211-0.242l-1.718,0.692l4.55-0.091L87.998,6.31l6.371-0.579l-3.547,1.28l4.684-0.35l-0.707,0.478l6.397-2.115
	l-1.952,1.194l1.989,0.182L94.69,7.762l3.052,1.573l-3.68,1.457l-1.058-0.042l3.005,0.224l-6.186,1.85l1.739-0.382l-0.317,0.601
	l1.53-1.026l-0.136,0.663l2.468,0.566l-7.438,3.352l1.092,0.156l0.054-0.774l1.073,0.412l5.289-0.302l0.494-1.244l0.435-0.543
	L103,12.478l-1.303-0.424l2.115-0.492l-4.423-0.82l4.372-0.363l-2.578-0.669l3.943-0.2l-1.555-0.57l3.523-0.184l-0.754-0.468
	l7.766-3.42l-4.202,0.581l8.012-2.744l-7.744-0.811l2.182-0.716l-5.333-0.249l0.516,0.313l-1.833,0.475l-4.761-0.754l1.662,1.048
	l-4.894-0.792l1.5,0.606l-3.126,0.419l2.406,1.708l-3.543-0.875l0.417,0.335l-4.542-0.392l1.675,0.605L85.834,4.67L85.834,4.67z
	 M105.786,26.697l-0.64,0.63l-1.084-0.236l-0.6,0.128l0.063-0.658l-0.538-0.065l1.062-0.529l-1.826,0.514l-2.961-1.251l0.121,0.931
	l-1.385-0.585l-0.861,0.146l-5.079-2.001l1.277,0.621l-0.391,0.839l0.361,0.657l-1.735,0.114l0.969,1.658l-1.692,0.245l1.67-0.664
	l0.082-4.725l-2.339,5.386l-2.469-0.097l9.187,2.458l-0.865-0.609l2.396-0.581l0.361-0.387l2.066,1.8l0.954-0.017l0.626,0.839
	l-1,0.95l1.993-0.64l0.686,0.61l0.236,0.025l0.321,5.735l-2.397,0.324l0.465,0.564l-0.096,0.219l0.572,0.085l0.25-0.067l1.504,0.424
	l2.016,1.69l-0.652,0.274l6.329,2.388l-2.989-2.95l1.03,0.031l2.97,1.84l0.453-0.455l-0.542-1.436l0.562,0.866l0.27-0.77
	l-1.261-1.019l0.068-0.329l-1.246-0.529l-2.187-2.398l1.669,0.29l-0.747-0.759l0.926-0.273l1.448,0.734l1.292-0.197l-0.117,2.086
	l0.304-0.49l0.707,0.812l0.158-1.597l1.564-0.318l-0.6-0.651l0.458-0.417l0.821-0.082l-2.504-0.235l0.706-0.734l-1.77-0.207
	l0.738,0.006l0.167-0.393l-1.05-0.766l-0.603,0.57l-1.057-0.284l0.191-0.813l-0.503,0.457l-0.032-0.759l-2.803-0.779l1.557,0.158
	l0.142-0.276l-1.375-0.304l2.518-0.173l-2.742-0.598l0.258-0.877l-1.118-0.121l1.812-0.912l-3.275,0.751l-1.284-1.341l1.543-0.864
	L105.786,26.697L105.786,26.697z M194.645,9.286l1.417,1.003l0.342,0.738l-1.107,0.007l3.489,1.244l0.796-0.826l1.491,0.25
	l0.416,0.57l-3.055,0.945l2.907,0.471l-3.207,0.571l7.852-2.735l-0.948-0.562l0.284-0.182l-3.303-0.77l-1.414,0.964l-4.04-1.4
	l1.457-0.459l-0.007-0.132L194.645,9.286L194.645,9.286z M280.888,7.89l6.163-0.13l0.47-0.916l-4.898-0.229L280.888,7.89
	L280.888,7.89z M287.233,8.136l-4.815,1.613l7.313,1.258l-0.946-0.779l-1.092-1.74L287.233,8.136L287.233,8.136z M329.265,19.308
	l6.527,0.561l-1.11-1.47l3.491,0.279l-8.161-0.491L329.265,19.308L329.265,19.308z M290.086,11.776l-1.04,1.365l6.456-1.277
	l-3.124-0.562l0.731-1.088l-0.903,0.102L290.086,11.776L290.086,11.776z M202.737,8.399l2.604,0.747l-1.184,0.375l3.403,0.426
	l4.427-1.708l-4.161-0.149l-0.881,0.333l-2.853-1.003l-0.082,0.728l-1.728,0.048L202.737,8.399L202.737,8.399z M209.73,13.781
	l-1.545-0.895l-3.438-0.755l0.354,0.135l1.166,1.136l-0.774,1.048l1.599,0.322L209.73,13.781L209.73,13.781z M252.697,16.581
	l-9.892,2.869l0.616,0.447l-0.386,0.967l-2.531,1.509l3.763-0.099l3.146-2.406l7.342-2.434L252.697,16.581L252.697,16.581z
	 M238.179,25.784l1.951,1.062l0.224,0.384l0.569,0.401l-0.319,0.107l-0.504,0.38l4.522,0.278l-1.274-4.871l-3.264,0.575
	L238.179,25.784L238.179,25.784z M9.229,55.003l-1.887,0.261l0.086,0.183l1.855-0.365L9.229,55.003L9.229,55.003z M6.499,46.547
	l-1.856,0.119L6.499,46.547L6.499,46.547z M3.23,41.789l-3.184-0.817L0,41.438L3.23,41.789L3.23,41.789z M4.226,56.766L2.88,57.734
	L4.226,56.766L4.226,56.766z M5.764,56.459l-0.175,0.028l0.339-0.335l-1.682,0.878l1.599-0.538L5.764,56.459L5.764,56.459z
	 M20.663,50.641l-0.869-0.476L19.3,50.649l0.003,0.51l-0.739,0.315l0.296,0.114l0.396-0.047L20.663,50.641L20.663,50.641z
	 M75.552,30.318l-7.465-6.825l0.672,2.639l-3.577-2.217l0.485,0.696l-1.802,0.608l0.667-0.713l-3.467,0.242l-3.435,1.844
	l2.601,0.324l-3.278,1.019l7.192,1.26l-4.766,1.828l12.527,0.758l1.314-0.511l-0.334-0.864L75.552,30.318L75.552,30.318z
	 M73.845,17.243l-1.349,0.346l-0.197,0.225l1.006,0.032l-0.291,0.333L73.845,17.243L73.845,17.243z M80.449,19.845L80.449,19.845
	L80.449,19.845L80.449,19.845z M102.282,32.87L102.282,32.87L102.282,32.87L102.282,32.87z M80.133,25.248l-1.901-1.197l1.271-0.972
	l-0.41-0.122l0.658-0.396l-3.444-0.439l0.336,0.087l-1.12,0.114l0.471,0.7l-1.063-0.114l1.806,0.592l-0.324,0.621l1.925,2.095
	l1.622-0.928L80.133,25.248L80.133,25.248z M80.618,31.171l-2.415-0.412l-1.182,0.792l4.574,0.421L80.618,31.171L80.618,31.171z
	 M85.879,23.317l0.955-1.153l-4.631,0.42l0.518,1.836L85.879,23.317L85.879,23.317z M49.075,26.002l6.396-0.559l4.666-2.529
	l-3.972-1.054l-0.474-0.448l-5.474-0.24L49.075,26.002L49.075,26.002z M65.673,13.445l-3.196,0.782L65.673,13.445L65.673,13.445z
	 M82.258,8.425l-2.268-0.21l2.528,0.96l-1.419,0.757l4.728,0.108l-3.053,0.891l2.448,1.051l-1.046,0.191l3.582,0.662l-0.583-1.002
	l2.129,0.261l0.225-1.282l-0.035,0.791l3.006-1.354l-2.402-0.701l-0.669-1.241l-0.296-0.034l-6.419-2.998l1.05,0.438l-2.43,0.786
	l1.692,0.686l-2.351-0.324l0.622,0.793l1.372,0.417L82.258,8.425L82.258,8.425z M76.488,8.788l1.298,0.386L76.488,8.788
	L76.488,8.788z M78.58,11.88l0.038,0.066l1.19,0.936l-0.761,0.141l2.483-0.308L78.58,11.88L78.58,11.88z M77.59,16.328l0.142,0.327
	L75.6,16.633l0.973,0.357l-0.405,0.09l0.871,0.272l-0.17,0.443L74.27,17.05l0.619,0.107l0.134,0.53l0.489,0.417l-1.946,0.427
	l3.842-0.213l-1.618,0.626l-0.021,0.127l3.26,0.466l0.36-0.623L77.59,16.328L77.59,16.328z M80.828,14.396l3.048-0.396
	L80.828,14.396L80.828,14.396z M87.377,20.755l1.447-0.587l1.942,0.711l-0.068-0.142l7.814-0.757l-1.046-0.246l0.103-0.969
	l-9.98-0.16l-1.878-1.415l2.333-0.083l-2.372-0.525l0.96,0.006l-3.19,0.104l-3.496-1.025l0.439,0.256l-0.529,0.096l5.118,2.235
	l1.299,1.934L87.377,20.755L87.377,20.755z M52.426,17.305l3.306-0.375l1.818-1.019l2.141-0.298l-0.553-0.44l0.916-0.383
	l-1.315-0.159l-6.61,2.747L52.426,17.305L52.426,17.305z M60.972,13.752l1.055-0.101l-1.504-0.349L60.972,13.752L60.972,13.752z
	 M61.704,17.171l-2.029-0.22l0.004,0.131l1.113,0.212l-2,0.527l1.773,0.071l-2.316,0.541l2.177-0.131l-2.643,0.928l7.001,0.096
	l-3.564,1.172l5.999-0.675l1.959-1.464l-1.181-0.27l-0.411-0.606l-1.561,0.338L61.704,17.171L61.704,17.171z M62.504,12.578
	L62.504,12.578L62.504,12.578L62.504,12.578z M70.646,10.841l0.603,0.475l1.155-0.209l0.55,0.425l-1.731,0.504l2.415,0.34
	l0.165-1.178l-0.165-0.21L70.646,10.841L70.646,10.841z M373.361,161.084l-2.379-0.04l-0.713-1.35l-0.606,0.525l-0.534-1.372
	l0.203,0.014l-0.209-0.502l0.009,0.001l-1.008-0.627l-0.175,0.161l-0.256-0.656l-0.36,0.03l0.981,1.033l0.6,1.414l0.789,0.717
	l-0.207,0.159l0.207,0.719l-0.834,1.651l0.521,2.671l1.755-0.773l1.735-1.785L373.361,161.084L373.361,161.084z M368.859,165.582
	l-0.106-0.009l0.281-0.279l-0.538,0.318l0.219-0.445l-1.13-0.501l-1.089,1.059l-0.97,1.934l-0.046-0.214l-0.249,0.399l-0.132,0.079
	l-0.328,0.02l0.098,0.097l-0.572,0.312l0.053,0.026l-0.08,0.117l-2.524,1.84l-0.06-0.168l-0.161,0.33l-0.031,0.272l-0.08,0.158
	l-0.25-0.005l0.075,0.164l0.013,0.236l-0.304,0.233l-0.072,0.2l0.284-0.112l2.463,0.66l1.889-2.03l0.258-0.842l0.848-0.727
	l0.585,0.092l-0.114,0.078l0.054-0.476l1.965-3L368.859,165.582L368.859,165.582z M315.499,108.74L315.499,108.74L315.499,108.74
	L315.499,108.74z M313.718,108.917l0.817,0.861l0.34-1.957L313.718,108.917L313.718,108.917z M312.751,106.043l-1.258-0.889
	l1.125,1.193L312.751,106.043L312.751,106.043z M310.608,120.356l0.983,4.952l0.598-3.089l1.843,1.767l-1.454-2.604l2.216-1.162
	l-3.622-0.728l5.542-1.68l-0.131-0.194l-5.616,2.691L310.608,120.356L310.608,120.356z M313.294,106.781l-0.079,1.552l1.003-1.067
	L313.294,106.781L313.294,106.781z M315.725,107.219l0.767,1.552l-0.042-0.357l0.166,0.191L315.725,107.219L315.725,107.219z
	 M314.927,106.192l-0.344-0.148l-0.085,0.704l0.947,0.187L314.927,106.192L314.927,106.192z M341.351,166.673l-1.591-1.192
	l-2.271-0.622l0.552,1.922l0.102-0.063l0.146,0.439l-0.287-0.332l1.096,1.437l0.821-0.257l0.321-0.467l0.164,0.31l0.356,0.239
	l0.169-0.048l0.286-1.546L341.351,166.673L341.351,166.673z M346.933,150.022l-11.856-19.274l-0.527,1.44l-0.097-0.084l0.053,0.887
	l-4.686,3.626l-0.67-4.226l-0.381-0.307l-0.299,0.51l-0.36-0.652l-4.382-0.593l0.961,0.912l-0.321,0.184l-1.195-0.244l-1.767,3.303
	l-1.669,0.205l-2.148-1.458l-1.652,2.153l0.153-0.181l0.132,0.647l-1.199-0.242l-0.09,1.456l-0.632-1.178l-9.414,6.629l-0.018-0.726
	l-0.037,5.108l-0.682-0.897l0.427,0.829l-0.528-0.285l-0.183,0.115l2.336,5.068l-0.406,3.404l5.206,0.948l14.396-2.928l1.86,3.251
	l0.904,0.473l1.933-2.85l-0.959,3.158l1.285-1.276l0.102,1.724l1.179-0.002l-0.343-0.036l6.074,3.19l-0.287-0.09l2.138,1.241
	l-0.194-0.517l4.1-2.656l1.245-3.021l-0.113-0.029L346.933,150.022L346.933,150.022z M306.551,128.296l-1.31-0.306l0.656,0.754
	L306.551,128.296L306.551,128.296z M219.925,80.166l0.099-0.082l-2.405,0.694l1.866,0.113L219.925,80.166L219.925,80.166z
	 M195.201,53.511l0.627,1.42l0.003-1.763L195.201,53.511L195.201,53.511z M195.532,55.092L195.532,55.092L195.532,55.092
	L195.532,55.092z M193.659,54.513L193.659,54.513L193.659,54.513L193.659,54.513z M197.823,77.267l-1.066-0.244l0.978,1.233
	l1.558,0.59l0.557-1.926L197.823,77.267L197.823,77.267z M191.901,73.816l0.125,1l0.808,0.907l0.564-1.131l-0.065-0.975
	L191.901,73.816L191.901,73.816z M193.081,71.383l-0.397,0.08l-0.255,0.443l0.086,0.528l0.458,0.609L193.081,71.383L193.081,71.383z
	 M295.474,121.364l1.604,0.753l-1.193-0.889L295.474,121.364L295.474,121.364z M299.436,118.127l0.956,3.07l1.036,1.274l3.674,0.346
	l0.193,0.149l1.846-0.265l-0.097-0.202l0.224-0.376l-0.073,0.027l-0.034-0.866l1.744-3.044l1.145,0.123l-1.274-1.104l-0.097-0.909
	l-0.138-0.043l-0.548-0.733l0.483-0.115l1.148-0.719l-0.347-0.612l1.054-0.223l0.007-0.176l-1.871-0.551l-0.76-0.764l-5.935,5.511
	l-1.353-0.459l-1.005,0.625l0.128-0.014L299.436,118.127L299.436,118.127z M303.81,128.17l1.547,0.512l-3.469-2.131l-3.529-0.753
	l-2.522,0.441l2.537,1.308L303.81,128.17L303.81,128.17z M299.469,98.425l1.627-0.398l-1.504,0.229l0.105,0.008L299.469,98.425
	L299.469,98.425z M315.711,106.059l1.536,1.626L315.711,106.059L315.711,106.059z M321.379,82.937l0.406,0.581l-0.333-0.246
	l0.096,0.576l0.777-0.102l0.152,0.045l-0.47,1.554l0.414,0.132l0.07-0.63l0.033,0.82l1.292-2.624L321.379,82.937L321.379,82.937z
	 M324.912,80.354l-2.138,1.833l1.31,0.163l4.966-1.444l0.274,0.559l3.181-1.258l-0.214,0.86l1.098-0.97l0.62-6.99l-0.698,0.335
	l-0.442-0.114l-3.266,4.593L324.912,80.354L324.912,80.354z M311.223,94.539l0.256,0.745l-0.011-0.006l0.584,0.571L311.223,94.539
	L311.223,94.539z M311.116,102.129l0.639,1.443l0.057,1.161l2.093,0.656l-0.12-0.792l1.766,0.962l-0.381-0.081l0.077-0.74
	l-0.806,0.053l-0.939-5.148L311.116,102.129L311.116,102.129z M270.434,111.542l-1.496-2.183l-0.366-0.103l-0.358,1.366
	L270.434,111.542L270.434,111.542z M236.826,135.286l-1.119-3.072L234.322,135l-0.561,0.034l-0.403,0.813l-2.771,1.98l-1.135,3.805
	l0.281,3.573l2.645,1.298l2.27-3.866l1.571-6.798l0.497,0.552L236.826,135.286L236.826,135.286z M295.461,125.287l-0.695-3.147
	l-4.014-4.798l-6.035-3.825l7.096,9.416L295.461,125.287L295.461,125.287z M323.962,82.94l0.72,0.517l-0.071,0.165l1.642-0.572
	l0.595-0.678l-1.212-0.502L323.962,82.94L323.962,82.94z M343.799,130.353l0.227-0.109l-4.153-3.618l0.951-0.181l-6.834-4.155
	l-3.26-0.44l-3.771,0.624l-4.103-1.568l3.119,0.715l-0.139,0.203l-0.097,0.349l-1.843,0.173l1.649,0.659l0.345-0.377l4.796,2.773
	l0.559,1.254l0.335,0.352l0.076,0.841l0.925-0.063l1.811,1.256l0.418-0.967l1.794-0.189l-0.052-0.081l0.108,0.003l-0.307-0.514
	l2.484,0.808l3.105,2.175L343.799,130.353L343.799,130.353z M334.38,58.218l0.291,9.078l1.445-0.147l1.367-3.493l-2.535-7.917
	L334.38,58.218L334.38,58.218z M332.808,71.253l-0.259,1.819l1.136-0.47l-0.891-0.671l5.883-1.344l-0.494-1.215l-3.963-1.33
	L332.808,71.253L332.808,71.253z M313.463,128.641l0.61-0.579l0.17,0.038l-3.245,0.21L313.463,128.641L313.463,128.641z
	 M309.963,128.611l-0.203-0.306l-1.021-0.282l0.511,0.471l-1.542,0.44L309.963,128.611L309.963,128.611z M316.899,129.22
	l2.014-0.905l-3.937,1.966L316.899,129.22L316.899,129.22z M310.076,129.588l1.914,0.521L310.076,129.588L310.076,129.588z
	 M321.746,122.981l0.909,0.493l-3.122-0.672l0.025,0.29L321.746,122.981L321.746,122.981z M385.994,36.9l-0.882-0.186l-2.562-1.442
	l-0.361,0.379l0.201-0.388l-1.484-0.039l0.518,1.522l-1.396-1.999l-3.197-2.19l0.339,0.551l-0.743-0.725l0.228,0.138l-11.687-2.854
	l-0.348,0.906l-9.921,2.017l-1.203-3.954L345,27.998l0.352-0.078l-2.127-0.394l-1.253-0.951l0.045-0.094l1.121-0.262l-5.359,0.28
	l0.078-0.339l1.245-0.417l-0.24,0.379l0.881-0.692l-2.84,0.073l2.202-0.181l-5.496-0.473l-2.067,0.512l0.037,0.329l1.079-0.055
	l-0.885,0.474l0.667,0.901l-2.281,0.515l-5.535-1.365l-3.404,0.366l-0.361-0.42l-1.489-0.911l1.661,0.637l-0.922-0.879l0.192-0.722
	l0.536-0.437l-3.735-0.68l-3.276,0.873l0.241,0.221l-4.608-0.686l0.513-0.553l-5.357,0.351l-0.187,1.395l-0.935-2.654l-1.37-0.138
	l-2.01,0.47l1.281,0.143l-6.104,1.934l9.151-5.53l-1.358-0.814l1.103,0.573l-0.531-1.46l-0.353,0.405l-0.762-0.712l-5.926-0.457
	l1.114-0.744l-3.44-0.389l1.979-0.645l-4.666,2.006l-3.068,0.011l0.679,1.472l-6.986-0.23l1.35-0.106l-7.714,1.811l0.53,0.363
	l-1.735,0.622l1.533,0.586l-1.31,0.099l1.674,1.043l-0.912,1.396l0.334-1.423l-4.21,7.351l-0.239-0.022l-0.187-0.214l0.2-1.409
	l-0.691,1.07l1.08-2.455l-6.209-0.864l0.877,0.306l-2.346,0.083l3.253,1.769l-4.581-3.56l-0.956,6.564l4.01,0.956l1.355,2.396
	l-1.931-1.831l-8.635,3.26l1.787,0.077l0.72-0.384l0.583-8.537l-2.417-2.673l-2.984,3.613l0.054,2.869l2.392,1.122l-9.565-1.191
	l-1.142,2.122l-0.919-0.716l-5.306,1.039l1.312-1.331l-8.736,3.893l0.419-1.802l-3.58-1.503l0.822,4.774l-0.6-0.201l-3.303,2.326
	l-5.857,0.039l-1.696-2.726l0.314-0.199l-1.878-1.274l1.105,0.133l1.62,0.773l5.646-2.71l0.082,0.189l-7.125-1.853l-1.119-1.051
	l0.963,0.013l-4.493-0.978l2.324-0.376l-2.951,0.181l-0.314-0.818l-1.4,0.511l0.081-1.015l-1.725,1.585l0.786-1.35l-2.588,1.587
	l-2.142-0.425l0.67,0.705l-2.047,0.939l0.287-1.148l-0.727,0.978l-0.773,0.166l-2.551,1.56l1.116,0.08l-1.343,1.03l-0.736-0.121
	l-0.876,0.251l-0.02,0.243l0.867,0.586l-1.229,0.139l1.059,0.044l-1.572,0.806l0.078,0.876l-1.332,0.346l0.14,1.323l-1.727,1.003
	l0.358-0.101l-2.173,1.921l1.986-0.545l-0.301,0.175l-0.443,0.733l-2.517-0.124l0.239,1.145l-2.013,0.208l1.45-0.019l-3.197,1.156
	l1.742,0.256l-1.484,0.623l2.244,0.082l0.172,0.361l-2.767,0.277l0.683,0.56l0.042,0.897l-0.579,0.763l1.972-1.38l-1.313,1.115
	l0.477-0.038l-1.107,1.048l1.312-0.623l-0.043,0.874l0.351,1.2l0.234,0.125l2.557-1.101l1.37-1.417l0.845,1.138l-0.148,1.033
	l1.502,2.927l-0.197,0.225l0.441,1.306l3.057-1.723l1.251-2.925l-0.759-0.222l2.563-1.074l-0.697-0.05l-0.818-3.765l0.287,0.065
	l0.179-0.894l0.431-0.603l0.061-0.389l0.436-0.252l-0.202-0.012l1.261-0.711l0.009-0.141l2.033-3.07l0.722-0.508l3.435,0.447
	l-3.898,3.912l0.03,3.571l0.835,1.297l0.533,0.32l3.885-1.27l-0.076,0.342l2.226-0.125l-0.14-0.078l1.738,1.056l-6.471,0.786
	l-0.398,0.911l0.905,0.668l-2.758,1.158l-1.437,3.908l0.554-0.935l-2.856,1.283l0.388,0.164l-5.302,0.736l0.807,0.706l-5.028-1.208
	l-0.441-0.83l0.479-1.186l1.09-0.896l-0.338-1.955l-2.497,1.489l0.99,0.078l-1.101,0.142l0.436,2.188l1.291,2.298l-4.664,0.574
	l-1.309,2.192l-0.189,0.02l0.287,0.175l-0.052,0.119l-4.037,2.65l-2.449-0.289l0.512,1.407l-3.054,0.473l-0.093,0.18l-0.373,0.176
	l3.131,1.105l0.758,1.955l-0.189-0.039l0.705,1.01l-0.567-0.696l-0.175,1.131l0.18-0.03l-8.194,1.935l-0.383,3.599l0.482,2.381
	l-0.227-0.027l-0.124,1.728l2.275-0.299l0.499,0.543l0.191-0.099l3.338,0.216l3.506-2.473l0.547-2.564l1.076-0.395l2.232-2.695
	l2.625-0.117l1.295-0.537h1.596l5.706,4.024l1.478,3.292l2.791-2.322l-6.191-7.306l-0.111,0.101l1.44-0.21l0.083,1.034l1.717,0.735
	l-0.371,0.019l2.773,1.81l-0.724-0.21l1.707,0.73l0.722,2.568l1.95,1.843l0.19,0.536l1.695,0.648l-1.096,1.487l0.636,0.351
	l0.715-0.001l-0.463-1.329l0.814,0.124l-0.472-0.564l1.036,0.275l-1.547-1.459l0.811-0.379l-0.434-1.761l0.785,0.819l-0.288-0.358
	l0.598,0.319l0.422-0.226l-0.619-0.75l3.23,0.152l-0.629,0.688l2.937-1.168l0.107-0.278l-1.678-1.568l1.497-2.71l-0.086,0.014
	l0.307-0.534l-0.051,0.284l2.683-2.658l0.209-0.58l0.873,0.795l-1.091,0.081l0.24,0.305l1.935,0.301l0.076,0.197l-1.234,0.713
	l4.337,0.013l-1.434-1.379l-0.231,0.443l3.997-1.534l-0.223,0.148l0.785,0.106l-0.841,0.542l-0.783,0.036l0.773,0.722l-1.889,0.946
	l5.006,4.131l-2.427,1.397l-4.263-1.17l-6.5,1.24L215,73.948l-1.127,0.255l0.286,0.138l-1.288,0.053l-1.851,1.138l0.838-0.102
	l0.261,1.354L211.21,77l1.037,1.586l1.043-0.064l-0.168,0.337l8.493-0.192l0.14,0.125l-4.227,6.55l-0.475,0.001l0.128-0.221
	l0.261,0.165l-1.677-0.088l0.384-0.175l-10.515-1.417l-5.267,1.77l-5.248-2.327l-0.521-0.521l0.44-3.817l-0.077-0.241l-14.957,2.01
	l-2.458-0.595l-3.794,3.551l-1.454,4.123l-6.164,6.47l0.192-0.192L165,97.205l0.552,0.107l0.091,1.358l0.149-0.043l-1.312,5.172
	l2.248,1.386l-0.808,0.199l-0.283,0.754l0.219,0.368l1.244,0.288l0.025,0.885l0.402,0.484l0.089-0.084l0.964,0.896l-0.002,0.417
	l0.84,0.937l0.451,0.96l7.91,2.78l-0.326-0.021l1.419-0.084l-0.61-0.007l1.696,0.112l-0.243,0.017l7.461-1.557l-0.321,0.166
	l2.14,0.864l0.099,0.146l-0.079,0.339l0.848,0.763l0.329-0.046l0.3,0.108l-0.099-0.371l2.018,0.057l1.15,0.865l0.28,3.865
	l-0.219,0.159l-0.472-0.316l-0.694,0.987l0.685,0.775l-0.33-0.017l0.279,0.628l0.814,0.683l-0.363-0.086l3.568,3.593l-0.016,3.336
	l0.042-0.115l-1.2,7.219l6.924,21.103l0.894,0.319l8.931-2.058l5.63-7.833l-0.113,0.208l2.703-4.272l-0.784-3.038l6.395-5.611
	l-0.168-4.049l-0.812-0.815l-0.468-2.354l1.709-6.103l10.986-13.322l-0.171,0.117l0.238-1.482l-9.313,0.277l0.51-1.423l-3.427-2.395
	l-2.811-6.523l0.113,0.071l-5.001-10.074l1.764,2.536l0.804-2.053l-0.372,1.71l4.604,5.839h-0.063l4.165,8.34l-0.098-0.065
	l0.843,2.828l12.94-5.184l2.795-3.394l0.012-3.254l-1.965-3.163l-1.297,1.497l-3.829,0.77l-0.36-0.301l-0.006-1.742l-0.488,1.537
	l-0.697-2.113l-0.975-0.942l-1.166-2.383l0.915-1.079l2.684,2.987l2.627,0.924l3.122,0.119l2.277,1.783l7.913-0.032l-0.359-0.054
	l1.616,1.765l0.228,0.019l0.273,0.167l0.052-0.117l0.653,0.006l1.825,0.85l-1.605,0.783l3.256,0.624l0.155-0.495l0.668,0.04
	l-0.284,0.594l0.608-0.06l-0.532,0.32l0.128-0.011L261,98.885l-0.163,0.33l0.147-0.194l1.022,4.085h-0.141l2.604,5.869l3.378,0.783
	l0.795-4.836l0.161,0.245l2.042-3.983l4.291-3.148l1.807-2.563l0.37,0.683l0.377-0.403l0.231,0.417l0.206-0.386l0.46-0.202
	l0.092,0.562l0.444-0.774l-0.033,0.491l0.271-0.148l0.365-0.831l-0.302-0.615l0.358-0.151l0.934,0.787l0.338,0.653l0.071-0.06
	l0.916,2.27l-0.016-0.294l0.349,0.174l-0.021,0.242l0.085,0.004l0.652,0.295l-0.229,0.596l0.59,0.09l0.214,0.599l-0.08,0.009
	l0.567,2.418l-0.044,0.658l0.247-0.301l0.482,0.092l1.605-1.415l0.934,0.904l0.45,3.155l0.055-0.358l0.721,2.426l-0.335,1.8
	l0.149-0.167l2.502,6.895l3.127,2.186l-1.147-2.827l-2.927-3.497l0.41,0.396l-0.407-1.361l2.234-4.148l0.358,0.205l2.319,3.848
	l1.131-1.494l0.326-0.235l0.349-0.083l0.152-0.178l2.781-1.652l0.034,0.109l-0.042-0.543l0.104,0.026l0.149-0.223l-0.211-1.348
	l0.044,0.097l-3.127-4.33l0.131,0.05l2.135-4.595l1.11,0.234l0.253,0.147l0.239,1.276l-0.104-0.011l0.561-1.02l2.855-0.963
	l0.566-1.021l0.691,0.925l3.305-1.438l0.507-0.99l1.897-1.03l-0.515-0.824l0.479-0.751l0.251-0.069l0.984-1.324l0.92-0.323
	l-0.074-0.733l-0.099-0.229l0.062-0.406l0.616-0.445l-2.015-0.429l1.794-0.784l-1.964-1.189l1.951,0.272l0.854-6.795l-3.881-0.612
	l-0.054-1.573l3.029-0.251l-0.699,0.809l4.684,0.057l-0.92,0.683l0.591,0.089l-0.274,0.154l2.01,1.349l-0.738,0.16l0.462,1.352
	l-0.021,0.894l-0.129,0.082l0.055,0.069l0.853,0.279l2.398-1.901l-2.159-4.294l3.372-3.89l1.39-0.798l-0.157,0.237l0.475-0.28
	l-0.008,0.551l9.103-13.773l-2.327-1.746l-0.436,1.12l-0.442-0.61l-0.527-0.223l0.348-0.265l-0.544,0.669l-0.466,0.024l2.973-5.26
	l10.031-2.961l0.31-0.321l1.56-0.106l-0.196,0.097l1.896,0.424l-1.216,0.219l4.307-0.167l0.008-0.265l-1.085-0.264l6.567-3.776
	l-0.553,1.514l0.628-0.111l-0.22,0.619l5.592-2.924l-0.223,0.12l-9.022,17.186l1.84-2.913l1.656-0.14l2.07-2.256l1.143-2.713
	l-0.07,0.729l0.271-2.648l-0.889,0.111l1.836-3.379l2.388-0.93l-0.178,1.005l4.441-0.183l9.002-5.802l-0.602-1.387l-3.925-0.544
	l2.852-0.304l-0.94-0.318l3.887-0.029v0.013l0.337-1.938l1.234-0.382l-0.44,0.647l6.995,2.758l-0.754-0.657l0.713-1.087l-0.391-0.4
	l1.789,0.295l-0.369-0.492L385.994,36.9L385.994,36.9z M241.513,73.755l-0.354,0.248l-1.528,0.185l0.099,0.962l0.213,0.206
	l-0.085,0.425l0.558,2.954l0.252-0.093l-3.738-0.148l-1.375-2.389l1.328-1.583l-2.321-2.377l-0.579-2.197l-0.196,0.424l-0.489-1.71
	l0.086,0.077l0.585-1.003l1.844-1.09l4.093,1.421l-1.767,1.044l-1.328-0.066l2.722,3.089L241.513,73.755L241.513,73.755z"/>
<path fill="#4BA3CC" d="M252.958,200.175c-3.679-9.744-6.258-20.82-4.796-31.661c1.313-9.742,4.617-19.863,9.845-28.567
	c5.453-9.083,8.542-18.539,11.337-28.284c5.567-19.424,3.667-49.802-8.973-65.581c-14.652-18.287-35.226-23.577-57.213-23.93
	c-22.437-0.36-44.138,9.329-57.482,25.14c-7.461,8.84-10.979,16.208-13.455,27.077c-4.088,17.95-4.815,20.391-4.557,22.738
	c0.538,4.875,2.629,4.373,3.232,6.725c1.521,5.926-0.806,9.034-5.653,15.19c-6.071,7.709-13.328,15.406-13.328,18.971
	c0.001,6.45,8.078,4.833,13.432,8.003c5.445,3.223,0.057,8.311,0.134,13.345c0.028,1.836,1.681,1.14,5.267,3.02
	c-1.928,0.588-5.864,1.904-4.743,3.898c9.964,8.318-4.34,17.642,7.194,24.75c11.844,7.3,35.542,4.062,39.435,7.274
	c3.892,3.213,7.484,8.079,10.415,19.8l79.081,9.225C262.129,227.307,254.699,204.783,252.958,200.175z"/>
<path fill="#FFFFFF" d="M181.948,83.467l1.952,6.375c0.248,0.826-0.053,1.994-0.673,2.596c0,0-0.105,0.098-0.677,0.756
	c-0.571,0.659-0.652,0.778-0.652,0.778c-0.508,0.699-1.62,1.163-2.473,1.036l-6.588-1.025c-0.849-0.131-1.82,0.413-2.151,1.217
	l-1.796,5.392c-0.207,0.84,0.243,1.863,1.006,2.264l5.88,3.132c0.763,0.401,1.396,1.448,1.408,2.311l0.147,2.005
	c0.11,0.863-0.374,1.982-1.069,2.492l-5.374,3.93c-0.702,0.517-0.998,1.589-0.677,2.388l2.553,5.088
	c0.438,0.745,1.472,1.142,2.302,0.891l6.375-1.944c0.822-0.251,1.997,0.05,2.596,0.673c0,0,0.097,0.099,0.756,0.669
	c0.659,0.571,0.77,0.653,0.77,0.653c0.703,0.504,1.167,1.624,1.036,2.474l-1.017,6.587c-0.131,0.857,0.409,1.824,1.213,2.155
	l5.392,1.796c0.84,0.207,1.859-0.239,2.271-1.007l3.125-5.878c0.405-0.76,1.449-1.396,2.314-1.413l2.01-0.136
	c0.854-0.11,1.978,0.363,2.483,1.062l3.938,5.374c0.506,0.698,1.582,0.998,2.384,0.673l5.081-2.545
	c0.749-0.442,1.149-1.48,0.898-2.302l-1.951-6.375c-0.248-0.826,0.049-1.997,0.673-2.595c0,0,0.102-0.101,0.673-0.76
	c0.57-0.659,0.656-0.774,0.656-0.774c0.504-0.703,1.62-1.164,2.474-1.036l6.587,1.024c0.85,0.131,1.82-0.413,2.151-1.217
	l1.796-5.392c0.207-0.84-0.242-1.863-1.006-2.264l-5.88-3.132c-0.764-0.402-1.392-1.445-1.404-2.307l-0.151-2.009
	c-0.106-0.859,0.374-1.982,1.068-2.492l5.375-3.93c0.701-0.517,0.997-1.59,0.673-2.392l-2.545-5.082
	c-0.441-0.749-1.477-1.145-2.306-0.894l-6.375,1.945c-0.822,0.251-1.997-0.049-2.596-0.674c0,0-0.098-0.098-0.756-0.669
	c-0.659-0.571-0.771-0.653-0.771-0.653c-0.703-0.503-1.167-1.624-1.036-2.473l1.018-6.587c0.13-0.857-0.41-1.825-1.209-2.151
	l-5.4-1.803c-0.836-0.204-1.855,0.242-2.268,1.01l-3.125,5.879c-0.405,0.76-1.444,1.399-2.314,1.413l-2.005,0.14
	c-0.855,0.11-1.981-0.367-2.487-1.065l-3.938-5.374c-0.506-0.698-1.582-0.998-2.384-0.673l-5.081,2.545
	C182.098,81.606,181.697,82.645,181.948,83.467z M210.073,102.154c3.076,5.938,0.756,13.246-5.183,16.322
	s-13.246,0.756-16.322-5.183s-0.756-13.247,5.183-16.323S206.997,96.215,210.073,102.154z"/>
<g>
	
		<line fill="none" stroke="#7ACAFF" stroke-linecap="round" stroke-linejoin="round" stroke-dasharray="3,3" x1="308.335" y1="94.589" x2="200.992" y2="106.575"/>
	
		<line fill="none" stroke="#7ACAFF" stroke-linecap="round" stroke-linejoin="round" stroke-dasharray="3,3" x1="335.219" y1="80.324" x2="310.058" y2="94.html"/>
	
		<line fill="none" stroke="#7ACAFF" stroke-linecap="round" stroke-linejoin="round" stroke-dasharray="3,3" x1="335.219" y1="80.324" x2="310.951" y2="135.366"/>
	
		<line fill="none" stroke="#7ACAFF" stroke-linecap="round" stroke-linejoin="round" stroke-dasharray="3,3" x1="335.219" y1="80.324" x2="304.871" y2="64.153"/>
	
		<line fill="none" stroke="#7ACAFF" stroke-linecap="round" stroke-linejoin="round" stroke-dasharray="3,3" x1="310.058" y1="94.323" x2="310.058" y2="136.623"/>
	
		<line fill="none" stroke="#2E89B2" stroke-linecap="round" stroke-linejoin="round" stroke-dasharray="3,3" x1="199.499" y1="107.511" x2="170.882" y2="62.684"/>
	
		<line fill="none" stroke="#2E89B2" stroke-linecap="round" stroke-linejoin="round" stroke-dasharray="3,3" x1="248.672" y1="17.119" x2="233.544" y2="66.924"/>
	
		<line fill="none" stroke="#2E89B2" stroke-linecap="round" stroke-linejoin="round" stroke-dasharray="3,3" x1="233.613" y1="69.741" x2="170.882" y2="64.757"/>
	
		<line fill="none" stroke="#2E89B2" stroke-linecap="round" stroke-linejoin="round" stroke-dasharray="3,3" x1="297.526" y1="62.383" x2="233.613" y2="69.741"/>
	
		<line fill="none" stroke="#7ACAFF" stroke-linecap="round" stroke-linejoin="round" stroke-dasharray="3,3" x1="248.672" y1="17.119" x2="297.526" y2="59.272"/>
	
		<line fill="none" stroke="#7ACAFF" stroke-linecap="round" stroke-linejoin="round" stroke-dasharray="3,3" x1="300.301" y1="63.214" x2="309.441" y2="95.943"/>
	
		<line fill="none" stroke="#7ACAFF" stroke-linecap="round" stroke-linejoin="round" stroke-dasharray="3,3" x1="103.562" y1="23.748" x2="124.241" y2="66.831"/>
	
		<line fill="none" stroke="#7ACAFF" stroke-linecap="round" stroke-linejoin="round" stroke-dasharray="3,3" x1="97.082" y1="121.804" x2="67.132" y2="129.936"/>
	
		<line fill="none" stroke="#7ACAFF" stroke-linecap="round" stroke-linejoin="round" stroke-dasharray="3,3" x1="58.436" y1="89.213" x2="67.603" y2="123.947"/>
	
		<line fill="none" stroke="#55B9C9" stroke-linecap="round" stroke-linejoin="round" stroke-dasharray="3,3" x1="97.034" y1="121.026" x2="144.055" y2="108.426"/>
	
		<line fill="none" stroke="#7ACAFF" stroke-linecap="round" stroke-linejoin="round" stroke-dasharray="3,3" x1="88.473" y1="81.783" x2="95.179" y2="118.981"/>
	
		<line fill="none" stroke="#7ACAFF" stroke-linecap="round" stroke-linejoin="round" stroke-dasharray="3,3" x1="88.95" y1="83.625" x2="68.544" y2="125.87"/>
	
		<line fill="none" stroke="#55B9C9" stroke-linecap="round" stroke-linejoin="round" stroke-dasharray="3,3" x1="144.588" y1="107.255" x2="88.473" y2="81.783"/>
	
		<line fill="none" stroke="#7ACAFF" stroke-linecap="round" stroke-linejoin="round" stroke-dasharray="3,3" x1="88.473" y1="81.783" x2="123.808" y2="65.164"/>
	
		<line fill="none" stroke="#2E89B2" stroke-linecap="round" stroke-linejoin="round" stroke-dasharray="3,3" x1="123.808" y1="65.164" x2="172.308" y2="64.995"/>
	
		<line fill="none" stroke="#2E89B2" stroke-linecap="round" stroke-linejoin="round" stroke-dasharray="3,3" x1="172.308" y1="64.995" x2="102.622" y2="22.642"/>
	
		<line fill="none" stroke="#2E89B2" stroke-linecap="round" stroke-linejoin="round" stroke-dasharray="3,3" x1="144.588" y1="107.255" x2="171.398" y2="66.636"/>
	
		<line fill="none" stroke="#2E89B2" stroke-linecap="round" stroke-linejoin="round" stroke-dasharray="3,3" x1="199.499" y1="107.511" x2="233.544" y2="68.904"/>
	
		<line fill="none" stroke="#7ACAFF" stroke-linecap="round" stroke-linejoin="round" stroke-dasharray="3,3" x1="69.24" y1="62.684" x2="105.046" y2="22.777"/>
	
		<line fill="none" stroke="#7ACAFF" stroke-linecap="round" stroke-linejoin="round" stroke-dasharray="3,3" x1="68.544" y1="66.137" x2="58.812" y2="86.688"/>
	
		<line fill="none" stroke="#7ACAFF" stroke-linecap="round" stroke-linejoin="round" stroke-dasharray="3,3" x1="88.95" y1="83.625" x2="60.912" y2="86.144"/>
	
		<line fill="none" stroke="#7ACAFF" stroke-linecap="round" stroke-linejoin="round" stroke-dasharray="3,3" x1="88.95" y1="83.625" x2="102.807" y2="23.358"/>
	<circle fill="#A3CC70" stroke="#FFFFFF" stroke-linecap="round" stroke-linejoin="round" cx="97.034" cy="121.026" r="5.587"/>
	<circle fill="#FF9900" stroke="#FFFFFF" stroke-linecap="round" stroke-linejoin="round" cx="58.436" cy="89.213" r="5.587"/>
	<circle fill="#EF8C00" stroke="#FFFFFF" stroke-linecap="round" stroke-linejoin="round" cx="124.241" cy="66.831" r="5.587"/>
	<circle fill="#EF8C00" stroke="#FFFFFF" stroke-linecap="round" stroke-linejoin="round" cx="233.613" cy="69.741" r="5.587"/>
	<circle fill="#009EFF" stroke="#FFFFFF" stroke-linecap="round" stroke-linejoin="round" cx="144.839" cy="108.223" r="5.587"/>
	<circle fill="#F18703" stroke="#FFFFFF" stroke-linecap="round" stroke-linejoin="round" cx="68.544" cy="66.137" r="5.587"/>
	<circle fill="#F25A58" stroke="#FFFFFF" stroke-linecap="round" stroke-linejoin="round" cx="88.95" cy="83.625" r="5.587"/>
	
		<line fill="none" stroke="#2E89B2" stroke-linecap="round" stroke-linejoin="round" stroke-dasharray="3,3" x1="171.929" y1="65.603" x2="248.729" y2="17.047"/>
	
		<line fill="none" stroke="#7ACAFF" stroke-linecap="round" stroke-linejoin="round" stroke-dasharray="3,3" x1="159.045" y1="16.664" x2="248.729" y2="17.047"/>
	<path fill="#75B7D9" stroke="#FFFFFF" stroke-linecap="round" stroke-linejoin="round" d="M253.679,14.443
		c1.897,3.718-0.648,8.047-4.82,8.195c-2.103,0.075-4.123-1.113-5.079-2.987c-1.897-3.718,0.648-8.047,4.82-8.195
		C250.703,11.381,252.722,12.569,253.679,14.443z"/>
	
		<line fill="none" stroke="#7ACAFF" stroke-linecap="round" stroke-linejoin="round" stroke-dasharray="3,3" x1="102.547" y1="23.045" x2="159.472" y2="15.397"/>
	<path fill="#75B7D9" stroke="#FFFFFF" stroke-linecap="round" stroke-linejoin="round" d="M176.348,62.032
		c1.897,3.718-0.648,8.047-4.82,8.195c-2.103,0.075-4.123-1.113-5.079-2.987c-1.897-3.718,0.648-8.047,4.82-8.196
		C173.372,58.97,175.392,60.159,176.348,62.032z"/>
	<path fill="#75B7D9" stroke="#FFFFFF" stroke-linecap="round" stroke-linejoin="round" d="M339.135,77.507
		c1.897,3.718-0.648,8.047-4.82,8.195c-2.103,0.075-4.122-1.113-5.079-2.987c-1.897-3.718,0.648-8.047,4.82-8.196
		C336.159,74.445,338.179,75.634,339.135,77.507z"/>
	<circle fill="#F89C62" stroke="#FFFFFF" stroke-linecap="round" stroke-linejoin="round" cx="102.622" cy="22.642" r="5.587"/>
	<circle fill="#F89C62" stroke="#FFFFFF" stroke-linecap="round" stroke-linejoin="round" cx="159.273" cy="15.731" r="5.587"/>
	<circle fill="#F89C62" stroke="#FFFFFF" stroke-linecap="round" stroke-linejoin="round" cx="308.83" cy="94.519" r="5.587"/>
	
		<line fill="none" stroke="#2E89B2" stroke-linecap="round" stroke-linejoin="round" stroke-dasharray="3,3" x1="308.83" y1="135.366" x2="199.499" y2="107.511"/>
	<circle fill="#F25A58" stroke="#FFFFFF" stroke-linecap="round" stroke-linejoin="round" cx="199.319" cy="107.723" r="5.587"/>
</g>
<path fill="#FFFFFF" d="M229.125,50.495l-0.421,4.392c-0.055,0.571-0.526,1.223-1.057,1.45l-1.195,0.596
	c-0.497,0.282-1.305,0.275-1.794-0.021l-3.772-2.29c-0.489-0.304-1.217-0.209-1.628,0.188l-2.467,2.846
	c-0.346,0.46-0.328,1.194,0.035,1.636l2.813,3.411c0.364,0.441,0.471,1.233,0.245,1.764c0,0-0.045,0.082-0.227,0.63
	c-0.179,0.545-0.197,0.643-0.197,0.643c-0.135,0.556-0.697,1.128-1.255,1.257l-4.291,1.046c-0.554,0.14-1.009,0.718-1.007,1.293
	l0.265,3.753c0.083,0.565,0.624,1.08,1.19,1.132l4.393,0.421c0.571,0.055,1.228,0.537,1.45,1.064l0.596,1.188
	c0.286,0.5,0.275,1.305-0.024,1.797l-2.291,3.765c-0.293,0.493-0.208,1.225,0.193,1.639l2.849,2.462
	c0.461,0.346,1.194,0.329,1.64-0.038l3.404-2.807c0.448-0.364,1.237-0.474,1.764-0.244c0,0,0.084,0.034,0.637,0.219
	c0.549,0.182,0.636,0.204,0.636,0.204c0.556,0.128,1.124,0.694,1.261,1.252l1.045,4.284c0.137,0.564,0.715,1.02,1.293,1.014
	l3.75-0.269c0.569-0.08,1.081-0.616,1.137-1.187l0.424-4.396c0.056-0.572,0.53-1.22,1.054-1.446l1.198-0.6
	c0.494-0.278,1.305-0.276,1.794,0.021l3.772,2.296c0.493,0.301,1.222,0.206,1.628-0.195l2.467-2.846
	c0.346-0.46,0.329-1.194-0.035-1.636l-2.814-3.411c-0.359-0.438-0.47-1.233-0.243-1.757c0,0,0.037-0.088,0.223-0.633
	c0.179-0.552,0.2-0.646,0.2-0.646c0.128-0.556,0.698-1.121,1.256-1.257l4.29-1.046c0.559-0.136,1.01-0.71,1.011-1.29l-0.269-3.757
	c-0.083-0.565-0.623-1.08-1.19-1.132l-4.393-0.421c-0.571-0.056-1.22-0.538-1.446-1.061l-0.599-1.192
	c-0.29-0.497-0.279-1.3,0.018-1.796l2.297-3.766c0.293-0.493,0.208-1.225-0.199-1.632l-2.843-2.463
	c-0.46-0.353-1.194-0.335-1.64,0.032l-3.407,2.803c-0.442,0.363-1.237,0.481-1.761,0.247c0,0-0.08-0.03-0.637-0.219
	c-0.544-0.179-0.632-0.201-0.632-0.201c-0.559-0.131-1.128-0.697-1.26-1.251l-1.05-4.287c-0.136-0.565-0.718-1.016-1.286-1.014
	l-3.757,0.269C229.696,49.39,229.184,49.92,229.125,50.495z M242.542,65.113c2.555,4.934,0.627,11.005-4.307,13.56
	c-4.934,2.556-11.004,0.628-13.56-4.306s-0.628-11.004,4.306-13.56S239.987,60.179,242.542,65.113z"/>
<circle fill="#F25A58" cx="308.404" cy="65.068" r="15.043"/>
<circle fill="#F25A58" cx="67.132" cy="129.436" r="15.043"/>
<g>
	
		<circle fill="none" stroke="#FFFFFF" stroke-linecap="round" stroke-linejoin="round" stroke-miterlimit="10" cx="310.951" cy="62.522" r="6.945"/>
	<path fill="none" stroke="#FFFFFF" stroke-linecap="round" stroke-linejoin="round" stroke-miterlimit="10" d="M310.951,57.519
		c2.764,0,5.004,2.24,5.004,5.003"/>
	
		<line fill="none" stroke="#FFFFFF" stroke-linecap="round" stroke-linejoin="round" stroke-miterlimit="10" x1="306.055" y1="67.418" x2="298.914" y2="74.559"/>
</g>
<g>
	<path fill="none" stroke="#FFFFFF" stroke-linecap="round" stroke-linejoin="round" stroke-miterlimit="10" d="M61.314,122.447h-1
		c-0.275,0-0.5,0.225-0.5,0.5v15c0,0.275,0.225,0.5,0.5,0.5h13c0.275,0,0.5-0.225,0.5-0.5v-15c0-0.275-0.225-0.5-0.5-0.5h-1"/>
	<path fill="none" stroke="#FFFFFF" stroke-linecap="round" stroke-linejoin="round" stroke-miterlimit="10" d="M66.314,119.447
		c-0.275,0-0.555,0.219-0.621,0.485l-0.258,1.029c-0.066,0.267-0.346,0.485-0.621,0.485h-1c-0.275,0-0.555,0.219-0.621,0.485
		l-0.258,1.029c-0.066,0.267,0.104,0.485,0.379,0.485h7c0.275,0,0.445-0.219,0.379-0.485l-0.258-1.029
		c-0.066-0.267-0.346-0.485-0.621-0.485h-1c-0.275,0-0.555-0.219-0.621-0.485l-0.258-1.029c-0.066-0.267-0.346-0.485-0.621-0.485
		H66.314z"/>
	
		<line fill="none" stroke="#FFFFFF" stroke-linecap="round" stroke-linejoin="round" stroke-miterlimit="10" x1="63.314" y1="126.447" x2="70.314" y2="126.447"/>
	
		<line fill="none" stroke="#FFFFFF" stroke-linecap="round" stroke-linejoin="round" stroke-miterlimit="10" x1="63.314" y1="128.447" x2="70.314" y2="128.447"/>
	
		<line fill="none" stroke="#FFFFFF" stroke-linecap="round" stroke-linejoin="round" stroke-miterlimit="10" x1="63.314" y1="130.447" x2="70.314" y2="130.447"/>
	
		<line fill="none" stroke="#FFFFFF" stroke-linecap="round" stroke-linejoin="round" stroke-miterlimit="10" x1="63.314" y1="132.447" x2="70.314" y2="132.447"/>
	
		<line fill="none" stroke="#FFFFFF" stroke-linecap="round" stroke-linejoin="round" stroke-miterlimit="10" x1="63.314" y1="134.447" x2="70.314" y2="134.447"/>
</g>
<g>
	<circle fill="#F27E58" cx="308.83" cy="133.936" r="15.043"/>
	<g>
		<path fill="none" stroke="#FFFFFF" stroke-linecap="round" stroke-linejoin="round" stroke-miterlimit="10" d="M317.693,138.906
			l-8.277-14.545c-0.323-0.566-0.849-0.566-1.172,0l-8.277,14.545c-0.322,0.566-0.054,1.03,0.596,1.03h16.536
			C317.748,139.936,318.016,139.472,317.693,138.906z"/>
		
			<line fill="none" stroke="#FFFFFF" stroke-linecap="round" stroke-linejoin="round" stroke-miterlimit="10" x1="308.83" y1="127.588" x2="308.83" y2="135.366"/>
		
			<circle fill="none" stroke="#FFFFFF" stroke-linecap="round" stroke-linejoin="round" stroke-miterlimit="10" cx="308.83" cy="137.234" r="0.611"/>
	</g>
</g>
<g>
	<g>
		<circle fill="#043573" cx="228.894" cy="213.868" r="15.924"/>
		<path fill="#ABE4FF" d="M192.154,209.333c13.688,0,83.884-15.093,83.884,38.146c0,0-9.521,35.472-27.628,35.472
			c-50.766,0-51.998-48.58-55.766-48.58C186.26,234.37,192.154,209.333,192.154,209.333z"/>
		<path fill="#0668A4" d="M197.644,219.358c13.688,0,86.236-15.094,86.236,38.146c0,0-17.364,27.627-35.471,27.627
			c-50.766,0-50.766-40.736-50.766-40.736V219.358z"/>
		<circle fill="#043573" cx="248.41" cy="257.503" r="35.471"/>
		<circle fill="#FFFFFF" cx="248.41" cy="257.503" r="27.482"/>
		<circle fill="#F25A58" cx="248.41" cy="257.503" r="13.901"/>
		<circle fill="#002636" cx="248.41" cy="257.503" r="7.312"/>
		<path fill="#8CDDFF" d="M248.41,275.984v3.723c12.263,0,22.204-9.94,22.204-22.203h-3.724
			C266.89,267.71,258.617,275.984,248.41,275.984z"/>
		<path fill="#8CDDFF" d="M248.41,245.351V235.3c-12.263,0-22.203,9.94-22.203,22.203h10.051
			C236.257,250.792,241.699,245.351,248.41,245.351z"/>
	</g>
	<g>
		<circle fill="#043573" cx="155.328" cy="213.868" r="15.924"/>
		<path fill="#ABE4FF" d="M192.068,209.333c-13.688,0-83.883-15.093-83.883,38.146c0,0,9.521,35.472,27.627,35.472
			c50.766,0,51.998-48.58,55.766-48.58C197.962,234.37,192.068,209.333,192.068,209.333z"/>
		<path fill="#0668A4" d="M186.578,219.358c-13.688,0-86.237-15.094-86.237,38.146c0,0,17.364,27.627,35.471,27.627
			c50.766,0,50.766-40.736,50.766-40.736V219.358z"/>
		<circle fill="#043573" cx="135.812" cy="257.503" r="35.471"/>
		<circle fill="#FFFFFF" cx="135.812" cy="257.503" r="27.482"/>
		<circle fill="#F25A58" cx="135.812" cy="257.503" r="13.901"/>
		<circle fill="#002636" cx="135.812" cy="257.503" r="7.313"/>
		<path fill="#8CDDFF" d="M135.812,275.984v3.723c12.263,0,22.204-9.94,22.204-22.203h-3.723
			C154.293,267.71,146.019,275.984,135.812,275.984z"/>
		<path fill="#8CDDFF" d="M135.812,245.351V235.3c-12.263,0-22.204,9.94-22.204,22.203h10.051
			C123.66,250.792,129.101,245.351,135.812,245.351z"/>
	</g>
</g>
</svg>
