<?xml version="1.0" encoding="utf-8"?>
<!-- Generator: Adobe Illustrator 16.0.0, SVG Export Plug-In . SVG Version: 6.00 Build 0)  -->
<!DOCTYPE svg PUBLIC "-//W3C//DTD SVG 1.1//EN" "http://www.w3.org/Graphics/SVG/1.1/DTD/svg11.dtd">
<svg version="1.1" id="Layer_2" xmlns="http://www.w3.org/2000/svg" xmlns:xlink="http://www.w3.org/1999/xlink" x="0px" y="0px"
	 width="272.2px" height="249.705px" viewBox="0 38.691 272.2 249.705" enable-background="new 0 38.691 272.2 249.705"
	 xml:space="preserve">
<g opacity="0.4">
	<g>
		<path fill="#4BA3CC" d="M249.846,210.589c0,5.27-4.311,9.579-9.578,9.579H31.933c-5.268,0-9.578-4.311-9.578-9.579V62.316
			c0-5.269,4.31-9.578,9.578-9.578h208.335c5.268,0,9.578,4.31,9.578,9.578V210.589L249.846,210.589z"/>
		<path fill="#FFFFFF" d="M31.933,216.062c-3.018,0-5.473-2.455-5.473-5.475V62.316c0-3.019,2.455-5.474,5.473-5.474h208.335
			c3.018,0,5.473,2.455,5.473,5.474v148.271c0,3.02-2.455,5.475-5.473,5.475H31.933L31.933,216.062z"/>
	</g>
	<g>
		<path fill="#4BA3CC" d="M249.846,78.163c0,0.337-0.354,0.614-0.788,0.614s-5.099,0-10.366,0H33.907c-5.268,0-10.023,0-10.566,0
			c-0.542,0-0.987-0.276-0.987-0.614c0-0.337,0-4.923,0-10.19v-6.179c0-5.268,4.31-9.578,9.578-9.578h208.335
			c5.269,0,9.578,4.311,9.578,9.578v6.179C249.846,73.239,249.846,77.826,249.846,78.163z"/>
	</g>
	<g>
		<path fill="#FFFFFF" d="M177.622,65.355c0,3.011-2.463,5.474-5.475,5.474H64.989c-3.01,0-5.473-2.463-5.473-5.474l0,0
			c0-3.01,2.463-5.474,5.473-5.474h107.158C175.159,59.882,177.622,62.345,177.622,65.355L177.622,65.355z"/>
	</g>
	<circle fill="#FFFFFF" cx="36.255" cy="65.355" r="5.473"/>
	<circle fill="#FFFFFF" cx="50.248" cy="65.355" r="5.473"/>
	<circle fill="#FFFFFF" cx="186.348" cy="65.355" r="5.474"/>
	<circle fill="#FFFFFF" cx="202.599" cy="65.355" r="5.473"/>
	<circle fill="#FFFFFF" cx="218.506" cy="65.355" r="5.473"/>
	<circle fill="#FFFFFF" cx="240.084" cy="59.882" r="2.849"/>
	<circle fill="#FFFFFF" cx="231.644" cy="59.882" r="2.849"/>
	<rect x="54.408" y="109.185" fill="#4BA3CC" width="88.92" height="60.582"/>
	<rect x="54.795" y="175.203" fill="#4BA3CC" width="13.456" height="13.456"/>
	
		<line fill="none" stroke="#4BA3CC" stroke-width="2.2759" stroke-linecap="round" stroke-linejoin="round" stroke-miterlimit="10" x1="73.105" y1="177.479" x2="107.654" y2="177.479"/>
	
		<line fill="none" stroke="#4BA3CC" stroke-width="2.2759" stroke-linecap="round" stroke-linejoin="round" stroke-miterlimit="10" x1="73.105" y1="184.307" x2="213.551" y2="184.307"/>
	<g>
		<g>
			
				<line fill="none" stroke="#4BA3CC" stroke-width="2.2759" stroke-linecap="round" stroke-linejoin="round" stroke-miterlimit="10" x1="155.077" y1="166.491" x2="213.551" y2="166.491"/>
			
				<line fill="none" stroke="#4BA3CC" stroke-width="2.2759" stroke-linecap="round" stroke-linejoin="round" stroke-miterlimit="10" x1="155.077" y1="157.387" x2="213.551" y2="157.387"/>
			
				<line fill="none" stroke="#4BA3CC" stroke-width="2.2759" stroke-linecap="round" stroke-linejoin="round" stroke-miterlimit="10" x1="155.077" y1="148.284" x2="213.551" y2="148.284"/>
			
				<line fill="none" stroke="#4BA3CC" stroke-width="2.2759" stroke-linecap="round" stroke-linejoin="round" stroke-miterlimit="10" x1="155.077" y1="139.18" x2="213.551" y2="139.18"/>
			
				<line fill="none" stroke="#4BA3CC" stroke-width="2.2759" stroke-linecap="round" stroke-linejoin="round" stroke-miterlimit="10" x1="155.077" y1="130.076" x2="213.551" y2="130.076"/>
			
				<line fill="none" stroke="#4BA3CC" stroke-width="2.2759" stroke-linecap="round" stroke-linejoin="round" stroke-miterlimit="10" x1="155.077" y1="120.973" x2="213.551" y2="120.973"/>
		</g>
	</g>
	
		<line fill="none" stroke="#4BA3CC" stroke-width="2.2759" stroke-linecap="round" stroke-linejoin="round" stroke-miterlimit="10" x1="155.077" y1="110.16" x2="204.348" y2="110.16"/>
</g>
<g>
	<g>
		<path fill="none" stroke="#FFFFFF" stroke-width="6" stroke-miterlimit="10" d="M253.456,237.686l-42.414-42.413
			c-4.178-4.175-7.563-2.533-11.334,0.889l-17.185-17.186l-8.147,8.147l17.185,17.187c-3.422,3.77-5.065,7.157-0.89,11.335
			l42.412,42.413c2.814,2.812,6.5,4.219,10.188,4.219c3.686,0,7.372-1.406,10.186-4.219
			C259.081,252.432,259.081,243.312,253.456,237.686z"/>
		<path fill="#4BA3CC" d="M253.456,237.686l-42.414-42.413c-4.178-4.175-7.563-2.533-11.334,0.889l-17.185-17.186l-8.147,8.147
			l17.185,17.187c-3.422,3.77-5.065,7.157-0.89,11.335l42.412,42.413c2.814,2.812,6.5,4.219,10.188,4.219
			c3.686,0,7.372-1.406,10.186-4.219C259.081,252.432,259.081,243.312,253.456,237.686z"/>
	</g>
	<path fill="#0668A4" d="M174.375,187.124l17.185,17.187c-3.422,3.77-5.065,7.157-0.89,11.335l42.412,42.413
		c2.814,2.812,6.5,4.219,10.188,4.219c3.686,0,7.372-1.406,10.186-4.219l-75.006-75.008L174.375,187.124z"/>
	<g>
		<circle opacity="0.4" fill="#54D6FF" enable-background="new    " cx="135.234" cy="139.836" r="61.707"/>
		<circle fill="none" stroke="#FFFFFF" stroke-width="11" stroke-miterlimit="10" cx="135.234" cy="139.836" r="61.707"/>
		<circle fill="none" stroke="#4BA3CC" stroke-width="5.8491" stroke-miterlimit="10" cx="135.234" cy="139.836" r="61.707"/>
	</g>
	<path fill="none" stroke="#0668A4" stroke-width="5.8491" stroke-miterlimit="10" d="M196.941,139.836
		c0,34.08-27.627,61.707-61.707,61.707s-61.707-27.627-61.707-61.707"/>
</g>
<g>
	<circle fill="#F25A58" cx="136.1" cy="264.428" r="23.968"/>
	<g>
		
			<circle fill="none" stroke="#F1F0F4" stroke-width="2" stroke-linecap="round" stroke-linejoin="round" stroke-miterlimit="10" cx="127.341" cy="274.918" r="1.968"/>
		
			<circle fill="none" stroke="#F1F0F4" stroke-width="2" stroke-linecap="round" stroke-linejoin="round" stroke-miterlimit="10" cx="144.388" cy="274.918" r="1.968"/>
		
			<line fill="none" stroke="#F1F0F4" stroke-width="2" stroke-linecap="round" stroke-linejoin="round" stroke-miterlimit="10" x1="130.209" y1="274.263" x2="141.784" y2="274.263"/>
		
			<line fill="none" stroke="#F1F0F4" stroke-width="2" stroke-linecap="round" stroke-linejoin="round" stroke-miterlimit="10" x1="127.99" y1="272.448" x2="127.99" y2="256.574"/>
		
			<polyline fill="none" stroke="#F1F0F4" stroke-width="2" stroke-linecap="round" stroke-linejoin="round" stroke-miterlimit="10" points="
			127.99,257.216 146.348,257.216 146.348,264.337 127.99,268.345 		"/>
		
			<polyline fill="none" stroke="#F1F0F4" stroke-width="2" stroke-linecap="round" stroke-linejoin="round" stroke-miterlimit="10" points="
			127.99,257.216 125.745,251.971 121.44,251.971 		"/>
	</g>
</g>
<g>
	<path fill="#4BA3CC" d="M40,163.476c0,3.3-2.679,5.665-5.954,5.256L5.954,165.22C2.679,164.811,0,161.775,0,158.476v-38
		c0-3.301,2.679-6.335,5.954-6.744l28.093-3.512c3.274-0.409,5.954,1.955,5.954,5.256L40,163.476L40,163.476z"/>
</g>
<g>
	<path fill="#4BA3CC" d="M272.2,158.476c0,3.3-2.679,6.335-5.953,6.744l-28.093,3.512c-3.274,0.409-5.954-1.956-5.954-5.256v-48
		c0-3.301,2.68-5.665,5.954-5.256l28.093,3.512c3.274,0.409,5.953,3.443,5.953,6.744V158.476z"/>
</g>
<g>
	<path fill="none" stroke="#FFFFFF" stroke-width="4" stroke-miterlimit="10" d="M166.1,163.476c0,3.3-2.7,6-6,6h-48
		c-3.3,0-6-2.7-6-6v-48c0-3.301,2.7-6,6-6h48c3.3,0,6,2.699,6,6V163.476z"/>
	<path fill="#F25A58" d="M166.1,163.476c0,3.3-2.7,6-6,6h-48c-3.3,0-6-2.7-6-6v-48c0-3.301,2.7-6,6-6h48c3.3,0,6,2.699,6,6V163.476z
		"/>
</g>
<g>
	<path fill="#FFFFFF" d="M122.565,147.073v9.952c0,0.785,0.642,1.426,1.426,1.426h9.953v-11.378H122.565L122.565,147.073z"/>
	<path fill="#FFFFFF" d="M133.944,131.382h-9.953c-0.784,0-1.426,0.643-1.426,1.428v9.952h11.379V131.382z"/>
	<path fill="#FFFFFF" d="M148.208,131.382h-9.951v11.38h11.379v-9.952C149.635,132.024,148.993,131.382,148.208,131.382z"/>
	<path fill="#FFFFFF" d="M138.256,158.451h9.951c0.785,0,1.428-0.642,1.428-1.426v-9.952h-11.379V158.451z"/>
</g>
<polyline fill="none" stroke="#F1F0F4" stroke-width="4" stroke-linecap="round" stroke-linejoin="round" stroke-miterlimit="10" points="
	250.234,132.654 257.157,139.577 250.234,146.499 "/>
<polyline fill="none" stroke="#F1F0F4" stroke-width="4" stroke-linecap="round" stroke-linejoin="round" stroke-miterlimit="10" points="
	22.043,146.398 15.12,139.476 22.043,132.553 "/>
<path fill="#FFFFFF" d="M146.357,117.186c-10.625-10.626-12.413,12.413-12.413,12.413h4.312
	C138.256,129.599,156.983,127.812,146.357,117.186z M138.84,127.038h-2.247c0,0,0.931-12,6.465-6.465
	C148.594,126.107,138.84,127.038,138.84,127.038z"/>
<path fill="#FFFFFF" d="M132.807,126.968c-1.962-0.295-8.417-1.658-3.681-6.395c2.46-2.46,4.009-1.453,4.973,0.422
	c0.332-1.082,0.727-2.156,1.203-3.151c-1.855-3.504-4.814-5.315-9.473-0.657c-8.81,8.81,2.557,11.544,6.7,12.221
	C132.56,129.011,132.642,128.131,132.807,126.968z"/>
<g>
	<g>
		<line fill="none" stroke="#F25A58" stroke-miterlimit="10" x1="135.996" y1="184.551" x2="135.996" y2="187.051"/>
		
			<line fill="none" stroke="#F25A58" stroke-miterlimit="10" stroke-dasharray="4.9868,4.9868" x1="135.996" y1="192.038" x2="135.996" y2="229.438"/>
		<line fill="none" stroke="#F25A58" stroke-miterlimit="10" x1="135.996" y1="231.933" x2="135.996" y2="234.433"/>
		<g>
			<circle fill="#F25A58" cx="135.996" cy="184.683" r="2.632"/>
		</g>
		<g>
			<polygon fill="#F25A58" points="133.133,232.113 133.646,231.636 135.996,234.164 138.345,231.636 138.858,232.113 
				135.996,235.191 			"/>
		</g>
	</g>
</g>
<path fill="#F25A58" d="M166.1,54.691c0,5.5-4.5,10-10,10h-40c-5.5,0-10-4.5-10-10v-6c0-5.5,4.5-10,10-10h40c5.5,0,10,4.5,10,10
	V54.691z"/>
<g>
	<path fill="#FFFFFF" d="M124.762,55.896v-8.531h2.795c1.004,0,1.787,0.196,2.35,0.589c0.563,0.394,0.844,0.977,0.844,1.749
		c0,0.391-0.102,0.74-0.305,1.049c-0.203,0.31-0.5,0.541-0.891,0.697c0.531,0.098,0.932,0.328,1.201,0.691
		c0.269,0.362,0.404,0.786,0.404,1.271c0,0.816-0.27,1.436-0.809,1.854s-1.303,0.63-2.291,0.63L124.762,55.896L124.762,55.896z
		 M126.473,50.938h1.143c0.457,0,0.809-0.095,1.055-0.281s0.369-0.461,0.369-0.82c0-0.395-0.124-0.686-0.372-0.873
		c-0.248-0.187-0.618-0.28-1.11-0.28h-1.084L126.473,50.938L126.473,50.938z M126.473,52.122v2.461h1.588
		c0.453,0,0.799-0.099,1.037-0.296c0.238-0.197,0.357-0.489,0.357-0.876c0-0.414-0.117-0.731-0.352-0.955
		c-0.235-0.223-0.588-0.334-1.061-0.334H126.473z"/>
	<path fill="#FFFFFF" d="M139.17,47.364v5.584c0,0.961-0.318,1.713-0.955,2.256s-1.463,0.814-2.479,0.814
		c-1.012,0-1.833-0.271-2.464-0.814s-0.946-1.295-0.946-2.256v-5.584h1.717v5.584c0,0.57,0.152,1.006,0.457,1.307
		c0.305,0.302,0.717,0.451,1.236,0.451c0.527,0,0.945-0.149,1.254-0.451c0.31-0.301,0.464-0.735,0.464-1.307v-5.584H139.17z"/>
	<path fill="#FFFFFF" d="M143.665,51.296h0.035l1.863-3.932h1.875l-2.924,5.531v3h-1.711v-3.088l-2.877-5.443h1.875L143.665,51.296z
		"/>
</g>
</svg>
