<?xml version="1.0" encoding="utf-8"?>
<!-- Generator: Adobe Illustrator 16.0.0, SVG Export Plug-In . SVG Version: 6.00 Build 0)  -->
<!DOCTYPE svg PUBLIC "-//W3C//DTD SVG 1.1//EN" "http://www.w3.org/Graphics/SVG/1.1/DTD/svg11.dtd">
<svg version="1.1" id="Layer_2" xmlns="http://www.w3.org/2000/svg" xmlns:xlink="http://www.w3.org/1999/xlink" x="0px" y="0px"
	 width="309.405px" height="258.181px" viewBox="0 0 309.405 258.181" enable-background="new 0 0 309.405 258.181"
	 xml:space="preserve">
<g>
	
		<line opacity="0.5" fill="none" stroke="#5DCBFF" stroke-linecap="round" stroke-linejoin="round" stroke-miterlimit="10" stroke-dasharray="4,6" x1="49.807" y1="0.5" x2="49.807" y2="250.5"/>
	
		<line opacity="0.5" fill="none" stroke="#5DCBFF" stroke-linecap="round" stroke-linejoin="round" stroke-miterlimit="10" stroke-dasharray="4,6" x1="251.462" y1="0.5" x2="251.462" y2="250.5"/>
</g>
<g opacity="0.5">
	
		<line fill="none" stroke="#5DCBFF" stroke-linecap="round" stroke-linejoin="round" stroke-miterlimit="10" stroke-dasharray="4,6" x1="156.418" y1="0.5" x2="156.418" y2="250.5"/>
	
		<line fill="none" stroke="#5DCBFF" stroke-linecap="round" stroke-linejoin="round" stroke-miterlimit="10" stroke-dasharray="4,6" x1="144.852" y1="0.5" x2="144.852" y2="250.5"/>
</g>
<rect x="40.916" y="15.5" opacity="0.5" fill="none" stroke="#5DCBFF" stroke-linecap="round" stroke-linejoin="round" stroke-miterlimit="10" stroke-dasharray="4,6" width="219.438" height="219.438"/>
<path fill="#3869A6" d="M128.448,179.573c-1.1,0-2-0.9-2-2v-0.654c0-1.1,0.9-2,2-2h2.047c1.1,0,2.233-0.869,2.518-1.932l5.01-18.687
	c0.285-1.062,1.418-1.932,2.518-1.932h20.186c1.101,0,2.233,0.869,2.519,1.932l5.011,18.687c0.284,1.062,1.418,1.932,2.518,1.932
	h2.047c1.1,0,2,0.9,2,2v0.654c0,1.1-0.9,2-2,2H128.448z"/>
<path fill="#C1E6E3" d="M172.821,174.919h-2.047c-1.1,0-2.233-0.869-2.518-1.932l-5.011-18.687
	c-0.285-1.062-1.418-1.932-2.519-1.932h-20.186c-1.1,0-2.233,0.869-2.518,1.932l-5.01,18.687c-0.285,1.062-1.418,1.932-2.518,1.932
	h-2.047c-1.1,0-2,0.9-2,2v0.654h48.373v-0.654C174.821,175.819,173.921,174.919,172.821,174.919z"/>
<path opacity="0.38" fill="#005780" d="M138.023,154.301l-3.129,11.67h31.48l-3.129-11.67c-0.285-1.062-1.418-1.932-2.519-1.932
	h-20.186C139.441,152.369,138.309,153.238,138.023,154.301z"/>
<g>
	<g>
		<g>
			<path fill="#043573" d="M227.884,37.606H73.386c-6.067,0-11.034,4.968-11.034,11.034v98.456c0,6.067,4.967,11.034,11.034,11.034
				h154.498c6.065,0,11.034-4.967,11.034-11.034V48.64C238.918,42.574,233.949,37.606,227.884,37.606z"/>
		</g>
		<path fill="#043573" d="M227.884,158.129c6.065,0,11.034-4.966,11.034-11.033V48.64c0-6.065-4.969-11.034-11.034-11.034h-52.438
			l-55.94,120.523H227.884z"/>
		<rect x="73.282" y="48.887" fill="#043573" width="154.705" height="98.021"/>
		<polygon fill="#043573" points="124.714,146.908 227.987,146.908 227.987,48.887 170.21,48.887 		"/>
		<circle fill="#043573" cx="104.279" cy="63.637" r="3.672"/>
		<line fill="#043573" x1="113.759" y1="63.637" x2="130.77" y2="63.637"/>
		<line fill="#043573" x1="187.973" y1="63.637" x2="204.982" y2="63.637"/>
		<line fill="#043573" x1="174.821" y1="102.897" x2="204.982" y2="102.897"/>
		<line fill="#043573" x1="107.315" y1="102.897" x2="159.525" y2="102.897"/>
		<g>
			<g>
				<line fill="#043573" x1="174.821" y1="132.524" x2="204.982" y2="132.524"/>
			</g>
			<g>
				<line fill="#043573" x1="174.821" y1="128.524" x2="204.982" y2="128.524"/>
			</g>
			<g>
				<line fill="#043573" x1="174.821" y1="124.524" x2="204.982" y2="124.524"/>
			</g>
			<g>
				<line fill="#043573" x1="174.821" y1="120.524" x2="204.982" y2="120.524"/>
			</g>
			<g>
				<line fill="#043573" x1="174.821" y1="116.524" x2="204.982" y2="116.524"/>
			</g>
			<g>
				<line fill="#043573" x1="174.821" y1="112.524" x2="204.982" y2="112.524"/>
			</g>
			<g>
				<line fill="#043573" x1="174.821" y1="108.524" x2="204.982" y2="108.524"/>
			</g>
		</g>
		<g>
			<g>
				<line fill="#043573" x1="100.606" y1="132.524" x2="132.587" y2="132.524"/>
			</g>
			<g>
				<line fill="#043573" x1="100.606" y1="128.524" x2="132.587" y2="128.524"/>
			</g>
			<g>
				<line fill="#043573" x1="100.606" y1="124.524" x2="132.587" y2="124.524"/>
			</g>
			<g>
				<line fill="#043573" x1="100.606" y1="120.524" x2="132.587" y2="120.524"/>
			</g>
			<g>
				<line fill="#043573" x1="100.606" y1="116.524" x2="132.587" y2="116.524"/>
			</g>
			<g>
				<line fill="#043573" x1="100.606" y1="112.524" x2="132.587" y2="112.524"/>
			</g>
			<g>
				<line fill="#043573" x1="100.606" y1="108.524" x2="132.587" y2="108.524"/>
			</g>
		</g>
		<g>
			<g>
				<line fill="#043573" x1="137.72" y1="132.524" x2="169.177" y2="132.524"/>
			</g>
			<g>
				<line fill="#043573" x1="137.72" y1="128.524" x2="169.177" y2="128.524"/>
			</g>
			<g>
				<line fill="#043573" x1="137.72" y1="124.524" x2="169.177" y2="124.524"/>
			</g>
			<g>
				<line fill="#043573" x1="137.72" y1="120.524" x2="169.177" y2="120.524"/>
			</g>
			<g>
				<line fill="#043573" x1="137.72" y1="116.524" x2="169.177" y2="116.524"/>
			</g>
			<g>
				<line fill="#043573" x1="137.72" y1="112.524" x2="169.177" y2="112.524"/>
			</g>
			<g>
				<line fill="#043573" x1="137.72" y1="108.524" x2="169.177" y2="108.524"/>
			</g>
		</g>
		<line fill="#043573" x1="162.201" y1="63.637" x2="179.212" y2="63.637"/>
		<rect x="100.606" y="75.943" fill="#043573" width="67" height="18.954"/>
		<rect x="174.821" y="75.943" fill="#043573" width="30" height="18.954"/>
	</g>
	<g>
		<g>
			<path fill="#135D80" d="M227.884,35.606H73.386c-6.067,0-11.034,4.968-11.034,11.034v98.456c0,6.067,4.967,11.034,11.034,11.034
				h154.498c6.065,0,11.034-4.967,11.034-11.034V46.64C238.918,40.574,233.949,35.606,227.884,35.606z"/>
		</g>
		<path fill="#135D80" d="M227.884,156.129c6.065,0,11.034-4.966,11.034-11.033V46.64c0-6.065-4.969-11.034-11.034-11.034h-52.438
			l-55.94,120.523H227.884z"/>
		<rect x="73.282" y="46.887" fill="#135D80" width="154.705" height="98.021"/>
		<polygon fill="#135D80" points="124.714,144.908 227.987,144.908 227.987,46.887 170.21,46.887 		"/>
		<circle fill="#135D80" cx="104.279" cy="61.637" r="3.672"/>
		<line fill="#135D80" x1="113.759" y1="61.637" x2="130.77" y2="61.637"/>
		<line fill="#135D80" x1="187.973" y1="61.637" x2="204.982" y2="61.637"/>
		<line fill="#135D80" x1="174.821" y1="100.897" x2="204.982" y2="100.897"/>
		<line fill="#135D80" x1="107.315" y1="100.897" x2="159.525" y2="100.897"/>
		<g>
			<g>
				<line fill="#135D80" x1="174.821" y1="130.524" x2="204.982" y2="130.524"/>
			</g>
			<g>
				<line fill="#135D80" x1="174.821" y1="126.524" x2="204.982" y2="126.524"/>
			</g>
			<g>
				<line fill="#135D80" x1="174.821" y1="122.524" x2="204.982" y2="122.524"/>
			</g>
			<g>
				<line fill="#135D80" x1="174.821" y1="118.524" x2="204.982" y2="118.524"/>
			</g>
			<g>
				<line fill="#135D80" x1="174.821" y1="114.524" x2="204.982" y2="114.524"/>
			</g>
			<g>
				<line fill="#135D80" x1="174.821" y1="110.524" x2="204.982" y2="110.524"/>
			</g>
			<g>
				<line fill="#135D80" x1="174.821" y1="106.524" x2="204.982" y2="106.524"/>
			</g>
		</g>
		<g>
			<g>
				<line fill="#135D80" x1="100.606" y1="130.524" x2="132.587" y2="130.524"/>
			</g>
			<g>
				<line fill="#135D80" x1="100.606" y1="126.524" x2="132.587" y2="126.524"/>
			</g>
			<g>
				<line fill="#135D80" x1="100.606" y1="122.524" x2="132.587" y2="122.524"/>
			</g>
			<g>
				<line fill="#135D80" x1="100.606" y1="118.524" x2="132.587" y2="118.524"/>
			</g>
			<g>
				<line fill="#135D80" x1="100.606" y1="114.524" x2="132.587" y2="114.524"/>
			</g>
			<g>
				<line fill="#135D80" x1="100.606" y1="110.524" x2="132.587" y2="110.524"/>
			</g>
			<g>
				<line fill="#135D80" x1="100.606" y1="106.524" x2="132.587" y2="106.524"/>
			</g>
		</g>
		<g>
			<g>
				<line fill="#135D80" x1="137.72" y1="130.524" x2="169.177" y2="130.524"/>
			</g>
			<g>
				<line fill="#135D80" x1="137.72" y1="126.524" x2="169.177" y2="126.524"/>
			</g>
			<g>
				<line fill="#135D80" x1="137.72" y1="122.524" x2="169.177" y2="122.524"/>
			</g>
			<g>
				<line fill="#135D80" x1="137.72" y1="118.524" x2="169.177" y2="118.524"/>
			</g>
			<g>
				<line fill="#135D80" x1="137.72" y1="114.524" x2="169.177" y2="114.524"/>
			</g>
			<g>
				<line fill="#135D80" x1="137.72" y1="110.524" x2="169.177" y2="110.524"/>
			</g>
			<g>
				<line fill="#135D80" x1="137.72" y1="106.524" x2="169.177" y2="106.524"/>
			</g>
		</g>
		<line fill="#135D80" x1="162.201" y1="61.637" x2="179.212" y2="61.637"/>
		<rect x="100.606" y="73.943" fill="#135D80" width="67" height="18.954"/>
		<rect x="174.821" y="73.943" fill="#135D80" width="30" height="18.954"/>
	</g>
	<g>
		<g>
			<path fill="#005780" d="M227.884,34.606H73.386c-6.067,0-11.034,4.968-11.034,11.034v98.456c0,6.067,4.967,11.034,11.034,11.034
				h154.498c6.065,0,11.034-4.967,11.034-11.034V45.64C238.918,39.574,233.949,34.606,227.884,34.606z"/>
		</g>
		<path fill="#005780" d="M227.884,155.129c6.065,0,11.034-4.966,11.034-11.033V45.64c0-6.065-4.969-11.034-11.034-11.034h-52.438
			l-55.94,120.523H227.884z"/>
		<rect x="73.282" y="45.887" fill="#005780" width="154.705" height="98.021"/>
		<polygon fill="#005780" points="124.714,143.908 227.987,143.908 227.987,45.887 170.21,45.887 		"/>
		<circle fill="#005780" cx="104.279" cy="60.637" r="3.672"/>
		<line fill="#005780" x1="113.759" y1="60.637" x2="130.77" y2="60.637"/>
		<line fill="#005780" x1="187.973" y1="60.637" x2="204.982" y2="60.637"/>
		<line fill="#005780" x1="174.821" y1="99.897" x2="204.982" y2="99.897"/>
		<line fill="#005780" x1="107.315" y1="99.897" x2="159.525" y2="99.897"/>
		<g>
			<g>
				<line fill="#005780" x1="174.821" y1="129.524" x2="204.982" y2="129.524"/>
			</g>
			<g>
				<line fill="#005780" x1="174.821" y1="125.524" x2="204.982" y2="125.524"/>
			</g>
			<g>
				<line fill="#005780" x1="174.821" y1="121.524" x2="204.982" y2="121.524"/>
			</g>
			<g>
				<line fill="#005780" x1="174.821" y1="117.524" x2="204.982" y2="117.524"/>
			</g>
			<g>
				<line fill="#005780" x1="174.821" y1="113.524" x2="204.982" y2="113.524"/>
			</g>
			<g>
				<line fill="#005780" x1="174.821" y1="109.524" x2="204.982" y2="109.524"/>
			</g>
			<g>
				<line fill="#005780" x1="174.821" y1="105.524" x2="204.982" y2="105.524"/>
			</g>
		</g>
		<g>
			<g>
				<line fill="#005780" x1="100.606" y1="129.524" x2="132.587" y2="129.524"/>
			</g>
			<g>
				<line fill="#005780" x1="100.606" y1="125.524" x2="132.587" y2="125.524"/>
			</g>
			<g>
				<line fill="#005780" x1="100.606" y1="121.524" x2="132.587" y2="121.524"/>
			</g>
			<g>
				<line fill="#005780" x1="100.606" y1="117.524" x2="132.587" y2="117.524"/>
			</g>
			<g>
				<line fill="#005780" x1="100.606" y1="113.524" x2="132.587" y2="113.524"/>
			</g>
			<g>
				<line fill="#005780" x1="100.606" y1="109.524" x2="132.587" y2="109.524"/>
			</g>
			<g>
				<line fill="#005780" x1="100.606" y1="105.524" x2="132.587" y2="105.524"/>
			</g>
		</g>
		<g>
			<g>
				<line fill="#005780" x1="137.72" y1="129.524" x2="169.177" y2="129.524"/>
			</g>
			<g>
				<line fill="#005780" x1="137.72" y1="125.524" x2="169.177" y2="125.524"/>
			</g>
			<g>
				<line fill="#005780" x1="137.72" y1="121.524" x2="169.177" y2="121.524"/>
			</g>
			<g>
				<line fill="#005780" x1="137.72" y1="117.524" x2="169.177" y2="117.524"/>
			</g>
			<g>
				<line fill="#005780" x1="137.72" y1="113.524" x2="169.177" y2="113.524"/>
			</g>
			<g>
				<line fill="#005780" x1="137.72" y1="109.524" x2="169.177" y2="109.524"/>
			</g>
			<g>
				<line fill="#005780" x1="137.72" y1="105.524" x2="169.177" y2="105.524"/>
			</g>
		</g>
		<line fill="#005780" x1="162.201" y1="60.637" x2="179.212" y2="60.637"/>
		<rect x="100.606" y="72.943" fill="#005780" width="67" height="18.954"/>
		<rect x="174.821" y="72.943" fill="#005780" width="30" height="18.954"/>
	</g>
	<g>
		<path opacity="0.2" fill="#4BA3CC" d="M227.884,155.129c6.065,0,11.034-4.966,11.034-11.033V45.64
			c0-6.065-4.969-11.034-11.034-11.034h-52.438l-55.94,120.523H227.884z"/>
		<rect x="73.282" y="45.887" fill="#FFFFFF" width="154.705" height="98.021"/>
		<polygon opacity="0.1" fill="#C8E6F5" points="124.714,143.908 227.987,143.908 227.987,45.887 170.21,45.887 		"/>
		
			<circle fill="#FF6633" stroke="#FF5B34" stroke-width="3" stroke-linecap="round" stroke-linejoin="round" stroke-miterlimit="10" cx="104.279" cy="60.637" r="3.672"/>
		
			<line fill="none" stroke="#FF5B34" stroke-width="3" stroke-linecap="round" stroke-linejoin="round" stroke-miterlimit="10" x1="113.759" y1="60.637" x2="130.77" y2="60.637"/>
		
			<line fill="none" stroke="#7CB4DA" stroke-width="2" stroke-linecap="round" stroke-linejoin="round" stroke-miterlimit="10" x1="187.973" y1="60.637" x2="204.982" y2="60.637"/>
		
			<line fill="none" stroke="#7CB4DA" stroke-width="2" stroke-linecap="round" stroke-linejoin="round" stroke-miterlimit="10" x1="174.821" y1="99.897" x2="204.982" y2="99.897"/>
		
			<line fill="none" stroke="#F25A58" stroke-width="2" stroke-linecap="round" stroke-linejoin="round" stroke-miterlimit="10" x1="107.315" y1="99.897" x2="159.525" y2="99.897"/>
		<g>
			<g>
				
					<line fill="none" stroke="#AABCC7" stroke-width="2" stroke-linecap="round" stroke-linejoin="round" stroke-miterlimit="10" x1="174.821" y1="129.524" x2="204.982" y2="129.524"/>
			</g>
			<g>
				
					<line fill="none" stroke="#AABCC7" stroke-width="2" stroke-linecap="round" stroke-linejoin="round" stroke-miterlimit="10" x1="174.821" y1="125.524" x2="204.982" y2="125.524"/>
			</g>
			<g>
				
					<line fill="none" stroke="#AABCC7" stroke-width="2" stroke-linecap="round" stroke-linejoin="round" stroke-miterlimit="10" x1="174.821" y1="121.524" x2="204.982" y2="121.524"/>
			</g>
			<g>
				
					<line fill="none" stroke="#AABCC7" stroke-width="2" stroke-linecap="round" stroke-linejoin="round" stroke-miterlimit="10" x1="174.821" y1="117.524" x2="204.982" y2="117.524"/>
			</g>
			<g>
				
					<line fill="none" stroke="#AABCC7" stroke-width="2" stroke-linecap="round" stroke-linejoin="round" stroke-miterlimit="10" x1="174.821" y1="113.524" x2="204.982" y2="113.524"/>
			</g>
			<g>
				
					<line fill="none" stroke="#AABCC7" stroke-width="2" stroke-linecap="round" stroke-linejoin="round" stroke-miterlimit="10" x1="174.821" y1="109.524" x2="204.982" y2="109.524"/>
			</g>
			<g>
				
					<line fill="none" stroke="#AABCC7" stroke-width="2" stroke-linecap="round" stroke-linejoin="round" stroke-miterlimit="10" x1="174.821" y1="105.524" x2="204.982" y2="105.524"/>
			</g>
		</g>
		<g>
			<g>
				
					<line fill="none" stroke="#AABCC7" stroke-width="2" stroke-linecap="round" stroke-linejoin="round" stroke-miterlimit="10" x1="100.606" y1="129.524" x2="132.587" y2="129.524"/>
			</g>
			<g>
				
					<line fill="none" stroke="#AABCC7" stroke-width="2" stroke-linecap="round" stroke-linejoin="round" stroke-miterlimit="10" x1="100.606" y1="125.524" x2="132.587" y2="125.524"/>
			</g>
			<g>
				
					<line fill="none" stroke="#AABCC7" stroke-width="2" stroke-linecap="round" stroke-linejoin="round" stroke-miterlimit="10" x1="100.606" y1="121.524" x2="132.587" y2="121.524"/>
			</g>
			<g>
				
					<line fill="none" stroke="#AABCC7" stroke-width="2" stroke-linecap="round" stroke-linejoin="round" stroke-miterlimit="10" x1="100.606" y1="117.524" x2="132.587" y2="117.524"/>
			</g>
			<g>
				
					<line fill="none" stroke="#AABCC7" stroke-width="2" stroke-linecap="round" stroke-linejoin="round" stroke-miterlimit="10" x1="100.606" y1="113.524" x2="132.587" y2="113.524"/>
			</g>
			<g>
				
					<line fill="none" stroke="#AABCC7" stroke-width="2" stroke-linecap="round" stroke-linejoin="round" stroke-miterlimit="10" x1="100.606" y1="109.524" x2="132.587" y2="109.524"/>
			</g>
			<g>
				
					<line fill="none" stroke="#AABCC7" stroke-width="2" stroke-linecap="round" stroke-linejoin="round" stroke-miterlimit="10" x1="100.606" y1="105.524" x2="132.587" y2="105.524"/>
			</g>
		</g>
		<g>
			<g>
				
					<line fill="none" stroke="#AABCC7" stroke-width="2" stroke-linecap="round" stroke-linejoin="round" stroke-miterlimit="10" x1="137.72" y1="129.524" x2="169.177" y2="129.524"/>
			</g>
			<g>
				
					<line fill="none" stroke="#AABCC7" stroke-width="2" stroke-linecap="round" stroke-linejoin="round" stroke-miterlimit="10" x1="137.72" y1="125.524" x2="169.177" y2="125.524"/>
			</g>
			<g>
				
					<line fill="none" stroke="#AABCC7" stroke-width="2" stroke-linecap="round" stroke-linejoin="round" stroke-miterlimit="10" x1="137.72" y1="121.524" x2="169.177" y2="121.524"/>
			</g>
			<g>
				
					<line fill="none" stroke="#AABCC7" stroke-width="2" stroke-linecap="round" stroke-linejoin="round" stroke-miterlimit="10" x1="137.72" y1="117.524" x2="169.177" y2="117.524"/>
			</g>
			<g>
				
					<line fill="none" stroke="#AABCC7" stroke-width="2" stroke-linecap="round" stroke-linejoin="round" stroke-miterlimit="10" x1="137.72" y1="113.524" x2="169.177" y2="113.524"/>
			</g>
			<g>
				
					<line fill="none" stroke="#AABCC7" stroke-width="2" stroke-linecap="round" stroke-linejoin="round" stroke-miterlimit="10" x1="137.72" y1="109.524" x2="169.177" y2="109.524"/>
			</g>
			<g>
				
					<line fill="none" stroke="#AABCC7" stroke-width="2" stroke-linecap="round" stroke-linejoin="round" stroke-miterlimit="10" x1="137.72" y1="105.524" x2="169.177" y2="105.524"/>
			</g>
		</g>
		
			<line fill="none" stroke="#7CB4DA" stroke-width="2" stroke-linecap="round" stroke-linejoin="round" stroke-miterlimit="10" x1="162.201" y1="60.637" x2="179.212" y2="60.637"/>
		
			<rect x="100.606" y="72.943" fill="#ABE4FF" stroke="#4BA3CC" stroke-width="3" stroke-linecap="round" stroke-linejoin="round" stroke-miterlimit="10" width="67" height="18.954"/>
		
			<rect x="174.821" y="72.943" fill="#FF9A99" stroke="#F25A58" stroke-width="3" stroke-linecap="round" stroke-linejoin="round" stroke-miterlimit="10" width="30" height="18.954"/>
	</g>
</g>
<g>
	<g>
		<g>
			<path fill="#043573" d="M291.235,119.194H201.65c-3.519,0-6.398,2.881-6.398,6.398v57.089c0,3.518,2.88,6.397,6.398,6.397h89.585
				c3.517,0,6.397-2.88,6.397-6.397v-57.089C297.633,122.075,294.752,119.194,291.235,119.194z"/>
		</g>
		<path fill="#043573" d="M291.235,189.079c3.517,0,6.397-2.88,6.397-6.397v-57.089c0-3.517-2.881-6.398-6.397-6.398h-30.406
			l-32.437,69.885H291.235z"/>
		<rect x="201.59" y="125.735" fill="#043573" width="89.705" height="56.838"/>
		<g>
			<circle fill="#043573" cx="210.404" cy="134.638" r="2.771"/>
			<line fill="#043573" x1="217.559" y1="134.638" x2="230.396" y2="134.638"/>
			<line fill="#043573" x1="273.562" y1="134.638" x2="286.399" y2="134.638"/>
			<line fill="#043573" x1="263.639" y1="164.266" x2="286.399" y2="164.266"/>
			<line fill="#043573" x1="213.243" y1="164.266" x2="252.643" y2="164.266"/>
			<g>
				<g>
					<line fill="#043573" x1="263.639" y1="177.566" x2="286.399" y2="177.566"/>
				</g>
				<g>
					<line fill="#043573" x1="263.639" y1="174.548" x2="286.399" y2="174.548"/>
				</g>
				<g>
					<line fill="#043573" x1="263.639" y1="171.529" x2="286.399" y2="171.529"/>
				</g>
				<g>
					<line fill="#043573" x1="263.639" y1="168.511" x2="286.399" y2="168.511"/>
				</g>
			</g>
			<g>
				<g>
					<line fill="#043573" x1="207.633" y1="177.566" x2="231.767" y2="177.566"/>
				</g>
				<g>
					<line fill="#043573" x1="207.633" y1="174.548" x2="231.767" y2="174.548"/>
				</g>
				<g>
					<line fill="#043573" x1="207.633" y1="171.529" x2="231.767" y2="171.529"/>
				</g>
				<g>
					<line fill="#043573" x1="207.633" y1="168.511" x2="231.767" y2="168.511"/>
				</g>
			</g>
			<g>
				<g>
					<line fill="#043573" x1="235.641" y1="177.566" x2="259.379" y2="177.566"/>
				</g>
				<g>
					<line fill="#043573" x1="235.641" y1="174.548" x2="259.379" y2="174.548"/>
				</g>
				<g>
					<line fill="#043573" x1="235.641" y1="171.529" x2="259.379" y2="171.529"/>
				</g>
				<g>
					<line fill="#043573" x1="235.641" y1="168.511" x2="259.379" y2="168.511"/>
				</g>
			</g>
			<line fill="#043573" x1="254.115" y1="134.638" x2="266.952" y2="134.638"/>
			<rect x="207.633" y="143.925" fill="#043573" width="50.561" height="14.303"/>
			<rect x="263.639" y="143.925" fill="#043573" width="22.64" height="14.303"/>
		</g>
		<polygon fill="#043573" points="231.412,182.573 291.295,182.573 291.295,125.735 257.793,125.735 		"/>
	</g>
	<g>
		<g>
			<path fill="#005780" d="M291.235,116.194H201.65c-3.519,0-6.398,2.881-6.398,6.398v57.089c0,3.518,2.88,6.397,6.398,6.397h89.585
				c3.517,0,6.397-2.88,6.397-6.397v-57.089C297.633,119.075,294.752,116.194,291.235,116.194z"/>
		</g>
		<path fill="#005780" d="M291.235,186.079c3.517,0,6.397-2.88,6.397-6.397v-57.089c0-3.517-2.881-6.398-6.397-6.398h-30.406
			l-32.437,69.885H291.235z"/>
		<rect x="201.59" y="122.735" fill="#005780" width="89.705" height="56.838"/>
		<g>
			<circle fill="#005780" cx="210.404" cy="131.638" r="2.771"/>
			<line fill="#005780" x1="217.559" y1="131.638" x2="230.396" y2="131.638"/>
			<line fill="#005780" x1="273.562" y1="131.638" x2="286.399" y2="131.638"/>
			<line fill="#005780" x1="263.639" y1="161.266" x2="286.399" y2="161.266"/>
			<line fill="#005780" x1="213.243" y1="161.266" x2="252.643" y2="161.266"/>
			<g>
				<g>
					<line fill="#005780" x1="263.639" y1="174.566" x2="286.399" y2="174.566"/>
				</g>
				<g>
					<line fill="#005780" x1="263.639" y1="171.548" x2="286.399" y2="171.548"/>
				</g>
				<g>
					<line fill="#005780" x1="263.639" y1="168.529" x2="286.399" y2="168.529"/>
				</g>
				<g>
					<line fill="#005780" x1="263.639" y1="165.511" x2="286.399" y2="165.511"/>
				</g>
			</g>
			<g>
				<g>
					<line fill="#005780" x1="207.633" y1="174.566" x2="231.767" y2="174.566"/>
				</g>
				<g>
					<line fill="#005780" x1="207.633" y1="171.548" x2="231.767" y2="171.548"/>
				</g>
				<g>
					<line fill="#005780" x1="207.633" y1="168.529" x2="231.767" y2="168.529"/>
				</g>
				<g>
					<line fill="#005780" x1="207.633" y1="165.511" x2="231.767" y2="165.511"/>
				</g>
			</g>
			<g>
				<g>
					<line fill="#005780" x1="235.641" y1="174.566" x2="259.379" y2="174.566"/>
				</g>
				<g>
					<line fill="#005780" x1="235.641" y1="171.548" x2="259.379" y2="171.548"/>
				</g>
				<g>
					<line fill="#005780" x1="235.641" y1="168.529" x2="259.379" y2="168.529"/>
				</g>
				<g>
					<line fill="#005780" x1="235.641" y1="165.511" x2="259.379" y2="165.511"/>
				</g>
			</g>
			<line fill="#005780" x1="254.115" y1="131.638" x2="266.952" y2="131.638"/>
			<rect x="207.633" y="140.925" fill="#005780" width="50.561" height="14.303"/>
			<rect x="263.639" y="140.925" fill="#005780" width="22.64" height="14.303"/>
		</g>
		<polygon fill="#005780" points="231.412,179.573 291.295,179.573 291.295,122.735 257.793,122.735 		"/>
	</g>
	<g>
		<path opacity="0.2" fill="#4BA3CC" d="M291.235,186.079c3.517,0,6.397-2.88,6.397-6.397v-57.089c0-3.517-2.881-6.398-6.397-6.398
			h-30.406l-32.437,69.885H291.235z"/>
		<rect x="201.59" y="122.735" fill="#FFFFFF" width="89.705" height="56.838"/>
		<g>
			
				<circle fill="#FF6633" stroke="#FF5B34" stroke-width="2.2639" stroke-linecap="round" stroke-linejoin="round" stroke-miterlimit="10" cx="210.404" cy="131.638" r="2.771"/>
			
				<line fill="none" stroke="#FF5B34" stroke-width="2.2639" stroke-linecap="round" stroke-linejoin="round" stroke-miterlimit="10" x1="217.559" y1="131.638" x2="230.396" y2="131.638"/>
			
				<line fill="none" stroke="#7CB4DA" stroke-width="1.5093" stroke-linecap="round" stroke-linejoin="round" stroke-miterlimit="10" x1="273.562" y1="131.638" x2="286.399" y2="131.638"/>
			
				<line fill="none" stroke="#7CB4DA" stroke-width="1.5093" stroke-linecap="round" stroke-linejoin="round" stroke-miterlimit="10" x1="263.639" y1="161.266" x2="286.399" y2="161.266"/>
			
				<line fill="none" stroke="#F25A58" stroke-width="1.5093" stroke-linecap="round" stroke-linejoin="round" stroke-miterlimit="10" x1="213.243" y1="161.266" x2="252.643" y2="161.266"/>
			<g>
				<g>
					
						<line fill="none" stroke="#AABCC7" stroke-width="1.5093" stroke-linecap="round" stroke-linejoin="round" stroke-miterlimit="10" x1="263.639" y1="174.566" x2="286.399" y2="174.566"/>
				</g>
				<g>
					
						<line fill="none" stroke="#AABCC7" stroke-width="1.5093" stroke-linecap="round" stroke-linejoin="round" stroke-miterlimit="10" x1="263.639" y1="171.548" x2="286.399" y2="171.548"/>
				</g>
				<g>
					
						<line fill="none" stroke="#AABCC7" stroke-width="1.5093" stroke-linecap="round" stroke-linejoin="round" stroke-miterlimit="10" x1="263.639" y1="168.529" x2="286.399" y2="168.529"/>
				</g>
				<g>
					
						<line fill="none" stroke="#AABCC7" stroke-width="1.5093" stroke-linecap="round" stroke-linejoin="round" stroke-miterlimit="10" x1="263.639" y1="165.511" x2="286.399" y2="165.511"/>
				</g>
			</g>
			<g>
				<g>
					
						<line fill="none" stroke="#AABCC7" stroke-width="1.5093" stroke-linecap="round" stroke-linejoin="round" stroke-miterlimit="10" x1="207.633" y1="174.566" x2="231.767" y2="174.566"/>
				</g>
				<g>
					
						<line fill="none" stroke="#AABCC7" stroke-width="1.5093" stroke-linecap="round" stroke-linejoin="round" stroke-miterlimit="10" x1="207.633" y1="171.548" x2="231.767" y2="171.548"/>
				</g>
				<g>
					
						<line fill="none" stroke="#AABCC7" stroke-width="1.5093" stroke-linecap="round" stroke-linejoin="round" stroke-miterlimit="10" x1="207.633" y1="168.529" x2="231.767" y2="168.529"/>
				</g>
				<g>
					
						<line fill="none" stroke="#AABCC7" stroke-width="1.5093" stroke-linecap="round" stroke-linejoin="round" stroke-miterlimit="10" x1="207.633" y1="165.511" x2="231.767" y2="165.511"/>
				</g>
			</g>
			<g>
				<g>
					
						<line fill="none" stroke="#AABCC7" stroke-width="1.5093" stroke-linecap="round" stroke-linejoin="round" stroke-miterlimit="10" x1="235.641" y1="174.566" x2="259.379" y2="174.566"/>
				</g>
				<g>
					
						<line fill="none" stroke="#AABCC7" stroke-width="1.5093" stroke-linecap="round" stroke-linejoin="round" stroke-miterlimit="10" x1="235.641" y1="171.548" x2="259.379" y2="171.548"/>
				</g>
				<g>
					
						<line fill="none" stroke="#AABCC7" stroke-width="1.5093" stroke-linecap="round" stroke-linejoin="round" stroke-miterlimit="10" x1="235.641" y1="168.529" x2="259.379" y2="168.529"/>
				</g>
				<g>
					
						<line fill="none" stroke="#AABCC7" stroke-width="1.5093" stroke-linecap="round" stroke-linejoin="round" stroke-miterlimit="10" x1="235.641" y1="165.511" x2="259.379" y2="165.511"/>
				</g>
			</g>
			
				<line fill="none" stroke="#7CB4DA" stroke-width="1.5093" stroke-linecap="round" stroke-linejoin="round" stroke-miterlimit="10" x1="254.115" y1="131.638" x2="266.952" y2="131.638"/>
			
				<rect x="207.633" y="140.925" fill="#ABE4FF" stroke="#4BA3CC" stroke-width="2.2639" stroke-linecap="round" stroke-linejoin="round" stroke-miterlimit="10" width="50.561" height="14.303"/>
			
				<rect x="263.639" y="140.925" fill="#FF9A99" stroke="#F25A58" stroke-width="2.2639" stroke-linecap="round" stroke-linejoin="round" stroke-miterlimit="10" width="22.64" height="14.303"/>
		</g>
		<polygon opacity="0.1" fill="#C8E6F5" points="231.412,179.573 291.295,179.573 291.295,122.735 257.793,122.735 		"/>
	</g>
</g>
<g>
	<g>
		<path fill="#043573" d="M106.418,122.664H16.833c-3.518,0-6.398,2.88-6.398,6.398v57.089c0,3.518,2.88,6.397,6.398,6.397h89.585
			c3.517,0,6.398-2.88,6.398-6.397v-57.089C112.816,125.544,109.936,122.664,106.418,122.664z"/>
		<path fill="#005780" d="M106.418,121.164H16.833c-3.518,0-6.398,2.88-6.398,6.398v57.089c0,3.518,2.88,6.397,6.398,6.397h89.585
			c3.517,0,6.398-2.88,6.398-6.397v-57.089C112.816,124.044,109.936,121.164,106.418,121.164z"/>
	</g>
	<path opacity="0.2" fill="#4BA3CC" d="M106.418,191.049c3.517,0,6.398-2.88,6.398-6.397v-57.089c0-3.518-2.881-6.398-6.398-6.398
		H76.013l-32.437,69.885H106.418z"/>
	<rect x="16.773" y="127.705" fill="#FFFFFF" width="89.706" height="56.837"/>
	<g>
		
			<circle fill="#FF6633" stroke="#FF5B34" stroke-width="1.9413" stroke-linecap="round" stroke-linejoin="round" stroke-miterlimit="10" cx="34.272" cy="135.59" r="2.376"/>
		
			<line fill="none" stroke="#FF5B34" stroke-width="2.6447" stroke-linecap="round" stroke-linejoin="round" stroke-miterlimit="10" x1="41.49" y1="135.59" x2="56.486" y2="135.59"/>
		
			<line fill="none" stroke="#7CB4DA" stroke-width="1.4706" stroke-linecap="round" stroke-linejoin="round" stroke-miterlimit="10" x1="81.913" y1="135.59" x2="92.345" y2="135.59"/>
		
			<line fill="none" stroke="#F25A58" stroke-width="1.7631" stroke-linecap="round" stroke-linejoin="round" stroke-miterlimit="10" x1="38.143" y1="169.201" x2="84.169" y2="169.201"/>
		<g>
			<g>
				
					<line fill="none" stroke="#AABCC7" stroke-width="1.7631" stroke-linecap="round" stroke-linejoin="round" stroke-miterlimit="10" x1="31.896" y1="181.213" x2="60.088" y2="181.213"/>
			</g>
			<g>
				
					<line fill="none" stroke="#AABCC7" stroke-width="1.7631" stroke-linecap="round" stroke-linejoin="round" stroke-miterlimit="10" x1="31.896" y1="177.688" x2="60.088" y2="177.688"/>
			</g>
			<g>
				
					<line fill="none" stroke="#AABCC7" stroke-width="1.7631" stroke-linecap="round" stroke-linejoin="round" stroke-miterlimit="10" x1="31.896" y1="174.161" x2="60.088" y2="174.161"/>
			</g>
		</g>
		<g>
			<g>
				
					<line fill="none" stroke="#AABCC7" stroke-width="1.7631" stroke-linecap="round" stroke-linejoin="round" stroke-miterlimit="10" x1="64.613" y1="181.213" x2="92.345" y2="181.213"/>
			</g>
			<g>
				
					<line fill="none" stroke="#AABCC7" stroke-width="1.7631" stroke-linecap="round" stroke-linejoin="round" stroke-miterlimit="10" x1="64.613" y1="177.688" x2="92.345" y2="177.688"/>
			</g>
			<g>
				
					<line fill="none" stroke="#AABCC7" stroke-width="1.7631" stroke-linecap="round" stroke-linejoin="round" stroke-miterlimit="10" x1="64.613" y1="174.161" x2="92.345" y2="174.161"/>
			</g>
		</g>
		
			<line fill="none" stroke="#7CB4DA" stroke-width="1.4706" stroke-linecap="round" stroke-linejoin="round" stroke-miterlimit="10" x1="66.108" y1="135.59" x2="76.54" y2="135.59"/>
		
			<rect x="31.896" y="145.438" fill="#ABE4FF" stroke="#4BA3CC" stroke-width="2.6447" stroke-linecap="round" stroke-linejoin="round" stroke-miterlimit="10" width="59.064" height="16.71"/>
	</g>
	<polygon opacity="0.1" fill="#C8E6F5" points="46.596,184.542 106.479,184.542 106.479,127.705 72.977,127.705 	"/>
</g>
<g>
	<path fill="#3869A6" d="M183.479,182.062v4.621c0,2.4,1.966,4.365,4.366,4.365h117.193c2.4,0,4.366-1.965,4.366-4.365v-4.621
		H183.479z"/>
	<rect x="183.479" y="182.062" fill="#C1E6E3" width="125.926" height="4.621"/>
	<path fill="#005780" d="M233.535,182.062v0.548c0,0.492,0.403,0.895,0.895,0.895h24.025c0.492,0,0.895-0.402,0.895-0.895v-0.548
		H233.535z"/>
</g>
<g>
	<g>
		<path fill="#043573" d="M139.016,202.438v-60.701c0-2.334-1.911-4.245-4.245-4.245h-27.228c-2.334,0-4.245,1.911-4.245,4.245
			v60.701c0,2.333,1.911,4.244,4.245,4.244h27.228C137.104,206.683,139.016,204.771,139.016,202.438z"/>
		<path fill="#005780" d="M139.016,200.938v-60.701c0-2.334-1.911-4.245-4.245-4.245h-27.228c-2.334,0-4.245,1.911-4.245,4.245
			v60.701c0,2.333,1.911,4.244,4.245,4.244h27.228C137.104,205.183,139.016,203.271,139.016,200.938z"/>
	</g>
	<circle fill="#0587BF" cx="121.157" cy="199.697" r="2.24"/>
	
		<line fill="none" stroke="#0668A4" stroke-linecap="round" stroke-linejoin="round" stroke-miterlimit="10" x1="117.699" y1="139.822" x2="124.616" y2="139.822"/>
	<path opacity="0.2" fill="#4BA3CC" d="M134.771,205.183c2.333,0,4.245-1.911,4.245-4.244v-60.701c0-2.334-1.911-4.245-4.245-4.245
		h-10.155l-11.799,69.19H134.771z"/>
	<rect x="106.205" y="145.147" fill="#FFFFFF" width="29.771" height="50.194"/>
	<g>
		
			<circle fill="#FF6633" stroke="#FF5B34" stroke-width="2.0892" stroke-linecap="round" stroke-linejoin="round" stroke-miterlimit="10" cx="112.902" cy="152.055" r="2.557"/>
		
			<line fill="none" stroke="#FF5B34" stroke-width="2.0892" stroke-linecap="round" stroke-linejoin="round" stroke-miterlimit="10" x1="119.504" y1="152.055" x2="131.35" y2="152.055"/>
		
			<line fill="none" stroke="#F25A58" stroke-width="1.3928" stroke-linecap="round" stroke-linejoin="round" stroke-miterlimit="10" x1="110.344" y1="179.396" x2="131.35" y2="179.396"/>
		<g>
			<g>
				
					<line fill="none" stroke="#AABCC7" stroke-width="1.3928" stroke-linecap="round" stroke-linejoin="round" stroke-miterlimit="10" x1="110.344" y1="188.885" x2="131.35" y2="188.885"/>
			</g>
			<g>
				
					<line fill="none" stroke="#AABCC7" stroke-width="1.3928" stroke-linecap="round" stroke-linejoin="round" stroke-miterlimit="10" x1="110.344" y1="186.1" x2="131.35" y2="186.1"/>
			</g>
			<g>
				
					<line fill="none" stroke="#AABCC7" stroke-width="1.3928" stroke-linecap="round" stroke-linejoin="round" stroke-miterlimit="10" x1="110.344" y1="183.313" x2="131.35" y2="183.313"/>
			</g>
		</g>
		
			<rect x="110.344" y="160.625" fill="#ABE4FF" stroke="#4BA3CC" stroke-width="2.0892" stroke-linecap="round" stroke-linejoin="round" stroke-miterlimit="10" width="21.006" height="13.199"/>
	</g>
	<polygon opacity="0.1" fill="#C8E6F5" points="114.495,195.342 123.055,145.147 135.976,145.147 135.976,195.342 	"/>
</g>
<g>
	<g>
		
			<line fill="none" stroke="#5DCBFF" stroke-width="0.5" stroke-linecap="round" stroke-linejoin="round" stroke-miterlimit="10" x1="33.374" y1="45.887" x2="26.451" y2="52.81"/>
		
			<line fill="none" stroke="#5DCBFF" stroke-width="0.5" stroke-linecap="round" stroke-linejoin="round" stroke-miterlimit="10" x1="26.451" y1="38.964" x2="33.374" y2="45.887"/>
	</g>
	
		<line fill="none" stroke="#5DCBFF" stroke-width="0.5" stroke-linecap="round" stroke-linejoin="round" stroke-miterlimit="10" x1="14.374" y1="45.887" x2="33.374" y2="45.887"/>
	<g>
		
			<line fill="none" stroke="#5DCBFF" stroke-width="0.5" stroke-linecap="round" stroke-linejoin="round" stroke-miterlimit="10" x1="267.896" y1="45.887" x2="274.818" y2="38.964"/>
		
			<line fill="none" stroke="#5DCBFF" stroke-width="0.5" stroke-linecap="round" stroke-linejoin="round" stroke-miterlimit="10" x1="274.818" y1="52.81" x2="267.896" y2="45.887"/>
	</g>
	
		<line fill="none" stroke="#5DCBFF" stroke-width="0.5" stroke-linecap="round" stroke-linejoin="round" stroke-miterlimit="10" x1="286.896" y1="45.887" x2="267.896" y2="45.887"/>
</g>
<g>
	<g>
		
			<line fill="none" stroke="#5DCBFF" stroke-width="0.5" stroke-linecap="round" stroke-linejoin="round" stroke-miterlimit="10" x1="33.374" y1="215.475" x2="26.451" y2="222.397"/>
		
			<line fill="none" stroke="#5DCBFF" stroke-width="0.5" stroke-linecap="round" stroke-linejoin="round" stroke-miterlimit="10" x1="26.451" y1="208.552" x2="33.374" y2="215.475"/>
	</g>
	
		<line fill="none" stroke="#5DCBFF" stroke-width="0.5" stroke-linecap="round" stroke-linejoin="round" stroke-miterlimit="10" x1="14.374" y1="215.475" x2="33.374" y2="215.475"/>
	<g>
		
			<line fill="none" stroke="#5DCBFF" stroke-width="0.5" stroke-linecap="round" stroke-linejoin="round" stroke-miterlimit="10" x1="267.896" y1="215.475" x2="274.818" y2="208.552"/>
		
			<line fill="none" stroke="#5DCBFF" stroke-width="0.5" stroke-linecap="round" stroke-linejoin="round" stroke-miterlimit="10" x1="274.818" y1="222.397" x2="267.896" y2="215.475"/>
	</g>
	
		<line fill="none" stroke="#5DCBFF" stroke-width="0.5" stroke-linecap="round" stroke-linejoin="round" stroke-miterlimit="10" x1="286.896" y1="215.475" x2="267.896" y2="215.475"/>
</g>
<g>
	<path fill="#ABE4FF" d="M0,90.934c0-1.776,1.453-3.229,3.229-3.229h43.06c1.776,0,3.229,1.454,3.229,3.229v27.279
		c0,1.776-1.454,3.229-3.229,3.229h-5.025c-1.776,0-3.556,0.519-3.956,1.153s-1.16,1.714-1.689,2.4c-0.53,0.686-1.396,0.686-1.926,0
		c-0.529-0.686-1.29-1.766-1.689-2.4s-2.179-1.153-3.956-1.153H3.229c-1.776,0-3.229-1.454-3.229-3.229V90.934z"/>
	<polyline fill="none" stroke="#4BA3CC" stroke-width="2.0057" stroke-miterlimit="10" points="34.913,96.253 37.58,98.921 
		43.793,92.708 	"/>
	<path fill="#FFFFFF" d="M46.443,110.913c0,2.622-2.146,4.767-4.768,4.767h-6.151c-2.622,0-4.768-2.145-4.768-4.767l0,0
		c0-2.622,2.146-4.768,4.768-4.768h6.151C44.298,106.146,46.443,108.291,46.443,110.913L46.443,110.913z"/>
	<path fill="#FFCB70" d="M45.138,110.913c0,1.904-1.558,3.461-3.462,3.461l0,0c-1.904,0-3.461-1.558-3.461-3.461l0,0
		c0-1.904,1.558-3.461,3.461-3.461l0,0C43.58,107.452,45.138,109.009,45.138,110.913L45.138,110.913z"/>
</g>
<g>
	<path fill="#ABE4FF" d="M200.153,252.161c0,3.311-2.71,6.02-6.021,6.02h-28.271c-3.312,0-6.021-2.709-6.021-6.02v-5.853
		c0-3.312,2.709-6.021,6.021-6.021h1.367c3.312,0,6.63-0.968,7.374-2.149c0.745-1.183,2.162-3.196,3.149-4.476
		c0.987-1.278,2.603-1.278,3.59,0c0.987,1.279,2.404,3.293,3.148,4.476c0.745,1.182,4.063,2.149,7.374,2.149h2.269
		c3.311,0,6.021,2.709,6.021,6.021V252.161z"/>
</g>
<line fill="none" stroke="#4BA3CC" stroke-width="2.5779" stroke-linecap="round" stroke-linejoin="round" stroke-miterlimit="10" x1="167.004" y1="249.011" x2="184.026" y2="249.011"/>
<line fill="none" stroke="#4BA3CC" stroke-width="2.5779" stroke-linecap="round" stroke-linejoin="round" stroke-miterlimit="10" x1="8.262" y1="97.334" x2="25.285" y2="97.334"/>
<line fill="none" stroke="#4BA3CC" stroke-width="2.5779" stroke-linecap="round" stroke-linejoin="round" stroke-miterlimit="10" x1="8.262" y1="110.913" x2="25.285" y2="110.913"/>
<line fill="none" stroke="#4BA3CC" stroke-width="2.5779" stroke-linecap="round" stroke-linejoin="round" stroke-miterlimit="10" x1="189.485" y1="249.011" x2="193.367" y2="249.011"/>
<line fill="none" stroke="#4BA3CC" stroke-width="3" stroke-linecap="round" stroke-linejoin="round" stroke-miterlimit="10" x1="81.545" y1="219.72" x2="218.352" y2="219.72"/>
<path fill="#F25A58" d="M187.496,219.72c0,4.415-3.612,8.027-8.026,8.027l0,0c-4.415,0-8.027-3.612-8.027-8.027l0,0
	c0-4.415,3.612-8.026,8.027-8.026l0,0C183.884,211.693,187.496,215.305,187.496,219.72L187.496,219.72z"/>
<g>
	<polygon fill="#4BA3CC" points="184.649,16.336 184.567,68.906 197.865,68.906 197.866,16.336 	"/>
	<polygon fill="#ABE4FF" points="184.649,16.336 184.567,68.906 187.268,68.906 187.27,16.336 	"/>
	<polygon fill="#005780" points="194.421,16.336 194.339,68.906 197.865,68.906 197.866,16.336 	"/>
	<g>
		<path fill="#F25A58" d="M189.352,0.236c-2.585,0.049-4.718,2.205-4.739,4.79l-0.001,0.088c-0.021,2.585-0.039,4.701-0.04,4.701
			s0.112,0,0.25,0c0.139,0,2.367,0,4.953,0h2.919c2.586,0,4.808,0,4.938,0s0.236,0,0.236,0s0-2.116,0-4.702l0.001-0.337
			c0-2.586-2.115-4.662-4.701-4.613L189.352,0.236z"/>
	</g>
	<polygon fill="#4BA3CC" points="184.648,9.816 184.566,16.336 197.864,16.336 197.865,9.816 	"/>
	<polygon opacity="0.44" fill="#005780" points="191.773,9.816 191.691,16.336 197.568,16.336 197.569,9.816 	"/>
	<polygon fill="#FFFFFF" points="184.65,68.906 191.05,86.296 191.05,86.296 197.867,68.906 	"/>
	<path fill="#C24846" d="M191.027,86.838l-1.564-4.618c0,0,0.274-1.605,1.604-1.604s1.729,1.803,1.729,1.803L191.027,86.838z"/>
</g>
</svg>
