<?xml version="1.0" encoding="utf-8"?>
<!-- Generator: Adobe Illustrator 16.0.0, SVG Export Plug-In . SVG Version: 6.00 Build 0)  -->
<!DOCTYPE svg PUBLIC "-//W3C//DTD SVG 1.1//EN" "http://www.w3.org/Graphics/SVG/1.1/DTD/svg11.dtd">
<svg version="1.1" id="Layer_2" xmlns="http://www.w3.org/2000/svg" xmlns:xlink="http://www.w3.org/1999/xlink" x="0px" y="0px"
	 width="272.969px" height="275.378px" viewBox="0 0 272.969 275.378" enable-background="new 0 0 272.969 275.378"
	 xml:space="preserve">
<g>
	
		<circle fill="none" stroke="#ABE4FF" stroke-miterlimit="10" stroke-dasharray="5.0253,5.0253" cx="134.003" cy="139.984" r="119.966"/>
</g>
<g>
	<path fill="#005780" d="M43.641,135.177V61.009c0-2.852-2.335-5.187-5.187-5.187H5.187C2.335,55.823,0,58.158,0,61.009v74.167
		c0,2.852,2.335,5.187,5.187,5.187h33.268C41.306,140.363,43.641,138.028,43.641,135.177z"/>
	<circle fill="#0587BF" cx="21.821" cy="133.661" r="2.737"/>
	
		<line fill="none" stroke="#0668A4" stroke-width="1.0858" stroke-miterlimit="10" x1="17.595" y1="60.502" x2="26.046" y2="60.502"/>
	<rect x="3.552" y="67.009" fill="#ABE4FF" width="36.375" height="61.331"/>
	<path fill="#F25A58" d="M25.56,106.996c-0.153,0.153-0.404,0.153-0.557,0L10.12,92.113c-0.153-0.153-0.153-0.404,0-0.557
		l0.546-0.546c0.153-0.153,0.404-0.153,0.557,0l14.883,14.883c0.153,0.153,0.153,0.404,0,0.557L25.56,106.996z M20.591,98.33
		c0.153,0.153,0.369,0.11,0.301-0.095c0,0-0.252-1.74,2.341-1.99c2.353-0.226,3.87,1.602,7.09,0.788
		c3.055-0.772,3.151-5.397,3.151-5.397c0-0.413-0.412-0.55-0.573-0.046c0,0-0.504,2.131-3.366,2.292
		c-3.932,0.221-7.089-6.303-11.816-6.303c-3.938,0-5.295,2.037-5.295,2.037c-0.121,0.179-0.093,0.453,0.06,0.606L20.591,98.33z"/>
</g>
<g>
	<g>
		<path fill="#2C6980" d="M204.537,91.716H63.469c-5.54,0-10.075,4.536-10.075,10.075v94.623c0,5.539,4.535,10.074,10.075,10.074
			h141.068c5.538,0,10.074-4.535,10.074-10.074v-94.623C214.611,96.252,210.075,91.716,204.537,91.716z"/>
		<path fill="#043573" d="M204.537,88.716H63.469c-5.54,0-10.075,4.536-10.075,10.075v94.623c0,5.539,4.535,10.074,10.075,10.074
			h141.068c5.538,0,10.074-4.535,10.074-10.074V98.791C214.611,93.252,210.075,88.716,204.537,88.716z"/>
	</g>
	<rect x="63.374" y="99.016" fill="#F2D795" width="141.258" height="89.501"/>
</g>
<g>
	<path fill="#0587BF" d="M34.856,193.341v7.275c0,3.778,3.095,6.875,6.875,6.875h184.544c3.776,0,6.873-3.097,6.873-6.875v-7.275
		H34.856z"/>
	<rect x="34.856" y="193.341" fill="#C1E6E3" width="198.292" height="7.275"/>
	<path fill="#005780" d="M113.678,193.341v0.861c0,0.773,0.635,1.408,1.41,1.408h37.832c0.773,0,1.409-0.635,1.409-1.408v-0.861
		H113.678z"/>
</g>
<g>
	<g>
		<polygon fill="#BE2903" points="66.313,252.208 53.091,243.289 39.868,252.208 39.868,195.578 66.313,195.578 		"/>
		<polygon fill="#EE4014" points="66.313,247.607 53.091,238.685 39.868,247.607 39.868,190.973 66.313,190.973 		"/>
		<circle fill="#F0970D" cx="53.091" cy="201.695" r="22.198"/>
		<polygon fill="#FFAE28" points="53.091,184.667 56.05,183.009 58.352,185.501 61.68,184.837 63.099,187.919 66.468,188.318 
			66.866,191.687 69.947,193.106 69.284,196.434 71.776,198.736 70.117,201.695 71.776,204.655 69.284,206.957 69.947,210.285 
			66.866,211.705 66.468,215.074 63.099,215.47 61.68,218.552 58.352,217.889 56.05,220.38 53.091,218.722 50.131,220.38 
			47.829,217.889 44.501,218.552 43.083,215.47 39.713,215.074 39.315,211.705 36.234,210.285 36.897,206.957 34.405,204.655 
			36.064,201.695 34.405,198.736 36.897,196.434 36.234,193.106 39.315,191.687 39.713,188.318 43.083,187.919 44.501,184.837 
			47.829,185.501 50.131,183.009 		"/>
	</g>
</g>
<g>
	<path fill="#054F7D" d="M245.162,220.699c0-1.574-1.275-2.85-2.85-2.85h-48.422c-1.574,0-2.851,1.275-2.851,2.85v31.332
		c0,1.573,1.274,2.85,2.851,2.85h48.424c1.572,0,2.849-1.274,2.849-2.85L245.162,220.699L245.162,220.699z"/>
	
		<line fill="none" stroke="#04B1D9" stroke-width="2.4028" stroke-linecap="round" stroke-linejoin="round" stroke-miterlimit="10" x1="198.162" y1="244.242" x2="203.859" y2="244.242"/>
	
		<line fill="none" stroke="#04B1D9" stroke-width="1.2014" stroke-linecap="round" stroke-linejoin="round" stroke-miterlimit="10" x1="198.162" y1="249.938" x2="206.708" y2="249.938"/>
	
		<line fill="none" stroke="#04B1D9" stroke-width="1.2014" stroke-linecap="round" stroke-linejoin="round" stroke-miterlimit="10" x1="210.757" y1="249.938" x2="218.102" y2="249.938"/>
	
		<line fill="none" stroke="#04B1D9" stroke-width="2.4028" stroke-linecap="round" stroke-linejoin="round" stroke-miterlimit="10" x1="197.331" y1="223.998" x2="203.027" y2="223.998"/>
	
		<line fill="none" stroke="#04B1D9" stroke-width="2.4028" stroke-linecap="round" stroke-linejoin="round" stroke-miterlimit="10" x1="209.557" y1="244.242" x2="215.253" y2="244.242"/>
	
		<line fill="none" stroke="#04B1D9" stroke-width="2.4028" stroke-linecap="round" stroke-linejoin="round" stroke-miterlimit="10" x1="232.344" y1="244.242" x2="238.041" y2="244.242"/>
	
		<line fill="none" stroke="#04B1D9" stroke-width="2.4028" stroke-linecap="round" stroke-linejoin="round" stroke-miterlimit="10" x1="220.95" y1="244.242" x2="226.646" y2="244.242"/>
	<g>
		<rect x="200.559" y="232.341" fill="#73ADE6" width="0.853" height="2.271"/>
		<rect x="200.559" y="238.117" fill="#73ADE6" width="0.771" height="2.271"/>
		<path fill="#73ADE6" d="M202.01,234.673c0.266,0.082,0.479,0.263,0.604,0.506l2.395-0.583v-0.243c0-1.105-0.904-2.012-2.011-2.012
			h-0.983v2.332H202.01L202.01,234.673z"/>
		<polygon fill="#73ADE6" points="205.006,235.214 202.734,235.768 202.734,236.914 205.006,237.546 		"/>
		<path fill="#73ADE6" d="M202.135,237.089v-1.45c0-0.235-0.191-0.427-0.426-0.427h-1.45c-0.235,0-0.426,0.189-0.426,0.427v1.45
			c0,0.234,0.19,0.426,0.426,0.426h1.45C201.943,237.515,202.135,237.326,202.135,237.089z"/>
		<path fill="#73ADE6" d="M202.641,237.509c-0.132,0.289-0.396,0.49-0.711,0.562v2.315h1.065c1.104,0,2.011-0.905,2.011-2.012
			v-0.205L202.641,237.509z"/>
		<path fill="#73ADE6" d="M199.958,238.055c-0.25-0.079-0.452-0.245-0.579-0.47l-2.417,0.588v0.201c0,1.104,0.904,2.012,2.011,2.012
			h0.985V238.055z"/>
		<path fill="#73ADE6" d="M199.309,235.265c0.113-0.287,0.354-0.498,0.649-0.592v-2.332h-0.985c-1.104,0-2.011,0.904-2.011,2.012
			v0.258L199.309,235.265z"/>
		<polygon fill="#73ADE6" points="196.962,235.234 196.962,237.557 199.232,237.003 199.232,235.867 		"/>
	</g>
</g>
<g>
	<path fill="#DA2A51" d="M213.229,120.326c0,0,0,15.494,0,24.198h27.522v-29.113c-22.019,0-26.722,3.36-26.722,3.36
		C213.589,119.086,213.229,119.785,213.229,120.326z"/>
	<path fill="#03A6A6" d="M240.752,178.035c0.311,0,0.619-0.065,0.854-0.201c0,0,26.668-15.24,26.668-30.967c0-0.701,0-1.49,0-2.342
		h-27.521L240.752,178.035L240.752,178.035z"/>
	<path fill="#0587BF" d="M213.229,144.524c0,0.853,0,1.642,0,2.341c0,15.729,26.668,30.967,26.668,30.967
		c0.235,0.135,0.545,0.201,0.854,0.201v-33.509H213.229z"/>
	<path fill="#F25A58" d="M268.273,144.524c0-8.705,0-24.198,0-24.198c0-0.542-0.358-1.24-0.801-1.555c0,0-4.703-3.36-26.723-3.36
		v29.113H268.273z"/>
	<path fill="#FFFFFF" d="M267.475,118.771c0,0-4.703-3.36-26.723-3.36s-26.723,3.36-26.723,3.36
		c-0.44,0.315-0.801,1.013-0.801,1.555c0,0,0,18.675,0,26.541c0,15.728,26.668,30.967,26.668,30.967c0.472,0.27,1.237,0.27,1.709,0
		c0,0,26.668-15.24,26.668-30.967c0-7.863,0-26.541,0-26.541C268.273,119.785,267.915,119.086,267.475,118.771z M263.336,146.839
		c0,12.906-21.883,25.41-21.883,25.41c-0.387,0.222-1.018,0.222-1.402,0c0,0-21.883-12.504-21.883-25.41c0-6.452,0-21.777,0-21.777
		c0-0.444,0.295-1.017,0.657-1.276c0,0,3.858-2.757,21.927-2.757s21.928,2.757,21.928,2.757c0.361,0.259,0.656,0.832,0.656,1.276
		C263.336,125.062,263.336,140.388,263.336,146.839z"/>
	<path fill="#4BA3CC" d="M272.032,114.003c0,0-5.507-3.933-31.28-3.933s-31.279,3.933-31.279,3.933
		c-0.518,0.369-0.938,1.187-0.938,1.82c0,0,0,21.862,0,31.066c0,18.409,31.217,36.249,31.217,36.249c0.551,0.314,1.449,0.314,2,0
		c0,0,31.217-17.84,31.217-36.249c0-9.205,0-31.066,0-31.066C272.969,115.19,272.549,114.372,272.032,114.003z M267.188,146.86
		c0,15.106-25.615,29.745-25.615,29.745c-0.45,0.258-1.188,0.258-1.641,0c0,0-25.617-14.639-25.617-29.745
		c0-7.553,0-25.492,0-25.492c0-0.52,0.347-1.191,0.771-1.494c0,0,4.52-3.227,25.667-3.227s25.667,3.227,25.667,3.227
		c0.425,0.303,0.771,0.974,0.771,1.494C267.188,121.368,267.188,139.307,267.188,146.86z"/>
</g>
<polygon fill="#EE4014" points="134.003,52.202 134.003,93.738 206.111,93.738 180.468,52.202 "/>
<polygon fill="#F18703" points="134.003,52.202 134.003,93.738 190.05,93.738 169.83,52.202 "/>
<polygon fill="#EE4014" points="134.003,52.202 134.003,93.738 173.775,93.738 159.059,52.202 "/>
<polygon fill="#F18703" points="134.003,52.202 134.003,93.738 158.018,93.738 148.718,52.202 "/>
<polygon fill="#EE4014" points="134.003,52.202 134.003,93.738 61.895,93.738 87.538,52.202 "/>
<polygon fill="#F18703" points="134.003,52.202 134.003,93.738 77.956,93.738 98.176,52.202 "/>
<polygon fill="#EE4014" points="134.003,52.202 134.003,93.738 94.229,93.738 108.948,52.202 "/>
<polygon fill="#F18703" points="134.003,52.202 134.003,93.738 109.988,93.738 119.288,52.202 "/>
<polygon fill="#EE4014" points="138.154,52.202 134.003,52.202 129.851,52.202 125.998,93.738 134.003,93.738 142.008,93.738 "/>
<path fill="#F16A03" d="M142.008,93.738v8.005c0,4.421,3.584,8.005,8.006,8.005c4.42,0,8.004-3.584,8.004-8.005v-8.005H142.008z"/>
<path fill="#BE2903" d="M158.018,93.738v8.005c0,4.421,3.584,8.005,8.006,8.005c4.42,0,8.004-3.584,8.004-8.005v-8.005H158.018z"/>
<path fill="#F16A03" d="M174.027,93.738v8.005c0,4.421,3.584,8.005,8.005,8.005c4.422,0,8.006-3.584,8.006-8.005v-8.005H174.027z"/>
<path fill="#BE2903" d="M190.038,93.738v8.005c0,4.421,3.583,8.005,8.005,8.005c4.421,0,8.005-3.584,8.005-8.005v-8.005H190.038z"/>
<path fill="#BE2903" d="M125.998,93.738v8.005c0,4.421,3.584,8.005,8.005,8.005s8.005-3.584,8.005-8.005v-8.005H125.998z"/>
<path fill="#F16A03" d="M77.904,93.738v8.005c0,4.421,3.584,8.005,8.005,8.005c4.421,0,8.005-3.584,8.005-8.005v-8.005H77.904z"/>
<path fill="#BE2903" d="M93.914,93.738v8.005c0,4.421,3.584,8.005,8.005,8.005s8.005-3.584,8.005-8.005v-8.005H93.914z"/>
<path fill="#F16A03" d="M109.924,93.738v8.005c0,4.421,3.583,8.005,8.005,8.005c4.421,0,8.005-3.584,8.005-8.005v-8.005H109.924z"/>
<path fill="#BE2903" d="M61.895,93.738v8.005c0,4.421,3.584,8.005,8.005,8.005s8.005-3.584,8.005-8.005v-8.005H61.895z"/>
<rect x="87.538" y="45.698" fill="#BE2903" width="92.93" height="6.504"/>
<g>
	<path fill="#F15A24" d="M147.714,117.438c0,0-2.469-1.197-8.123-3.105c-2.773-0.936-5.985-0.526-9.256,0.452
		c-13.072,3.901-23.458,20.204-23.203,36.388c0.171,10.906,5.121,18.988,12.333,21.912c3.499,1.416,7.622,3.055,7.622,3.055
		C140.182,172.239,147.979,133.634,147.714,117.438z"/>
	<path fill="#FBB03B" d="M147.704,118.939c0,0-2.335-1.131-7.681-2.936c-2.623-0.885-5.661-0.497-8.751,0.427
		c-12.359,3.689-22.179,19.103-21.938,34.405c0.162,10.312,4.841,17.953,11.661,20.715c3.308,1.342,7.207,2.89,7.207,2.89
		C140.581,170.751,147.954,134.252,147.704,118.939z"/>
	<path fill="#F15A24" d="M160.873,139.656c-0.253-16.207-11.059-26.166-24.142-22.254c-13.071,3.902-23.458,20.204-23.202,36.391
		c0.254,16.195,11.048,26.166,24.142,22.252C150.764,172.144,161.139,155.852,160.873,139.656z"/>
	<path fill="#FBB03B" d="M157.146,140.865c-0.211-13.435-9.168-21.69-20.014-18.448c-10.836,3.234-19.446,16.749-19.234,30.167
		c0.21,13.426,9.158,21.689,20.012,18.446C148.766,167.794,157.365,154.291,157.146,140.865z"/>
	<g>
		<path fill="#FBD08D" d="M135.495,166.675c-0.411,0-0.817-0.127-1.161-0.371c-0.535-0.383-0.849-1.002-0.838-1.66l0.026-1.739
			c-1.011,0.19-2.002,0.29-2.919,0.29c-1.02,0-1.923-0.121-2.686-0.361c-0.516-0.164-0.944-0.527-1.187-1.014
			c-0.243-0.484-0.277-1.046-0.098-1.558l1.164-3.313c0.287-0.816,1.056-1.338,1.886-1.338c0.169,0,0.341,0.021,0.511,0.066
			c0.523,0.139,1.152,0.212,1.818,0.212c1.166,0,2.408-0.224,3.593-0.644c2.736-0.988,4.234-2.99,4.251-4.371
			c0.006-0.508,0.015-1.205-3.229-1.281c-2.629-0.029-5.923-0.32-7.876-2.321c-1.111-1.14-1.662-2.67-1.637-4.55
			c0.053-4,2.787-8.065,7.061-10.623l0.033-3.183c0.009-0.838,0.539-1.582,1.328-1.863l2.924-1.042
			c0.219-0.078,0.445-0.116,0.672-0.116c0.411,0,0.817,0.126,1.161,0.372c0.532,0.379,0.847,0.996,0.839,1.649l-0.018,1.628
			c0.811-0.138,1.593-0.206,2.357-0.206c0.668,0,1.309,0.052,1.959,0.159c0.588,0.097,1.103,0.451,1.401,0.965
			c0.3,0.515,0.354,1.136,0.149,1.696l-1.203,3.286c-0.293,0.798-1.051,1.312-1.877,1.312c-0.111,0-0.227-0.009-0.34-0.029
			c-0.392-0.067-0.877-0.151-1.521-0.151c-1.011,0-2.122,0.213-3.306,0.634c-2.846,1.014-3.627,2.792-3.641,3.683
			c-0.002,0.226,0.033,0.31,0.033,0.31c0.119,0.106,0.767,0.438,3.753,0.555c2.231,0.059,9.106,0.234,9.013,7.371
			c-0.059,4.246-2.938,8.521-7.438,11.168l-0.038,3.343c-0.01,0.834-0.535,1.573-1.318,1.856l-2.927,1.062
			C135.955,166.636,135.725,166.675,135.495,166.675z"/>
		<path fill="#F15A24" d="M138.473,159.102l-0.052,4.515l-2.926,1.059l0.067-4.371c-2.695,0.921-5.435,1.131-7.042,0.621
			l1.164-3.311c1.595,0.422,4.002,0.438,6.592-0.482c3.304-1.191,5.552-3.776,5.582-6.229c0.027-2.394-1.76-3.226-5.184-3.304
			c-4.707-0.053-7.609-1.053-7.559-4.846c0.047-3.584,2.814-7.311,7.049-9.465l0.045-4.347l2.924-1.042l-0.044,4.215
			c2.726-0.885,4.634-0.868,6.019-0.64l-1.203,3.286c-0.965-0.166-2.854-0.49-5.832,0.57c-3.569,1.271-4.944,3.759-4.97,5.539
			c-0.021,2.217,1.682,2.734,5.708,2.894c4.758,0.12,7.143,1.489,7.09,5.346C145.852,152.574,143.262,156.701,138.473,159.102z"/>
	</g>
	
		<rect x="126.619" y="118.035" transform="matrix(0.9457 0.325 -0.325 0.9457 45.7406 -36.2284)" fill="#F15A24" width="9.379" height="1.523"/>
	
		<rect x="132.508" y="115.798" transform="matrix(0.9457 0.325 -0.325 0.9457 45.331 -38.2623)" fill="#F15A24" width="9.378" height="1.523"/>
	
		<rect x="119.809" y="122.153" transform="matrix(0.9457 0.325 -0.325 0.9457 46.7092 -33.7913)" fill="#F15A24" width="9.379" height="1.522"/>
	
		<rect x="113.211" y="131.478" transform="matrix(0.9457 0.325 -0.325 0.9457 49.3795 -31.1394)" fill="#F15A24" width="9.379" height="1.523"/>
	
		<rect x="108.833" y="141.962" transform="matrix(0.9457 0.3251 -0.3251 0.9457 52.5575 -29.1505)" fill="#F15A24" width="9.379" height="1.522"/>
	
		<rect x="107.623" y="154.567" transform="matrix(0.9457 0.3252 -0.3252 0.9457 56.61 -28.079)" fill="#F15A24" width="9.379" height="1.521"/>
	
		<rect x="109.314" y="161.659" transform="matrix(0.9458 0.3249 -0.3249 0.9458 58.9522 -28.2272)" fill="#F15A24" width="9.378" height="1.524"/>
	
		<rect x="111.336" y="166.157" transform="matrix(0.9457 0.3251 -0.3251 0.9457 60.5582 -28.6502)" fill="#F15A24" width="9.379" height="1.522"/>
</g>
<g>
	<circle fill="#F25A58" cx="134.003" cy="254.895" r="20.483"/>
	<g>
		
			<circle fill="none" stroke="#F1F0F4" stroke-width="1.7093" stroke-linecap="round" stroke-linejoin="round" stroke-miterlimit="10" cx="126.517" cy="263.861" r="1.682"/>
		
			<circle fill="none" stroke="#F1F0F4" stroke-width="1.7093" stroke-linecap="round" stroke-linejoin="round" stroke-miterlimit="10" cx="141.086" cy="263.861" r="1.681"/>
		
			<line fill="none" stroke="#F1F0F4" stroke-width="1.7093" stroke-linecap="round" stroke-linejoin="round" stroke-miterlimit="10" x1="128.969" y1="263.3" x2="138.859" y2="263.3"/>
		
			<line fill="none" stroke="#F1F0F4" stroke-width="1.7093" stroke-linecap="round" stroke-linejoin="round" stroke-miterlimit="10" x1="127.072" y1="261.75" x2="127.072" y2="248.183"/>
		
			<polyline fill="none" stroke="#F1F0F4" stroke-width="1.7093" stroke-linecap="round" stroke-linejoin="round" stroke-miterlimit="10" points="
			127.072,248.731 142.762,248.731 142.762,254.817 127.072,258.244 		"/>
		
			<polyline fill="none" stroke="#F1F0F4" stroke-width="1.7093" stroke-linecap="round" stroke-linejoin="round" stroke-miterlimit="10" points="
			127.072,248.731 125.153,244.25 121.474,244.25 		"/>
	</g>
</g>
<g>
	<circle fill="#FFA58F" cx="226.252" cy="62.202" r="19.686"/>
	<g>
		<path fill="none" stroke="#FFFFFF" stroke-linecap="round" stroke-linejoin="round" stroke-miterlimit="10" d="M234.634,70.091
			l-1.868,0.934c-0.343,0.171-0.843,0.089-1.111-0.18l-6.387-6.386l-0.783,0.785c-0.812,0.811-2.068,0.748-2.795-0.138l-4.435-5.418
			c-0.728-0.887-0.657-2.274,0.151-3.085l2.949-2.951c0.812-0.812,2.201-0.879,3.09-0.154l5.414,4.435
			c0.89,0.726,0.949,1.983,0.141,2.794l-0.784,0.785l7.366,7.367c0.271,0.271,0.212,0.631-0.13,0.802l-0.163,0.082L234.634,70.091z"
			/>
		<path fill="none" stroke="#FFFFFF" stroke-linecap="round" stroke-linejoin="round" stroke-miterlimit="10" d="M220.538,58.748
			l1.963-1.964c0.272-0.271,0.271-0.712,0-0.983c-0.269-0.27-0.712-0.27-0.979,0l-1.965,1.965c-0.271,0.271-0.271,0.712,0,0.982
			C219.826,59.017,220.268,59.018,220.538,58.748z"/>
		<polyline fill="none" stroke="#FFFFFF" stroke-linecap="round" stroke-linejoin="round" stroke-miterlimit="10" points="
			225.951,63.16 227.049,64.257 228.445,64.118 228.881,64.554 228.525,65.432 228.889,65.795 229.542,65.969 230.486,66.914 
			231.328,67.001 231.968,67.641 232.84,67.719 233.275,68.155 232.63,68.951 232.979,69.3 232.984,69.763 233.618,70.396 		"/>
	</g>
</g>
<g>
	<circle fill="#94DDFF" cx="134.003" cy="17.074" r="17.074"/>
	<g>
		
			<circle fill="none" stroke="#FFFFFF" stroke-linecap="round" stroke-linejoin="round" stroke-miterlimit="10" cx="139.41" cy="21.94" r="2.163"/>
		
			<circle fill="none" stroke="#FFFFFF" stroke-linecap="round" stroke-linejoin="round" stroke-miterlimit="10" cx="128.595" cy="21.94" r="2.163"/>
		<polyline fill="none" stroke="#FFFFFF" stroke-linecap="round" stroke-linejoin="round" stroke-miterlimit="10" points="
			124.81,21.94 124.27,21.94 124.27,10.044 135.084,10.044 135.084,17.074 		"/>
		<polyline fill="none" stroke="#FFFFFF" stroke-linecap="round" stroke-linejoin="round" stroke-miterlimit="10" points="
			143.195,21.94 143.736,21.94 143.736,15.83 141.669,11.125 137.247,11.125 137.247,17.128 141.303,17.912 		"/>
		
			<line fill="none" stroke="#FFFFFF" stroke-linecap="round" stroke-linejoin="round" stroke-miterlimit="10" x1="135.625" y1="21.94" x2="132.381" y2="21.94"/>
		
			<line fill="none" stroke="#FFFFFF" stroke-linecap="round" stroke-linejoin="round" stroke-miterlimit="10" x1="135.625" y1="18.696" x2="132.381" y2="18.696"/>
	</g>
</g>
</svg>
