<?xml version="1.0" encoding="utf-8"?>
<!-- Generator: Adobe Illustrator 16.0.0, SVG Export Plug-In . SVG Version: 6.00 Build 0)  -->
<!DOCTYPE svg PUBLIC "-//W3C//DTD SVG 1.1//EN" "http://www.w3.org/Graphics/SVG/1.1/DTD/svg11.dtd">
<svg version="1.1" id="Layer_2" xmlns="http://www.w3.org/2000/svg" xmlns:xlink="http://www.w3.org/1999/xlink" x="0px" y="0px"
	 width="308.187px" height="288.162px" viewBox="0 0 308.187 288.162" enable-background="new 0 0 308.187 288.162"
	 xml:space="preserve">
<path fill="#ABE4FF" d="M35.89,1.127c1.502-1.502,3.96-1.502,5.463,0l33.159,33.159c1.502,1.502,2.731,4.47,2.731,6.594V186.51
	c0,2.124-1.738,3.862-3.862,3.862H3.862c-2.125,0-3.862-1.738-3.862-3.862V40.879c0-2.124,1.229-5.091,2.731-6.594L35.89,1.127z"/>
<path fill="#D4F1FF" d="M73.38,190.373c2.124,0,3.862-1.738,3.862-3.862V40.879c0-2.124-1.229-5.091-2.731-6.593L41.353,1.127
	C40.601,0.375,39.611,0,38.62,0v190.372H73.38z"/>
<circle fill="none" stroke="#ABE4FF" stroke-width="1.2315" stroke-miterlimit="10" stroke-dasharray="7.3887" cx="151.652" cy="149.623" r="137.923"/>
<g>
	<g>
		<path fill="#174E96" d="M168.919,65.683c-1.169,0-2.296-0.647-2.853-1.766L159.86,51.45h-30.942l-6.208,12.467
			c-0.784,1.573-2.697,2.214-4.269,1.431c-1.575-0.784-2.215-2.695-1.431-4.269l7.086-14.233c0.538-1.081,1.642-1.765,2.85-1.765
			h34.885c1.208,0,2.312,0.684,2.851,1.765l7.086,14.233c0.784,1.574,0.144,3.485-1.431,4.269
			C169.881,65.576,169.396,65.683,168.919,65.683z"/>
	</g>
	<g>
		<path fill="#0B1838" d="M167.034,65.683c-1.079,0-2.119-0.597,0.904-1.63l-5.73-11.509h-35.078l-5.73,11.509
			c2.253,1.453,0.487,2.044-0.964,1.321c-1.454-0.723-2.045-2.488-1.321-3.941l6.542-13.139c0.497-0.998,1.517-1.63,2.631-1.63
			h32.204c1.115,0,2.134,0.632,2.631,1.63l6.542,13.139c0.723,1.453,0.132,3.218-1.321,3.941
			C167.921,65.584,167.474,65.683,167.034,65.683z"/>
	</g>
	<polyline fill="#0B1838" points="158.492,52.544 163.122,48.295 169.664,61.434 168.162,64.053 162.431,52.544 	"/>
	<g>
		<path fill="#05499E" d="M219.342,168.612c0,2.659-2.176,4.835-4.835,4.835H74.27c-2.659,0-4.835-2.176-4.835-4.835V69.766
			c0-2.66,2.176-4.835,4.835-4.835h140.237c2.659,0,4.835,2.176,4.835,4.835V168.612z"/>
		<path fill="#174E96" d="M214.507,63.853H74.27c-2.659,0-4.835,2.176-4.835,4.835v3.201c0-2.66,2.176-4.835,4.835-4.835h140.237
			c2.659,0,4.835,2.176,4.835,4.835v-3.201C219.342,66.029,217.167,63.853,214.507,63.853z"/>
		<path fill="#210619" d="M212.327,168.394c0,2.41-1.972,4.383-4.383,4.383H80.833c-2.411,0-4.383-1.973-4.383-4.383V79.433
			c0-2.411,1.972-4.383,4.383-4.383h127.111c2.411,0,4.383,1.972,4.383,4.383V168.394z"/>
		<path fill="#0B1838" d="M212.327,162.591c0,2.41-1.972,4.383-4.383,4.383H80.833c-2.411,0-4.383-1.973-4.383-4.383v-88.96
			c0-2.411,1.972-4.383,4.383-4.383h127.111c2.411,0,4.383,1.972,4.383,4.383V162.591z"/>
		<path fill="#210619" d="M212.327,113.887c0,2.411-1.972,4.383-4.383,4.383H80.833c-2.411,0-4.383-1.972-4.383-4.383V79.433
			c0-2.411,1.972-4.383,4.383-4.383h127.111c2.411,0,4.383,1.972,4.383,4.383V113.887z"/>
		<path fill="#102352" d="M212.327,108.085c0,2.41-1.972,4.383-4.383,4.383H80.833c-2.411,0-4.383-1.973-4.383-4.383V73.631
			c0-2.411,1.972-4.383,4.383-4.383h127.111c2.411,0,4.383,1.972,4.383,4.383V108.085z"/>
	</g>
	<rect x="127.984" y="107.986" fill="#4BA3CC" width="32.81" height="15.927"/>
	<rect x="130.287" y="107.986" fill="#ABE4FF" width="28.204" height="13.691"/>
	<rect x="115.674" y="58.837" fill="#ABE4FF" width="8.881" height="8.216"/>
	<rect x="151.558" y="107.986" fill="#005780" width="2.68" height="15.927"/>
	<rect x="117.587" y="62.095" fill="#4BA3CC" width="6.969" height="4.958"/>
	<rect x="164.82" y="58.837" fill="#ABE4FF" width="8.882" height="8.216"/>
	<rect x="166.733" y="62.095" fill="#4BA3CC" width="6.969" height="4.958"/>
</g>
<g>
	<path fill="#4BA3CC" d="M282.669,99.415h-33.526c-6.932,0-15.844,2.837-21.159,8.152l-31.026,30.989v-9.084
		c0-19.351-28.536-19.142-28.536,0v37.053h0.059l-26.968,26.963c-2.543,2.543-2.853,2.655-7.848,2.655h-16.487
		c-16.583,0-26.535,14.908-26.535,27.546c0,12.639,9.951,28.612,28.007,28.612c0,0,22.434,0,29.366,0
		c6.933,0,15.336-2.65,22.263-9.17l85.98-85.722c1.841-1.627,2.858-2.136,6.016-2.136c0,0,11.852,0,21.23,0
		c10.224,0,24.683-11.584,24.683-28.28C308.187,110.469,293.622,99.453,282.669,99.415z"/>
	<path fill="#4BA3CC" d="M182.704,76.923c7.889,0,14.283,6.395,14.283,14.282v11.558h-4.025v8.108c0,1.213-0.983,2.196-2.196,2.196
		h-4.513c-1.213,0-2.196,0.983-2.196,2.195v2.384l-15.635,12.928v-19.703v-8.108V91.205
		C168.421,83.317,174.816,76.923,182.704,76.923z"/>
	<path fill="#ABE4FF" d="M281.149,140.804h-18.136c-7.676,0-11.081,1.076-15.502,5.497l-86.633,86.638
		c-3.501,3.512-7.955,4.898-13.661,4.898h-28.568c-7.339,0-13.806-6.209-13.806-14.361c0-8.153,6.167-12.725,12.547-12.725h19.603
		c5.707,0,9.464-1.627,12.724-4.893l88.1-88.094c3.624-3.624,7.205-4.079,13.366-4.079h30.158c7.339,0,12.28,8.206,12.28,13.098
		C293.622,131.672,290.115,140.804,281.149,140.804z"/>
</g>
<polygon fill="#FFFFFF" points="225.3,199.997 223.34,198.038 211.585,186.273 209.625,184.313 207.667,186.273 178.087,215.852 
	166.792,227.139 159.473,226.62 147.716,214.864 154.575,200.167 158.494,196.25 188.064,166.679 190.023,164.719 188.064,162.76 
	176.308,150.995 174.348,149.045 176.308,147.076 179.417,147.076 222.613,147.256 227.089,147.256 227.089,151.723 227.259,194.46 
	227.259,198.028 "/>
<g>
	<g>
		
			<polyline fill="none" stroke="#218191" stroke-width="1.2315" stroke-linecap="round" stroke-linejoin="round" stroke-miterlimit="10" points="
			15.605,111.727 19.916,116.037 26.688,109.264 		"/>
	</g>
	
		<path fill="none" stroke="#218191" stroke-width="1.2315" stroke-linecap="round" stroke-linejoin="round" stroke-miterlimit="10" d="
		M14.374,102.491h-1.231c-0.338,0-0.616,0.277-0.616,0.616v18.472c0,0.339,0.277,0.616,0.616,0.616h16.009
		c0.338,0,0.616-0.277,0.616-0.616v-18.472c0-0.339-0.277-0.616-0.616-0.616H27.92"/>
	
		<path fill="none" stroke="#218191" stroke-width="1.2315" stroke-linecap="round" stroke-linejoin="round" stroke-miterlimit="10" d="
		M20.531,98.797c-0.338,0-0.683,0.27-0.765,0.598l-0.318,1.268c-0.082,0.329-0.426,0.598-0.765,0.598h-1.231
		c-0.338,0-0.683,0.27-0.765,0.598l-0.318,1.268c-0.082,0.329,0.128,0.598,0.467,0.598h8.62c0.338,0,0.548-0.269,0.467-0.598
		l-0.318-1.268c-0.082-0.328-0.426-0.598-0.765-0.598H23.61c-0.338,0-0.683-0.269-0.765-0.598l-0.317-1.268
		c-0.082-0.328-0.427-0.598-0.765-0.598H20.531z"/>
</g>
<g>
	
		<path fill="#FFFFFF" stroke="#5ECCFF" stroke-width="2.4629" stroke-linecap="round" stroke-linejoin="round" stroke-miterlimit="10" d="
		M57.049,213.889c2.358-3.523,3.738-7.757,3.738-12.314c0-12.242-9.924-22.167-22.167-22.167s-22.166,9.925-22.166,22.167
		c0,4.558,1.379,8.791,3.738,12.314H57.049z"/>
	
		<path fill="none" stroke="#5ECCFF" stroke-width="2.4629" stroke-linecap="round" stroke-linejoin="round" stroke-miterlimit="10" d="
		M41.772,202.165c-1.25,3.02-4.538,1.779-4.538,1.779s-3.345-1.494-2.097-4.507c1.248-3.012,9.872-14.582,9.872-14.582
		S43.023,199.145,41.772,202.165z"/>
	
		<line fill="none" stroke="#5ECCFF" stroke-width="2.4629" stroke-linecap="round" stroke-linejoin="round" stroke-miterlimit="10" x1="37.223" y1="200.294" x2="39.686" y2="201.307"/>
	
		<line fill="none" stroke="#5ECCFF" stroke-width="2.4629" stroke-linecap="round" stroke-linejoin="round" stroke-miterlimit="10" x1="38.62" y1="181.848" x2="38.62" y2="184.311"/>
	
		<line fill="none" stroke="#5ECCFF" stroke-width="2.4629" stroke-linecap="round" stroke-linejoin="round" stroke-miterlimit="10" x1="18.917" y1="201.552" x2="21.38" y2="201.552"/>
	
		<line fill="none" stroke="#5ECCFF" stroke-width="2.4629" stroke-linecap="round" stroke-linejoin="round" stroke-miterlimit="10" x1="55.86" y1="201.552" x2="58.324" y2="201.552"/>
	
		<line fill="none" stroke="#5ECCFF" stroke-width="2.4629" stroke-linecap="round" stroke-linejoin="round" stroke-miterlimit="10" x1="24.688" y1="187.62" x2="26.43" y2="189.361"/>
	
		<line fill="none" stroke="#5ECCFF" stroke-width="2.4629" stroke-linecap="round" stroke-linejoin="round" stroke-miterlimit="10" x1="50.811" y1="189.361" x2="52.553" y2="187.62"/>
</g>
<g>
	
		<line fill="none" stroke="#4BA3CC" stroke-width="4.8283" stroke-miterlimit="10" x1="237.509" y1="255.382" x2="237.509" y2="237.53"/>
	
		<line fill="none" stroke="#4BA3CC" stroke-width="4.8283" stroke-miterlimit="10" x1="247.166" y1="255.382" x2="247.166" y2="228.604"/>
	
		<line fill="none" stroke="#4BA3CC" stroke-width="4.8283" stroke-miterlimit="10" x1="256.823" y1="255.382" x2="256.823" y2="237.53"/>
	
		<line fill="none" stroke="#4BA3CC" stroke-width="4.8283" stroke-miterlimit="10" x1="266.479" y1="255.382" x2="266.479" y2="235.224"/>
	
		<line fill="none" stroke="#4BA3CC" stroke-width="4.8283" stroke-miterlimit="10" x1="276.136" y1="255.382" x2="276.136" y2="215.066"/>
	
		<line fill="none" stroke="#4BA3CC" stroke-width="4.8283" stroke-miterlimit="10" x1="285.792" y1="255.382" x2="285.792" y2="194.907"/>
	
		<line fill="none" stroke="#4BA3CC" stroke-width="4.8283" stroke-miterlimit="10" x1="295.45" y1="255.382" x2="295.45" y2="215.066"/>
</g>
<path fill="#F25A58" d="M92.677,191.602c0.676-0.677,2.012-1.229,2.968-1.229h65.559c0.956,0,1.739,0.782,1.739,1.738v31.295
	c0,0.957-0.783,1.739-1.739,1.739H95.645c-0.956,0-2.292-0.554-2.968-1.229L77.75,208.988c-0.677-0.676-0.677-1.782,0-2.459
	L92.677,191.602z"/>
<path fill="#DF4531" d="M162.943,223.406c0,0.957-0.783,1.739-1.739,1.739H95.645c-0.956,0-2.292-0.554-2.968-1.229L77.75,208.988
	c-0.338-0.338-0.508-0.784-0.507-1.229h85.7V223.406z"/>
<path fill="#F25A58" d="M221.246,238.2c0.677,0.677,0.677,1.783,0,2.46l-14.927,14.927c-0.677,0.676-2.013,1.229-2.969,1.229
	h-65.559c-0.956,0-1.739-0.782-1.739-1.738v-31.295c0-0.957,0.783-1.739,1.739-1.739h65.559c0.956,0,2.292,0.554,2.969,1.229
	L221.246,238.2z"/>
<path fill="#DF4531" d="M136.053,255.078c0,0.956,0.783,1.738,1.739,1.738h65.559c0.956,0,2.292-0.554,2.969-1.229l14.927-14.927
	c0.338-0.339,0.508-0.784,0.507-1.23h-85.7V255.078z"/>
<g>
	
		<circle fill="#FFFFFF" stroke="#4BA3CC" stroke-width="2.4629" stroke-linecap="round" stroke-linejoin="round" stroke-miterlimit="10" cx="258.905" cy="51.184" r="22.369"/>
	<polyline fill="#F25A58" points="254.308,49.294 265.52,35.092 263.503,53.074 	"/>
	
		<polygon fill="none" stroke="#F25A58" stroke-width="1.2427" stroke-linecap="round" stroke-linejoin="round" stroke-miterlimit="10" points="
		263.503,53.074 252.292,67.276 254.308,49.294 265.52,35.092 	"/>
	
		<line fill="none" stroke="#F25A58" stroke-width="1.2427" stroke-linecap="round" stroke-linejoin="round" stroke-miterlimit="10" x1="254.308" y1="49.294" x2="263.503" y2="53.074"/>
	
		<line stroke="#005780" stroke-width="1.2427" stroke-linecap="round" stroke-linejoin="round" stroke-miterlimit="10" x1="258.906" y1="31.278" x2="258.906" y2="33.763"/>
	
		<line stroke="#005780" stroke-width="1.2427" stroke-linecap="round" stroke-linejoin="round" stroke-miterlimit="10" x1="258.906" y1="68.56" x2="258.906" y2="71.045"/>
	
		<line stroke="#005780" stroke-width="1.2427" stroke-linecap="round" stroke-linejoin="round" stroke-miterlimit="10" x1="239.022" y1="51.161" x2="241.507" y2="51.161"/>
	
		<line stroke="#005780" stroke-width="1.2427" stroke-linecap="round" stroke-linejoin="round" stroke-miterlimit="10" x1="276.303" y1="51.161" x2="278.789" y2="51.161"/>
</g>
</svg>
