<?xml version="1.0" encoding="utf-8"?>
<!-- Generator: Adobe Illustrator 16.0.0, SVG Export Plug-In . SVG Version: 6.00 Build 0)  -->
<!DOCTYPE svg PUBLIC "-//W3C//DTD SVG 1.1//EN" "http://www.w3.org/Graphics/SVG/1.1/DTD/svg11.dtd">
<svg version="1.1" id="Layer_2" xmlns="http://www.w3.org/2000/svg" xmlns:xlink="http://www.w3.org/1999/xlink" x="0px" y="0px"
	 width="286.529px" height="286.551px" viewBox="0 0 286.529 286.551" enable-background="new 0 0 286.529 286.551"
	 xml:space="preserve">
<path fill="#F4DBFF" d="M50.871,33.754l28.883,30.358c3.508-2.82,7.152-5.376,10.915-7.66L72.505,18.645
	C64.958,22.937,57.712,27.973,50.871,33.754z"/>
<path fill="#D6E4FF" d="M105.998,48.848c34.791-13.714,75.475-7.394,104.611,18.52l30.357-28.883
	C198.91-0.807,138.624-10.158,87.864,11.104L105.998,48.848z"/>
<path fill="#F3DCFA" d="M44.995,117.86c3.909-15.181,11.378-29.603,22.366-41.956L38.477,45.546
	C20.553,64.73,8.848,87.703,3.446,111.845L44.995,117.86z"/>
<g>
	
		<circle fill="none" stroke="#ABE4FF" stroke-linecap="round" stroke-linejoin="round" stroke-miterlimit="10" cx="199.575" cy="51.682" r="2.287"/>
	<path fill="none" stroke="#ABE4FF" stroke-linecap="round" stroke-linejoin="round" stroke-miterlimit="10" d="M192.438,68.948
		c2.199,0.911,4.607,1.419,7.138,1.419c2.529,0,4.938-0.508,7.138-1.419"/>
	
		<line fill="none" stroke="#ABE4FF" stroke-linecap="round" stroke-linejoin="round" stroke-miterlimit="10" x1="207.885" y1="77.35" x2="200.697" y2="53.664"/>
	
		<line fill="none" stroke="#ABE4FF" stroke-linecap="round" stroke-linejoin="round" stroke-miterlimit="10" x1="191.265" y1="77.35" x2="198.453" y2="53.664"/>
	
		<line fill="none" stroke="#ABE4FF" stroke-linecap="round" stroke-linejoin="round" stroke-miterlimit="10" x1="199.575" y1="49.396" x2="199.575" y2="45.531"/>
</g>
<path fill="#73D2FF" d="M196.112,199.793c-3.679-9.744-6.258-20.82-4.796-31.661c1.313-9.742,4.617-19.863,9.845-28.567
	c5.453-9.083,8.542-18.539,11.337-28.284c5.567-19.424,3.667-49.802-8.973-65.581c-14.652-18.287-35.226-23.577-57.213-23.93
	c-22.437-0.36-44.138,9.329-57.482,25.14c-7.461,8.84-10.979,16.208-13.455,27.077c-4.088,17.95-4.815,20.391-4.557,22.738
	c0.538,4.875,2.629,4.373,3.232,6.725c1.521,5.926-0.806,9.034-5.653,15.19c-6.071,7.709-13.328,15.406-13.328,18.971
	c0.001,6.45,8.078,4.833,13.432,8.003c5.445,3.223,0.057,8.311,0.134,13.344c0.028,1.837,1.681,1.141,5.267,3.021
	c-1.928,0.588-5.864,1.904-4.743,3.898c9.964,8.318-4.34,17.642,7.194,24.75c11.844,7.3,35.542,4.062,39.435,7.274
	c3.892,3.213,10.203,17.187,13.133,28.906l76.362,0.118C205.283,226.925,197.853,204.4,196.112,199.793z"/>
<path fill="#FFFFFF" d="M130.168,122.263c1.624-4.302,2.763-9.191,2.117-13.978c-0.58-4.301-2.039-8.77-4.346-12.612
	c-2.408-4.01-3.771-8.185-5.005-12.487c-2.458-8.576-1.619-21.987,3.961-28.954c6.469-8.073,15.552-10.409,25.259-10.565
	c9.906-0.159,19.486,4.119,25.378,11.099c3.295,3.903,4.848,7.155,5.94,11.954c1.805,7.925,2.126,9.003,2.012,10.039
	c-0.237,2.153-1.16,1.931-1.427,2.969c-0.672,2.616,0.355,3.988,2.496,6.706c2.68,3.403,5.884,6.802,5.884,8.375
	c-0.001,2.848-3.566,2.134-5.931,3.534c-2.403,1.423-0.024,3.669-0.059,5.892c-0.013,0.811-0.742,0.503-2.325,1.333
	c0.852,0.26,2.589,0.841,2.094,1.721c-4.398,3.672,1.916,7.789-3.176,10.927c-5.229,3.223-15.692,1.793-17.41,3.211
	s-3.304,7.588-4.598,12.762l-34.914,0.052C126.12,134.242,129.4,124.298,130.168,122.263z"/>
<line fill="none" stroke="#73D2FF" stroke-width="0.5677" stroke-miterlimit="10" x1="158.69" y1="80.545" x2="171.085" y2="60.256"/>
<line fill="none" stroke="#73D2FF" stroke-width="0.5677" stroke-miterlimit="10" x1="158.69" y1="80.545" x2="152.764" y2="64.112"/>
<line fill="none" stroke="#73D2FF" stroke-width="0.5677" stroke-miterlimit="10" x1="140.739" y1="56.495" x2="158.69" y2="51.921"/>
<line fill="none" stroke="#73D2FF" stroke-width="0.5677" stroke-miterlimit="10" x1="158.69" y1="51.921" x2="171.085" y2="60.256"/>
<line fill="none" stroke="#73D2FF" stroke-width="0.5677" stroke-miterlimit="10" x1="171.085" y1="60.256" x2="152.764" y2="63.724"/>
<line fill="none" stroke="#73D2FF" stroke-width="0.5677" stroke-miterlimit="10" x1="152.764" y1="63.724" x2="158.311" y2="52.018"/>
<line fill="none" stroke="#73D2FF" stroke-width="0.5677" stroke-miterlimit="10" x1="152.764" y1="63.724" x2="144.086" y2="73.359"/>
<line fill="none" stroke="#73D2FF" stroke-width="0.5677" stroke-miterlimit="10" x1="144.086" y1="73.359" x2="140.739" y2="56.495"/>
<line fill="none" stroke="#73D2FF" stroke-width="0.5677" stroke-miterlimit="10" x1="131.841" y1="68.776" x2="134.367" y2="81.703"/>
<line fill="none" stroke="#73D2FF" stroke-width="0.5677" stroke-miterlimit="10" x1="134.367" y1="81.703" x2="144.086" y2="73.359"/>
<line fill="none" stroke="#FF7370" stroke-width="0.5" stroke-miterlimit="10" x1="144.086" y1="73.359" x2="158.69" y2="80.545"/>
<line fill="none" stroke="#FF7370" stroke-width="0.5" stroke-miterlimit="10" x1="158.69" y1="80.545" x2="144.378" y2="90.258"/>
<line fill="none" stroke="#FF7370" stroke-width="0.5" stroke-miterlimit="10" x1="144.378" y1="90.258" x2="144.378" y2="143.696"/>
<line fill="none" stroke="#73D2FF" stroke-width="0.5677" stroke-miterlimit="10" x1="131.841" y1="68.776" x2="140.739" y2="56.495"/>
<circle fill="#FF7370" cx="144.15" cy="144.392" r="28.115"/>
<circle fill="#FFE1E0" cx="144.149" cy="144.392" r="11.14"/>
<g>
	<path fill="none" stroke="#FFFFFF" stroke-width="10" stroke-miterlimit="10" d="M141.243,259.9c0,0-5.553-22.889-9.484-30.443
		c-4.84-9.305-8.469-23.581-18.07-30.943c-2.815-2.156-4.499-4.185-3.629-5.257l0.838-1.038c6.7-6.265,11.167-4.696,17.03-1.374
		c5.413,3.067,6.817,8.598,8.096,11.077c0,0-1.38-3.552-1.38-12.694c0-6.807,0-8.274,0-8.274c0-1.482,0.792-35.59,3.274-40.09
		c2.316-4.2,9.593-5.693,11.941,0.497c0.728,1.916,3.8,38.269,3.8,41.437c0,2.796,2.009,0.271,3.04,0.429
		c4.381,0.661,9.06,1.534,13.676,2.568c0.673,0.151,1.346,2.306,2.015,2.463c0.865,0.204,1.726-1.587,2.58-1.373
		c4.05,1.016,7.955,2.146,11.457,3.355c0.971,0.336,1.911,2.677,2.814,3.023c0.938,0.36,1.838-1.273,2.692-0.903
		c2.314,1.004,4.296,2.044,5.823,3.103c4.272,2.957,7.018,3.722,7.018,13.609v10.584c0,17.33-7.018,18.534-7.018,40.245
		C197.757,274.164,145.305,275.052,141.243,259.9z"/>
	<path fill="#48B6E8" d="M141.243,259.9c0,0-5.553-22.889-9.484-30.443c-4.84-9.305-8.469-23.581-18.07-30.943
		c-2.815-2.156-4.499-4.185-3.629-5.257l0.838-1.038c6.7-6.265,11.167-4.696,17.03-1.374c5.413,3.067,6.817,8.598,8.096,11.077
		c0,0-1.38-3.552-1.38-12.694c0-6.807,0-8.274,0-8.274c0-1.482,0.792-35.59,3.274-40.09c2.316-4.2,9.593-5.693,11.941,0.497
		c0.728,1.916,3.8,38.269,3.8,41.437c0,2.796,2.009,0.271,3.04,0.429c4.381,0.661,9.06,1.534,13.676,2.568
		c0.673,0.151,1.346,2.306,2.015,2.463c0.865,0.204,1.726-1.587,2.58-1.373c4.05,1.016,7.955,2.146,11.457,3.355
		c0.971,0.336,1.911,2.677,2.814,3.023c0.938,0.36,1.838-1.273,2.692-0.903c2.314,1.004,4.296,2.044,5.823,3.103
		c4.272,2.957,7.018,3.722,7.018,13.609v10.584c0,17.33-7.018,18.534-7.018,40.245C197.757,274.164,145.305,275.052,141.243,259.9z"
		/>
</g>
<path fill="#FFDBE5" d="M222.4,79.762c32.728,40.705,29.333,100.381-9.188,137.032c-40.61,38.638-104.854,37.039-143.493-3.572
	c-20.81-21.873-29.928-50.6-27.584-78.491l-41.396-5.993c-4.073,40.148,8.706,81.764,38.703,113.292
	c54.548,57.333,145.247,59.591,202.58,5.043c55.251-52.567,59.331-138.694,10.738-196.193L222.4,79.762z"/>
<g>
	<g>
		<g>
			
				<path fill="none" stroke="#FF57A8" stroke-width="1.2291" stroke-linecap="round" stroke-linejoin="round" stroke-dasharray="4.9165,7.3747" d="
				M148.938,73.283c136.526-4.113,155.917,58.447,84.22,65.315"/>
			<g>
				<circle fill="#FF57A8" cx="144.318" cy="73.398" r="4.621"/>
			</g>
			<g>
				<polygon fill="#FF57A8" points="236.255,133.745 234.666,138.428 236.934,142.823 225.834,139.088 				"/>
			</g>
		</g>
	</g>
</g>
<g>
	<g>
		
			<path fill="none" stroke="#FF57A8" stroke-width="1.2291" stroke-linecap="round" stroke-linejoin="round" stroke-dasharray="4.9165,7.3747" d="
			M144.378,144.837C7.852,148.949-16.39,86.466,55.306,79.598"/>
		<g>
			<circle fill="#FF57A8" cx="144.146" cy="144.798" r="4.621"/>
		</g>
		<g>
			<polygon fill="#FF57A8" points="52.209,84.451 53.798,79.768 51.53,75.374 62.629,79.108 			"/>
		</g>
	</g>
</g>
<circle fill="#FFFFFF" stroke="#73D2FF" stroke-width="0.5677" stroke-miterlimit="10" cx="134.367" cy="81.703" r="2.526"/>
<circle fill="#FFFFFF" stroke="#73D2FF" stroke-width="0.5677" stroke-miterlimit="10" cx="131.841" cy="68.776" r="2.526"/>
<circle fill="#FFFFFF" stroke="#73D2FF" stroke-width="0.5677" stroke-miterlimit="10" cx="152.764" cy="64.112" r="2.525"/>
<circle fill="#FFFFFF" stroke="#73D2FF" stroke-width="0.5677" stroke-miterlimit="10" cx="140.739" cy="56.495" r="2.526"/>
<circle fill="#FFFFFF" stroke="#73D2FF" stroke-width="0.5677" stroke-miterlimit="10" cx="158.69" cy="51.921" r="2.526"/>
<circle fill="#FFFFFF" stroke="#73D2FF" stroke-width="0.5677" stroke-miterlimit="10" cx="171.085" cy="60.256" r="2.525"/>
<circle fill="#FFFFFF" stroke="#FF73C2" stroke-width="0.5677" stroke-miterlimit="10" cx="158.69" cy="80.545" r="2.526"/>
<circle fill="#FFFFFF" stroke="#FF73C2" stroke-width="0.5677" stroke-miterlimit="10" cx="144.378" cy="90.258" r="2.526"/>
</svg>
