<?xml version="1.0" encoding="utf-8"?>
<!-- Generator: Adobe Illustrator 16.0.0, SVG Export Plug-In . SVG Version: 6.00 Build 0)  -->
<!DOCTYPE svg PUBLIC "-//W3C//DTD SVG 1.1//EN" "http://www.w3.org/Graphics/SVG/1.1/DTD/svg11.dtd">
<svg version="1.1" xmlns="http://www.w3.org/2000/svg" xmlns:xlink="http://www.w3.org/1999/xlink" x="0px" y="0px"
	 width="320.218px" height="303.056px" viewBox="0 0 320.218 303.056" enable-background="new 0 0 320.218 303.056"
	 xml:space="preserve">
<g id="Layer_3">
	
		<line fill="none" stroke="#4BA3CC" stroke-width="0.5" stroke-linecap="round" stroke-linejoin="round" stroke-dasharray="3,3" x1="178.459" y1="274.214" x2="276.273" y2="250.742"/>
	
		<line fill="none" stroke="#4BA3CC" stroke-width="0.5" stroke-linecap="round" stroke-linejoin="round" stroke-dasharray="3,3" x1="21.648" y1="150.567" x2="295.773" y2="150.567"/>
	
		<line fill="none" stroke="#4BA3CC" stroke-width="0.5" stroke-linecap="round" stroke-linejoin="round" stroke-dasharray="3,3" x1="158.541" y1="41.539" x2="158.541" y2="274.028"/>
	
		<line fill="none" stroke="#4BA3CC" stroke-width="0.5" stroke-linecap="round" stroke-linejoin="round" stroke-dasharray="3,3" x1="58.273" y1="62.056" x2="135.862" y2="139.645"/>
	
		<line fill="none" stroke="#4BA3CC" stroke-width="0.5" stroke-linecap="round" stroke-linejoin="round" stroke-dasharray="3,3" x1="276.273" y1="58.87" x2="165.63" y2="169.514"/>
	
		<line fill="none" stroke="#4BA3CC" stroke-width="0.5" stroke-linecap="round" stroke-linejoin="round" stroke-dasharray="3,3" x1="38.589" y1="253.782" x2="141.161" y2="166.211"/>
	
		<line fill="none" stroke="#4BA3CC" stroke-width="0.5" stroke-linecap="round" stroke-linejoin="round" stroke-dasharray="3,3" x1="42.219" y1="206.348" x2="46.566" y2="257.498"/>
	
		<line fill="none" stroke="#4BA3CC" stroke-width="0.5" stroke-linecap="round" stroke-linejoin="round" stroke-dasharray="3,3" x1="47.863" y1="206.344" x2="30.847" y2="155.844"/>
	
		<line fill="none" stroke="#4BA3CC" stroke-width="0.5" stroke-linecap="round" stroke-linejoin="round" stroke-dasharray="3,3" x1="21.648" y1="150.567" x2="11" y2="46.064"/>
	
		<line fill="none" stroke="#4BA3CC" stroke-width="0.5" stroke-linecap="round" stroke-linejoin="round" stroke-dasharray="3,3" x1="6.773" y1="45.556" x2="99.773" y2="25.556"/>
	
		<line fill="none" stroke="#4BA3CC" stroke-width="0.5" stroke-linecap="round" stroke-linejoin="round" stroke-dasharray="3,3" x1="58.273" y1="62.056" x2="99.773" y2="25.556"/>
	
		<line fill="none" stroke="#4BA3CC" stroke-width="0.5" stroke-linecap="round" stroke-linejoin="round" stroke-dasharray="3,3" x1="99.773" y1="25.556" x2="154.773" y2="37.556"/>
	
		<line fill="none" stroke="#4BA3CC" stroke-width="0.5" stroke-linecap="round" stroke-linejoin="round" stroke-dasharray="3,3" x1="160.773" y1="38.556" x2="214.773" y2="72.556"/>
	
		<line fill="none" stroke="#4BA3CC" stroke-width="0.5" stroke-linecap="round" stroke-linejoin="round" stroke-dasharray="3,3" x1="214.773" y1="72.556" x2="274.773" y2="63.556"/>
	
		<line fill="none" stroke="#4BA3CC" stroke-width="0.5" stroke-linecap="round" stroke-linejoin="round" stroke-dasharray="3,3" x1="276.273" y1="58.87" x2="244.773" y2="15.556"/>
	
		<line fill="none" stroke="#4BA3CC" stroke-width="0.5" stroke-linecap="round" stroke-linejoin="round" stroke-dasharray="3,3" x1="244.773" y1="15.556" x2="168.773" y2="39.556"/>
	
		<line fill="none" stroke="#4BA3CC" stroke-width="0.5" stroke-linecap="round" stroke-linejoin="round" stroke-dasharray="3,3" x1="274.773" y1="63.556" x2="313.773" y2="91.556"/>
	
		<line fill="none" stroke="#4BA3CC" stroke-width="0.5" stroke-linecap="round" stroke-linejoin="round" stroke-dasharray="3,3" x1="313.773" y1="91.556" x2="309.773" y2="149.556"/>
	
		<line fill="none" stroke="#4BA3CC" stroke-width="0.5" stroke-linecap="round" stroke-linejoin="round" stroke-dasharray="3,3" x1="301.773" y1="153.556" x2="275.773" y2="188.556"/>
	
		<line fill="none" stroke="#4BA3CC" stroke-width="0.5" stroke-linecap="round" stroke-linejoin="round" stroke-dasharray="3,3" x1="301.773" y1="153.556" x2="278.773" y2="248.556"/>
	
		<line fill="none" stroke="#4BA3CC" stroke-width="0.5" stroke-linecap="round" stroke-linejoin="round" stroke-dasharray="3,3" x1="275.773" y1="188.556" x2="273.773" y2="249.556"/>
	
		<line fill="none" stroke="#4BA3CC" stroke-width="0.5" stroke-linecap="round" stroke-linejoin="round" stroke-dasharray="3,3" x1="150.773" y1="267.556" x2="108.773" y2="239.556"/>
	
		<line fill="none" stroke="#4BA3CC" stroke-width="0.5" stroke-linecap="round" stroke-linejoin="round" stroke-dasharray="3,3" x1="108.773" y1="239.556" x2="39.773" y2="251.556"/>
	
		<line fill="none" stroke="#4BA3CC" stroke-width="0.5" stroke-linecap="round" stroke-linejoin="round" stroke-dasharray="3,3" x1="39.773" y1="251.556" x2="148.773" y2="276.556"/>
	
		<line fill="none" stroke="#4BA3CC" stroke-width="0.5" stroke-linecap="round" stroke-linejoin="round" stroke-dasharray="3,3" x1="161.773" y1="277.556" x2="232.773" y2="117.556"/>
	
		<line fill="none" stroke="#4BA3CC" stroke-width="0.5" stroke-linecap="round" stroke-linejoin="round" stroke-dasharray="3,3" x1="213.773" y1="68.556" x2="188.773" y2="145.556"/>
	
		<line fill="none" stroke="#4BA3CC" stroke-width="0.5" stroke-linecap="round" stroke-linejoin="round" stroke-dasharray="3,3" x1="42.219" y1="206.348" x2="114.773" y2="177.556"/>
	
		<line fill="none" stroke="#4BA3CC" stroke-width="0.5" stroke-linecap="round" stroke-linejoin="round" stroke-dasharray="3,3" x1="275.773" y1="188.556" x2="194.773" y2="174.556"/>
	
		<line fill="none" stroke="#4BA3CC" stroke-width="0.5" stroke-linecap="round" stroke-linejoin="round" stroke-dasharray="3,3" x1="278.773" y1="252.556" x2="203.773" y2="175.556"/>
</g>
<g id="Layer_2">
	<g>
		<path fill="#ABE4FF" d="M235.775,91.909H81.772c-6.047,0-10.999,4.952-10.999,10.998v103.297c0,6.048,4.951,10.999,10.999,10.999
			h56.483l20.518,33.933l19.685-33.933h57.317c6.046,0,10.998-4.951,10.998-10.999V102.907
			C246.773,96.86,241.821,91.909,235.775,91.909z"/>
		<path fill="#FFFFFF" d="M148.524,210.994c-2.173-3.595-6.068-5.791-10.269-5.791H82.773V103.909h152v101.294h-56.315
			c-4.278,0-8.233,2.278-10.38,5.979l-9.519,16.408L148.524,210.994z"/>
	</g>
	<g>
		<path fill="#FFFFFF" d="M235.878,204.593c0,0.55-0.449,1-1,1H82.668c-0.55,0-1-0.45-1-1V104.519c0-0.55,0.45-1,1-1h152.209
			c0.551,0,1,0.45,1,1V204.593z"/>
	</g>
	<path opacity="0.3" fill="#8CDDFF" d="M158.773,251.136l19.685-33.933h57.317c6.046,0,10.998-4.951,10.998-10.999V102.907
		c0-6.046-4.952-10.998-10.998-10.998h-45.062l-50.331,128.812L158.773,251.136z"/>
	<g>
		<g>
			
				<line fill="none" stroke="#ABE4FF" stroke-linecap="round" stroke-linejoin="round" stroke-miterlimit="10" x1="221.273" y1="284.556" x2="224.273" y2="287.556"/>
			
				<line fill="none" stroke="#ABE4FF" stroke-linecap="round" stroke-linejoin="round" stroke-miterlimit="10" x1="218.273" y1="287.556" x2="221.273" y2="284.556"/>
		</g>
		<path fill="none" stroke="#ABE4FF" stroke-linecap="round" stroke-linejoin="round" stroke-miterlimit="10" d="M230.273,302.556
			c0-6.259-4.5-9-4.5-9s-4.5-2.741-4.5-9"/>
		<g>
			
				<line fill="none" stroke="#ABE4FF" stroke-linecap="round" stroke-linejoin="round" stroke-miterlimit="10" x1="230.273" y1="284.556" x2="227.273" y2="287.556"/>
			
				<line fill="none" stroke="#ABE4FF" stroke-linecap="round" stroke-linejoin="round" stroke-miterlimit="10" x1="233.273" y1="287.556" x2="230.273" y2="284.556"/>
		</g>
		<path fill="none" stroke="#ABE4FF" stroke-linecap="round" stroke-linejoin="round" stroke-miterlimit="10" d="M226.447,293.055
			c1.255-1.047,3.826-3.768,3.826-8.499"/>
		<path fill="none" stroke="#ABE4FF" stroke-linecap="round" stroke-linejoin="round" stroke-miterlimit="10" d="M221.273,302.556
			c0-4.688,2.524-7.402,3.792-8.47"/>
	</g>
	<circle fill="#FF506A" cx="158.773" cy="274.214" r="19.686"/>
	<circle fill="#E6BABA" cx="300.213" cy="151.21" r="19.685"/>
	<circle fill="#FF8CA3" cx="158.773" cy="39.185" r="19.686"/>
	<g>
		<path fill="none" stroke="#ABE4FF" stroke-linecap="round" stroke-linejoin="round" stroke-miterlimit="10" d="M100.504,285.614
			c0-0.585-0.474-1.059-1.059-1.059h-7.882c-0.585,0-1.059,0.474-1.059,1.059v15.883c0,0.584,0.474,1.059,1.059,1.059h7.882
			c0.584,0,1.059-0.475,1.059-1.059V285.614z"/>
		
			<line fill="none" stroke="#ABE4FF" stroke-linecap="round" stroke-linejoin="round" stroke-miterlimit="10" x1="91.004" y1="300.556" x2="100.004" y2="300.556"/>
		
			<line fill="none" stroke="#ABE4FF" stroke-linecap="round" stroke-linejoin="round" stroke-miterlimit="10" x1="91.004" y1="286.556" x2="100.004" y2="286.556"/>
	</g>
	<polygon fill="#FFA58F" points="288.773,72.037 274.36,72.037 267.721,78.812 267.721,72.037 263.773,72.037 263.773,53.615 
		288.773,53.615 	"/>
	
		<polygon fill="#FFFFFF" stroke="#ABE4FF" stroke-width="0.6382" stroke-linecap="round" stroke-linejoin="round" stroke-miterlimit="10" points="
		284.25,254.458 275.053,254.458 270.815,258.782 270.815,254.458 268.297,254.458 268.297,242.703 284.25,242.703 	"/>
	
		<polygon fill="#FFFFFF" stroke="#ABE4FF" stroke-width="0.6382" stroke-linecap="round" stroke-linejoin="round" stroke-miterlimit="10" points="
		46.566,257.498 37.369,257.498 33.132,261.822 33.132,257.498 30.613,257.498 30.613,245.742 46.566,245.742 	"/>
	
		<polygon fill="#FFFFFF" stroke="#ABE4FF" stroke-width="0.6382" stroke-linecap="round" stroke-linejoin="round" stroke-miterlimit="10" points="
		319.898,95.624 310.701,95.624 306.464,99.948 306.464,95.624 303.945,95.624 303.945,83.869 319.898,83.869 	"/>
	
		<polygon fill="#FFFFFF" stroke="#ABE4FF" stroke-width="0.6382" stroke-linecap="round" stroke-linejoin="round" stroke-miterlimit="10" points="
		18.977,49.78 9.779,49.78 5.542,54.104 5.542,49.78 3.023,49.78 3.023,38.024 18.977,38.024 	"/>
	<g>
		<path fill="none" stroke="#ABE4FF" stroke-linecap="round" stroke-linejoin="round" stroke-miterlimit="10" d="M114.252,77.656
			c-0.54,0.741-1.434,0.934-2.518,1.065c-1.682,0.203-3.045-0.712-3.045-2.045s1.363-2.131,3.045-2.335
			c1.682-0.203,2.955,0.408,2.955,2.408l0,0V63.414l10-2.665v13l0,0c0-1-1.365-2.444-3.047-2.24
			c-1.682,0.204-3.045,1.309-3.045,2.642s1.363,2.179,3.045,1.976c1.084-0.131,2.035-0.729,2.575-1.471"/>
		
			<line fill="none" stroke="#ABE4FF" stroke-linecap="round" stroke-linejoin="round" stroke-miterlimit="10" x1="114.78" y1="66.124" x2="124.69" y2="63.325"/>
	</g>
	<circle fill="#FFA58F" cx="115.19" cy="153.317" r="19.685"/>
	<g>
		<path fill="none" stroke="#FFFFFF" stroke-linecap="round" stroke-linejoin="round" stroke-miterlimit="10" d="M121.69,150.317
			c0,6-4,5-4,9.869c0,2.131-0.55,2.631-2.5,2.631c-1.95,0-2.5-0.5-2.5-2.631c0-4.869-4-3.869-4-9.869c0-3.59,2.91-6.5,6.5-6.5
			S121.69,146.727,121.69,150.317z"/>
		
			<line fill="none" stroke="#FFFFFF" stroke-linecap="round" stroke-linejoin="round" stroke-miterlimit="10" x1="113.19" y1="157.817" x2="117.19" y2="157.817"/>
		
			<line fill="none" stroke="#FFFFFF" stroke-linecap="round" stroke-linejoin="round" stroke-miterlimit="10" x1="113.69" y1="159.817" x2="116.69" y2="158.817"/>
		
			<line fill="none" stroke="#FFFFFF" stroke-linecap="round" stroke-linejoin="round" stroke-miterlimit="10" x1="111.69" y1="150.817" x2="115.69" y2="148.817"/>
		
			<line fill="none" stroke="#FFFFFF" stroke-linecap="round" stroke-linejoin="round" stroke-miterlimit="10" x1="114.69" y1="151.817" x2="118.69" y2="149.817"/>
		
			<line fill="none" stroke="#FFFFFF" stroke-linecap="round" stroke-linejoin="round" stroke-miterlimit="10" x1="113.69" y1="161.817" x2="116.69" y2="160.817"/>
		
			<line fill="none" stroke="#FFFFFF" stroke-linecap="round" stroke-linejoin="round" stroke-miterlimit="10" x1="115.69" y1="148.817" x2="114.69" y2="151.817"/>
	</g>
	<g>
		<path fill="#043573" d="M159.827,174.568h-2.107l-4.88-44.922c-0.222-1.959-0.333-3.419-0.333-4.381
			c0-2.33,0.619-4.196,1.858-5.602c1.238-1.405,2.726-2.107,4.464-2.107c1.737,0,3.207,0.703,4.409,2.107
			c1.201,1.405,1.802,3.494,1.802,6.267c0,0.887-0.074,2.126-0.222,3.716L159.827,174.568z M158.718,183.774
			c1.7,0,3.151,0.602,4.354,1.803c1.201,1.202,1.803,2.634,1.803,4.298c0,1.701-0.602,3.152-1.803,4.354
			c-1.202,1.201-2.653,1.803-4.354,1.803c-1.701,0-3.152-0.602-4.353-1.803c-1.202-1.201-1.803-2.652-1.803-4.354
			c0-1.664,0.601-3.096,1.803-4.298C155.565,184.376,157.017,183.774,158.718,183.774z"/>
	</g>
	<g>
		<g>
			
				<line fill="none" stroke="#AEA3C2" stroke-width="2.2696" stroke-miterlimit="10" x1="182.459" y1="175.659" x2="219.666" y2="175.659"/>
		</g>
		<g>
			
				<line fill="none" stroke="#AEA3C2" stroke-width="2.2696" stroke-miterlimit="10" x1="182.459" y1="163.176" x2="219.666" y2="163.176"/>
		</g>
		<g>
			
				<line fill="none" stroke="#AEA3C2" stroke-width="2.2696" stroke-miterlimit="10" x1="182.459" y1="150.693" x2="219.666" y2="150.693"/>
		</g>
		<g>
			
				<line fill="none" stroke="#AEA3C2" stroke-width="2.2696" stroke-miterlimit="10" x1="182.459" y1="138.21" x2="219.666" y2="138.21"/>
		</g>
	</g>
	<g>
		<path fill="none" stroke="#ABE4FF" stroke-linecap="round" stroke-linejoin="round" stroke-miterlimit="10" d="M213.84,239.709
			c0,0,1.041-0.151,1.041-1.429s-2.941-1.315-2.941-2.442c0-1.128,2.081-2.066,2.081-2.066"/>
		<path fill="none" stroke="#ABE4FF" stroke-linecap="round" stroke-linejoin="round" stroke-miterlimit="10" d="M214.881,240.896
			h4.268c0.653,0,1.188,0.534,1.188,1.188c0,0.031-1.188,8.371-1.188,8.371c-0.223,1.24-1.168,2.316-2.375,2.316h-6.021
			c-1.208,0-2.152-1.076-2.375-2.316c0,0-1.188-8.34-1.188-8.371c0-0.653,0.534-1.188,1.188-1.188H214.881"/>
		<path fill="none" stroke="#ABE4FF" stroke-linecap="round" stroke-linejoin="round" stroke-miterlimit="10" d="M219.148,250.455
			c-0.013,0.073-0.037,0.144-0.055,0.215c0.235,0.039,0.474,0.072,0.721,0.072c2.391,0,4.329-1.938,4.329-4.329
			c0-2.215-1.669-4.021-3.814-4.277"/>
	</g>
	<path fill="#FFFFFF" d="M161.586,276.488c-0.987-0.237-1.477-1.531-0.603-2.449c1.168-1.122,1.946-3.037,1.946-4.943
		c0-2.952-1.86-4.75-4.156-4.75c-2.295,0-4.156,1.798-4.156,4.75c0,1.9,0.773,3.81,1.935,4.933h-0.007
		c0.891,0.922,0.395,2.232-0.604,2.464c-3.864,0.746-6.668,2.881-6.668,4.479c0,1.968,4.253,2.375,9.5,2.375s9.5-0.407,9.5-2.375
		C168.273,279.37,165.459,277.231,161.586,276.488z"/>
	<path fill="#FFFFFF" stroke="#ABE4FF" stroke-linecap="round" stroke-linejoin="round" stroke-miterlimit="10" d="M111.502,239.383
		c-0.987-0.238-1.476-1.532-0.603-2.45c1.168-1.121,1.947-3.037,1.947-4.942c0-2.953-1.861-4.75-4.156-4.75
		c-2.296,0-4.156,1.797-4.156,4.75c0,1.899,0.773,3.809,1.935,4.932h-0.007c0.89,0.922,0.394,2.232-0.604,2.464
		c-3.863,0.746-6.667,2.881-6.667,4.479c0,1.968,4.253,2.375,9.5,2.375c5.247,0,9.5-0.407,9.5-2.375
		C118.19,242.265,115.376,240.125,111.502,239.383z"/>
	<path fill="#FFFFFF" stroke="#ABE4FF" stroke-linecap="round" stroke-linejoin="round" stroke-miterlimit="10" d="M277.562,187.198
		c-0.987-0.237-1.476-1.531-0.603-2.45c1.168-1.122,1.946-3.037,1.946-4.943c0-2.953-1.86-4.75-4.156-4.75
		c-2.295,0-4.156,1.797-4.156,4.75c0,1.9,0.773,3.809,1.936,4.932h-0.007c0.89,0.922,0.394,2.232-0.604,2.464
		c-3.863,0.746-6.668,2.881-6.668,4.479c0,1.968,4.253,2.375,9.5,2.375s9.5-0.407,9.5-2.375
		C284.25,190.08,281.437,187.941,277.562,187.198z"/>
	<path fill="#FFFFFF" d="M303.025,152.459c-0.987-0.238-1.476-1.532-0.603-2.45c1.169-1.122,1.947-3.037,1.947-4.943
		c0-2.953-1.861-4.75-4.156-4.75c-2.296,0-4.156,1.797-4.156,4.75c0,1.899,0.772,3.809,1.935,4.932h-0.007
		c0.89,0.922,0.394,2.232-0.604,2.464c-3.864,0.746-6.668,2.881-6.668,4.479c0,1.968,4.253,2.375,9.5,2.375s9.5-0.407,9.5-2.375
		C309.714,155.341,306.899,153.202,303.025,152.459z"/>
	<path fill="#FFFFFF" stroke="#ABE4FF" stroke-linecap="round" stroke-linejoin="round" stroke-miterlimit="10" d="M218.479,67.513
		c-0.987-0.238-1.476-1.532-0.603-2.45c1.168-1.122,1.946-3.037,1.946-4.943c0-2.952-1.86-4.75-4.156-4.75
		c-2.295,0-4.156,1.798-4.156,4.75c0,1.9,0.773,3.81,1.936,4.932h-0.007c0.89,0.922,0.394,2.232-0.604,2.464
		c-3.863,0.746-6.668,2.881-6.668,4.479c0,1.968,4.254,2.375,9.5,2.375c5.247,0,9.5-0.407,9.5-2.375
		C225.166,70.395,222.353,68.256,218.479,67.513z"/>
	<path fill="#FFFFFF" stroke="#ABE4FF" stroke-linecap="round" stroke-linejoin="round" stroke-miterlimit="10" d="M249.586,12.643
		c-0.987-0.238-1.477-1.532-0.603-2.45c1.168-1.122,1.946-3.037,1.946-4.943c0-2.953-1.86-4.75-4.156-4.75s-4.156,1.797-4.156,4.75
		c0,1.899,0.773,3.809,1.935,4.932h-0.007c0.891,0.922,0.395,2.232-0.604,2.464c-3.863,0.746-6.668,2.881-6.668,4.479
		c0,1.968,4.253,2.375,9.5,2.375s9.5-0.407,9.5-2.375C256.273,15.524,253.459,13.385,249.586,12.643z"/>
	<path fill="#FFFFFF" stroke="#ABE4FF" stroke-linecap="round" stroke-linejoin="round" stroke-miterlimit="10" d="M102.002,22.143
		c-0.987-0.238-1.476-1.532-0.603-2.45c1.168-1.122,1.947-3.037,1.947-4.943c0-2.953-1.861-4.75-4.156-4.75
		c-2.296,0-4.156,1.797-4.156,4.75c0,1.899,0.773,3.809,1.935,4.932h-0.007c0.89,0.922,0.394,2.232-0.604,2.464
		c-3.863,0.746-6.667,2.881-6.667,4.479c0,1.968,4.253,2.375,9.5,2.375c5.247,0,9.5-0.407,9.5-2.375
		C108.69,25.024,105.876,22.885,102.002,22.143z"/>
	<path fill="#FFFFFF" stroke="#ABE4FF" stroke-linecap="round" stroke-linejoin="round" stroke-miterlimit="10" d="M47.863,206.344
		c-0.987-0.237-1.476-1.531-0.603-2.449c1.168-1.122,1.947-3.037,1.947-4.943c0-2.952-1.861-4.75-4.156-4.75
		s-4.156,1.798-4.156,4.75c0,1.9,0.773,3.81,1.935,4.933h-0.007c0.89,0.922,0.394,2.232-0.604,2.464
		c-3.864,0.746-6.668,2.881-6.668,4.479c0,1.968,4.253,2.375,9.5,2.375s9.5-0.407,9.5-2.375
		C54.551,209.226,51.737,207.087,47.863,206.344z"/>
	<g>
		<g>
			<path fill="#FF6B75" d="M21.85,162.308c-0.111-0.079-0.311-0.066-0.443,0.029c-0.132,0.092-11.481,8.205-11.481,8.205
				c-1.512,1.081-2.289,0.516-1.729-1.255c0,0,4.206-13.293,4.255-13.451c0.052-0.159-0.004-0.357-0.12-0.444
				c-0.118-0.087-11.381-9.165-11.381-9.165c-1.493-1.102-1.196-2.017,0.661-2.032c0,0,13.827,0.002,14.033,0
				c0.208,0,0.439-0.19,0.517-0.417c0.075-0.228,4.419-12.601,4.419-12.601c0.588-1.765,1.549-1.765,2.138,0
				c0,0,4.416,12.584,4.465,12.738c0.052,0.153,0.239,0.28,0.416,0.28c0.177,0,14.087,0.002,14.087,0.002
				c1.856,0.013,2.154,0.928,0.658,2.03c0,0-11.254,9.072-11.375,9.162c-0.119,0.087-0.174,0.291-0.123,0.455
				c0.051,0.161,4.253,13.443,4.253,13.443c0.56,1.771-0.217,2.336-1.729,1.255C33.372,170.542,21.96,162.387,21.85,162.308z"/>
		</g>
		<path opacity="0.32" fill="#FF505C" d="M41.686,144.197c0,0-13.91-0.002-14.087-0.002c-0.177,0-0.365-0.127-0.416-0.28
			c-0.049-0.153-4.465-12.738-4.465-12.738c-0.294-0.883-0.682-1.324-1.069-1.324v32.407c0.075-0.003,0.149,0.011,0.201,0.048
			c0.111,0.079,11.522,8.234,11.522,8.234c1.512,1.081,2.289,0.516,1.729-1.255c0,0-4.202-13.282-4.253-13.443
			c-0.052-0.164,0.004-0.368,0.123-0.455c0.121-0.09,11.375-9.162,11.375-9.162C43.839,145.125,43.542,144.21,41.686,144.197z"/>
	</g>
	<path fill="none" stroke="#ABE4FF" stroke-linecap="round" stroke-linejoin="round" stroke-miterlimit="10" d="M53.206,97.602
		c0.251-0.251,0.251-0.664,0-0.915l-0.379-0.379c-0.251-0.251-0.749-0.458-1.104-0.458h-2.588c-0.356,0-0.853-0.206-1.105-0.458
		l-1.673-1.673c-0.251-0.251-0.458-0.748-0.458-1.104v-2.588c0-0.356-0.206-0.441-0.458-0.189l-8.145,8.144
		c-0.251,0.251-0.166,0.458,0.19,0.458h2.588c0.356,0,0.853,0.206,1.104,0.458l1.673,1.673c0.251,0.252,0.458,0.749,0.458,1.105
		v2.588c0,0.356,0.206,0.853,0.458,1.104l0.379,0.379c0.251,0.251,0.664,0.251,0.915,0l4.117-4.118l7.063,7.063"/>
	<path fill="none" stroke="#ABE4FF" stroke-linecap="round" stroke-linejoin="round" stroke-miterlimit="10" d="M274.75,108.007
		h-8.021c-1.47,0-2.956,1.015-2.956,2.956v15.622c0,0.171,0.103,0.325,0.26,0.39c0.054,0.022,0.108,0.032,0.163,0.032
		c0.109,0,0.218-0.042,0.297-0.124l3.714-3.713l3.847,3.713c0.079,0.081,0.188,0.124,0.297,0.124c0.055,0,0.11-0.01,0.163-0.032
		c0.157-0.065,0.26-0.219,0.26-0.39v-16.078"/>
	<circle fill="#FFA58F" cx="58.273" cy="62.056" r="13.222"/>
	
		<path fill="none" stroke="#FFFFFF" stroke-width="0.7778" stroke-linecap="round" stroke-linejoin="round" stroke-miterlimit="10" d="
		M48.589,51.96c2.516,2.414,5.923,3.905,9.684,3.905s7.169-1.491,9.684-3.905"/>
	
		<path fill="none" stroke="#FFFFFF" stroke-width="0.7778" stroke-linecap="round" stroke-linejoin="round" stroke-miterlimit="10" d="
		M67.958,72.151c-2.515-2.413-5.923-3.904-9.684-3.904s-7.168,1.491-9.684,3.904"/>
	
		<line fill="none" stroke="#FFFFFF" stroke-width="0.7778" stroke-linecap="round" stroke-linejoin="round" stroke-miterlimit="10" x1="45.051" y1="62.056" x2="71.496" y2="62.056"/>
	
		<line fill="none" stroke="#FFFFFF" stroke-width="0.7778" stroke-linecap="round" stroke-linejoin="round" stroke-miterlimit="10" x1="58.273" y1="48.833" x2="58.273" y2="75.278"/>
	<g>
		<path fill="#FFFFFF" d="M158.688,44.777h-0.637c0.072-1.305,0.235-2.384,0.489-3.238c0.253-0.854,0.779-2.043,1.577-3.565
			c0.621-1.17,1.025-2.069,1.212-2.695c0.186-0.626,0.279-1.261,0.279-1.903c0-1.315-0.35-2.361-1.049-3.138
			s-1.556-1.165-2.571-1.165c-0.901,0-1.61,0.212-2.128,0.637c-0.518,0.425-0.777,0.886-0.777,1.383
			c0,0.383,0.156,0.854,0.466,1.414c0.311,0.559,0.466,0.983,0.466,1.273c0,0.373-0.119,0.686-0.357,0.94
			c-0.238,0.254-0.528,0.38-0.87,0.38c-0.435,0-0.831-0.215-1.188-0.645c-0.357-0.43-0.536-1.028-0.536-1.794
			c0-1.17,0.502-2.206,1.507-3.107s2.366-1.351,4.085-1.351c2.133,0,3.703,0.621,4.707,1.864c0.746,0.911,1.119,1.921,1.119,3.029
			c0,0.756-0.169,1.532-0.505,2.33c-0.337,0.797-0.977,1.735-1.919,2.812c-1.502,1.698-2.42,2.902-2.757,3.611
			C158.965,42.559,158.76,43.535,158.688,44.777z M158.471,46.703c0.486,0,0.898,0.168,1.235,0.505
			c0.336,0.336,0.504,0.748,0.504,1.235c0,0.477-0.171,0.883-0.512,1.22c-0.342,0.336-0.751,0.504-1.227,0.504
			c-0.477,0-0.883-0.168-1.22-0.504c-0.336-0.337-0.505-0.743-0.505-1.22c0-0.487,0.168-0.898,0.505-1.235
			C157.588,46.872,157.994,46.703,158.471,46.703z"/>
	</g>
</g>
</svg>
