<?xml version="1.0" encoding="utf-8"?>
<!-- Generator: Adobe Illustrator 16.0.0, SVG Export Plug-In . SVG Version: 6.00 Build 0)  -->
<!DOCTYPE svg PUBLIC "-//W3C//DTD SVG 1.1//EN" "http://www.w3.org/Graphics/SVG/1.1/DTD/svg11.dtd">
<svg version="1.1" id="Layer_2" xmlns="http://www.w3.org/2000/svg" xmlns:xlink="http://www.w3.org/1999/xlink" x="0px" y="0px"
	 width="330.032px" height="315.305px" viewBox="0 0 330.032 315.305" enable-background="new 0 0 330.032 315.305"
	 xml:space="preserve">
<path fill="#D4F1FF" d="M265.469,62.629C256.526,26.725,224.292,0,185.644,0c-34.536,0-64.024,21.285-76.334,51.386
	c-7.232-6.238-16.528-10.132-26.804-10.132c-22.764,0-41.252,18.486-41.252,41.255c0,1.249,0.27,2.437,0.374,3.673
	C17.455,94.615,0,119.094,0,146.116c0,34.164,27.716,63.609,61.881,63.609h195.956c39.861,0,72.195-34.062,72.195-73.924
	C330.032,98.544,301.695,66.496,265.469,62.629z"/>
<g>
	<g>
		<g>
			<path fill="none" stroke="#4BA3CC" stroke-linecap="round" stroke-linejoin="round" d="M191.51,284.127V198.25
				c0-5.5,4.5-10,10-10h83c5.5,0,10-4.5,10-10v-40.143"/>
		</g>
		<g>
			<path fill="none" stroke="#4BA3CC" stroke-linecap="round" stroke-linejoin="round" d="M186.51,274.127V183.81
				c0-5.5,4.5-10,10-10h59.506c5.5,0,10-4.5,10-10v-55.702"/>
		</g>
		<g>
			<path fill="none" stroke="#4BA3CC" stroke-linecap="round" stroke-linejoin="round" d="M180.51,264.127v-96.521
				c0-5.5,4.5-10,10-10h43.506c5.5,0,10-4.387,10-9.749s0-9.749,0-9.749"/>
		</g>
		<g>
			<path fill="none" stroke="#4BA3CC" stroke-linecap="round" stroke-linejoin="round" d="M174.51,254.127v-106.02
				c0-5.5,4.5-10,10-10h26.645c5.5,0,10-4.5,10-10v-20"/>
		</g>
		<g>
			<path fill="none" stroke="#4BA3CC" stroke-linecap="round" stroke-linejoin="round" d="M167.51,244.127V108.972
				c0-5.5,4.5-10,10-10h4c5.5,0,10-4.5,10-10V52.5"/>
		</g>
		<g>
			<path fill="none" stroke="#4BA3CC" stroke-linecap="round" stroke-linejoin="round" d="M136.533,284.127v-85.77
				c0-5.5-4.5-10-10-10H42.016c-5.5,0-10-4.128-10-9.174s0-9.174,0-9.174"/>
		</g>
		<g>
			<path fill="none" stroke="#4BA3CC" stroke-linecap="round" stroke-linejoin="round" d="M141.533,274.127v-86.769
				c0-5.5-4.5-10-10-10H68.016c-5.5,0-10-4.5-10-10v-39.251"/>
		</g>
		<g>
			<path fill="none" stroke="#4BA3CC" stroke-linecap="round" stroke-linejoin="round" d="M147.533,264.127v-88.063
				c0-5.5-4.5-10-10-10H92.016c-5.5,0-10-4.5-10-10V92.75"/>
		</g>
		<g>
			<path fill="none" stroke="#4BA3CC" stroke-linecap="round" stroke-linejoin="round" d="M153.533,254.127v-90.039
				c0-5.5-4.5-10-10-10h-18.758c-5.5,0-10-4.5-10-10V129.75"/>
		</g>
		<g>
			<path fill="none" stroke="#4BA3CC" stroke-linecap="round" stroke-linejoin="round" d="M160.533,244.127V122.958
				c0-5.5-3.26-10-7.245-10c-3.984,0-7.245-4.5-7.245-10V80.75"/>
		</g>
	</g>
</g>
<path fill="#043573" d="M216.976,228.474H113.057c-4.081,0-7.422,3.342-7.422,7.422v66.224c0,4.082,3.341,7.422,7.422,7.422h103.919
	c4.079,0,7.421-3.34,7.421-7.422v-66.224C224.397,231.815,221.055,228.474,216.976,228.474z"/>
<path opacity="0.2" fill="#4BA3CC" d="M216.976,309.542c4.079,0,7.421-3.342,7.421-7.422v-66.225c0-4.08-3.342-7.422-7.421-7.422
	h-35.271l-37.626,81.066h72.897V309.542z"/>
<rect x="112.987" y="236.062" fill="#FFFFFF" width="104.059" height="65.933"/>
<g>
	<circle fill="none" stroke="#F25A58" stroke-miterlimit="10" cx="123.212" cy="246.389" r="3.215"/>
	<line fill="none" stroke="#F25A58" stroke-miterlimit="10" x1="131.511" y1="246.389" x2="146.401" y2="246.389"/>
	<line fill="none" stroke="#F25A58" stroke-miterlimit="10" x1="196.476" y1="246.389" x2="211.368" y2="246.389"/>
	<line fill="none" stroke="#F25A58" stroke-miterlimit="10" x1="184.963" y1="280.756" x2="211.368" y2="280.756"/>
	<line fill="none" stroke="#F25A58" stroke-miterlimit="10" x1="126.504" y1="280.756" x2="172.208" y2="280.756"/>
	<g>
		<g>
			
				<line fill="none" stroke="#AABCC7" stroke-width="1.7508" stroke-linecap="round" stroke-linejoin="round" stroke-miterlimit="10" x1="184.963" y1="296.187" x2="211.368" y2="296.187"/>
		</g>
		<g>
			
				<line fill="none" stroke="#AABCC7" stroke-width="1.7508" stroke-linecap="round" stroke-linejoin="round" stroke-miterlimit="10" x1="184.963" y1="292.685" x2="211.368" y2="292.685"/>
		</g>
		<g>
			
				<line fill="none" stroke="#AABCC7" stroke-width="1.7508" stroke-linecap="round" stroke-linejoin="round" stroke-miterlimit="10" x1="184.963" y1="289.184" x2="211.368" y2="289.184"/>
		</g>
		<g>
			
				<line fill="none" stroke="#AABCC7" stroke-width="1.7508" stroke-linecap="round" stroke-linejoin="round" stroke-miterlimit="10" x1="184.963" y1="285.682" x2="211.368" y2="285.682"/>
		</g>
	</g>
	<g>
		<g>
			
				<line fill="none" stroke="#AABCC7" stroke-width="1.7508" stroke-linecap="round" stroke-linejoin="round" stroke-miterlimit="10" x1="119.997" y1="296.187" x2="147.992" y2="296.187"/>
		</g>
		<g>
			
				<line fill="none" stroke="#AABCC7" stroke-width="1.7508" stroke-linecap="round" stroke-linejoin="round" stroke-miterlimit="10" x1="119.997" y1="292.685" x2="147.992" y2="292.685"/>
		</g>
		<g>
			
				<line fill="none" stroke="#AABCC7" stroke-width="1.7508" stroke-linecap="round" stroke-linejoin="round" stroke-miterlimit="10" x1="119.997" y1="289.184" x2="147.992" y2="289.184"/>
		</g>
		<g>
			
				<line fill="none" stroke="#AABCC7" stroke-width="1.7508" stroke-linecap="round" stroke-linejoin="round" stroke-miterlimit="10" x1="119.997" y1="285.682" x2="147.992" y2="285.682"/>
		</g>
	</g>
	<g>
		<g>
			
				<line fill="none" stroke="#AABCC7" stroke-width="1.7508" stroke-linecap="round" stroke-linejoin="round" stroke-miterlimit="10" x1="152.486" y1="296.187" x2="180.023" y2="296.187"/>
		</g>
		<g>
			
				<line fill="none" stroke="#AABCC7" stroke-width="1.7508" stroke-linecap="round" stroke-linejoin="round" stroke-miterlimit="10" x1="152.486" y1="292.685" x2="180.023" y2="292.685"/>
		</g>
		<g>
			
				<line fill="none" stroke="#AABCC7" stroke-width="1.7508" stroke-linecap="round" stroke-linejoin="round" stroke-miterlimit="10" x1="152.486" y1="289.184" x2="180.023" y2="289.184"/>
		</g>
		<g>
			
				<line fill="none" stroke="#AABCC7" stroke-width="1.7508" stroke-linecap="round" stroke-linejoin="round" stroke-miterlimit="10" x1="152.486" y1="285.682" x2="180.023" y2="285.682"/>
		</g>
	</g>
	<line fill="none" stroke="#F25A58" stroke-miterlimit="10" x1="173.917" y1="246.389" x2="188.807" y2="246.389"/>
	<rect x="119.997" y="257.161" fill="#F25A58" width="58.651" height="16.592"/>
	<rect x="184.963" y="257.161" fill="#F25A58" width="26.262" height="16.592"/>
</g>
<g>
	<path fill="#043573" d="M91.979,304.881v5.359c0,2.785,2.28,5.064,5.064,5.064h135.945c2.784,0,5.063-2.279,5.063-5.064v-5.359
		H91.979z"/>
	<rect x="91.979" y="304.881" fill="#ABE4FF" width="146.074" height="5.359"/>
	<path fill="#043573" d="M150.043,304.881v0.636c0,0.571,0.467,1.038,1.038,1.038h27.869c0.57,0,1.038-0.467,1.038-1.038v-0.636
		H150.043z"/>
</g>
<circle fill="#FFA58F" cx="32.016" cy="148.314" r="19.685"/>
<circle fill="#FF7D90" cx="82.016" cy="76.25" r="19.686"/>
<circle fill="#FF7D90" cx="191.511" cy="36.879" r="19.685"/>
<circle fill="#FF7D90" cx="294.51" cy="123.75" r="19.686"/>
<circle fill="#FFA58F" cx="221.155" cy="90.75" r="19.686"/>
<circle fill="#FFFFFF" cx="114.774" cy="112.958" r="19.685"/>
<circle fill="#FFCECE" cx="146.044" cy="61.305" r="19.685"/>
<g>
	<path fill="none" stroke="#4BA3CC" stroke-linecap="round" stroke-linejoin="round" stroke-miterlimit="10" d="M65.003,109.362
		c-0.259-0.045-0.538-0.287-0.616-0.539c0,0-0.014-0.042-0.116-0.287c-0.102-0.246-0.122-0.285-0.122-0.285
		c-0.123-0.233-0.096-0.601,0.055-0.816l1.18-1.658c0.152-0.214,0.136-0.553-0.038-0.753l-1.226-1.227
		c-0.201-0.171-0.542-0.188-0.755-0.035l-1.658,1.177c-0.214,0.153-0.585,0.182-0.822,0.068l-0.569-0.233
		c-0.249-0.088-0.49-0.373-0.534-0.632l-0.338-2.003c-0.045-0.262-0.297-0.49-0.561-0.511h-1.734
		c-0.265,0.018-0.515,0.247-0.559,0.507l-0.34,2.005c-0.044,0.259-0.287,0.538-0.539,0.617c0,0-0.04,0.013-0.286,0.115
		c-0.246,0.102-0.283,0.121-0.283,0.121c-0.233,0.123-0.603,0.097-0.817-0.055l-1.659-1.178c-0.216-0.153-0.554-0.138-0.752,0.036
		l-1.229,1.228c-0.17,0.2-0.188,0.54-0.034,0.757l1.178,1.656c0.152,0.215,0.185,0.585,0.069,0.825l-0.236,0.566
		c-0.086,0.249-0.371,0.491-0.63,0.534l-2.005,0.34c-0.26,0.042-0.488,0.295-0.509,0.559v1.735c0.018,0.264,0.247,0.516,0.505,0.56
		l2.007,0.338c0.259,0.045,0.537,0.287,0.616,0.539c0,0,0.012,0.042,0.114,0.288c0.102,0.246,0.123,0.284,0.123,0.284
		c0.122,0.234,0.096,0.601-0.055,0.816l-1.18,1.658c-0.152,0.214-0.136,0.553,0.038,0.753l1.226,1.227
		c0.201,0.171,0.542,0.188,0.755,0.035l1.658-1.177c0.214-0.154,0.586-0.183,0.823-0.069l0.567,0.233
		c0.25,0.088,0.49,0.373,0.534,0.632l0.338,2.004c0.045,0.262,0.297,0.489,0.559,0.511l1.738-0.001
		c0.263-0.018,0.513-0.246,0.557-0.506l0.34-2.006c0.044-0.259,0.287-0.538,0.539-0.616c0,0,0.04-0.013,0.286-0.115
		c0.246-0.102,0.283-0.121,0.283-0.121c0.234-0.123,0.603-0.097,0.817,0.055l1.659,1.177c0.216,0.153,0.554,0.138,0.754-0.037
		l1.227-1.226c0.171-0.201,0.189-0.54,0.036-0.757l-1.178-1.656c-0.152-0.214-0.183-0.586-0.069-0.825l0.238-0.567
		c0.086-0.249,0.369-0.49,0.629-0.533l2.005-0.34c0.259-0.042,0.488-0.295,0.509-0.559v-1.734c-0.018-0.265-0.247-0.516-0.505-0.56
		L65.003,109.362z"/>
	
		<circle fill="none" stroke="#4BA3CC" stroke-linecap="round" stroke-linejoin="round" stroke-miterlimit="10" cx="58.016" cy="111.127" r="4.399"/>
</g>
<g>
	<polygon fill="none" stroke="#4BA3CC" stroke-linecap="round" stroke-linejoin="round" stroke-miterlimit="10" points="
		251.016,116.75 245.016,110.75 245.016,116.75 	"/>
	<polygon fill="none" stroke="#4BA3CC" stroke-linecap="round" stroke-linejoin="round" stroke-miterlimit="10" points="
		245.016,116.75 245.016,110.75 237.016,110.75 237.016,129.75 251.016,129.75 251.016,116.75 	"/>
</g>
<g>
	<path fill="none" stroke="#FFFFFF" stroke-linecap="round" stroke-linejoin="round" stroke-miterlimit="10" d="M198.516,31.046
		v11.667c0,1.749-3.355,3.167-7.5,3.167s-7.5-1.417-7.5-3.167V31.046c0-1.749,3.355-3.167,7.5-3.167S198.516,29.297,198.516,31.046z
		"/>
	<path fill="none" stroke="#FFFFFF" stroke-linecap="round" stroke-linejoin="round" stroke-miterlimit="10" d="M198.516,38.713
		c0,1.749-3.355,3.167-7.5,3.167s-7.5-1.417-7.5-3.167"/>
	<path fill="none" stroke="#FFFFFF" stroke-linecap="round" stroke-linejoin="round" stroke-miterlimit="10" d="M198.516,34.713
		c0,1.749-3.355,3.167-7.5,3.167s-7.5-1.417-7.5-3.167"/>
	<path fill="none" stroke="#FFFFFF" stroke-linecap="round" stroke-linejoin="round" stroke-miterlimit="10" d="M198.516,30.713
		c0,1.749-3.355,3.167-7.5,3.167s-7.5-1.417-7.5-3.167"/>
</g>
<g>
	<path fill="none" stroke="#FFFFFF" stroke-linecap="round" stroke-linejoin="round" stroke-miterlimit="10" d="M23.635,156.203
		l1.868,0.934c0.342,0.171,0.842,0.089,1.111-0.181l6.388-6.385l0.784,0.785c0.811,0.811,2.069,0.748,2.793-0.138l4.435-5.418
		c0.726-0.887,0.658-2.275-0.152-3.085l-2.95-2.951c-0.812-0.812-2.2-0.879-3.088-0.154l-5.416,4.436
		c-0.889,0.726-0.949,1.983-0.14,2.794l0.784,0.785l-7.366,7.367c-0.27,0.271-0.212,0.631,0.13,0.802l0.164,0.082L23.635,156.203z"
		/>
	<path fill="none" stroke="#FFFFFF" stroke-linecap="round" stroke-linejoin="round" stroke-miterlimit="10" d="M37.73,144.859
		l-1.963-1.964c-0.272-0.271-0.271-0.713,0-0.983c0.269-0.27,0.712-0.27,0.981,0l1.964,1.964c0.271,0.271,0.27,0.713,0,0.983
		S38.001,145.129,37.73,144.859z"/>
	<polyline fill="none" stroke="#FFFFFF" stroke-linecap="round" stroke-linejoin="round" stroke-miterlimit="10" points="
		32.316,149.271 31.219,150.369 29.823,150.229 29.387,150.665 29.743,151.543 29.38,151.907 28.726,152.081 27.782,153.025 
		26.94,153.113 26.301,153.752 25.429,153.831 24.993,154.267 25.638,155.063 25.29,155.412 25.283,155.875 24.65,156.508 	"/>
</g>
<g>
	
		<rect x="291.51" y="115.75" fill="none" stroke="#FFFFFF" stroke-linecap="round" stroke-linejoin="round" stroke-miterlimit="10" width="6" height="7"/>
	
		<rect x="286.51" y="126.75" fill="none" stroke="#FFFFFF" stroke-linecap="round" stroke-linejoin="round" stroke-miterlimit="10" width="4" height="6"/>
	
		<rect x="298.51" y="126.75" fill="none" stroke="#FFFFFF" stroke-linecap="round" stroke-linejoin="round" stroke-miterlimit="10" width="4" height="6"/>
	
		<rect x="292.51" y="126.75" fill="none" stroke="#FFFFFF" stroke-linecap="round" stroke-linejoin="round" stroke-miterlimit="10" width="4" height="6"/>
	
		<line fill="none" stroke="#FFFFFF" stroke-linecap="round" stroke-linejoin="round" stroke-miterlimit="10" x1="294.51" y1="123.25" x2="294.51" y2="126.25"/>
	<polyline fill="none" stroke="#FFFFFF" stroke-linecap="round" stroke-linejoin="round" stroke-miterlimit="10" points="
		288.51,126.25 288.51,124.75 300.51,124.75 300.51,126.25 	"/>
</g>
<g>
	<path fill="none" stroke="#4BA3CC" stroke-linecap="round" stroke-linejoin="round" stroke-miterlimit="10" d="M121.141,104.75
		h-14.25c-0.207,0-0.375,0.186-0.375,0.413v17.174c0,0.228,0.168,0.413,0.375,0.413h14.25c0.207,0,0.375-0.186,0.375-0.413v-17.174
		C121.516,104.936,121.348,104.75,121.141,104.75z"/>
	
		<line fill="none" stroke="#4BA3CC" stroke-linecap="round" stroke-linejoin="round" stroke-miterlimit="10" x1="107.016" y1="113.75" x2="121.016" y2="113.75"/>
	<polyline fill="none" stroke="#4BA3CC" stroke-linecap="round" stroke-linejoin="round" stroke-miterlimit="10" points="
		111.516,111.25 111.516,110.75 116.516,110.75 116.516,111.25 	"/>
	<polyline fill="none" stroke="#4BA3CC" stroke-linecap="round" stroke-linejoin="round" stroke-miterlimit="10" points="
		111.516,120.25 111.516,119.75 116.516,119.75 116.516,120.25 	"/>
</g>
<g>
	<path fill="none" stroke="#FFFFFF" stroke-linecap="round" stroke-linejoin="round" stroke-miterlimit="10" d="M91.516,70.75
		c0-0.552-0.448-1-1-1h-17c-0.552,0-1,0.448-1,1v11c0,0.552,0.448,1,1,1h17c0.552,0,1-0.448,1-1V70.75z"/>
	
		<line fill="none" stroke="#FFFFFF" stroke-linecap="round" stroke-linejoin="round" stroke-miterlimit="10" x1="75.016" y1="77.75" x2="77.016" y2="77.75"/>
	
		<line fill="none" stroke="#FFFFFF" stroke-linecap="round" stroke-linejoin="round" stroke-miterlimit="10" x1="75.016" y1="79.75" x2="78.016" y2="79.75"/>
	
		<line fill="none" stroke="#FFFFFF" stroke-linecap="round" stroke-linejoin="round" stroke-miterlimit="10" x1="79.016" y1="79.75" x2="82.016" y2="79.75"/>
	
		<line fill="none" stroke="#FFFFFF" stroke-linecap="round" stroke-linejoin="round" stroke-miterlimit="10" x1="87.016" y1="80.75" x2="89.016" y2="80.75"/>
	
		<line fill="none" stroke="#FFFFFF" stroke-linecap="round" stroke-linejoin="round" stroke-miterlimit="10" x1="75.016" y1="73.75" x2="77.016" y2="73.75"/>
	
		<line fill="none" stroke="#FFFFFF" stroke-linecap="round" stroke-linejoin="round" stroke-miterlimit="10" x1="75.016" y1="75.75" x2="77.016" y2="75.75"/>
	
		<line fill="none" stroke="#FFFFFF" stroke-linecap="round" stroke-linejoin="round" stroke-miterlimit="10" x1="75.016" y1="75.75" x2="75.016" y2="73.75"/>
	
		<line fill="none" stroke="#FFFFFF" stroke-linecap="round" stroke-linejoin="round" stroke-miterlimit="10" x1="77.016" y1="75.75" x2="77.016" y2="73.75"/>
	
		<line fill="none" stroke="#FFFFFF" stroke-linecap="round" stroke-linejoin="round" stroke-miterlimit="10" x1="79.016" y1="77.75" x2="81.016" y2="77.75"/>
	
		<line fill="none" stroke="#FFFFFF" stroke-linecap="round" stroke-linejoin="round" stroke-miterlimit="10" x1="87.016" y1="77.75" x2="89.016" y2="77.75"/>
	
		<line fill="none" stroke="#FFFFFF" stroke-linecap="round" stroke-linejoin="round" stroke-miterlimit="10" x1="83.016" y1="77.75" x2="85.016" y2="77.75"/>
</g>
<g>
	<g>
		
			<line fill="none" stroke="#4BA3CC" stroke-linecap="round" stroke-linejoin="round" stroke-miterlimit="10" x1="266.016" y1="95.75" x2="261.19" y2="90.924"/>
		
			<line fill="none" stroke="#4BA3CC" stroke-linecap="round" stroke-linejoin="round" stroke-miterlimit="10" x1="270.842" y1="90.924" x2="266.016" y2="95.75"/>
	</g>
	
		<line fill="none" stroke="#4BA3CC" stroke-linecap="round" stroke-linejoin="round" stroke-miterlimit="10" x1="266.016" y1="82.75" x2="266.016" y2="95.75"/>
	<path fill="none" stroke="#4BA3CC" stroke-linecap="round" stroke-linejoin="round" stroke-miterlimit="10" d="M257.016,95.75v5
		c0,0.552,0.447,1,1,1h16c0.553,0,1-0.448,1-1v-5"/>
</g>
<g>
	<polygon fill="none" stroke="#4BA3CC" stroke-linecap="round" stroke-linejoin="round" stroke-miterlimit="10" points="
		147.391,62.858 145.548,63.581 144.697,61.751 148.705,55.83 	"/>
	
		<line fill="none" stroke="#4BA3CC" stroke-linecap="round" stroke-linejoin="round" stroke-miterlimit="10" x1="145.543" y1="62.099" x2="146.543" y2="62.51"/>
	
		<line fill="none" stroke="#4BA3CC" stroke-linecap="round" stroke-linejoin="round" stroke-miterlimit="10" x1="146.043" y1="54.295" x2="146.043" y2="55.295"/>
	
		<line fill="none" stroke="#4BA3CC" stroke-linecap="round" stroke-linejoin="round" stroke-miterlimit="10" x1="138.043" y1="62.295" x2="139.043" y2="62.295"/>
	
		<line fill="none" stroke="#4BA3CC" stroke-linecap="round" stroke-linejoin="round" stroke-miterlimit="10" x1="153.043" y1="62.295" x2="154.043" y2="62.295"/>
	
		<line fill="none" stroke="#4BA3CC" stroke-linecap="round" stroke-linejoin="round" stroke-miterlimit="10" x1="140.387" y1="56.639" x2="141.094" y2="57.346"/>
	
		<line fill="none" stroke="#4BA3CC" stroke-linecap="round" stroke-linejoin="round" stroke-miterlimit="10" x1="150.993" y1="57.346" x2="151.7" y2="56.639"/>
	<path fill="none" stroke="#4BA3CC" stroke-linecap="round" stroke-linejoin="round" stroke-miterlimit="10" d="M153.526,67.305
		c0.958-1.43,1.518-3.149,1.518-5c0-4.971-4.029-9-9-9c-4.971,0-9,4.029-9,9c0,1.851,0.56,3.57,1.518,5H153.526z"/>
</g>
<g>
	<path fill="none" stroke="#FFFFFF" stroke-linecap="round" stroke-linejoin="round" stroke-miterlimit="10" d="M228.688,84.964
		c2.881,3.726,2.611,9.101-0.807,12.52c-3.711,3.71-9.726,3.71-13.436,0l3.172-3.172"/>
	<path fill="none" stroke="#FFFFFF" stroke-linecap="round" stroke-linejoin="round" stroke-miterlimit="10" d="M217.62,94.312
		c1.487,1.488,3.899,1.488,5.387,0l-5.387-5.388C216.129,90.412,216.129,92.824,217.62,94.312z"/>
	<path fill="none" stroke="#FFFFFF" stroke-linecap="round" stroke-linejoin="round" stroke-miterlimit="10" d="M213.624,96.536
		c-2.881-3.726-2.612-9.101,0.806-12.52c3.71-3.71,9.726-3.71,13.437,0l-3.174,3.172"/>
	<path fill="none" stroke="#FFFFFF" stroke-linecap="round" stroke-linejoin="round" stroke-miterlimit="10" d="M224.691,87.188
		c-1.487-1.488-3.899-1.488-5.388,0l5.388,5.388C226.179,91.088,226.179,88.676,224.691,87.188z"/>
</g>
<polygon opacity="0.1" fill="#8CDDFF" enable-background="new    " points="147.581,301.993 217.045,301.993 217.045,236.062 
	178.183,236.062 "/>
</svg>
