<?xml version="1.0" encoding="utf-8"?>
<!-- Generator: Adobe Illustrator 16.0.0, SVG Export Plug-In . SVG Version: 6.00 Build 0)  -->
<!DOCTYPE svg PUBLIC "-//W3C//DTD SVG 1.1//EN" "http://www.w3.org/Graphics/SVG/1.1/DTD/svg11.dtd">
<svg version="1.1" id="Layer_2" xmlns="http://www.w3.org/2000/svg" xmlns:xlink="http://www.w3.org/1999/xlink" x="0px" y="0px"
	 width="336.492px" height="240.67px" viewBox="0 0 336.492 240.67" enable-background="new 0 0 336.492 240.67"
	 xml:space="preserve">
<g>
	<g>
		<path fill="#2C6980" d="M130.497,41.643H8.699C3.916,41.643,0,45.559,0,50.341v81.697c0,4.782,3.916,8.698,8.699,8.698h121.798
			c4.782,0,8.698-3.916,8.698-8.698V50.341C139.195,45.559,135.279,41.643,130.497,41.643z"/>
		<path fill="#043573" d="M130.497,38.643H8.699C3.916,38.643,0,42.559,0,47.341v81.697c0,4.782,3.916,8.698,8.699,8.698h121.798
			c4.782,0,8.698-3.916,8.698-8.698V47.341C139.195,42.559,135.279,38.643,130.497,38.643z"/>
	</g>
	<rect x="8.617" y="47.536" fill="#C1E6E3" width="121.962" height="81.579"/>
	
		<line fill="none" stroke="#D8444E" stroke-width="8" stroke-linecap="round" stroke-linejoin="round" stroke-miterlimit="10" x1="38.755" y1="58.402" x2="56.937" y2="58.402"/>
	
		<rect x="38.755" y="69.456" fill="#ABE4FF" stroke="#04B1D9" stroke-width="5" stroke-linecap="round" stroke-linejoin="round" stroke-miterlimit="10" width="63.413" height="51.153"/>
</g>
<g>
	<path opacity="0.5" fill="#49BAEB" d="M126.259,176.777c-27.126,0-49.194-22.068-49.194-49.194V49.194
		C77.064,22.068,99.133,0,126.259,0h78.389c27.126,0,49.194,22.068,49.194,49.194v78.389c0,27.126-22.068,49.194-49.194,49.194
		H126.259z"/>
	<path fill="#7CB4DA" d="M243.842,127.583c0,21.557-17.638,39.194-39.194,39.194h-78.389c-21.557,0-39.194-17.638-39.194-39.194
		V49.194C87.064,27.637,104.702,10,126.259,10h78.389c21.557,0,39.194,17.637,39.194,39.194V127.583z"/>
</g>
<path opacity="0.29" fill="#03A6A6" d="M204.449,14.504H126.06c-21.557,0-39.194,17.638-39.194,39.194V67.86h156.777V53.698
	C243.643,32.142,226.005,14.504,204.449,14.504z"/>
<path fill="#758FC4" d="M204.449,9.801H126.06c-21.557,0-39.194,17.637-39.194,39.194v14.162h156.777V48.995
	C243.643,27.438,226.005,9.801,204.449,9.801z"/>
<path fill="#3F84A6" d="M126.06,9.801c-21.557,0-39.194,17.637-39.194,39.194v14.162h59.983V9.801H126.06z"/>
<circle fill="#0668A4" cx="169.958" cy="92.893" r="52.527"/>
<circle fill="#F2D795" cx="165.453" cy="88.388" r="52.528"/>
<circle fill="#8FA671" cx="165.254" cy="88.189" r="42.033"/>
<circle fill="#003B54" cx="165.453" cy="88.388" r="38.367"/>
<circle fill="#0B1838" cx="165.453" cy="88.388" r="12.891"/>
<path fill="#00B0FA" d="M165.254,114.053v5.21c17.161,0,31.073-13.912,31.073-31.073h-5.21
	C191.118,102.474,179.539,114.053,165.254,114.053z"/>
<path fill="#00638C" d="M165.254,65.452c12.558,0,22.737,10.18,22.737,22.738h8.336c0-17.162-13.912-31.073-31.073-31.073
	c-17.162,0-31.074,13.912-31.074,31.073h8.336C142.517,75.632,152.697,65.452,165.254,65.452z"/>
<path fill="#ABE4FF" d="M165.254,71.183V57.116c-17.162,0-31.074,13.912-31.074,31.074h14.067
	C148.248,78.797,155.862,71.183,165.254,71.183z"/>
<circle fill="#4B7CCC" cx="215.751" cy="37.693" r="15.182"/>
<circle fill="#FFFFFF" cx="215.751" cy="37.693" r="11.333"/>
<g>
	<g>
		<path fill="#2C6980" d="M297.223,231.972V107.583c0-4.783-3.917-8.699-8.698-8.699H232.73c-4.783,0-8.698,3.916-8.698,8.699
			v124.389c0,4.781,3.915,8.698,8.698,8.698h55.795C293.306,240.67,297.223,236.753,297.223,231.972z"/>
		<path fill="#043573" d="M297.223,228.972V104.583c0-4.783-3.917-8.699-8.698-8.699H232.73c-4.783,0-8.698,3.916-8.698,8.699
			v124.389c0,4.781,3.915,8.698,8.698,8.698h55.795C293.306,237.67,297.223,233.753,297.223,228.972z"/>
	</g>
	<circle fill="#0587BF" cx="260.627" cy="226.429" r="4.59"/>
	<line fill="none" stroke="#0668A4" stroke-miterlimit="10" x1="253.54" y1="103.731" x2="267.714" y2="103.731"/>
	<rect x="229.988" y="114.645" fill="#0587BF" width="61.006" height="102.859"/>
	<path fill="#5EBFD6" d="M277.334,174.428c0,4.595-3.759,8.354-8.354,8.354h-16.708c-4.594,0-8.354-3.759-8.354-8.354V157.72
		c0-4.594,3.76-8.354,8.354-8.354h16.708c4.595,0,8.354,3.76,8.354,8.354V174.428z M260.627,154.878
		c-6.184,0-11.196,5.013-11.196,11.196c0,6.183,5.013,11.195,11.196,11.195c6.183,0,11.195-5.013,11.195-11.195
		C271.823,159.891,266.81,154.878,260.627,154.878z M260.627,157.896c-4.517,0-8.178,3.661-8.178,8.178s3.661,8.178,8.178,8.178
		s8.178-3.661,8.178-8.178S265.144,157.896,260.627,157.896z"/>
</g>
<path fill="#FF505C" d="M203.676,185.088c-4.009,0-7.349,4.009-7.349,4.009s-3.34-4.009-7.348-4.009
	c-4.009,0-9.354,2.673-9.354,9.354c0,8.017,11.356,18.706,16.701,21.378c5.345-2.672,16.701-13.361,16.701-21.378
	C213.029,187.761,207.684,185.088,203.676,185.088z"/>
<g>
	<g>
		<path fill="#49C8CE" d="M266.523,85.151c0.069,0,0.139-0.008,0.213-0.021l27.089-5.438c1.288,0.044,2.662,0.213,4.106,0.392
			c1.618,0.2,3.298,0.409,4.994,0.453c0.374,0.008,0.74,0.013,1.109,0.013c18.502,0,32.457-12.394,32.457-28.833
			c0-15.953-15.986-28.93-35.637-28.93s-35.638,12.977-35.638,28.93c0,6.007,2.236,11.741,6.474,16.626l-6.169,15.33
			c-0.147,0.366-0.087,0.788,0.17,1.087C265.896,85.012,266.205,85.151,266.523,85.151L266.523,85.151z"/>
		<path fill="#9CEEF0" d="M279.782,66.987l-2.803-3.231c-3.115-3.592-4.762-7.755-4.762-12.04c0-12.092,12.847-21.93,28.638-21.93
			c15.79,0,28.637,9.837,28.637,21.93c0,12.447-10.944,21.833-25.457,21.833c-0.317,0-0.633-0.004-0.954-0.011
			c-1.319-0.034-2.746-0.21-4.256-0.397c-1.573-0.194-3.162-0.39-4.762-0.445l-0.815-0.028l-17.136,3.44L279.782,66.987z"/>
	</g>
	<circle fill="#FFFFFF" cx="301.819" cy="51.589" r="4.399"/>
	<circle fill="#FFFFFF" cx="314.771" cy="51.589" r="4.399"/>
	<circle fill="#FFFFFF" cx="288.869" cy="51.589" r="4.398"/>
</g>
<g>
	<g>
		<path fill="none" stroke="#ABE4FF" stroke-linecap="round" stroke-linejoin="round" stroke-dasharray="4,6" d="M321.759,88.723
			v101.731c0,5.5-4.5,10-10,10h-8.923"/>
		<g>
			<circle fill="#ABE4FF" cx="321.759" cy="88.911" r="3.76"/>
		</g>
		<g>
			<polygon fill="#ABE4FF" points="308.748,197.273 309.089,198.214 302.934,200.454 309.089,202.694 308.748,203.634 
				300.011,200.454 			"/>
		</g>
	</g>
</g>
<g>
	<g>
		<path fill="none" stroke="#ABE4FF" stroke-linecap="round" stroke-linejoin="round" stroke-dasharray="4,6" d="M170.136,200.454
			H66.937c-5.5,0-10-4.5-10-10v-42.208"/>
		<g>
			<circle fill="#ABE4FF" cx="169.948" cy="200.454" r="3.76"/>
		</g>
		<g>
			<polygon fill="#ABE4FF" points="60.118,154.157 59.177,154.499 56.937,148.344 54.697,154.499 53.757,154.157 56.937,145.42 			
				"/>
		</g>
	</g>
</g>
</svg>
