<?xml version="1.0" encoding="utf-8"?>
<!-- Generator: Adobe Illustrator 16.0.0, SVG Export Plug-In . SVG Version: 6.00 Build 0)  -->
<!DOCTYPE svg PUBLIC "-//W3C//DTD SVG 1.1//EN" "http://www.w3.org/Graphics/SVG/1.1/DTD/svg11.dtd">
<svg version="1.1" id="Layer_1" xmlns="http://www.w3.org/2000/svg" xmlns:xlink="http://www.w3.org/1999/xlink" x="0px" y="0px"
	 width="284.361px" height="313.216px" viewBox="0 0 284.361 313.216" enable-background="new 0 0 284.361 313.216"
	 xml:space="preserve">
<g opacity="0.3">
	<path fill="#0071BC" d="M155.238,301.377v-76.187c0-4.463-3.655-8.118-8.118-8.118H33.45c-4.464,0-8.119,3.655-8.119,8.118v76.187
		H10.395v5.863c0,3.046,2.494,5.539,5.54,5.539h148.702c3.045,0,5.54-2.493,5.54-5.539v-5.863H155.238z"/>
</g>
<g opacity="0.3">
	<path fill="#0071BC" d="M248.598,187.544c1.219,0,2.206,0.987,2.206,2.206c0,1.218-0.987,2.206-2.206,2.206
		s-2.206-0.988-2.206-2.206C246.392,188.532,247.379,187.544,248.598,187.544z M255.603,193.299c-0.05-0.122-0.1-0.244-0.131-0.371
		l-1.285-5.13c-0.331-1.329-1.726-2.42-3.096-2.42h-4.985c-1.371,0-2.766,1.091-3.097,2.42l-1.285,5.13
		c-0.031,0.127-0.081,0.249-0.131,0.371h-28.759v90.837h71.527v-90.837H255.603z"/>
</g>
<circle fill="#F1F0F4" cx="165.454" cy="157.452" r="109.864"/>
<path fill="#0668A4" d="M165.454,47.589c-60.676,0-109.863,49.188-109.863,109.863c0,60.676,49.188,109.864,109.863,109.864
	s109.863-49.188,109.863-109.864C275.317,96.776,226.13,47.589,165.454,47.589z M165.454,233.412
	c-41.952,0-75.96-34.008-75.96-75.959s34.008-75.96,75.96-75.96c41.951,0,75.96,34.008,75.96,75.96S207.405,233.412,165.454,233.412
	z"/>
<path fill="#0668A4" d="M165.454,107.273c-27.713,0-50.179,22.466-50.179,50.179s22.466,50.179,50.179,50.179
	c27.713,0,50.179-22.466,50.179-50.179S193.167,107.273,165.454,107.273z M165.454,184.197c-14.771,0-26.744-11.974-26.744-26.745
	c0-14.771,11.974-26.744,26.744-26.744s26.744,11.974,26.744,26.744C192.198,172.223,180.225,184.197,165.454,184.197z"/>
<g>
	
		<line fill="none" stroke="#FF5B34" stroke-width="3" stroke-linecap="round" stroke-linejoin="round" stroke-miterlimit="10" x1="165.454" y1="157.452" x2="186.968" y2="157.452"/>
	
		<line fill="none" stroke="#FF5B34" stroke-width="3" stroke-linecap="round" stroke-linejoin="round" stroke-miterlimit="10" x1="227.084" y1="95.823" x2="248.598" y2="95.823"/>
	
		<line fill="none" stroke="#FF5B34" stroke-width="3" stroke-linecap="round" stroke-linejoin="round" stroke-miterlimit="10" x1="235.172" y1="87.734" x2="256.687" y2="87.734"/>
	
		<line fill="none" stroke="#FF5B34" stroke-width="3" stroke-linecap="round" stroke-linejoin="round" stroke-miterlimit="10" x1="243.261" y1="79.646" x2="264.775" y2="79.646"/>
	
		<line fill="none" stroke="#FF5B34" stroke-width="3" stroke-linecap="round" stroke-linejoin="round" stroke-miterlimit="10" x1="251.35" y1="71.557" x2="272.864" y2="71.557"/>
	
		<line fill="none" stroke="#F18703" stroke-width="3" stroke-linecap="round" stroke-linejoin="round" stroke-miterlimit="10" x1="165.454" y1="157.452" x2="252.523" y2="70.383"/>
	
		<line fill="none" stroke="#F18703" stroke-width="3" stroke-linecap="round" stroke-linejoin="round" stroke-miterlimit="10" x1="165.454" y1="157.452" x2="165.454" y2="136.102"/>
	
		<line fill="none" stroke="#F18703" stroke-width="3" stroke-linecap="round" stroke-linejoin="round" stroke-miterlimit="10" x1="227.084" y1="95.823" x2="227.084" y2="74.472"/>
	
		<line fill="none" stroke="#F18703" stroke-width="3" stroke-linecap="round" stroke-linejoin="round" stroke-miterlimit="10" x1="235.172" y1="87.734" x2="235.172" y2="66.383"/>
	
		<line fill="none" stroke="#F18703" stroke-width="3" stroke-linecap="round" stroke-linejoin="round" stroke-miterlimit="10" x1="243.261" y1="79.646" x2="243.261" y2="58.294"/>
	
		<line fill="none" stroke="#F18703" stroke-width="3" stroke-linecap="round" stroke-linejoin="round" stroke-miterlimit="10" x1="251.35" y1="71.557" x2="251.35" y2="50.206"/>
</g>
<g>
	<g>
		<path fill="#043573" d="M284.361,279.136c0,2.75-2.25,5-5,5h-61.527c-2.75,0-5-2.25-5-5v-80.837c0-2.75,2.25-5,5-5h61.527
			c2.75,0,5,2.25,5,5V279.136z"/>
	</g>
	<g>
		<path fill="#65C8D0" d="M279.354,276.409c0,1.649-1.35,3-3,3h-55.514c-1.65,0-3-1.351-3-3v-71.381c0-1.65,1.35-3,3-3h55.514
			c1.65,0,3,1.35,3,3V276.409z"/>
	</g>
	<g>
		<path fill="#FFFFFF" d="M279.354,273.409c0,1.649-1.35,3-3,3h-55.514c-1.65,0-3-1.351-3-3v-71.381c0-1.65,1.35-3,3-3h55.514
			c1.65,0,3,1.35,3,3V273.409z"/>
	</g>
	<path fill="#FBB03B" d="M267.935,202.899l-1.285-5.131c-0.331-1.329-1.726-2.42-3.097-2.42h-4.984c-1.371,0-2.766-1.09-3.097-2.42
		l-1.285-5.13c-0.331-1.329-1.726-2.42-3.096-2.42h-4.985c-1.371,0-2.766,1.091-3.097,2.42l-1.285,5.13
		c-0.331,1.33-1.726,2.42-3.096,2.42h-4.985c-1.37,0-2.766,1.091-3.097,2.42l-1.285,5.131c-0.331,1.329,0.519,2.42,1.89,2.42h34.896
		C267.416,205.319,268.266,204.228,267.935,202.899z M248.598,191.957c-1.219,0-2.206-0.988-2.206-2.206
		c0-1.219,0.987-2.206,2.206-2.206s2.206,0.987,2.206,2.206C250.804,190.968,249.816,191.957,248.598,191.957z"/>
	
		<line fill="none" stroke="#04B1D9" stroke-width="3" stroke-linecap="round" stroke-linejoin="round" stroke-miterlimit="10" x1="240.128" y1="220.107" x2="268.006" y2="220.107"/>
	
		<line fill="none" stroke="#04B1D9" stroke-width="3" stroke-linecap="round" stroke-linejoin="round" stroke-miterlimit="10" x1="240.128" y1="229.551" x2="268.006" y2="229.551"/>
	
		<line fill="none" stroke="#04B1D9" stroke-width="3" stroke-linecap="round" stroke-linejoin="round" stroke-miterlimit="10" x1="240.128" y1="239.996" x2="268.006" y2="239.996"/>
	
		<line fill="none" stroke="#04B1D9" stroke-width="3" stroke-linecap="round" stroke-linejoin="round" stroke-miterlimit="10" x1="240.128" y1="249.673" x2="268.006" y2="249.673"/>
	
		<line fill="none" stroke="#04B1D9" stroke-width="3" stroke-linecap="round" stroke-linejoin="round" stroke-miterlimit="10" x1="238.104" y1="263.042" x2="248.598" y2="263.042"/>
	
		<polyline fill="none" stroke="#F7931E" stroke-width="3" stroke-linecap="round" stroke-linejoin="round" stroke-miterlimit="10" points="
		226.075,218.875 228.773,221.575 234.405,215.943 	"/>
	
		<polyline fill="none" stroke="#F7931E" stroke-width="3" stroke-linecap="round" stroke-linejoin="round" stroke-miterlimit="10" points="
		226.075,228.875 228.773,231.575 234.405,225.943 	"/>
	
		<polyline fill="none" stroke="#F7931E" stroke-width="3" stroke-linecap="round" stroke-linejoin="round" stroke-miterlimit="10" points="
		226.075,238.875 228.773,241.575 234.405,235.943 	"/>
	
		<polyline fill="none" stroke="#F7931E" stroke-width="3" stroke-linecap="round" stroke-linejoin="round" stroke-miterlimit="10" points="
		226.075,248.875 228.773,251.575 234.405,245.943 	"/>
	<path fill="#F7931E" d="M229.261,202.899c-0.331,1.329,0.519,2.42,1.89,2.42h34.896c1.37,0,2.22-1.091,1.889-2.42l-0.219-0.871
		h-38.236L229.261,202.899z"/>
</g>
<g>
	<g>
		<path fill="#043573" d="M146.531,217.509H32.861c-4.464,0-8.118,3.654-8.118,8.117v76.245c0,4.464,3.654,8.117,8.118,8.117h113.67
			c4.463,0,8.118-3.653,8.118-8.117v-76.245C154.649,221.164,150.994,217.509,146.531,217.509z"/>
		<rect x="32.785" y="225.809" fill="#F1F0F4" width="113.823" height="72.117"/>
		
			<line fill="none" stroke="#EE4014" stroke-width="8" stroke-linecap="round" stroke-linejoin="round" stroke-miterlimit="10" x1="41.897" y1="235.95" x2="58.866" y2="235.95"/>
		
			<line fill="none" stroke="#026773" stroke-width="5" stroke-linecap="round" stroke-linejoin="round" stroke-miterlimit="10" x1="41.897" y1="246.606" x2="115.122" y2="246.606"/>
		
			<line fill="none" stroke="#F25A58" stroke-width="5" stroke-linecap="round" stroke-linejoin="round" stroke-miterlimit="10" x1="124.382" y1="246.606" x2="136.812" y2="246.606"/>
		
			<line fill="none" stroke="#04B1D9" stroke-width="3" stroke-linecap="round" stroke-linejoin="round" stroke-miterlimit="10" x1="77.073" y1="257.014" x2="115.05" y2="257.014"/>
		
			<line fill="none" stroke="#74BAA4" stroke-width="3" stroke-linecap="round" stroke-linejoin="round" stroke-miterlimit="10" x1="124.382" y1="257.014" x2="136.812" y2="257.014"/>
		
			<line fill="none" stroke="#4BA3CC" stroke-width="3" stroke-linecap="round" stroke-linejoin="round" stroke-miterlimit="10" x1="124.382" y1="284.926" x2="136.812" y2="284.926"/>
		
			<line fill="none" stroke="#4BA3CC" stroke-width="3" stroke-linecap="round" stroke-linejoin="round" stroke-miterlimit="10" x1="77.073" y1="284.926" x2="89.502" y2="284.926"/>
		
			<line fill="none" stroke="#4BA3CC" stroke-width="3" stroke-linecap="round" stroke-linejoin="round" stroke-miterlimit="10" x1="95.521" y1="284.926" x2="107.95" y2="284.926"/>
		
			<line fill="none" stroke="#74BAA4" stroke-width="3" stroke-linecap="round" stroke-linejoin="round" stroke-miterlimit="10" x1="124.382" y1="263.819" x2="136.812" y2="263.819"/>
		
			<line fill="none" stroke="#04B1D9" stroke-width="3" stroke-linecap="round" stroke-linejoin="round" stroke-miterlimit="10" x1="106.942" y1="235.95" x2="136.812" y2="235.95"/>
		
			<line fill="none" stroke="#04B1D9" stroke-width="3" stroke-linecap="round" stroke-linejoin="round" stroke-miterlimit="10" x1="77.073" y1="263.819" x2="115.05" y2="263.819"/>
		
			<line fill="none" stroke="#04B1D9" stroke-width="3" stroke-linecap="round" stroke-linejoin="round" stroke-miterlimit="10" x1="77.073" y1="270.624" x2="115.05" y2="270.624"/>
		
			<line fill="none" stroke="#04B1D9" stroke-width="3" stroke-linecap="round" stroke-linejoin="round" stroke-miterlimit="10" x1="77.073" y1="276.809" x2="115.05" y2="276.809"/>
		
			<line fill="none" stroke="#04B1D9" stroke-width="3" stroke-linecap="round" stroke-linejoin="round" stroke-miterlimit="10" x1="66.438" y1="284.926" x2="41.897" y2="284.926"/>
		
			<line fill="none" stroke="#04B1D9" stroke-width="3" stroke-linecap="round" stroke-linejoin="round" stroke-miterlimit="10" x1="77.073" y1="292.103" x2="115.05" y2="292.103"/>
		
			<rect x="41.897" y="257.014" fill="#04B1D9" stroke="#04B1D9" stroke-width="5" stroke-linecap="round" stroke-linejoin="round" stroke-miterlimit="10" width="24.54" height="19.795"/>
	</g>
	<g>
		<path fill="#7CB4DA" d="M9.806,301.814v5.862c0,3.046,2.494,5.54,5.539,5.54h148.702c3.045,0,5.539-2.494,5.539-5.54v-5.862H9.806
			z"/>
		<rect x="9.806" y="301.814" fill="#C1E6E3" width="159.78" height="5.862"/>
		<path fill="#1FC3CC" d="M73.318,301.814v0.694c0,0.625,0.511,1.136,1.136,1.136h30.484c0.624,0,1.135-0.511,1.135-1.136v-0.694
			H73.318z"/>
	</g>
</g>
<g>
	<g>
		<g>
			<path fill="#57A4D0" d="M68.043,91.38c-1.104,0-2-0.896-2-2V2c0-1.104,0.896-2,2-2h79.464c1.104,0,2,0.896,2,2v87.38
				c0,1.104-0.896,2-2,2H68.043z"/>
			<polygon fill="#FFFFFF" points="147.507,89.38 68.043,89.38 68.043,2 147.507,2 147.507,24.584 			"/>
		</g>
	</g>
	<g>
		<rect x="127.285" y="45.122" fill="#D98856" width="9.98" height="32.152"/>
		<rect x="110.285" y="50.126" fill="#59B198" width="9.98" height="27.147"/>
		<rect x="93.285" y="60.718" fill="#028787" width="9.98" height="16.556"/>
		<rect x="76.285" y="56.344" fill="#028787" width="9.98" height="20.93"/>
		<rect x="127.285" y="45.122" fill="#F89C62" width="4.99" height="30.152"/>
		<rect x="110.285" y="50.126" fill="#69D0B3" width="4.99" height="25.147"/>
		<rect x="93.285" y="60.718" fill="#03A6A6" width="4.99" height="14.556"/>
		<rect x="76.285" y="56.344" fill="#03A6A6" width="4.99" height="18.93"/>
	</g>
	<g>
		<g>
			<g>
				
					<line fill="none" stroke="#F89C62" stroke-linecap="round" stroke-linejoin="round" x1="81.275" y1="47.862" x2="82.627" y2="47.212"/>
				
					<polyline fill="none" stroke="#F89C62" stroke-linecap="round" stroke-linejoin="round" stroke-dasharray="3.0364,3.0364" points="
					85.364,45.896 98.275,39.69 115.275,36.413 130.182,20.921 				"/>
				
					<line fill="none" stroke="#F89C62" stroke-linecap="round" stroke-linejoin="round" x1="131.235" y1="19.827" x2="132.275" y2="18.746"/>
			</g>
		</g>
		<circle fill="#FFFFFF" stroke="#F89C62" stroke-miterlimit="10" cx="132.275" cy="18.746" r="3.044"/>
		<circle fill="#FFFFFF" stroke="#F89C62" stroke-miterlimit="10" cx="115.275" cy="36.413" r="3.044"/>
		<circle fill="#FFFFFF" stroke="#F89C62" stroke-miterlimit="10" cx="98.275" cy="39.69" r="3.044"/>
		<circle fill="#FFFFFF" stroke="#F89C62" stroke-miterlimit="10" cx="81.275" cy="47.862" r="3.044"/>
	</g>
	
		<line fill="none" stroke="#04B1D9" stroke-width="2" stroke-linecap="round" stroke-linejoin="round" stroke-miterlimit="10" x1="77.346" y1="13" x2="105.224" y2="13"/>
	
		<line fill="none" stroke="#7AC7D9" stroke-width="2" stroke-linecap="round" stroke-linejoin="round" stroke-miterlimit="10" x1="77.346" y1="18.777" x2="105.224" y2="18.777"/>
	
		<line fill="none" stroke="#7AC7D9" stroke-width="2" stroke-linecap="round" stroke-linejoin="round" stroke-miterlimit="10" x1="77.346" y1="24.777" x2="105.224" y2="24.777"/>
</g>
<path fill="#FFFFFF" d="M91.821,133.144"/>
<g>
	<g>
		<g>
			<path fill="#57A4D0" d="M2,147.963c-1.104,0-2-0.896-2-2v-87.38c0-1.104,0.896-2,2-2h79.464c1.104,0,2,0.896,2,2v87.38
				c0,1.104-0.896,2-2,2H2z"/>
			<polygon fill="#FFFFFF" points="81.464,145.963 2,145.963 2,58.583 81.464,58.583 81.464,81.167 			"/>
		</g>
	</g>
	
		<line fill="none" stroke="#04B1D9" stroke-width="2" stroke-linecap="round" stroke-linejoin="round" stroke-miterlimit="10" x1="11.303" y1="69.583" x2="39.181" y2="69.583"/>
	
		<line fill="none" stroke="#7AC7D9" stroke-width="2" stroke-linecap="round" stroke-linejoin="round" stroke-miterlimit="10" x1="11.303" y1="75.36" x2="39.181" y2="75.36"/>
	<g>
		<path fill="#8D607B" d="M61.544,92.282l-9.123,9.844c0.144,0.17,0.28,0.345,0.415,0.521l11.729-6.572
			C63.69,94.74,62.683,93.47,61.544,92.282z"/>
		<path fill="#E18465" d="M54.427,105.359c1.767,4.106,1.324,8.955-1.398,12.714l9.844,9.122c6.72-8.166,7.738-19.329,3.253-28.392
			L54.427,105.359z"/>
		<path fill="#F89C62" d="M50.892,120.378c-4.931,4.178-12.312,4.118-17.171-0.385c-4.647-4.306-5.417-11.221-2.162-16.395
			L20.7,95.765c-7.154,10.58-5.723,25.083,3.935,34.033c10.278,9.524,26.119,9.278,36.101-0.297L50.892,120.378z"/>
		<path fill="#03A6A6" d="M45.589,97.897c1.598,0.387,3.136,1.084,4.526,2.092l9.123-9.844c-3.725-3.065-8.073-4.946-12.562-5.658
			L45.589,97.897z"/>
		<path fill="#69D0B3" d="M33.553,101.162c2.478-2.388,5.684-3.604,8.912-3.622l1.082-13.354
			c-7.409-0.283-14.893,2.541-20.328,8.406c-0.207,0.224-0.403,0.454-0.601,0.682L33.553,101.162z"/>
	</g>
</g>
</svg>
