<?xml version="1.0" encoding="utf-8"?>
<!-- Generator: Adobe Illustrator 16.0.0, SVG Export Plug-In . SVG Version: 6.00 Build 0)  -->
<!DOCTYPE svg PUBLIC "-//W3C//DTD SVG 1.1//EN" "http://www.w3.org/Graphics/SVG/1.1/DTD/svg11.dtd">
<svg version="1.1" xmlns="http://www.w3.org/2000/svg" xmlns:xlink="http://www.w3.org/1999/xlink" x="0px" y="0px"
	 width="327.915px" height="268.157px" viewBox="0 0 327.915 268.157" enable-background="new 0 0 327.915 268.157"
	 xml:space="preserve">
<g id="Layer_3">
	
		<line fill="none" stroke="#4BA3CC" stroke-width="0.5" stroke-linecap="round" stroke-linejoin="round" stroke-dasharray="3,3" x1="166.187" y1="248.104" x2="191.687" y2="207.819"/>
	
		<line fill="none" stroke="#4BA3CC" stroke-width="0.5" stroke-linecap="round" stroke-linejoin="round" stroke-dasharray="3,3" x1="173.367" y1="248.473" x2="236.387" y2="226.072"/>
	
		<line fill="none" stroke="#4BA3CC" stroke-width="0.5" stroke-linecap="round" stroke-linejoin="round" stroke-dasharray="3,3" x1="173.367" y1="242.551" x2="304.948" y2="152.521"/>
	
		<line fill="none" stroke="#4BA3CC" stroke-width="0.5" stroke-linecap="round" stroke-linejoin="round" stroke-dasharray="3,3" x1="166.187" y1="244.135" x2="166.187" y2="46.532"/>
	
		<line fill="none" stroke="#4BA3CC" stroke-width="0.5" stroke-linecap="round" stroke-linejoin="round" stroke-dasharray="3,3" x1="185.872" y1="28.333" x2="233.587" y2="14.886"/>
	
		<line fill="none" stroke="#4BA3CC" stroke-width="0.5" stroke-linecap="round" stroke-linejoin="round" stroke-dasharray="3,3" x1="233.587" y1="14.886" x2="269.017" y2="50.226"/>
	
		<line fill="none" stroke="#4BA3CC" stroke-width="0.5" stroke-linecap="round" stroke-linejoin="round" stroke-dasharray="3,3" x1="219.838" y1="64.136" x2="257.956" y2="59.51"/>
	
		<line fill="none" stroke="#4BA3CC" stroke-width="0.5" stroke-linecap="round" stroke-linejoin="round" stroke-dasharray="3,3" x1="218.779" y1="55.136" x2="233.587" y2="14.886"/>
	
		<line fill="none" stroke="#4BA3CC" stroke-width="0.5" stroke-linecap="round" stroke-linejoin="round" stroke-dasharray="3,3" x1="97.315" y1="17.878" x2="153.668" y2="30.011"/>
	
		<line fill="none" stroke="#4BA3CC" stroke-width="0.5" stroke-linecap="round" stroke-linejoin="round" stroke-dasharray="3,3" x1="93.829" y1="17.878" x2="54.972" y2="65.499"/>
	
		<line fill="none" stroke="#4BA3CC" stroke-width="0.5" stroke-linecap="round" stroke-linejoin="round" stroke-dasharray="3,3" x1="19.686" y1="141" x2="63.566" y2="112.426"/>
	
		<line fill="none" stroke="#4BA3CC" stroke-width="0.5" stroke-linecap="round" stroke-linejoin="round" stroke-dasharray="3,3" x1="22.521" y1="135.19" x2="45.403" y2="77.903"/>
	
		<line fill="none" stroke="#4BA3CC" stroke-width="0.5" stroke-linecap="round" stroke-linejoin="round" stroke-dasharray="3,3" x1="21.123" y1="150.258" x2="54.972" y2="191.536"/>
	
		<line fill="none" stroke="#4BA3CC" stroke-width="0.5" stroke-linecap="round" stroke-linejoin="round" stroke-dasharray="3,3" x1="63.566" y1="102.322" x2="45.403" y2="77.903"/>
	
		<line fill="none" stroke="#4BA3CC" stroke-width="0.5" stroke-linecap="round" stroke-linejoin="round" stroke-dasharray="3,3" x1="63.566" y1="112.426" x2="54.066" y2="189.216"/>
	<path fill="none" stroke="#4BA3CC" stroke-width="0.5" stroke-linecap="round" stroke-linejoin="round" stroke-dasharray="3,3" d="
		M150.52,242.551"/>
	<path fill="none" stroke="#4BA3CC" stroke-width="0.5" stroke-linecap="round" stroke-linejoin="round" stroke-dasharray="3,3" d="
		M54.066,200.216"/>
	
		<line fill="none" stroke="#4BA3CC" stroke-width="0.5" stroke-linecap="round" stroke-linejoin="round" stroke-dasharray="3,3" x1="282.564" y1="199.094" x2="299.639" y2="152.521"/>
	
		<line fill="none" stroke="#4BA3CC" stroke-width="0.5" stroke-linecap="round" stroke-linejoin="round" stroke-dasharray="3,3" x1="304.948" y1="144.228" x2="275.791" y2="67.632"/>
	
		<line fill="none" stroke="#4BA3CC" stroke-width="0.5" stroke-linecap="round" stroke-linejoin="round" stroke-dasharray="3,3" x1="173.367" y1="248.473" x2="103.86" y2="227.962"/>
	
		<line fill="none" stroke="#4BA3CC" stroke-width="0.5" stroke-linecap="round" stroke-linejoin="round" stroke-dasharray="3,3" x1="101.486" y1="226.072" x2="63.566" y2="200.625"/>
</g>
<g id="Layer_2">
	<g>
		<g>
			<circle fill="#043573" cx="202.97" cy="107.987" r="15.924"/>
			<path fill="#ABE4FF" d="M166.229,103.452c13.688,0,83.884-15.093,83.884,38.146c0,0-9.521,35.471-27.628,35.471
				c-50.766,0-46.998-48.58-50.766-48.58C165.335,128.489,166.229,103.452,166.229,103.452z"/>
			<path fill="#0668A4" d="M171.72,113.477c13.688,0,86.236-15.093,86.236,38.146c0,0-17.364,27.627-35.471,27.627
				c-50.766,0-50.766-40.736-50.766-40.736V113.477z"/>
			<circle fill="#043573" cx="222.485" cy="151.623" r="35.471"/>
			<circle fill="#FFFFFF" cx="222.486" cy="151.623" r="27.482"/>
			<circle fill="#F25A58" cx="222.485" cy="151.623" r="13.901"/>
			<circle fill="#002636" cx="222.485" cy="151.623" r="7.312"/>
			<path fill="#8CDDFF" d="M222.485,170.104v3.723c12.263,0,22.204-9.94,22.204-22.203h-3.724
				C240.966,161.829,232.692,170.104,222.485,170.104z"/>
			<path fill="#8CDDFF" d="M222.485,139.471v-10.052c-12.263,0-22.203,9.941-22.203,22.204h10.051
				C210.333,144.912,215.774,139.471,222.485,139.471z"/>
		</g>
		<g>
			<circle fill="#043573" cx="129.404" cy="107.987" r="15.924"/>
			<path fill="#ABE4FF" d="M166.144,103.452c-13.688,0-83.883-15.093-83.883,38.146c0,0,9.521,35.471,27.627,35.471
				c50.766,0,46.998-48.58,50.766-48.58C167.038,128.489,166.144,103.452,166.144,103.452z"/>
			<path fill="#0668A4" d="M160.653,113.477c-13.688,0-86.237-15.093-86.237,38.146c0,0,17.364,27.627,35.471,27.627
				c50.766,0,50.766-40.736,50.766-40.736V113.477z"/>
			<circle fill="#043573" cx="109.887" cy="151.623" r="35.471"/>
			<circle fill="#FFFFFF" cx="109.888" cy="151.623" r="27.482"/>
			<circle fill="#F25A58" cx="109.887" cy="151.623" r="13.901"/>
			<circle fill="#002636" cx="109.887" cy="151.623" r="7.313"/>
			<path fill="#8CDDFF" d="M109.888,170.104v3.723c12.263,0,22.204-9.94,22.204-22.203h-3.723
				C128.369,161.829,120.094,170.104,109.888,170.104z"/>
			<path fill="#8CDDFF" d="M109.888,139.471v-10.052c-12.263,0-22.204,9.941-22.204,22.204h10.051
				C97.735,144.912,103.176,139.471,109.888,139.471z"/>
		</g>
	</g>
	<g>
		<path fill="none" stroke="#ABE4FF" stroke-linecap="round" stroke-linejoin="round" stroke-miterlimit="10" d="M219.838,56.195
			c0-0.585-0.474-1.059-1.059-1.059h-7.883c-0.584,0-1.059,0.474-1.059,1.059v15.882c0,0.584,0.475,1.059,1.059,1.059h7.883
			c0.585,0,1.059-0.474,1.059-1.059V56.195z"/>
		
			<line fill="none" stroke="#ABE4FF" stroke-linecap="round" stroke-linejoin="round" stroke-miterlimit="10" x1="210.338" y1="71.136" x2="219.338" y2="71.136"/>
		
			<line fill="none" stroke="#ABE4FF" stroke-linecap="round" stroke-linejoin="round" stroke-miterlimit="10" x1="210.338" y1="57.136" x2="219.338" y2="57.136"/>
	</g>
	<path fill="#FF8CA3" d="M189.385,8.784h-46.396c-1.822,0-3.313,1.492-3.313,3.313v31.121c0,1.822,1.491,3.314,3.313,3.314h17.017
		l6.182,10.223l5.931-10.223h17.268c1.821,0,3.313-1.492,3.313-3.314V12.098C192.698,10.276,191.206,8.784,189.385,8.784z"/>
	<g>
		<path fill="#043573" d="M166.504,33.688h-0.635l-1.47-13.534c-0.067-0.59-0.101-1.03-0.101-1.32c0-0.702,0.187-1.264,0.56-1.688
			c0.373-0.423,0.821-0.635,1.345-0.635s0.966,0.211,1.328,0.635c0.362,0.423,0.543,1.053,0.543,1.888
			c0,0.267-0.022,0.641-0.066,1.12L166.504,33.688z M166.17,36.461c0.512,0,0.949,0.181,1.312,0.543
			c0.362,0.362,0.543,0.794,0.543,1.295c0,0.513-0.181,0.95-0.543,1.312s-0.799,0.543-1.312,0.543c-0.513,0-0.95-0.182-1.312-0.543
			c-0.362-0.362-0.543-0.799-0.543-1.312c0-0.501,0.181-0.933,0.543-1.295C165.22,36.642,165.657,36.461,166.17,36.461z"/>
	</g>
	<circle fill="#FF506A" cx="166.187" cy="248.473" r="19.686"/>
	<path fill="#FFFFFF" d="M168.999,250.747c-0.987-0.237-1.477-1.531-0.603-2.449c1.168-1.122,1.946-3.037,1.946-4.943
		c0-2.952-1.86-4.75-4.156-4.75c-2.295,0-4.156,1.798-4.156,4.75c0,1.899,0.773,3.81,1.935,4.932h-0.007
		c0.891,0.923,0.395,2.232-0.604,2.465c-3.864,0.746-6.668,2.881-6.668,4.479c0,1.968,4.253,2.375,9.5,2.375s9.5-0.407,9.5-2.375
		C175.687,253.629,172.872,251.49,168.999,250.747z"/>
	<path fill="#FFFFFF" stroke="#ABE4FF" stroke-linecap="round" stroke-linejoin="round" stroke-miterlimit="10" d="M239.199,223.327
		c-0.987-0.238-1.477-1.532-0.603-2.45c1.168-1.121,1.946-3.037,1.946-4.942c0-2.953-1.86-4.75-4.156-4.75s-4.156,1.797-4.156,4.75
		c0,1.899,0.773,3.809,1.935,4.932h-0.007c0.891,0.922,0.395,2.232-0.604,2.464c-3.863,0.746-6.668,2.881-6.668,4.479
		c0,1.968,4.253,2.375,9.5,2.375s9.5-0.407,9.5-2.375C245.887,226.209,243.072,224.069,239.199,223.327z"/>
	<path fill="#FFFFFF" stroke="#ABE4FF" stroke-linecap="round" stroke-linejoin="round" stroke-miterlimit="10" d="M104.298,224.025
		c-0.987-0.237-1.476-1.531-0.603-2.449c1.168-1.121,1.947-3.037,1.947-4.943c0-2.952-1.861-4.75-4.156-4.75
		s-4.156,1.798-4.156,4.75c0,1.9,0.773,3.81,1.935,4.933h-0.007c0.891,0.922,0.395,2.232-0.604,2.464
		c-3.864,0.746-6.668,2.881-6.668,4.479c0,1.968,4.253,2.375,9.5,2.375s9.5-0.407,9.5-2.375
		C110.986,226.907,108.172,224.769,104.298,224.025z"/>
	<path fill="#FFFFFF" stroke="#ABE4FF" stroke-linecap="round" stroke-linejoin="round" stroke-miterlimit="10" d="M236.399,12.643
		c-0.987-0.238-1.476-1.531-0.603-2.45c1.168-1.122,1.946-3.037,1.946-4.943c0-2.953-1.86-4.75-4.156-4.75
		c-2.295,0-4.156,1.797-4.156,4.75c0,1.9,0.773,3.809,1.936,4.932h-0.007c0.89,0.922,0.394,2.232-0.604,2.464
		c-3.863,0.746-6.668,2.881-6.668,4.479c0,1.968,4.253,2.375,9.5,2.375s9.5-0.407,9.5-2.375
		C243.087,15.524,240.273,13.385,236.399,12.643z"/>
	<path fill="#FFFFFF" stroke="#ABE4FF" stroke-linecap="round" stroke-linejoin="round" stroke-miterlimit="10" d="M98.798,14.3
		c-0.987-0.237-1.476-1.531-0.603-2.45c1.168-1.121,1.947-3.037,1.947-4.943c0-2.953-1.861-4.75-4.156-4.75s-4.156,1.797-4.156,4.75
		c0,1.9,0.773,3.809,1.935,4.932h-0.007c0.891,0.922,0.395,2.232-0.604,2.464c-3.864,0.746-6.668,2.881-6.668,4.479
		c0,1.968,4.253,2.375,9.5,2.375s9.5-0.407,9.5-2.375C105.486,17.182,102.672,15.042,98.798,14.3z"/>
	<path fill="#FFFFFF" stroke="#ABE4FF" stroke-linecap="round" stroke-linejoin="round" stroke-miterlimit="10" d="M66.378,110.629
		c-0.987-0.238-1.476-1.532-0.602-2.45c1.168-1.122,1.946-3.037,1.946-4.943c0-2.953-1.86-4.75-4.156-4.75
		c-2.295,0-4.156,1.797-4.156,4.75c0,1.899,0.773,3.809,1.935,4.932h-0.007c0.891,0.922,0.395,2.232-0.604,2.464
		c-3.864,0.746-6.668,2.881-6.668,4.479c0,1.968,4.253,2.375,9.5,2.375s9.5-0.407,9.5-2.375
		C73.066,113.511,70.252,111.372,66.378,110.629z"/>
	<path fill="#FFFFFF" stroke="#ABE4FF" stroke-linecap="round" stroke-linejoin="round" stroke-miterlimit="10" d="M56.878,196.143
		c-0.987-0.237-1.476-1.531-0.602-2.449c1.168-1.122,1.946-3.037,1.946-4.943c0-2.952-1.86-4.75-4.156-4.75
		c-2.295,0-4.156,1.798-4.156,4.75c0,1.899,0.773,3.809,1.935,4.932h-0.007c0.891,0.923,0.395,2.232-0.604,2.465
		c-3.864,0.746-6.668,2.881-6.668,4.479c0,1.968,4.253,2.375,9.5,2.375s9.5-0.407,9.5-2.375
		C63.566,199.024,60.752,196.886,56.878,196.143z"/>
	<path fill="#FFFFFF" stroke="#ABE4FF" stroke-linecap="round" stroke-linejoin="round" stroke-miterlimit="10" d="M284.793,208.143
		c-0.987-0.237-1.476-1.531-0.603-2.449c1.168-1.122,1.946-3.037,1.946-4.943c0-2.952-1.86-4.75-4.156-4.75
		c-2.295,0-4.156,1.798-4.156,4.75c0,1.899,0.773,3.809,1.936,4.932h-0.007c0.89,0.923,0.394,2.232-0.604,2.465
		c-3.863,0.746-6.668,2.881-6.668,4.479c0,1.968,4.254,2.375,9.5,2.375c5.247,0,9.5-0.407,9.5-2.375
		C291.48,211.024,288.667,208.886,284.793,208.143z"/>
	<path fill="none" stroke="#ABE4FF" stroke-linecap="round" stroke-linejoin="round" stroke-miterlimit="10" d="M123.709,64.763
		c0.251-0.251,0.251-0.664,0-0.915l-0.379-0.379c-0.251-0.251-0.749-0.457-1.104-0.457h-2.589c-0.355,0-0.853-0.206-1.104-0.458
		l-1.673-1.674c-0.251-0.251-0.458-0.748-0.458-1.104v-2.588c0-0.356-0.206-0.441-0.458-0.189l-8.145,8.145
		c-0.251,0.251-0.166,0.458,0.19,0.458h2.588c0.355,0,0.853,0.206,1.104,0.458l1.673,1.673c0.251,0.251,0.458,0.748,0.458,1.104
		v2.588c0,0.356,0.206,0.853,0.458,1.104l0.379,0.379c0.251,0.251,0.663,0.251,0.915,0l4.117-4.118l7.063,7.063"/>
	<circle fill="#F25A58" cx="19.686" cy="141" r="19.686"/>
	<g>
		<path fill="#FFFFFF" d="M19.6,146.592h-0.637c0.072-1.305,0.235-2.384,0.489-3.238c0.254-0.854,0.779-2.043,1.577-3.565
			c0.621-1.17,1.025-2.069,1.211-2.695s0.28-1.261,0.28-1.903c0-1.315-0.35-2.361-1.049-3.138c-0.699-0.777-1.556-1.165-2.57-1.165
			c-0.901,0-1.61,0.212-2.128,0.637c-0.518,0.425-0.776,0.886-0.776,1.383c0,0.383,0.155,0.854,0.466,1.414
			c0.311,0.559,0.466,0.983,0.466,1.273c0,0.373-0.119,0.686-0.357,0.94c-0.238,0.254-0.528,0.38-0.87,0.38
			c-0.435,0-0.831-0.215-1.188-0.645c-0.357-0.43-0.536-1.028-0.536-1.794c0-1.17,0.502-2.206,1.507-3.107s2.366-1.351,4.085-1.351
			c2.133,0,3.702,0.621,4.707,1.864c0.746,0.911,1.118,1.921,1.118,3.029c0,0.756-0.168,1.532-0.505,2.33s-0.976,1.735-1.918,2.812
			c-1.501,1.698-2.42,2.902-2.757,3.611C19.877,144.373,19.673,145.35,19.6,146.592z M19.383,148.518
			c0.487,0,0.898,0.168,1.235,0.505s0.505,0.748,0.505,1.235c0,0.477-0.171,0.883-0.513,1.22c-0.342,0.336-0.751,0.504-1.227,0.504
			c-0.477,0-0.883-0.168-1.22-0.504c-0.336-0.337-0.504-0.743-0.504-1.22c0-0.487,0.168-0.898,0.504-1.235
			C18.5,148.687,18.906,148.518,19.383,148.518z"/>
	</g>
	<circle fill="#043573" cx="166.187" cy="112.426" r="10.104"/>
	<circle fill="#ABE4FF" cx="166.187" cy="119.721" r="12.519"/>
	<g>
		<path fill="#FF505C" d="M315.054,123.097c-5.513,0-10.105,5.513-10.105,5.513s-4.593-5.513-10.105-5.513
			c-5.512,0-12.862,3.675-12.862,12.862c0,11.025,15.618,25.725,22.968,29.399c7.35-3.675,22.967-18.375,22.967-29.399
			C327.915,126.771,320.565,123.097,315.054,123.097z"/>
	</g>
	<circle fill="#FFA58F" cx="63.567" cy="58.479" r="12.706"/>
	<path fill="none" stroke="#FFFFFF" stroke-linecap="round" stroke-linejoin="round" stroke-miterlimit="10" d="M54.413,58.479
		c0-5.056,4.098-9.154,9.154-9.154"/>
	<path fill="none" stroke="#FFFFFF" stroke-linecap="round" stroke-linejoin="round" stroke-miterlimit="10" d="M72.72,58.479
		c0,5.056-4.098,9.154-9.154,9.154"/>
	
		<line fill="none" stroke="#FFA58F" stroke-width="3" stroke-linecap="round" stroke-linejoin="round" stroke-miterlimit="10" x1="72.523" y1="67.436" x2="85.588" y2="80.5"/>
	<g>
		<path fill="none" stroke="#ABE4FF" stroke-linecap="round" stroke-linejoin="round" stroke-miterlimit="10" d="M138.403,201.341
			c0-0.622-0.503-1.125-1.125-1.125h-15.75c-0.621,0-1.125,0.503-1.125,1.125v11.75c0,0.621,0.504,1.125,1.125,1.125h15.75
			c0.622,0,1.125-0.504,1.125-1.125V201.341z"/>
		
			<line fill="none" stroke="#ABE4FF" stroke-linecap="round" stroke-linejoin="round" stroke-miterlimit="10" x1="126.903" y1="216.216" x2="131.903" y2="216.216"/>
		
			<line fill="none" stroke="#ABE4FF" stroke-linecap="round" stroke-linejoin="round" stroke-miterlimit="10" x1="120.903" y1="211.216" x2="137.903" y2="211.216"/>
	</g>
	<g>
		<path fill="#E6BABA" d="M255.028,75.82c0.037,0,0.073-0.004,0.111-0.011l14.169-2.844c0.673,0.023,1.393,0.111,2.147,0.205
			c0.847,0.105,1.725,0.214,2.612,0.237c0.195,0.004,0.387,0.007,0.58,0.007c9.678,0,16.977-6.482,16.977-15.081
			c0-8.344-8.362-15.131-18.64-15.131s-18.64,6.788-18.64,15.131c0,3.142,1.17,6.141,3.386,8.696l-3.227,8.018
			c-0.077,0.191-0.045,0.412,0.089,0.569C254.701,75.747,254.862,75.82,255.028,75.82L255.028,75.82z"/>
		<circle fill="#FFFFFF" cx="273.49" cy="58.266" r="2.301"/>
		<circle fill="#FFFFFF" cx="280.264" cy="58.266" r="2.301"/>
		<circle fill="#FFFFFF" cx="266.716" cy="58.266" r="2.3"/>
	</g>
	<g>
		<path fill="none" stroke="#ABE4FF" stroke-linecap="round" stroke-linejoin="round" stroke-miterlimit="10" d="M203.187,195.5h-4
			l-0.314-1.518c-0.071-0.266-0.355-0.482-0.631-0.482h-5.191c-0.274,0-0.54,0.222-0.59,0.492l-0.273,1.508h-0.501
			c-0.702,0-1.999,1.605-4.999,1.605v0.053c0,0,0,0.276,0,0.552v9.498c0,0.275,0.225,0.292,0.5,0.292h16
			c0.275,0,0.5-0.017,0.5-0.292v-11C203.687,195.933,203.462,195.5,203.187,195.5z"/>
		
			<line fill="none" stroke="#ABE4FF" stroke-linecap="round" stroke-linejoin="round" stroke-miterlimit="10" x1="186.187" y1="195.5" x2="188.187" y2="195.5"/>
		
			<circle fill="none" stroke="#ABE4FF" stroke-linecap="round" stroke-linejoin="round" stroke-miterlimit="10" cx="195.687" cy="201.5" r="4"/>
	</g>
	<g>
		
			<line fill="none" stroke="#ABE4FF" stroke-linecap="round" stroke-linejoin="round" stroke-miterlimit="10" x1="256.051" y1="106.822" x2="268.051" y2="106.822"/>
		
			<rect x="255.551" y="95.822" fill="none" stroke="#ABE4FF" stroke-linecap="round" stroke-linejoin="round" stroke-miterlimit="10" width="13" height="9"/>
		<polygon fill="none" stroke="#ABE4FF" stroke-linecap="round" stroke-linejoin="round" stroke-miterlimit="10" points="
			270.848,108.822 253.253,108.822 255.551,104.822 268.551,104.822 		"/>
		<polygon fill="none" stroke="#ABE4FF" stroke-linecap="round" stroke-linejoin="round" stroke-miterlimit="10" points="
			265.642,108.822 258.459,108.822 259.713,106.822 264.57,106.822 		"/>
	</g>
	
		<polygon fill="none" stroke="#ABE4FF" stroke-width="0.6382" stroke-linecap="round" stroke-linejoin="round" stroke-miterlimit="10" points="
		58.838,73.579 49.64,73.579 45.403,77.903 45.403,73.579 42.884,73.579 42.884,61.823 58.838,61.823 	"/>
</g>
</svg>
