<?xml version="1.0" encoding="utf-8"?>
<!-- Generator: Adobe Illustrator 16.0.0, SVG Export Plug-In . SVG Version: 6.00 Build 0)  -->
<!DOCTYPE svg PUBLIC "-//W3C//DTD SVG 1.1//EN" "http://www.w3.org/Graphics/SVG/1.1/DTD/svg11.dtd">
<svg version="1.1" id="Layer_2" xmlns="http://www.w3.org/2000/svg" xmlns:xlink="http://www.w3.org/1999/xlink" x="0px" y="0px"
	 width="282.051px" height="252.448px" viewBox="0 0 282.051 252.448" enable-background="new 0 0 282.051 252.448"
	 xml:space="preserve">
<circle fill="none" stroke="#ABE4FF" stroke-linecap="round" stroke-linejoin="round" stroke-miterlimit="10" stroke-dasharray="4,5" cx="133.418" cy="131.146" r="113.733"/>
<g>
	<g>
		<g>
			<path fill="#043573" d="M201.687,70.979H65.15c-5.362,0-9.751,4.39-9.751,9.751v87.01c0,5.362,4.39,9.751,9.751,9.751h136.537
				c5.36,0,9.751-4.389,9.751-9.751V80.73C211.438,75.369,207.047,70.979,201.687,70.979z"/>
			<path fill="#043573" d="M201.687,70.979H65.15c-5.362,0-9.751,4.39-9.751,9.751v87.01c0,5.362,4.39,9.751,9.751,9.751h136.537
				c5.36,0,9.751-4.389,9.751-9.751V80.73C211.438,75.369,207.047,70.979,201.687,70.979z"/>
		</g>
		<path fill="#043573" d="M201.687,177.491c5.36,0,9.751-4.389,9.751-9.751V80.73c0-5.361-4.391-9.751-9.751-9.751h-46.342
			l-49.437,106.512H201.687z"/>
		<rect x="65.058" y="80.948" fill="#043573" width="136.721" height="86.626"/>
		<polygon fill="#043573" points="110.511,167.574 201.779,167.574 201.779,80.948 150.718,80.948 		"/>
	</g>
	<g>
		<g>
			<path fill="#005780" d="M201.687,67.979H65.15c-5.362,0-9.751,4.39-9.751,9.751v87.01c0,5.362,4.39,9.751,9.751,9.751h136.537
				c5.36,0,9.751-4.389,9.751-9.751V77.73C211.438,72.369,207.047,67.979,201.687,67.979z"/>
			<path fill="#005780" d="M201.687,67.979H65.15c-5.362,0-9.751,4.39-9.751,9.751v87.01c0,5.362,4.39,9.751,9.751,9.751h136.537
				c5.36,0,9.751-4.389,9.751-9.751V77.73C211.438,72.369,207.047,67.979,201.687,67.979z"/>
		</g>
		<path fill="#005780" d="M201.687,174.491c5.36,0,9.751-4.389,9.751-9.751V77.73c0-5.361-4.391-9.751-9.751-9.751h-46.342
			l-49.437,106.512H201.687z"/>
		<rect x="65.058" y="77.948" fill="#005780" width="136.721" height="86.626"/>
		<polygon fill="#005780" points="110.511,164.574 201.779,164.574 201.779,77.948 150.718,77.948 		"/>
	</g>
	<g>
		<path opacity="0.2" fill="#4BA3CC" d="M201.687,174.491c5.36,0,9.751-4.389,9.751-9.751V77.73c0-5.361-4.391-9.751-9.751-9.751
			h-46.342l-49.437,106.512H201.687z"/>
		<rect x="65.058" y="77.948" fill="#F1F0F4" width="136.721" height="86.626"/>
		<polygon opacity="0.1" fill="#C8E6F5" points="110.511,164.574 201.779,164.574 201.779,77.948 150.718,77.948 		"/>
	</g>
</g>
<g>
	<path fill="#5585C2" d="M37.457,168.369v7.043c0,3.658,2.995,6.653,6.654,6.653h178.617c3.657,0,6.653-2.995,6.653-6.653v-7.043
		H37.457z"/>
	<rect x="37.457" y="168.369" fill="#C1E6E3" width="191.924" height="7.043"/>
	<path fill="#005780" d="M113.746,168.369v0.835c0,0.75,0.614,1.364,1.364,1.364h36.616c0.75,0,1.364-0.614,1.364-1.364v-0.835
		H113.746z"/>
</g>
<g>
	
		<line fill="none" stroke="#868191" stroke-width="2" stroke-linecap="round" stroke-linejoin="round" stroke-miterlimit="10" x1="71.563" y1="86.843" x2="77.275" y2="86.843"/>
	
		<line fill="none" stroke="#868191" stroke-width="2" stroke-linecap="round" stroke-linejoin="round" stroke-miterlimit="10" x1="71.563" y1="90.969" x2="77.275" y2="90.969"/>
	
		<line fill="none" stroke="#868191" stroke-width="2" stroke-linecap="round" stroke-linejoin="round" stroke-miterlimit="10" x1="71.563" y1="95.096" x2="77.275" y2="95.096"/>
</g>
<g>
	
		<line fill="none" stroke="#868191" stroke-width="2" stroke-linecap="round" stroke-linejoin="round" stroke-miterlimit="10" x1="71.563" y1="99.222" x2="77.275" y2="99.222"/>
	
		<line fill="none" stroke="#868191" stroke-width="2" stroke-linecap="round" stroke-linejoin="round" stroke-miterlimit="10" x1="71.563" y1="103.348" x2="77.275" y2="103.348"/>
	
		<line fill="none" stroke="#868191" stroke-width="2" stroke-linecap="round" stroke-linejoin="round" stroke-miterlimit="10" x1="71.563" y1="107.474" x2="77.275" y2="107.474"/>
</g>
<g>
	
		<line fill="none" stroke="#868191" stroke-width="2" stroke-linecap="round" stroke-linejoin="round" stroke-miterlimit="10" x1="71.563" y1="111.6" x2="77.275" y2="111.6"/>
	
		<line fill="none" stroke="#868191" stroke-width="2" stroke-linecap="round" stroke-linejoin="round" stroke-miterlimit="10" x1="71.563" y1="115.726" x2="77.275" y2="115.726"/>
	
		<line fill="none" stroke="#868191" stroke-width="2" stroke-linecap="round" stroke-linejoin="round" stroke-miterlimit="10" x1="71.563" y1="119.852" x2="77.275" y2="119.852"/>
</g>
<g>
	
		<line fill="none" stroke="#868191" stroke-width="2" stroke-linecap="round" stroke-linejoin="round" stroke-miterlimit="10" x1="71.563" y1="123.979" x2="77.275" y2="123.979"/>
	
		<line fill="none" stroke="#868191" stroke-width="2" stroke-linecap="round" stroke-linejoin="round" stroke-miterlimit="10" x1="71.563" y1="128.104" x2="77.275" y2="128.104"/>
	
		<line fill="none" stroke="#868191" stroke-width="2" stroke-linecap="round" stroke-linejoin="round" stroke-miterlimit="10" x1="71.563" y1="132.231" x2="77.275" y2="132.231"/>
</g>
<g>
	
		<line fill="none" stroke="#868191" stroke-width="2" stroke-linecap="round" stroke-linejoin="round" stroke-miterlimit="10" x1="71.563" y1="136.357" x2="77.275" y2="136.357"/>
	
		<line fill="none" stroke="#868191" stroke-width="2" stroke-linecap="round" stroke-linejoin="round" stroke-miterlimit="10" x1="71.563" y1="140.483" x2="77.275" y2="140.483"/>
	
		<line fill="none" stroke="#868191" stroke-width="2" stroke-linecap="round" stroke-linejoin="round" stroke-miterlimit="10" x1="71.563" y1="144.609" x2="77.275" y2="144.609"/>
</g>
<g>
	
		<line fill="none" stroke="#868191" stroke-width="2" stroke-linecap="round" stroke-linejoin="round" stroke-miterlimit="10" x1="71.563" y1="148.735" x2="77.275" y2="148.735"/>
	
		<line fill="none" stroke="#868191" stroke-width="2" stroke-linecap="round" stroke-linejoin="round" stroke-miterlimit="10" x1="71.563" y1="152.861" x2="77.275" y2="152.861"/>
	
		<line fill="none" stroke="#868191" stroke-width="2" stroke-linecap="round" stroke-linejoin="round" stroke-miterlimit="10" x1="71.563" y1="156.987" x2="77.275" y2="156.987"/>
</g>
<g>
	
		<line fill="none" stroke="#6BA820" stroke-width="2" stroke-linecap="round" stroke-linejoin="round" stroke-miterlimit="10" x1="88.068" y1="86.843" x2="118.536" y2="86.843"/>
	
		<line fill="none" stroke="#6BA820" stroke-width="2" stroke-linecap="round" stroke-linejoin="round" stroke-miterlimit="10" x1="88.068" y1="90.969" x2="102.032" y2="90.969"/>
	
		<line fill="none" stroke="#6BA820" stroke-width="2" stroke-linecap="round" stroke-linejoin="round" stroke-miterlimit="10" x1="92.194" y1="95.096" x2="122.662" y2="95.096"/>
</g>
<g>
	
		<line fill="none" stroke="#6BA820" stroke-width="2" stroke-linecap="round" stroke-linejoin="round" stroke-miterlimit="10" x1="96.32" y1="99.222" x2="126.789" y2="99.222"/>
	
		<line fill="none" stroke="#6BA820" stroke-width="2" stroke-linecap="round" stroke-linejoin="round" stroke-miterlimit="10" x1="96.32" y1="103.348" x2="135.041" y2="103.348"/>
	
		<line fill="none" stroke="#E27A3F" stroke-width="2" stroke-linecap="round" stroke-linejoin="round" stroke-miterlimit="10" x1="88.068" y1="107.474" x2="102.032" y2="107.474"/>
</g>
<g>
	
		<line fill="none" stroke="#EF8C00" stroke-width="2" stroke-linecap="round" stroke-linejoin="round" stroke-miterlimit="10" x1="92.194" y1="111.6" x2="122.662" y2="111.6"/>
	
		<line fill="none" stroke="#6BA820" stroke-width="2" stroke-linecap="round" stroke-linejoin="round" stroke-miterlimit="10" x1="92.194" y1="115.726" x2="106.158" y2="115.726"/>
	
		<line fill="none" stroke="#6BA820" stroke-width="2" stroke-linecap="round" stroke-linejoin="round" stroke-miterlimit="10" x1="96.32" y1="119.852" x2="135.041" y2="119.852"/>
</g>
<line fill="none" stroke="#6BA820" stroke-width="2" stroke-linecap="round" stroke-linejoin="round" stroke-miterlimit="10" x1="100.447" y1="123.979" x2="114.41" y2="123.979"/>
<line fill="none" stroke="#F0C401" stroke-width="2" stroke-linecap="round" stroke-linejoin="round" stroke-miterlimit="10" x1="100.447" y1="128.104" x2="114.41" y2="128.104"/>
<line fill="none" stroke="#6BA820" stroke-width="2" stroke-linecap="round" stroke-linejoin="round" stroke-miterlimit="10" x1="116.951" y1="128.104" x2="135.041" y2="128.104"/>
<line fill="none" stroke="#49C8CE" stroke-width="2" stroke-linecap="round" stroke-linejoin="round" stroke-miterlimit="10" x1="104.573" y1="132.231" x2="126.789" y2="132.231"/>
<g>
	
		<line fill="none" stroke="#4BA3CC" stroke-width="2" stroke-linecap="round" stroke-linejoin="round" stroke-miterlimit="10" x1="153.29" y1="123.979" x2="167.252" y2="123.979"/>
	
		<line fill="none" stroke="#4BA3CC" stroke-width="2" stroke-linecap="round" stroke-linejoin="round" stroke-miterlimit="10" x1="153.29" y1="128.104" x2="183.757" y2="128.104"/>
	
		<line fill="none" stroke="#4BA3CC" stroke-width="2" stroke-linecap="round" stroke-linejoin="round" stroke-miterlimit="10" x1="153.29" y1="132.231" x2="179.631" y2="132.231"/>
</g>
<g>
	
		<line fill="none" stroke="#4BA3CC" stroke-width="2" stroke-linecap="round" stroke-linejoin="round" stroke-miterlimit="10" x1="153.29" y1="95.096" x2="167.252" y2="95.096"/>
	
		<line fill="none" stroke="#4BA3CC" stroke-width="2" stroke-linecap="round" stroke-linejoin="round" stroke-miterlimit="10" x1="153.29" y1="99.222" x2="183.757" y2="99.222"/>
	
		<line fill="none" stroke="#4BA3CC" stroke-width="2" stroke-linecap="round" stroke-linejoin="round" stroke-miterlimit="10" x1="153.29" y1="103.348" x2="179.631" y2="103.348"/>
</g>
<g>
	
		<line fill="none" stroke="#6BA820" stroke-width="2" stroke-linecap="round" stroke-linejoin="round" stroke-miterlimit="10" x1="92.194" y1="136.357" x2="106.158" y2="136.357"/>
	
		<line fill="none" stroke="#6BA820" stroke-width="2" stroke-linecap="round" stroke-linejoin="round" stroke-miterlimit="10" x1="92.194" y1="140.483" x2="118.536" y2="140.483"/>
	
		<line fill="none" stroke="#E27A3F" stroke-width="2" stroke-linecap="round" stroke-linejoin="round" stroke-miterlimit="10" x1="88.068" y1="144.609" x2="102.032" y2="144.609"/>
</g>
<g>
	
		<line fill="none" stroke="#6BA820" stroke-width="2" stroke-linecap="round" stroke-linejoin="round" stroke-miterlimit="10" x1="92.194" y1="148.735" x2="118.536" y2="148.735"/>
	
		<line fill="none" stroke="#6BA820" stroke-width="2" stroke-linecap="round" stroke-linejoin="round" stroke-miterlimit="10" x1="96.32" y1="152.861" x2="118.536" y2="152.861"/>
	
		<line fill="none" stroke="#6BA820" stroke-width="2" stroke-linecap="round" stroke-linejoin="round" stroke-miterlimit="10" x1="88.068" y1="156.987" x2="114.41" y2="156.987"/>
</g>
<g>
	<path fill="#F25A58" d="M154.237,28.77c-0.348-0.22-0.604-0.732-0.567-1.141c0,0,0.006-0.068,0.006-0.482s-0.006-0.482-0.006-0.482
		c-0.037-0.409,0.22-0.922,0.567-1.142l2.683-1.681c0.347-0.217,0.525-0.715,0.394-1.106l-1.032-2.494
		c-0.186-0.366-0.665-0.593-1.065-0.5l-3.084,0.705c-0.4,0.093-0.952-0.086-1.225-0.392l-0.678-0.674
		c-0.308-0.275-0.482-0.828-0.392-1.227l0.708-3.083c0.09-0.404-0.136-0.881-0.504-1.068l-2.494-1.033
		c-0.39-0.131-0.888,0.048-1.105,0.396l-1.685,2.681c-0.216,0.346-0.731,0.604-1.142,0.566c0,0-0.064-0.005-0.479-0.005
		c-0.414,0-0.479,0.005-0.479,0.005c-0.41,0.038-0.925-0.22-1.143-0.566l-1.684-2.681c-0.219-0.348-0.715-0.528-1.104-0.396
		l-2.497,1.033c-0.366,0.187-0.592,0.664-0.501,1.068l0.708,3.083c0.09,0.399-0.084,0.952-0.393,1.227l-0.677,0.674
		c-0.272,0.306-0.824,0.485-1.226,0.392l-3.084-0.705c-0.4-0.093-0.88,0.134-1.065,0.5l-1.033,2.494
		c-0.131,0.392,0.047,0.889,0.394,1.106l2.683,1.681c0.347,0.22,0.604,0.732,0.567,1.142c0,0-0.007,0.068-0.007,0.482
		s0.007,0.482,0.007,0.482c0.037,0.409-0.22,0.921-0.567,1.141l-2.683,1.681c-0.347,0.217-0.525,0.715-0.394,1.106l1.033,2.494
		c0.186,0.366,0.665,0.593,1.065,0.5l3.084-0.705c0.401-0.093,0.953,0.086,1.226,0.392l0.677,0.674
		c0.309,0.275,0.482,0.828,0.393,1.227l-0.708,3.083c-0.091,0.404,0.135,0.881,0.501,1.068l2.497,1.033
		c0.39,0.131,0.886-0.048,1.104-0.396l1.684-2.681c0.219-0.346,0.732-0.604,1.143-0.566c0,0,0.064,0.005,0.479,0.005
		c0.415,0,0.479-0.005,0.479-0.005c0.41-0.038,0.924,0.22,1.142,0.566l1.685,2.681c0.218,0.348,0.716,0.528,1.105,0.396l2.494-1.033
		c0.368-0.187,0.594-0.664,0.504-1.068l-0.708-3.083c-0.091-0.399,0.084-0.952,0.392-1.227l0.678-0.674
		c0.272-0.306,0.824-0.485,1.225-0.392l3.084,0.705c0.4,0.093,0.88-0.134,1.065-0.5l1.032-2.494
		c0.132-0.392-0.047-0.889-0.394-1.106L154.237,28.77z M143.136,34.127c-3.925,0-7.109-3.186-7.109-7.112
		c0-3.928,3.185-7.107,7.109-7.107s7.11,3.179,7.11,7.107C150.247,30.941,147.061,34.127,143.136,34.127z M133.938,8.418
		c-0.281-0.048-0.584-0.313-0.67-0.586c0,0-0.015-0.045-0.125-0.313c-0.112-0.268-0.134-0.311-0.134-0.311
		c-0.135-0.253-0.104-0.654,0.062-0.889l1.282-1.805c0.167-0.235,0.15-0.601-0.04-0.821l-1.337-1.335
		c-0.217-0.187-0.588-0.205-0.821-0.038l-1.804,1.283c-0.235,0.167-0.639,0.197-0.896,0.073l-0.62-0.255
		c-0.271-0.093-0.531-0.401-0.582-0.687l-0.367-2.181c-0.048-0.283-0.322-0.533-0.61-0.553h-1.886
		c-0.29,0.018-0.562,0.265-0.611,0.551l-0.37,2.181c-0.049,0.283-0.312,0.588-0.587,0.671c0,0-0.042,0.015-0.312,0.126
		c-0.266,0.111-0.307,0.131-0.307,0.131c-0.255,0.134-0.656,0.106-0.888-0.061l-1.807-1.28c-0.235-0.169-0.604-0.149-0.819,0.038
		l-1.337,1.335c-0.187,0.22-0.207,0.588-0.039,0.825l1.281,1.803c0.167,0.234,0.202,0.636,0.076,0.896l-0.256,0.619
		c-0.094,0.27-0.402,0.533-0.687,0.581l-2.182,0.371c-0.285,0.046-0.531,0.321-0.555,0.606l0.001,1.888
		c0.02,0.288,0.268,0.561,0.55,0.608l2.184,0.369c0.283,0.048,0.585,0.313,0.672,0.588c0,0,0.013,0.045,0.124,0.313
		c0.111,0.265,0.134,0.308,0.134,0.308c0.133,0.255,0.106,0.657-0.062,0.889l-1.283,1.806c-0.166,0.234-0.146,0.603,0.042,0.82
		l1.334,1.335c0.218,0.187,0.589,0.205,0.822,0.038l1.804-1.283c0.235-0.167,0.64-0.2,0.898-0.073l0.618,0.255
		c0.273,0.096,0.532,0.404,0.581,0.689l0.368,2.179c0.048,0.283,0.323,0.533,0.61,0.558l1.89-0.002
		c0.287-0.021,0.559-0.268,0.607-0.553l0.369-2.182c0.051-0.285,0.313-0.586,0.588-0.672c0,0,0.043-0.015,0.312-0.126
		c0.268-0.111,0.308-0.131,0.308-0.131c0.254-0.134,0.655-0.106,0.89,0.061l1.804,1.28c0.235,0.169,0.604,0.151,0.821-0.041
		l1.335-1.333c0.188-0.217,0.207-0.588,0.04-0.823l-1.281-1.805c-0.167-0.235-0.201-0.636-0.076-0.894l0.256-0.621
		c0.095-0.268,0.404-0.533,0.688-0.581l2.183-0.369c0.283-0.048,0.529-0.323,0.553-0.608l-0.002-1.888
		c-0.02-0.288-0.268-0.561-0.549-0.609L133.938,8.418z M127.781,13.836c-1.977,0.82-4.245-0.119-5.064-2.098s0.12-4.247,2.098-5.064
		c1.977-0.821,4.244,0.119,5.066,2.098C130.7,10.75,129.758,13.018,127.781,13.836z M147.014,27.146
		c0,2.141-1.735,3.878-3.878,3.878c-2.142,0-3.878-1.737-3.878-3.878s1.736-3.878,3.878-3.878
		C145.279,23.269,147.014,25.005,147.014,27.146z"/>
</g>
<path fill="#D4F1FF" d="M235.407,112.432c1.571-6.309,7.235-11.004,14.025-11.004c6.068,0,11.25,3.74,13.413,9.029
	c1.271-1.096,2.903-1.78,4.709-1.78c4,0,7.249,3.248,7.249,7.249c0,0.219-0.048,0.428-0.066,0.645
	c4.248,1.482,7.314,5.783,7.314,10.531c0,6.003-4.87,11.177-10.873,11.177h-34.431c-7.003,0-12.685-5.985-12.685-12.989
	C224.063,118.742,229.042,113.111,235.407,112.432z"/>
<circle fill="#FFCECE" cx="19.685" cy="123.821" r="19.685"/>
<circle fill="#ABE4FF" cx="49.945" cy="48.292" r="16.352"/>
<circle fill="#FFCECE" cx="209.064" cy="47.292" r="16.352"/>
<g>
	<polygon fill="none" stroke="#ABE4FF" stroke-linecap="round" stroke-linejoin="round" stroke-miterlimit="10" points="
		116.569,198.493 122.569,192.493 122.569,198.493 	"/>
	<polygon fill="none" stroke="#ABE4FF" stroke-linecap="round" stroke-linejoin="round" stroke-miterlimit="10" points="
		122.569,198.493 122.569,192.493 130.569,192.493 130.569,211.493 116.569,211.493 116.569,198.493 	"/>
</g>
<g>
	<polygon fill="none" stroke="#ABE4FF" stroke-linecap="round" stroke-linejoin="round" stroke-miterlimit="10" points="
		133.418,213.597 139.418,207.597 139.418,213.597 	"/>
	<polygon fill="none" stroke="#ABE4FF" stroke-linecap="round" stroke-linejoin="round" stroke-miterlimit="10" points="
		139.418,213.597 139.418,207.597 147.418,207.597 147.418,226.597 133.418,226.597 133.418,213.597 	"/>
</g>
<g>
	<path fill="none" stroke="#4BA3CC" stroke-linecap="round" stroke-linejoin="round" stroke-miterlimit="10" d="M239.297,123.897
		l0.85,2.549c0.155,0.466,0.685,0.847,1.175,0.846l11.616,0.001l-0.001,1.427c0,1.474,1.202,2.562,2.667,2.415l8.96-0.894
		c1.468-0.147,2.667-1.471,2.668-2.944l0.001-5.367c0-1.477-1.201-2.8-2.669-2.949l-8.959-0.892
		c-1.469-0.148-2.667,0.941-2.668,2.415l-0.001,1.427l-13.4,0.001c-0.491,0-0.767,0.381-0.61,0.847l0.073,0.223L239.297,123.897z"/>
	<path fill="none" stroke="#4BA3CC" stroke-linecap="round" stroke-linejoin="round" stroke-miterlimit="10" d="M262.434,126.4
		l0.001-3.572c-0.001-0.495,0.401-0.895,0.894-0.894c0.491-0.001,0.894,0.402,0.893,0.892v3.574c0,0.493-0.402,0.894-0.894,0.894
		C262.836,127.293,262.435,126.893,262.434,126.4z"/>
	<polyline fill="none" stroke="#4BA3CC" stroke-linecap="round" stroke-linejoin="round" stroke-miterlimit="10" points="
		253.498,125.489 251.501,125.49 250.359,124.093 249.566,124.093 249.09,125.215 248.43,125.215 247.677,124.779 245.959,124.779 
		245.114,124.093 243.952,124.093 243.086,123.372 242.293,123.372 242.157,124.683 241.522,124.683 241.095,125.098 
		239.943,125.098 	"/>
</g>
<g>
	<path fill="none" stroke="#4BA3CC" stroke-linecap="round" stroke-linejoin="round" stroke-miterlimit="10" d="M12.56,115.613
		h14.25c0.207,0,0.375,0.186,0.375,0.413V133.2c0,0.228-0.168,0.413-0.375,0.413H12.56c-0.207,0-0.375-0.186-0.375-0.413v-17.174
		C12.185,115.799,12.354,115.613,12.56,115.613z"/>
	
		<line fill="none" stroke="#4BA3CC" stroke-linecap="round" stroke-linejoin="round" stroke-miterlimit="10" x1="26.685" y1="124.613" x2="12.685" y2="124.613"/>
	<polyline fill="none" stroke="#4BA3CC" stroke-linecap="round" stroke-linejoin="round" stroke-miterlimit="10" points="
		22.185,122.113 22.185,121.613 17.185,121.613 17.185,122.113 	"/>
	<polyline fill="none" stroke="#4BA3CC" stroke-linecap="round" stroke-linejoin="round" stroke-miterlimit="10" points="
		22.185,131.113 22.185,130.613 17.185,130.613 17.185,131.113 	"/>
</g>
<g>
	<g>
		
			<line fill="none" stroke="#4BA3CC" stroke-linecap="round" stroke-linejoin="round" stroke-miterlimit="10" x1="177.795" y1="190.493" x2="172.969" y2="195.319"/>
		
			<line fill="none" stroke="#4BA3CC" stroke-linecap="round" stroke-linejoin="round" stroke-miterlimit="10" x1="182.622" y1="195.319" x2="177.795" y2="190.493"/>
	</g>
	
		<line fill="none" stroke="#4BA3CC" stroke-linecap="round" stroke-linejoin="round" stroke-miterlimit="10" x1="177.795" y1="203.493" x2="177.795" y2="190.493"/>
</g>
<g>
	<g>
		
			<line fill="none" stroke="#4BA3CC" stroke-linecap="round" stroke-linejoin="round" stroke-miterlimit="10" x1="89.536" y1="186.493" x2="84.709" y2="191.319"/>
		
			<line fill="none" stroke="#4BA3CC" stroke-linecap="round" stroke-linejoin="round" stroke-miterlimit="10" x1="94.362" y1="191.319" x2="89.536" y2="186.493"/>
	</g>
	
		<line fill="none" stroke="#4BA3CC" stroke-linecap="round" stroke-linejoin="round" stroke-miterlimit="10" x1="89.536" y1="199.493" x2="89.536" y2="186.493"/>
</g>
<g>
	<g>
		
			<line fill="none" stroke="#4BA3CC" stroke-linecap="round" stroke-linejoin="round" stroke-miterlimit="10" x1="89.536" y1="208.493" x2="94.362" y2="203.667"/>
		
			<line fill="none" stroke="#4BA3CC" stroke-linecap="round" stroke-linejoin="round" stroke-miterlimit="10" x1="84.709" y1="203.667" x2="89.536" y2="208.493"/>
	</g>
	
		<line fill="none" stroke="#4BA3CC" stroke-linecap="round" stroke-linejoin="round" stroke-miterlimit="10" x1="89.536" y1="195.493" x2="89.536" y2="208.493"/>
</g>
<g>
	<circle fill="#FF977D" cx="177.795" cy="232.763" r="19.686"/>
	<g>
		
			<rect x="174.795" y="224.763" fill="none" stroke="#FFFFFF" stroke-linecap="round" stroke-linejoin="round" stroke-miterlimit="10" width="6" height="7"/>
		
			<rect x="181.795" y="235.763" fill="none" stroke="#FFFFFF" stroke-linecap="round" stroke-linejoin="round" stroke-miterlimit="10" width="4" height="6"/>
		
			<rect x="169.795" y="235.763" fill="none" stroke="#FFFFFF" stroke-linecap="round" stroke-linejoin="round" stroke-miterlimit="10" width="4" height="6"/>
		
			<rect x="175.795" y="235.763" fill="none" stroke="#FFFFFF" stroke-linecap="round" stroke-linejoin="round" stroke-miterlimit="10" width="4" height="6"/>
		
			<line fill="none" stroke="#FFFFFF" stroke-linecap="round" stroke-linejoin="round" stroke-miterlimit="10" x1="177.795" y1="232.263" x2="177.795" y2="235.263"/>
		<polyline fill="none" stroke="#FFFFFF" stroke-linecap="round" stroke-linejoin="round" stroke-miterlimit="10" points="
			183.795,235.263 183.795,233.763 171.795,233.763 171.795,235.263 		"/>
	</g>
</g>
<g>
	<circle fill="#FF7D90" cx="89.041" cy="232.763" r="19.685"/>
	<g>
		<path fill="none" stroke="#FFFFFF" stroke-linecap="round" stroke-linejoin="round" stroke-miterlimit="10" d="M82.036,226.93
			v11.667c0,1.749,3.357,3.166,7.5,3.166s7.5-1.417,7.5-3.166V226.93c0-1.749-3.357-3.167-7.5-3.167S82.036,225.181,82.036,226.93z"
			/>
		<path fill="none" stroke="#FFFFFF" stroke-linecap="round" stroke-linejoin="round" stroke-miterlimit="10" d="M97.036,234.597
			c0,1.749-3.357,3.166-7.5,3.166s-7.5-1.417-7.5-3.166"/>
		<path fill="none" stroke="#FFFFFF" stroke-linecap="round" stroke-linejoin="round" stroke-miterlimit="10" d="M97.036,230.597
			c0,1.749-3.357,3.166-7.5,3.166s-7.5-1.417-7.5-3.166"/>
		<path fill="none" stroke="#FFFFFF" stroke-linecap="round" stroke-linejoin="round" stroke-miterlimit="10" d="M97.036,226.597
			c0,1.749-3.357,3.166-7.5,3.166s-7.5-1.417-7.5-3.166"/>
	</g>
</g>
<polygon fill="#FFFFFF" points="208.795,35.634 216.795,35.634 208.795,45.634 215.795,45.634 202.795,59.634 207.795,47.534 
	200.795,47.534 "/>
<path fill="#4BA3CC" d="M43.917,54.181l-1.081,0.72l-1.621,1.982l0.9,0.901l1.981-1.621l0.721-1.081l3.762-3.763l-0.902-0.897
	L43.917,54.181z M50.824,46.373l1.794,1.809l1.696-1.695c0.421,0.106,0.884,0.017,1.212-0.311l3.603-3.603
	c0.495-0.495,0.495-1.306,0-1.801l-0.901-0.901c-0.495-0.495-1.306-0.495-1.801,0l-3.604,3.603
	c-0.327,0.329-0.417,0.791-0.312,1.212 M49.615,46.083c-0.391-0.391-0.866-0.59-1.366-0.413l0.918-2.606
	c0.152-0.43,0.014-1.059-0.299-1.373l-1.821-1.828c-0.315-0.316-0.941-0.453-1.369-0.302l-1.114,0.396
	c-0.182,0.064-0.299,0.17-0.331,0.298c-0.031,0.129,0.024,0.272,0.157,0.406l1.173,1.174c0.415,0.417,0.403,1.104-0.022,1.532
	l-1.296,1.298c-0.204,0.206-0.478,0.321-0.765,0.326c-0.29,0.003-0.561-0.104-0.762-0.307l-1.167-1.174
	c-0.136-0.133-0.279-0.19-0.406-0.158c-0.128,0.033-0.234,0.15-0.299,0.332l-0.394,1.117c-0.151,0.432-0.013,1.06,0.3,1.374
	l1.823,1.828c0.313,0.314,0.938,0.452,1.364,0.302l2.603-0.923c-0.179,0.503,0.012,0.987,0.401,1.378l0.049,0.048h-0.002l1.149,1.15
	h0l1.37,1.371l6.456,6.463c0,0,0.901,0.9,2.252-0.451c1.351-1.351,0.448-2.256,0.448-2.256l-6.494-6.457l-1.806-1.796l-0.704-0.701
	L49.615,46.083z M55.516,54.639c0.249-0.249,0.655-0.249,0.901,0c0.249,0.246,0.249,0.652,0,0.9c-0.246,0.246-0.652,0.246-0.901,0
	C55.268,55.291,55.268,54.885,55.516,54.639z"/>
</svg>
