<?xml version="1.0" encoding="utf-8"?>
<!-- Generator: Adobe Illustrator 16.0.0, SVG Export Plug-In . SVG Version: 6.00 Build 0)  -->
<!DOCTYPE svg PUBLIC "-//W3C//DTD SVG 1.1//EN" "http://www.w3.org/Graphics/SVG/1.1/DTD/svg11.dtd">
<svg version="1.1" xmlns="http://www.w3.org/2000/svg" xmlns:xlink="http://www.w3.org/1999/xlink" x="0px" y="0px"
	 width="317.957px" height="291.078px" viewBox="0 0 317.957 291.078" enable-background="new 0 0 317.957 291.078"
	 xml:space="preserve">
<g id="Layer_3">
</g>
<g id="Layer_2">
	<g>
		<g>
			<g>
				<path fill="#DBF4FF" d="M237.067,238.105c0,3.85-3.15,7-7,7H77.81c-3.85,0-7-3.15-7-7V7.382c0-3.85,3.15-7,7-7h152.257
					c3.85,0,7,3.15,7,7V238.105z"/>
				<path fill="#FFFFFF" d="M77.81,242.105c-2.206,0-4-1.794-4-4V7.382c0-2.206,1.794-4,4-4h152.257c2.206,0,4,1.794,4,4v230.723
					c0,2.206-1.794,4-4,4H77.81z"/>
			</g>
			<g>
				<path fill="#DBF4FF" d="M237.067,18.963c0,0.246-0.26,0.448-0.576,0.448s-3.726,0-7.576,0H79.253c-3.85,0-7.325,0-7.722,0
					s-0.722-0.202-0.722-0.448c0-0.247,0-3.599,0-7.449V7c0-3.85,3.15-7,7-7h152.257c3.85,0,7,3.15,7,7v4.515
					C237.067,15.365,237.067,18.717,237.067,18.963z"/>
			</g>
			<g>
				<path fill="#FFFFFF" d="M184.283,9.604c0,2.2-1.8,4-4,4h-78.314c-2.2,0-4-1.8-4-4l0,0c0-2.2,1.8-4,4-4h78.314
					C182.483,5.604,184.283,7.403,184.283,9.604L184.283,9.604z"/>
			</g>
			<circle fill="#FFFFFF" cx="80.969" cy="9.604" r="4"/>
			<circle fill="#FFFFFF" cx="91.195" cy="9.604" r="4"/>
			<circle fill="#FFFFFF" fill-opacity="0.26" cx="190.661" cy="9.604" r="4"/>
			<circle fill="#FFFFFF" fill-opacity="0.26" cx="202.537" cy="9.604" r="4"/>
			<circle fill="#FFFFFF" fill-opacity="0.26" cx="214.164" cy="9.604" r="4"/>
			<circle fill="#FFFFFF" fill-opacity="0.26" cx="229.934" cy="5.604" r="2.082"/>
			<circle fill="#FFFFFF" fill-opacity="0.26" cx="223.765" cy="5.604" r="2.082"/>
			<rect x="76.969" y="22.535" fill="#DBF4FF" width="154.232" height="6.425"/>
			<rect x="97.968" y="33.478" fill="#DBF4FF" width="8.204" height="8.203"/>
			<rect x="128.993" y="33.478" fill="#DBF4FF" width="69.606" height="26.619"/>
			<rect x="128.993" y="108.196" fill="#DBF4FF" width="26.641" height="26.619"/>
			
				<line fill="none" stroke="#ABE4FF" stroke-linecap="round" stroke-linejoin="round" stroke-miterlimit="10" x1="109.088" y1="35.181" x2="124.269" y2="35.181"/>
			
				<line fill="none" stroke="#ABE4FF" stroke-linecap="round" stroke-linejoin="round" stroke-miterlimit="10" x1="109.088" y1="38.181" x2="124.269" y2="38.181"/>
			<rect x="129.164" y="94.797" fill="#DBF4FF" width="5.912" height="5.912"/>
			
				<line fill="none" stroke="#ABE4FF" stroke-linecap="round" stroke-linejoin="round" stroke-miterlimit="10" x1="137.208" y1="95.797" x2="152.389" y2="95.797"/>
			
				<line fill="none" stroke="#ABE4FF" stroke-linecap="round" stroke-linejoin="round" stroke-miterlimit="10" x1="137.208" y1="98.797" x2="198.919" y2="98.797"/>
			<rect x="129.164" y="137.204" fill="#DBF4FF" width="5.912" height="5.913"/>
			
				<line fill="none" stroke="#ABE4FF" stroke-linecap="round" stroke-linejoin="round" stroke-miterlimit="10" x1="137.208" y1="138.204" x2="152.389" y2="138.204"/>
			
				<line fill="none" stroke="#ABE4FF" stroke-linecap="round" stroke-linejoin="round" stroke-miterlimit="10" x1="137.208" y1="141.204" x2="198.919" y2="141.204"/>
			<g>
				<g>
					
						<line fill="none" stroke="#ABE4FF" stroke-linecap="round" stroke-linejoin="round" stroke-miterlimit="10" x1="98.968" y1="65.956" x2="114.149" y2="65.956"/>
					
						<line fill="none" stroke="#ABE4FF" stroke-linecap="round" stroke-linejoin="round" stroke-miterlimit="10" x1="98.968" y1="61.956" x2="114.149" y2="61.956"/>
					
						<line fill="none" stroke="#ABE4FF" stroke-linecap="round" stroke-linejoin="round" stroke-miterlimit="10" x1="98.968" y1="57.956" x2="114.149" y2="57.956"/>
					
						<line fill="none" stroke="#ABE4FF" stroke-linecap="round" stroke-linejoin="round" stroke-miterlimit="10" x1="98.968" y1="53.956" x2="114.149" y2="53.956"/>
					
						<line fill="none" stroke="#ABE4FF" stroke-linecap="round" stroke-linejoin="round" stroke-miterlimit="10" x1="98.968" y1="49.956" x2="114.149" y2="49.956"/>
					
						<line fill="none" stroke="#ABE4FF" stroke-linecap="round" stroke-linejoin="round" stroke-miterlimit="10" x1="98.968" y1="45.956" x2="114.149" y2="45.956"/>
				</g>
			</g>
			<g>
				<g>
					
						<line fill="none" stroke="#ABE4FF" stroke-linecap="round" stroke-linejoin="round" stroke-miterlimit="10" x1="129.606" y1="90.253" x2="198.599" y2="90.253"/>
					
						<line fill="none" stroke="#ABE4FF" stroke-linecap="round" stroke-linejoin="round" stroke-miterlimit="10" x1="129.606" y1="86.253" x2="198.599" y2="86.253"/>
					
						<line fill="none" stroke="#ABE4FF" stroke-linecap="round" stroke-linejoin="round" stroke-miterlimit="10" x1="129.606" y1="82.253" x2="198.599" y2="82.253"/>
					
						<line fill="none" stroke="#ABE4FF" stroke-linecap="round" stroke-linejoin="round" stroke-miterlimit="10" x1="129.606" y1="78.253" x2="198.599" y2="78.253"/>
					
						<line fill="none" stroke="#ABE4FF" stroke-linecap="round" stroke-linejoin="round" stroke-miterlimit="10" x1="129.606" y1="74.253" x2="198.599" y2="74.253"/>
					
						<line fill="none" stroke="#ABE4FF" stroke-linecap="round" stroke-linejoin="round" stroke-miterlimit="10" x1="129.606" y1="70.253" x2="198.599" y2="70.253"/>
				</g>
			</g>
			
				<line fill="none" stroke="#4BA3CC" stroke-linecap="round" stroke-linejoin="round" stroke-miterlimit="10" x1="129.606" y1="65.502" x2="187.739" y2="65.502"/>
			<g>
				<g>
					
						<line fill="none" stroke="#ABE4FF" stroke-linecap="round" stroke-linejoin="round" stroke-miterlimit="10" x1="129.606" y1="176.955" x2="198.599" y2="176.955"/>
					
						<line fill="none" stroke="#ABE4FF" stroke-linecap="round" stroke-linejoin="round" stroke-miterlimit="10" x1="129.606" y1="172.955" x2="198.599" y2="172.955"/>
					
						<line fill="none" stroke="#ABE4FF" stroke-linecap="round" stroke-linejoin="round" stroke-miterlimit="10" x1="129.606" y1="168.955" x2="198.599" y2="168.955"/>
					
						<line fill="none" stroke="#ABE4FF" stroke-linecap="round" stroke-linejoin="round" stroke-miterlimit="10" x1="129.606" y1="164.955" x2="198.599" y2="164.955"/>
					
						<line fill="none" stroke="#ABE4FF" stroke-linecap="round" stroke-linejoin="round" stroke-miterlimit="10" x1="129.606" y1="160.955" x2="198.599" y2="160.955"/>
					
						<line fill="none" stroke="#ABE4FF" stroke-linecap="round" stroke-linejoin="round" stroke-miterlimit="10" x1="129.606" y1="156.955" x2="198.599" y2="156.955"/>
				</g>
			</g>
			
				<line fill="none" stroke="#4BA3CC" stroke-linecap="round" stroke-linejoin="round" stroke-miterlimit="10" x1="129.606" y1="152.204" x2="187.739" y2="152.204"/>
			<g>
				<g>
					
						<line fill="none" stroke="#ABE4FF" stroke-linecap="round" stroke-linejoin="round" stroke-miterlimit="10" x1="158.673" y1="133.376" x2="198.919" y2="133.376"/>
					
						<line fill="none" stroke="#ABE4FF" stroke-linecap="round" stroke-linejoin="round" stroke-miterlimit="10" x1="158.673" y1="129.376" x2="198.919" y2="129.376"/>
					
						<line fill="none" stroke="#ABE4FF" stroke-linecap="round" stroke-linejoin="round" stroke-miterlimit="10" x1="158.673" y1="125.376" x2="198.919" y2="125.376"/>
					
						<line fill="none" stroke="#ABE4FF" stroke-linecap="round" stroke-linejoin="round" stroke-miterlimit="10" x1="158.673" y1="121.376" x2="198.919" y2="121.376"/>
					
						<line fill="none" stroke="#ABE4FF" stroke-linecap="round" stroke-linejoin="round" stroke-miterlimit="10" x1="158.673" y1="117.376" x2="198.919" y2="117.376"/>
					
						<line fill="none" stroke="#ABE4FF" stroke-linecap="round" stroke-linejoin="round" stroke-miterlimit="10" x1="158.673" y1="113.376" x2="198.919" y2="113.376"/>
				</g>
			</g>
			
				<line fill="none" stroke="#4BA3CC" stroke-linecap="round" stroke-linejoin="round" stroke-miterlimit="10" x1="158.673" y1="108.625" x2="192.584" y2="108.625"/>
			<rect x="128.993" y="189.707" fill="#DBF4FF" width="26.641" height="26.619"/>
			<rect x="129.164" y="218.714" fill="#DBF4FF" width="5.912" height="5.912"/>
			
				<line fill="none" stroke="#ABE4FF" stroke-linecap="round" stroke-linejoin="round" stroke-miterlimit="10" x1="137.208" y1="219.714" x2="152.389" y2="219.714"/>
			
				<line fill="none" stroke="#ABE4FF" stroke-linecap="round" stroke-linejoin="round" stroke-miterlimit="10" x1="137.208" y1="222.714" x2="198.919" y2="222.714"/>
			<g>
				<g>
					
						<line fill="none" stroke="#ABE4FF" stroke-linecap="round" stroke-linejoin="round" stroke-miterlimit="10" x1="158.673" y1="214.886" x2="198.919" y2="214.886"/>
					
						<line fill="none" stroke="#ABE4FF" stroke-linecap="round" stroke-linejoin="round" stroke-miterlimit="10" x1="158.673" y1="210.886" x2="198.919" y2="210.886"/>
					
						<line fill="none" stroke="#ABE4FF" stroke-linecap="round" stroke-linejoin="round" stroke-miterlimit="10" x1="158.673" y1="206.886" x2="198.919" y2="206.886"/>
					
						<line fill="none" stroke="#ABE4FF" stroke-linecap="round" stroke-linejoin="round" stroke-miterlimit="10" x1="158.673" y1="202.886" x2="198.919" y2="202.886"/>
					
						<line fill="none" stroke="#ABE4FF" stroke-linecap="round" stroke-linejoin="round" stroke-miterlimit="10" x1="158.673" y1="198.886" x2="198.919" y2="198.886"/>
					
						<line fill="none" stroke="#ABE4FF" stroke-linecap="round" stroke-linejoin="round" stroke-miterlimit="10" x1="158.673" y1="194.886" x2="198.919" y2="194.886"/>
				</g>
			</g>
			
				<line fill="none" stroke="#4BA3CC" stroke-linecap="round" stroke-linejoin="round" stroke-miterlimit="10" x1="158.673" y1="190.135" x2="192.584" y2="190.135"/>
		</g>
		<g>
			<g>
				<g>
					<path fill="#ABE4FF" d="M252.327,143.653H144.871c-4.22,0-7.674,3.455-7.674,7.674v72.077c0,4.22,3.455,7.674,7.674,7.674
						h39.412l34.316,23.677l-6.265-23.677h39.992c4.219,0,7.675-3.454,7.675-7.674v-72.077
						C260.001,147.108,256.545,143.653,252.327,143.653z"/>
					<path fill="#FFFFFF" d="M189.038,224.186c-1.397-0.965-3.057-1.481-4.755-1.481H145.57v-70.678h106.059v70.678h-39.294
						c-2.599,0-5.05,1.206-6.635,3.266c-1.585,2.059-2.124,4.737-1.46,7.249l0.472,1.78L189.038,224.186z"/>
				</g>
				<g>
					<path fill="#FFFFFF" d="M252.399,222.278c0,0.384-0.314,0.698-0.698,0.698H145.497c-0.384,0-0.698-0.314-0.698-0.698v-69.826
						c0-0.384,0.314-0.698,0.698-0.698h106.204c0.384,0,0.698,0.314,0.698,0.698V222.278z"/>
				</g>
				<path opacity="0.3" fill="#8CDDFF" d="M144.871,143.653c-4.22,0-7.674,3.455-7.674,7.674v40.199h38.129
					c4.219,0,7.675-3.454,7.675-7.674v-40.199H144.871z"/>
				<g>
					<path fill="#0587BF" d="M199.261,198.827h-1.324l-3.067-28.229c-0.139-1.231-0.209-2.149-0.209-2.754
						c0-1.464,0.389-2.637,1.168-3.52c0.778-0.883,1.713-1.324,2.806-1.324c1.091,0,2.015,0.441,2.771,1.324
						c0.755,0.883,1.132,2.195,1.132,3.938c0,0.559-0.046,1.337-0.139,2.336L199.261,198.827z M198.564,204.612
						c1.068,0,1.98,0.378,2.736,1.133c0.755,0.755,1.133,1.655,1.133,2.7c0,1.069-0.378,1.981-1.133,2.736
						c-0.756,0.755-1.668,1.133-2.736,1.133s-1.98-0.378-2.735-1.133c-0.756-0.755-1.133-1.667-1.133-2.736
						c0-1.045,0.377-1.945,1.133-2.7C196.583,204.99,197.496,204.612,198.564,204.612z"/>
				</g>
				<path opacity="0.3" fill="#8CDDFF" d="M218.599,254.754l-6.265-23.677h39.992c4.219,0,7.675-3.454,7.675-7.674v-72.077
					c0-4.219-3.456-7.674-7.675-7.674h-31.441l-36.603,87.424L218.599,254.754z"/>
				<g>
					<path fill="#ABE4FF" d="M167.327,96.103H59.871c-4.22,0-7.674,3.455-7.674,7.674v72.077c0,4.22,3.455,7.674,7.674,7.674h39.412
						l-15.684,43.677l43.735-43.677h39.993c4.219,0,7.675-3.454,7.675-7.674v-72.077C175.001,99.558,171.545,96.103,167.327,96.103z
						"/>
					<path fill="#FFFFFF" d="M107.163,186.357c0.921-2.565,0.536-5.418-1.032-7.647c-1.568-2.229-4.123-3.556-6.848-3.556H60.57
						v-70.678h106.059v70.678h-39.294c-2.219,0-4.347,0.881-5.917,2.448l-17.323,17.3L107.163,186.357z"/>
				</g>
				<g>
					<path fill="#FFFFFF" d="M167.399,174.727c0,0.384-0.314,0.698-0.698,0.698H60.497c-0.384,0-0.698-0.314-0.698-0.698v-69.826
						c0-0.384,0.314-0.698,0.698-0.698h106.204c0.384,0,0.698,0.314,0.698,0.698V174.727z"/>
				</g>
				<path opacity="0.3" fill="#8CDDFF" d="M83.599,227.204l43.735-43.677h39.993c4.219,0,7.675-3.454,7.675-7.674v-72.077
					c0-4.219-3.456-7.674-7.675-7.674h-31.442l-36.602,87.424L83.599,227.204z"/>
				<g>
					<path fill="#F25A58" d="M113.4,154.321h-1.481c0.168-3.034,0.548-5.544,1.138-7.531c0.59-1.986,1.812-4.75,3.667-8.29
						c1.445-2.721,2.384-4.81,2.817-6.267c0.433-1.457,0.65-2.932,0.65-4.424c0-3.059-0.812-5.491-2.438-7.296
						c-1.625-1.806-3.618-2.709-5.978-2.709c-2.095,0-3.745,0.494-4.948,1.481c-1.204,0.987-1.806,2.059-1.806,3.215
						c0,0.891,0.361,1.986,1.083,3.287c0.723,1.3,1.083,2.288,1.083,2.962c0,0.867-0.277,1.595-0.831,2.185
						c-0.554,0.59-1.228,0.885-2.022,0.885c-1.012,0-1.933-0.5-2.764-1.499c-0.831-1-1.246-2.39-1.246-4.172
						c0-2.721,1.168-5.129,3.504-7.224c2.336-2.095,5.502-3.143,9.5-3.143c4.96,0,8.609,1.445,10.944,4.334
						c1.734,2.119,2.601,4.467,2.601,7.043c0,1.758-0.391,3.564-1.174,5.418c-0.783,1.854-2.27,4.034-4.46,6.538
						c-3.492,3.949-5.629,6.749-6.412,8.398S113.569,151.432,113.4,154.321z M112.895,158.8c1.131,0,2.088,0.391,2.871,1.174
						c0.783,0.782,1.174,1.74,1.174,2.871c0,1.108-0.397,2.054-1.192,2.836s-1.746,1.174-2.853,1.174
						c-1.108,0-2.053-0.392-2.836-1.174s-1.174-1.728-1.174-2.836c0-1.131,0.391-2.089,1.174-2.871
						C110.842,159.191,111.787,158.8,112.895,158.8z"/>
				</g>
			</g>
			<g>
				<path fill="#FF5B34" d="M12.651,128.234c-0.433,0-0.811-0.317-0.875-0.758c-0.069-0.48,0.26-0.925,0.736-1
					c0.188-0.035,1.097-0.274,1.097-1.654c0-0.577-1.16-1.065-2.183-1.496c-1.417-0.596-3.023-1.272-3.023-2.826
					c0-2.494,3.774-4.269,4.205-4.463c0.446-0.201,0.968-0.003,1.169,0.442c0.201,0.445,0.003,0.969-0.441,1.17
					c-1.276,0.579-3.164,1.885-3.164,2.851c0,0.379,1.167,0.87,1.939,1.195c1.455,0.612,3.266,1.374,3.266,3.126
					c0,2.395-1.701,3.273-2.601,3.403C12.736,128.231,12.693,128.234,12.651,128.234z"/>
			</g>
			<g>
				<path fill="#FF5B34" d="M14.495,130.451h7.551c1.155,0,2.101,0.946,2.101,2.101c0,0.056-2.101,14.813-2.101,14.813
					c-0.394,2.193-2.066,4.098-4.202,4.098H7.188c-2.136,0-3.808-1.904-4.202-4.098c0,0-2.101-14.757-2.101-14.813
					c0-1.155,0.946-2.101,2.101-2.101H14.495"/>
				<path fill="#FF5B34" d="M17.844,152.347H7.188c-2.437,0-4.57-2.03-5.073-4.826C0,132.67,0,132.638,0,132.552
					c0-1.646,1.339-2.986,2.986-2.986h19.06c1.646,0,2.986,1.339,2.986,2.986c0,0.086,0,0.118-2.11,14.938
					C22.414,150.317,20.281,152.347,17.844,152.347z M1.771,132.502c0.11,0.813,1.403,9.904,2.091,14.738
					c0.288,1.602,1.556,3.337,3.326,3.337h10.656c1.771,0,3.038-1.736,3.332-3.369c0.683-4.803,1.976-13.893,2.086-14.706
					c-0.026-0.648-0.561-1.167-1.215-1.167H2.986C2.332,131.335,1.796,131.854,1.771,132.502z"/>
			</g>
			<g>
				<path fill="#FF5B34" d="M23.224,148.758c-0.511,0-0.985-0.068-1.421-0.141c-0.244-0.041-0.46-0.182-0.595-0.389
					c-0.135-0.207-0.178-0.461-0.117-0.701l0.041-0.151c0.016-0.056,0.033-0.111,0.043-0.168c0.087-0.48,0.549-0.798,1.028-0.713
					c0.286,0.052,0.515,0.236,0.635,0.477c0.128,0.011,0.257,0.017,0.385,0.017c3.736,0,6.776-3.04,6.776-6.776
					c0-3.406-2.566-6.282-5.97-6.69c-0.485-0.058-0.831-0.499-0.773-0.984c0.058-0.485,0.504-0.827,0.984-0.773
					c4.292,0.515,7.529,4.146,7.529,8.447C31.769,144.924,27.936,148.758,23.224,148.758z"/>
			</g>
			<g>
				<circle fill="#FF506A" cx="232.714" cy="271.392" r="19.685"/>
				<path fill="#FFFFFF" d="M235.526,273.667c-0.987-0.237-1.476-1.531-0.603-2.449c1.168-1.121,1.946-3.037,1.946-4.943
					c0-2.952-1.86-4.75-4.156-4.75c-2.295,0-4.156,1.798-4.156,4.75c0,1.9,0.773,3.81,1.936,4.933h-0.007
					c0.89,0.922,0.394,2.232-0.604,2.464c-3.863,0.746-6.668,2.881-6.668,4.479c0,1.968,4.254,2.375,9.5,2.375
					c5.247,0,9.5-0.407,9.5-2.375C242.213,276.548,239.4,274.41,235.526,273.667z"/>
			</g>
			<g>
				<circle fill="#FF7424" cx="71.882" cy="243.392" r="19.685"/>
				<path fill="#FFFFFF" d="M74.694,245.667c-0.987-0.237-1.476-1.531-0.603-2.449c1.168-1.121,1.946-3.037,1.946-4.943
					c0-2.952-1.86-4.75-4.156-4.75c-2.295,0-4.156,1.798-4.156,4.75c0,1.9,0.773,3.81,1.935,4.933h-0.007
					c0.89,0.922,0.394,2.232-0.604,2.464c-3.863,0.746-6.668,2.881-6.668,4.479c0,1.968,4.253,2.375,9.5,2.375
					c5.247,0,9.5-0.407,9.5-2.375C81.382,248.548,78.568,246.41,74.694,245.667z"/>
			</g>
			<path opacity="0.37" fill="#FF5B34" d="M24.95,131.884c-0.305-1.325-1.488-2.318-2.904-2.318h-9.53v22.781h5.328
				c2.063,0,3.898-1.464,4.724-3.627c0.212,0.021,0.429,0.038,0.656,0.038c4.712,0,8.545-3.833,8.545-8.545
				C31.769,136.153,28.883,132.692,24.95,131.884z M23.224,146.988c-0.077,0-0.153-0.006-0.229-0.01
				c1.183-8.31,1.679-11.808,1.887-13.292c2.97,0.748,5.118,3.412,5.118,6.526C30,143.949,26.96,146.988,23.224,146.988z"/>
			<g>
				<path fill="#FF505C" d="M308.344,169.998c-4.119,0-7.552,4.119-7.552,4.119s-3.432-4.119-7.552-4.119
					c-4.119,0-9.611,2.746-9.611,9.611c0,8.239,11.671,19.224,17.163,21.971c5.493-2.747,17.164-13.731,17.164-21.971
					C317.957,172.744,312.463,169.998,308.344,169.998z"/>
				<path opacity="0.32" fill="#FF505C" d="M317.957,179.609c0-6.865-5.493-9.611-9.612-9.611s-7.552,4.119-7.552,4.119v27.463
					C306.286,198.833,317.957,187.848,317.957,179.609z"/>
			</g>
			<g>
				
					<rect x="220.506" y="82.557" transform="matrix(0.9936 -0.1131 0.1131 0.9936 -8.622 26.7091)" fill="#6EC2EB" width="21.019" height="13.527"/>
				<polygon fill="#8BD8FC" points="240.692,81.412 242.216,94.803 233.091,89.06 				"/>
				<polygon fill="#ABE4FF" points="228.933,89.533 221.333,97.181 219.808,83.79 				"/>
				<polygon fill="#C9EEFF" points="240.692,81.412 231.202,90.96 219.808,83.79 				"/>
			</g>
			<path fill="#F29594" d="M118.866,60.208c-0.61-0.243-0.93-0.877-0.708-1.404c0.219-0.53,0.89-0.753,1.494-0.493
				c0.605,0.259,1.825,0.228,2.715-0.068l2.392-0.792c0.892-0.296,0.892-0.778,0-1.072l-2.392-0.795
				c-0.891-0.295-2.113-0.323-2.72-0.063c-0.606,0.26-1.281,0.04-1.501-0.49c-0.219-0.528,0.102-1.162,0.711-1.408
				c0.614-0.248,1.461-1.132,1.884-1.97l1.129-2.252c0.417-0.836,0.079-1.178-0.758-0.758l-2.255,1.131
				c-0.834,0.422-1.722,1.263-1.965,1.873c-0.243,0.61-0.875,0.927-1.408,0.708c-0.53-0.22-0.75-0.893-0.491-1.497
				c0.26-0.602,0.225-1.824-0.066-2.712l-0.792-2.395c-0.294-0.889-0.777-0.889-1.072,0l-0.792,2.395
				c-0.292,0.889-0.324,2.112-0.063,2.719c0.255,0.608,0.038,1.281-0.495,1.503c-0.528,0.219-1.161-0.103-1.406-0.714
				c-0.245-0.613-1.132-1.457-1.968-1.879l-2.253-1.131c-0.836-0.42-1.176-0.079-0.757,0.758l1.129,2.252
				c0.422,0.837,1.266,1.722,1.875,1.968c0.609,0.243,0.93,0.875,0.708,1.404c-0.219,0.528-0.89,0.752-1.494,0.493
				c-0.605-0.259-1.825-0.231-2.715,0.064l-2.392,0.795c-0.892,0.294-0.892,0.776,0,1.072l2.392,0.792
				c0.89,0.296,2.113,0.324,2.72,0.065c0.607-0.26,1.281-0.04,1.502,0.49c0.218,0.53-0.102,1.161-0.713,1.408
				c-0.613,0.247-1.46,1.134-1.882,1.968l-1.129,2.253c-0.419,0.836-0.079,1.178,0.757,0.759l2.253-1.132
				c0.836-0.422,1.724-1.262,1.967-1.872c0.243-0.613,0.875-0.929,1.408-0.71c0.53,0.219,0.75,0.894,0.491,1.496
				c-0.26,0.604-0.225,1.823,0.066,2.714l0.792,2.393c0.294,0.89,0.778,0.89,1.072,0l0.792-2.393
				c0.291-0.891,0.323-2.11,0.063-2.719c-0.256-0.608-0.036-1.283,0.494-1.503c0.528-0.22,1.162,0.103,1.406,0.716
				c0.245,0.613,1.132,1.456,1.967,1.878l2.255,1.132c0.836,0.419,1.175,0.077,0.758-0.759l-1.129-2.253
				C120.318,61.339,119.475,60.453,118.866,60.208z"/>
			<g>
				<g>
					
						<path fill="none" stroke="#4BA3CC" stroke-width="0.5" stroke-linecap="round" stroke-linejoin="round" stroke-dasharray="3,3" d="
						M249.792,255.557c50.55,9.349,53.185-24.694,52.117-42.96"/>
					<g>
						<circle fill="#4BA3CC" cx="249.887" cy="255.551" r="1.88"/>
					</g>
					<g>
						<polygon fill="#4BA3CC" points="300.199,214.102 302.004,213.214 303.897,213.898 301.806,209.617 						"/>
					</g>
				</g>
			</g>
			<g>
				<g>
					
						<path fill="none" stroke="#4BA3CC" stroke-width="0.5" stroke-linecap="round" stroke-linejoin="round" stroke-dasharray="3,3" d="
						M299.106,162.2c13.423-40.557-51.099-13.442-62.039-55.244"/>
					<g>
						<circle fill="#4BA3CC" cx="299.112" cy="162.104" r="1.88"/>
					</g>
					<g>
						<polygon fill="#4BA3CC" points="239.393,107.459 237.381,107.494 236.01,108.966 235.916,104.204 						"/>
					</g>
				</g>
			</g>
			<g>
				<g>
					
						<path fill="none" stroke="#4BA3CC" stroke-width="0.5" stroke-linecap="round" stroke-linejoin="round" stroke-dasharray="3,3" d="
						M138.675,47.142c14.968-6.329,48.091-5.746,74.581,25.473"/>
					<g>
						<circle fill="#4BA3CC" cx="138.771" cy="47.117" r="1.88"/>
					</g>
					<g>
						<polygon fill="#4BA3CC" points="210.894,72.802 212.809,72.188 213.697,70.382 215.164,74.915 						"/>
					</g>
				</g>
			</g>
			<g>
				<g>
					
						<path fill="none" stroke="#4BA3CC" stroke-width="0.5" stroke-linecap="round" stroke-linejoin="round" stroke-dasharray="3,3" d="
						M23.531,115.026c-8.151-26.919,31.133-69.565,65.194-59.466"/>
					<g>
						<circle fill="#4BA3CC" cx="23.53" cy="114.917" r="1.88"/>
					</g>
					<g>
						<polygon fill="#4BA3CC" points="87.944,53.385 88.133,55.387 86.824,56.914 91.567,56.477 						"/>
					</g>
				</g>
			</g>
			<g>
				<g>
					
						<path fill="none" stroke="#4BA3CC" stroke-width="0.6199" stroke-linecap="round" stroke-linejoin="round" stroke-dasharray="3.7191,3.7191" d="
						M60.135,217.713c3.251-53.179-41.665-21.792-48.025-44.208"/>
					<g>
						<circle fill="#4BA3CC" cx="60.107" cy="217.596" r="2.33"/>
					</g>
					<g>
						<polygon fill="#4BA3CC" points="10.291,175.644 12.349,174.236 14.792,174.739 11.467,169.857 						"/>
					</g>
				</g>
			</g>
		</g>
	</g>
</g>
</svg>
