<?xml version="1.0" encoding="utf-8"?>
<!-- Generator: Adobe Illustrator 16.0.0, SVG Export Plug-In . SVG Version: 6.00 Build 0)  -->
<!DOCTYPE svg PUBLIC "-//W3C//DTD SVG 1.1//EN" "http://www.w3.org/Graphics/SVG/1.1/DTD/svg11.dtd">
<svg version="1.1" id="Layer_2" xmlns="http://www.w3.org/2000/svg" xmlns:xlink="http://www.w3.org/1999/xlink" x="0px" y="0px"
	 width="270.025px" height="220.785px" viewBox="0 0 270.025 220.785" enable-background="new 0 0 270.025 220.785"
	 xml:space="preserve">
<g>
	<g>
		<g>
			<path fill="#65C8D0" d="M175.183,76.08c-1.031,0-1.869-0.837-1.869-1.87V1.869c0-1.033,0.838-1.869,1.869-1.869h38.812
				c0.496,0,0.971,0.197,1.321,0.547l18.699,18.698c0.351,0.351,0.547,0.827,0.547,1.323V74.21c0,1.033-0.838,1.87-1.869,1.87
				H175.183z"/>
			<polygon fill="#FFFFFF" points="232.692,74.21 175.184,74.21 175.184,1.87 213.995,1.87 232.692,20.567 			"/>
		</g>
		<polygon fill="#65C8D0" points="213.957,20.567 213.995,1.87 232.692,20.567 		"/>
		<polygon fill="#C8EFF2" points="232.692,20.567 232.654,39.264 213.957,20.567 		"/>
		
			<line fill="none" stroke="#04B1D9" stroke-width="1.8697" stroke-linecap="round" stroke-linejoin="round" stroke-miterlimit="10" x1="182.564" y1="30.924" x2="223.952" y2="30.924"/>
		
			<line fill="none" stroke="#04B1D9" stroke-width="1.8697" stroke-linecap="round" stroke-linejoin="round" stroke-miterlimit="10" x1="182.564" y1="12.153" x2="208.626" y2="12.153"/>
		
			<line fill="none" stroke="#04B1D9" stroke-width="1.8697" stroke-linecap="round" stroke-linejoin="round" stroke-miterlimit="10" x1="182.564" y1="17.554" x2="200.817" y2="17.554"/>
		
			<line fill="none" stroke="#ABD0D9" stroke-width="1.8697" stroke-linecap="round" stroke-linejoin="round" stroke-miterlimit="10" x1="182.564" y1="36.014" x2="223.952" y2="36.014"/>
		
			<line fill="none" stroke="#04B1D9" stroke-width="1.8697" stroke-linecap="round" stroke-linejoin="round" stroke-miterlimit="10" x1="182.564" y1="50.453" x2="223.952" y2="50.453"/>
		
			<line fill="none" stroke="#ABD0D9" stroke-width="1.8697" stroke-linecap="round" stroke-linejoin="round" stroke-miterlimit="10" x1="182.564" y1="55.76" x2="223.952" y2="55.76"/>
		
			<line fill="none" stroke="#ABD0D9" stroke-width="1.8697" stroke-linecap="round" stroke-linejoin="round" stroke-miterlimit="10" x1="182.564" y1="40.688" x2="223.952" y2="40.688"/>
		
			<line fill="none" stroke="#ABD0D9" stroke-width="1.8697" stroke-linecap="round" stroke-linejoin="round" stroke-miterlimit="10" x1="182.564" y1="60.435" x2="223.952" y2="60.435"/>
	</g>
	<g>
		<g>
			<path fill="#65C8D0" d="M166.595,84.667c-1.031,0-1.87-0.837-1.87-1.87V10.457c0-1.032,0.839-1.869,1.87-1.869h38.812
				c0.496,0,0.972,0.196,1.321,0.547l18.699,18.698c0.351,0.351,0.547,0.827,0.547,1.323v53.643c0,1.033-0.838,1.87-1.87,1.87
				H166.595z"/>
			<polygon fill="#FFFFFF" points="224.104,82.798 166.596,82.798 166.596,10.458 205.407,10.458 224.104,29.155 			"/>
		</g>
		<polygon fill="#65C8D0" points="205.369,29.155 205.407,10.458 224.104,29.155 		"/>
		<polygon fill="#C8EFF2" points="224.104,29.155 224.066,47.852 205.369,29.155 		"/>
		
			<line fill="none" stroke="#04B1D9" stroke-width="1.8697" stroke-linecap="round" stroke-linejoin="round" stroke-miterlimit="10" x1="173.976" y1="39.512" x2="215.364" y2="39.512"/>
		
			<line fill="none" stroke="#04B1D9" stroke-width="1.8697" stroke-linecap="round" stroke-linejoin="round" stroke-miterlimit="10" x1="173.976" y1="20.741" x2="200.039" y2="20.741"/>
		
			<line fill="none" stroke="#04B1D9" stroke-width="1.8697" stroke-linecap="round" stroke-linejoin="round" stroke-miterlimit="10" x1="173.976" y1="26.142" x2="192.229" y2="26.142"/>
		
			<line fill="none" stroke="#ABD0D9" stroke-width="1.8697" stroke-linecap="round" stroke-linejoin="round" stroke-miterlimit="10" x1="173.976" y1="44.602" x2="215.364" y2="44.602"/>
		
			<line fill="none" stroke="#04B1D9" stroke-width="1.8697" stroke-linecap="round" stroke-linejoin="round" stroke-miterlimit="10" x1="173.976" y1="59.041" x2="215.364" y2="59.041"/>
		
			<line fill="none" stroke="#ABD0D9" stroke-width="1.8697" stroke-linecap="round" stroke-linejoin="round" stroke-miterlimit="10" x1="173.976" y1="64.348" x2="215.364" y2="64.348"/>
		
			<line fill="none" stroke="#ABD0D9" stroke-width="1.8697" stroke-linecap="round" stroke-linejoin="round" stroke-miterlimit="10" x1="173.976" y1="49.276" x2="215.364" y2="49.276"/>
		
			<line fill="none" stroke="#ABD0D9" stroke-width="1.8697" stroke-linecap="round" stroke-linejoin="round" stroke-miterlimit="10" x1="173.976" y1="69.022" x2="215.364" y2="69.022"/>
	</g>
</g>
<path fill="#FFFFFF" d="M71.462,96.117"/>
<path fill="#9ECFDE" d="M0,30.88c0-3.718,2.634-8.281,5.854-10.141L35.704,3.503c3.22-1.859,8.489-1.859,11.709-0.001l29.865,17.238
	c3.22,1.858,5.855,6.421,5.855,10.14v34.479c0,3.718-2.635,8.281-5.855,10.14L47.413,92.737c-3.22,1.858-8.489,1.858-11.709-0.001
	L5.854,75.5C2.634,73.64,0,69.077,0,65.359V30.88z"/>
<g>
	<defs>
		<path id="SVGID_1_" d="M0,30.88c0-3.718,2.634-8.281,5.854-10.141L35.704,3.503c3.22-1.859,8.489-1.859,11.709-0.001
			l29.865,17.238c3.22,1.858,5.855,6.421,5.855,10.14v34.479c0,3.718-2.635,8.281-5.855,10.14L47.413,92.737
			c-3.22,1.858-8.489,1.858-11.709-0.001L5.854,75.5C2.634,73.64,0,69.077,0,65.359V30.88z"/>
	</defs>
	<clipPath id="SVGID_2_">
		<use xlink:href="#SVGID_1_"  overflow="visible"/>
	</clipPath>
	<g clip-path="url(#SVGID_2_)">
		<polygon fill="#E6BA87" points="41.419,53.256 41.419,53.256 45.752,52.061 49.261,58.05 58.061,62.138 49.144,68.301 
			41.419,67.033 		"/>
		<polygon fill="#E6BA87" points="41.419,53.256 41.419,53.256 37.086,52.061 33.577,58.05 24.777,62.138 33.694,68.301 
			41.419,67.033 		"/>
	</g>
	<path clip-path="url(#SVGID_2_)" fill="#421B1B" d="M47.271,58.352l-5.852-1.819V23.497l10.05,3.982
		c0.141,0.134,0.21,0.327,0.189,0.52L47.271,58.352z"/>
	<polygon clip-path="url(#SVGID_2_)" fill="#D6AF7E" points="49.024,50.521 49.799,57.99 59.026,63.597 65.119,65.323 
		68.141,72.356 70.486,85.058 41.419,96.204 41.419,55.075 	"/>
	<path clip-path="url(#SVGID_2_)" fill="#F2C084" d="M51.354,34.862l0.782,0.392l0.772,0.527l-0.497,4.558l-1.115,1.141
		l-0.954,0.554l0.276-0.576l-0.052-0.201l-0.008-0.284l0.232-5.297C50.866,35.307,51.354,34.862,51.354,34.862z"/>
	<path clip-path="url(#SVGID_2_)" fill="#571D1D" d="M52.908,37.732"/>
	<path clip-path="url(#SVGID_2_)" fill="#421B1B" d="M35.567,58.352l5.852-1.819V23.497l-10.05,3.982
		c-0.141,0.134-0.21,0.327-0.189,0.52L35.567,58.352z"/>
	<polygon clip-path="url(#SVGID_2_)" fill="#D6AF7E" points="33.814,50.521 33.039,57.99 23.812,63.597 17.719,65.323 
		14.697,72.356 12.352,85.058 41.419,96.204 41.419,55.075 	"/>
	<polygon clip-path="url(#SVGID_2_)" fill="#E0B076" points="41.419,46.335 33.729,45.478 33.814,50.521 35.893,58.05 
		41.419,61.725 46.945,58.05 49.024,50.521 49.108,45.478 	"/>
	<polygon clip-path="url(#SVGID_2_)" fill="#A1DFFF" points="50.391,56.749 43.498,58.357 41.419,59.563 41.419,96.204 
		73.193,96.204 65.591,74.845 63.926,69.182 58.438,61.446 	"/>
	<path clip-path="url(#SVGID_2_)" fill="#F2CDA1" d="M51.421,27.956l-3.334-6l-6.668-1.06l-6.668,1.06l-3.334,6
		c-0.059,0.106-0.086,0.227-0.078,0.348l0.515,11.14c0.003,0.04,0.01,0.08,0.02,0.119l1.619,6.984l4.282,4.418l3.644-0.046
		l3.644,0.046l4.282-4.418l1.619-6.984c0.01-0.039,0.017-0.079,0.02-0.119l0.515-11.14C51.507,28.182,51.48,28.062,51.421,27.956z"
		/>
	<g clip-path="url(#SVGID_2_)">
		<path fill="#F2C084" d="M51.43,28.76l-5.612-5.263l1.551,10.074l-4.194,1.001l-0.133,0.094l-0.033,1.937l5.277,0.122l1.454-0.859
			c0.21,0.143-0.192,1.485-0.244,1.734l-0.387,2.83c-0.011,0.052-1.84,4.787-1.864,4.835l-2.182,5.7l5.052-5.28l0.717-5.737
			c0.005-0.021,0.669-0.455,0.672-0.476l0.015-4.805C51.54,34.544,51.482,28.873,51.43,28.76z"/>
		<path fill="#F2C084" d="M34.552,36.725l5.277-0.122l-0.033-1.937l-0.133-0.094l-4.194-1.001l1.551-10.074l-5.612,5.263
			c-0.052,0.113-0.109,5.784-0.089,5.907l0.015,4.805c0.003,0.021,0.667,0.455,0.672,0.476l0.717,5.737l5.052,5.28l-2.182-5.7
			c-0.024-0.048-1.853-4.783-1.864-4.835l-0.387-2.83c-0.052-0.249-0.454-1.591-0.244-1.734L34.552,36.725z"/>
	</g>
	<g clip-path="url(#SVGID_2_)">
		<polygon fill="#A6AB87" points="43.23,36.92 43.23,36.358 48.056,35.961 48.04,36.215 45.244,37.575 44.903,37.471 		"/>
		<polygon fill="#008BB2" points="44.903,36.265 46.197,36.265 46.197,37.217 45.244,37.575 44.903,37.471 		"/>
		<polygon fill="#A6AB87" points="39.608,36.92 39.608,36.358 34.782,35.961 34.798,36.215 37.594,37.575 37.935,37.471 		"/>
		<polygon fill="#008BB2" points="37.935,36.265 36.641,36.265 36.641,37.217 37.594,37.575 37.935,37.471 		"/>
	</g>
	<polygon clip-path="url(#SVGID_2_)" fill="#F8D6BC" points="42.154,35.496 41.419,35.39 40.684,35.496 40.642,42.931 
		41.419,42.931 42.196,42.931 	"/>
	<polygon clip-path="url(#SVGID_2_)" fill="#D89344" points="44.046,44.915 41.419,44.588 38.792,44.915 38.7,45.298 40.065,45.298 
		41.419,45.298 42.773,45.298 44.138,45.298 	"/>
	<polygon clip-path="url(#SVGID_2_)" fill="#CFAF97" points="43.117,45.896 42.045,45.974 41.419,45.897 40.793,45.974 
		39.721,45.896 39.664,46.223 41.419,46.583 43.174,46.223 	"/>
	<path clip-path="url(#SVGID_2_)" fill="#F2C084" d="M31.484,34.862l-0.782,0.392L29.93,35.78l0.497,4.558l1.115,1.141l0.954,0.554
		l-0.276-0.576l0.052-0.201l0.008-0.284l-0.232-5.297C31.972,35.307,31.484,34.862,31.484,34.862z"/>
	<path clip-path="url(#SVGID_2_)" fill="#571D1D" d="M29.93,37.732"/>
	<polygon clip-path="url(#SVGID_2_)" fill="#A1DFFF" points="32.447,56.749 39.34,58.357 41.419,59.563 41.419,96.204 9.645,96.204 
		17.247,74.845 18.912,69.182 24.4,61.446 	"/>
	<g clip-path="url(#SVGID_2_)">
		<polygon fill="#5C4D4D" points="48.376,33.77 46.224,33.236 42.607,33.564 42.196,34.756 46.112,34.263 48.511,34.151 		"/>
		<polygon fill="#5C4D4D" points="36.614,33.236 34.461,33.77 34.327,34.151 36.726,34.263 40.642,34.756 40.23,33.564 		"/>
	</g>
	<polygon clip-path="url(#SVGID_2_)" fill="#1B1338" points="50.557,22.394 47.703,20.683 41.419,19.825 35.135,20.683 
		32.281,22.394 30.344,26.681 31.484,35.449 33.408,31.342 33.277,27.397 36.85,26.208 41.419,26.17 45.988,26.208 49.561,27.397 
		49.43,31.342 51.354,35.449 52.494,26.681 	"/>
	<g clip-path="url(#SVGID_2_)">
		<polygon fill="#CFECFF" points="41.419,55.833 41.419,63.192 50.557,56.749 49.211,52.327 		"/>
		<polygon fill="#CFECFF" points="41.419,55.833 41.419,63.192 32.281,56.749 33.626,52.327 		"/>
	</g>
	<polygon clip-path="url(#SVGID_2_)" fill="#1F3D5C" points="33.004,54.372 41.419,96.204 11,82.758 16.317,64.118 28.389,58.738 	
		"/>
	<polygon clip-path="url(#SVGID_2_)" fill="#1C3240" points="38.988,94.902 28.622,72.146 28.03,60.131 24.77,73.312 	"/>
	<g clip-path="url(#SVGID_2_)">
		<polygon fill="#65B1E3" points="44.188,61.24 41.784,55.726 41.419,55.833 45.261,77.801 		"/>
		<polygon fill="#65B1E3" points="38.65,61.24 37.577,77.801 41.419,55.833 41.054,55.726 		"/>
	</g>
	<polygon clip-path="url(#SVGID_2_)" fill="#BF4A20" points="42.353,61.352 43.352,60.391 43.379,59.358 42.233,56.749 
		41.419,56.749 40.604,56.749 39.459,59.358 39.486,60.391 40.485,61.352 37.466,78.426 41.419,96.204 45.372,78.426 	"/>
	<g clip-path="url(#SVGID_2_)">
		<polygon fill="#1F3D5C" points="49.833,54.372 41.419,96.204 71.838,82.758 66.521,64.118 54.449,58.738 		"/>
		<polygon fill="#1C3240" points="43.85,94.902 54.216,72.146 54.808,60.131 58.068,73.312 		"/>
	</g>
</g>
<g>
	<path fill="#043573" d="M200.33,169.784c0,2.75-2.25,5-5,5H50.314c-2.75,0-5-2.25-5-5V67.57c0-2.75,2.25-5,5-5H195.33
		c2.75,0,5,2.25,5,5V169.784z"/>
	<path fill="#174E96" d="M195.33,62.57H50.314c-2.75,0-5,2.25-5,5v3.31c0-2.75,2.25-5,5-5H195.33c2.75,0,5,2.25,5,5v-3.31
		C200.33,64.82,198.08,62.57,195.33,62.57z"/>
	<path fill="#210619" d="M193.076,170.672c0,2.493-2.04,4.532-4.532,4.532H57.101c-2.493,0-4.532-2.039-4.532-4.532V78.681
		c0-2.493,2.04-4.532,4.532-4.532h131.443c2.492,0,4.532,2.04,4.532,4.532V170.672z"/>
	<path fill="#0B1838" d="M193.076,164.672c0,2.493-2.04,4.532-4.532,4.532H57.101c-2.493,0-4.532-2.039-4.532-4.532V72.681
		c0-2.493,2.04-4.532,4.532-4.532h131.443c2.492,0,4.532,2.04,4.532,4.532V164.672z"/>
	<path fill="#210619" d="M193.076,114.309c0,2.492-2.04,4.532-4.532,4.532H57.101c-2.493,0-4.532-2.04-4.532-4.532V78.681
		c0-2.493,2.04-4.532,4.532-4.532h131.443c2.492,0,4.532,2.04,4.532,4.532V114.309z"/>
	<path fill="#102352" d="M193.076,108.309c0,2.492-2.04,4.532-4.532,4.532H57.101c-2.493,0-4.532-2.04-4.532-4.532V72.681
		c0-2.493,2.04-4.532,4.532-4.532h131.443c2.492,0,4.532,2.04,4.532,4.532V108.309z"/>
</g>
<g>
	<g>
		<circle fill="#F1F0F4" cx="228.807" cy="147.083" r="37.415"/>
		<path fill="#0668A4" d="M228.807,105.865c-22.764,0-41.218,18.454-41.218,41.218c0,22.764,18.454,41.217,41.218,41.217
			s41.218-18.453,41.218-41.217C270.025,124.319,251.571,105.865,228.807,105.865z M228.807,175.581
			c-15.739,0-28.498-12.759-28.498-28.497c0-15.739,12.759-28.499,28.498-28.499s28.498,12.759,28.498,28.499
			C257.305,162.822,244.546,175.581,228.807,175.581z"/>
		<path fill="#0668A4" d="M228.807,128.257c-10.397,0-18.826,8.429-18.826,18.826c0,10.396,8.429,18.825,18.826,18.825
			s18.826-8.429,18.826-18.825C247.633,136.686,239.205,128.257,228.807,128.257z M228.807,157.117
			c-5.541,0-10.033-4.492-10.033-10.033c0-5.542,4.492-10.034,10.033-10.034c5.542,0,10.034,4.492,10.034,10.034
			C238.841,152.625,234.349,157.117,228.807,157.117z"/>
	</g>
</g>
<g>
	<g>
		<g>
			<path fill="#57A4D0" d="M161.018,220.785c-0.942,0-1.706-0.764-1.706-1.706v-71.983c0-0.942,0.764-1.706,1.706-1.706h67.789
				c0.942,0,1.706,0.764,1.706,1.706v71.983c0,0.942-0.764,1.706-1.706,1.706H161.018z"/>
			<polygon fill="#FFFFFF" points="228.807,219.079 161.018,219.079 161.018,147.095 228.807,147.095 228.807,166.362 			"/>
		</g>
	</g>
	<g>
		<rect x="211.556" y="183.882" fill="#D98856" width="8.514" height="27.429"/>
		<rect x="197.053" y="188.151" fill="#59B198" width="8.515" height="23.16"/>
		<rect x="182.551" y="197.187" fill="#028787" width="8.514" height="14.124"/>
		<rect x="168.048" y="193.456" fill="#028787" width="8.515" height="17.855"/>
		<rect x="211.556" y="183.882" fill="#F89C62" width="4.257" height="25.722"/>
		<rect x="197.053" y="188.151" fill="#69D0B3" width="4.258" height="21.453"/>
		<rect x="182.551" y="197.187" fill="#03A6A6" width="4.257" height="12.417"/>
		<rect x="168.048" y="193.456" fill="#03A6A6" width="4.258" height="16.148"/>
	</g>
	<g>
		<g>
			<g>
				
					<line fill="none" stroke="#F89C62" stroke-width="0.8531" stroke-linecap="round" stroke-linejoin="round" x1="172.306" y1="186.219" x2="173.458" y2="185.665"/>
				
					<polyline fill="none" stroke="#F89C62" stroke-width="0.8531" stroke-linecap="round" stroke-linejoin="round" stroke-dasharray="2.5903,2.5903" points="
					175.793,184.542 186.808,179.249 201.311,176.452 228.807,147.095 				"/>
				
					<line fill="none" stroke="#F89C62" stroke-width="0.8531" stroke-linecap="round" stroke-linejoin="round" x1="214.925" y1="162.303" x2="215.813" y2="161.381"/>
			</g>
		</g>
		<circle fill="#FFFFFF" stroke="#F89C62" stroke-width="0.8531" stroke-miterlimit="10" cx="215.813" cy="161.381" r="2.597"/>
		<circle fill="#FFFFFF" stroke="#ED1C24" stroke-width="2.6724" stroke-miterlimit="10" cx="228.807" cy="147.095" r="4.067"/>
		<circle fill="#FFFFFF" stroke="#F89C62" stroke-width="0.8531" stroke-miterlimit="10" cx="201.311" cy="176.452" r="2.597"/>
		<circle fill="#FFFFFF" stroke="#F89C62" stroke-width="0.8531" stroke-miterlimit="10" cx="186.808" cy="179.249" r="2.597"/>
		<circle fill="#FFFFFF" stroke="#F89C62" stroke-width="0.8531" stroke-miterlimit="10" cx="172.306" cy="186.219" r="2.597"/>
	</g>
	
		<line fill="none" stroke="#04B1D9" stroke-width="1.7062" stroke-linecap="round" stroke-linejoin="round" stroke-miterlimit="10" x1="168.954" y1="156.479" x2="192.736" y2="156.479"/>
	
		<line fill="none" stroke="#7AC7D9" stroke-width="1.7062" stroke-linecap="round" stroke-linejoin="round" stroke-miterlimit="10" x1="168.954" y1="161.408" x2="185.892" y2="161.408"/>
	
		<line fill="none" stroke="#7AC7D9" stroke-width="1.7062" stroke-linecap="round" stroke-linejoin="round" stroke-miterlimit="10" x1="168.954" y1="166.526" x2="177.423" y2="166.526"/>
</g>
<g>
	<path fill="#768D60" d="M14.346,195.214l15.273-9.067c-0.119-0.271-0.227-0.544-0.331-0.817l-17.352,3.938
		C12.544,191.29,13.346,193.28,14.346,195.214z"/>
	<path fill="#E1673F" d="M28.287,181.291c-0.701-5.875,1.682-11.861,6.548-15.609l-9.068-15.272
		c-11.593,7.84-17.077,21.624-14.787,34.81L28.287,181.291z"/>
	<path fill="#F89C62" d="M38.412,163.557c7.826-3.45,17.171-0.604,21.647,6.935c4.28,7.21,2.662,16.274-3.412,21.618l10.841,14.019
		c13.05-10.741,16.679-29.685,7.783-44.668c-9.467-15.945-29.663-21.58-45.926-13.176L38.412,163.557z"/>
	<path fill="#03A662" d="M36.701,194.078c-1.882-1.09-3.572-2.554-4.959-4.354l-15.272,9.068c3.577,5.288,8.388,9.308,13.818,11.896
		L36.701,194.078z"/>
	<path fill="#69D0B3" d="M53.202,194.455c-4.04,2.1-8.565,2.44-12.669,1.25l-6.387,16.541c9.296,3.141,19.854,2.366,28.953-3.036
		c0.347-0.206,0.682-0.425,1.019-0.641L53.202,194.455z"/>
</g>
<circle fill="#FF9900" cx="45.314" cy="179.249" r="12.64"/>
<rect x="105.858" y="108.207" fill="#4BA3CC" width="33.928" height="16.47"/>
<rect x="108.239" y="108.207" fill="#ABE4FF" width="29.166" height="14.158"/>
<rect x="130.235" y="108.207" fill="#005780" width="2.771" height="16.47"/>
<rect x="108.322" y="110.07" opacity="0.8" fill="#FCFBFF" width="29" height="2.771"/>
<g>
	<path fill="#174E96" d="M148.189,64.462c-1.21,0-2.374-0.669-2.95-1.826l-6.419-12.893h-31.997l-6.419,12.893
		c-0.81,1.627-2.789,2.29-4.415,1.48c-1.628-0.811-2.29-2.787-1.48-4.415l7.328-14.718c0.556-1.118,1.698-1.825,2.947-1.825h36.074
		c1.249,0,2.391,0.707,2.947,1.825l7.327,14.718c0.811,1.627,0.148,3.604-1.479,4.415C149.183,64.352,148.681,64.462,148.189,64.462
		z"/>
</g>
<g>
	<path fill="#0B1838" d="M146.239,64.462c-1.116,0-2.191-0.618-2.723-1.686l-5.926-11.901h-29.537l-5.926,11.901
		c-0.748,1.502-2.574,2.114-4.075,1.366c-1.502-0.748-2.114-2.573-1.366-4.075l6.765-13.586c0.513-1.032,1.567-1.685,2.721-1.685
		h33.301c1.153,0,2.207,0.653,2.721,1.685l6.765,13.586c0.748,1.502,0.137,3.327-1.366,4.075
		C147.157,64.36,146.694,64.462,146.239,64.462z"/>
</g>
<ellipse fill="#BEDEE8" cx="68.064" cy="14.407" rx="13.312" ry="10.333"/>
<g>
	<g>
		
			<path fill="none" stroke="#4BA3CC" stroke-width="0.5731" stroke-linecap="round" stroke-linejoin="round" stroke-dasharray="3.4386,3.4386" d="
			M68.064,14.407c54.758-0.392,42.519,79.818,92.96,24.542"/>
		<g>
			<circle fill="#4BA3CC" cx="68.064" cy="14.407" r="2.155"/>
		</g>
		<g>
			<polygon fill="#4BA3CC" points="159.614,43.108 158.958,40.897 156.913,39.834 162.143,38.269 			"/>
		</g>
	</g>
</g>
<g>
	<g>
		
			<path fill="none" stroke="#4BA3CC" stroke-width="0.5" stroke-linecap="round" stroke-linejoin="round" stroke-dasharray="3,3" d="
			M218.25,76.401c30.562,30.215-13.321,35.512-5.085,52.407"/>
		<g>
			<circle fill="#4BA3CC" cx="218.296" cy="76.486" r="1.88"/>
		</g>
		<g>
			<polygon fill="#4BA3CC" points="210.921,128.501 212.916,128.241 214.114,126.625 214.742,131.347 			"/>
		</g>
	</g>
</g>
<g>
	<g>
		
			<path fill="none" stroke="#F0C4AD" stroke-width="0.8293" stroke-linecap="round" stroke-linejoin="round" stroke-dasharray="4.9761,4.9761" d="
			M45.192,178.726c29.291,41.937,34.967,54.312,102.435,17.028"/>
		<g>
			<circle fill="#F0C4AD" cx="45.318" cy="178.833" r="3.118"/>
		</g>
		<g>
			<polygon fill="#F0C4AD" points="144.236,193.769 146.652,196.071 146.672,199.408 152.137,193.702 			"/>
		</g>
	</g>
</g>
<g>
	<g>
		
			<path fill="none" stroke="#4BA3CC" stroke-width="0.5" stroke-linecap="round" stroke-linejoin="round" stroke-dasharray="3,3" d="
			M19.876,146.356c35.58-23.646-2.793-34.156,0.711-53.961"/>
		<g>
			<circle fill="#4BA3CC" cx="19.94" cy="146.284" r="1.88"/>
		</g>
		<g>
			<polygon fill="#4BA3CC" points="22.108,94.225 20.504,93.012 18.517,93.325 21.379,89.518 			"/>
		</g>
	</g>
</g>
<g>
	<g>
		
			<line fill="none" stroke="#ABE4FF" stroke-linecap="round" stroke-linejoin="round" stroke-miterlimit="10" x1="108.322" y1="192.244" x2="105.322" y2="195.244"/>
		
			<line fill="none" stroke="#ABE4FF" stroke-linecap="round" stroke-linejoin="round" stroke-miterlimit="10" x1="105.322" y1="189.244" x2="108.322" y2="192.244"/>
	</g>
	<path fill="none" stroke="#ABE4FF" stroke-linecap="round" stroke-linejoin="round" stroke-miterlimit="10" d="M90.322,201.244
		c6.259,0,9-4.5,9-4.5s2.741-4.5,9-4.5"/>
	<g>
		
			<line fill="none" stroke="#ABE4FF" stroke-linecap="round" stroke-linejoin="round" stroke-miterlimit="10" x1="108.322" y1="201.244" x2="105.322" y2="198.244"/>
		
			<line fill="none" stroke="#ABE4FF" stroke-linecap="round" stroke-linejoin="round" stroke-miterlimit="10" x1="105.322" y1="204.244" x2="108.322" y2="201.244"/>
	</g>
	<path fill="none" stroke="#ABE4FF" stroke-linecap="round" stroke-linejoin="round" stroke-miterlimit="10" d="M99.823,197.417
		c1.046,1.256,3.768,3.827,8.499,3.827"/>
	<path fill="none" stroke="#ABE4FF" stroke-linecap="round" stroke-linejoin="round" stroke-miterlimit="10" d="M90.322,192.244
		c4.688,0,7.402,2.524,8.47,3.792"/>
</g>
<g>
	<path fill="none" stroke="#7AC2E6" stroke-linecap="round" stroke-linejoin="round" stroke-miterlimit="10" d="M139.994,27.389
		c-0.26-0.045-0.538-0.286-0.616-0.538c0,0-0.014-0.042-0.115-0.288c-0.103-0.246-0.122-0.285-0.122-0.285
		c-0.123-0.233-0.096-0.601,0.056-0.816l1.18-1.658c0.151-0.214,0.136-0.554-0.039-0.753l-1.226-1.227
		c-0.201-0.171-0.542-0.188-0.756-0.035l-1.658,1.177c-0.214,0.153-0.584,0.183-0.821,0.068l-0.569-0.233
		c-0.249-0.088-0.489-0.373-0.533-0.632l-0.339-2.004c-0.045-0.262-0.298-0.49-0.561-0.51h-1.734
		c-0.265,0.019-0.515,0.247-0.56,0.507l-0.34,2.005c-0.044,0.259-0.286,0.539-0.539,0.617c0,0-0.04,0.013-0.285,0.115
		c-0.246,0.102-0.284,0.121-0.284,0.121c-0.233,0.123-0.603,0.097-0.816-0.055l-1.658-1.178c-0.217-0.152-0.555-0.137-0.753,0.036
		l-1.229,1.228c-0.17,0.2-0.188,0.54-0.034,0.757l1.178,1.656c0.151,0.214,0.185,0.585,0.069,0.825l-0.236,0.566
		c-0.087,0.248-0.371,0.491-0.631,0.533l-2.004,0.34c-0.26,0.043-0.489,0.295-0.51,0.559v1.734c0.019,0.265,0.248,0.516,0.506,0.56
		l2.007,0.338c0.259,0.045,0.537,0.287,0.616,0.538c0,0,0.013,0.042,0.114,0.288c0.102,0.246,0.123,0.285,0.123,0.285
		c0.121,0.234,0.096,0.601-0.056,0.816l-1.18,1.658c-0.151,0.214-0.136,0.553,0.038,0.753l1.227,1.227
		c0.201,0.171,0.542,0.188,0.756,0.035l1.658-1.177c0.214-0.153,0.586-0.183,0.822-0.069l0.567,0.234
		c0.251,0.088,0.49,0.373,0.534,0.632l0.339,2.004c0.045,0.262,0.297,0.49,0.559,0.511l1.738-0.001
		c0.263-0.018,0.513-0.246,0.558-0.507l0.34-2.006c0.044-0.258,0.286-0.538,0.538-0.616c0,0,0.041-0.013,0.286-0.115
		c0.246-0.102,0.283-0.121,0.283-0.121c0.234-0.123,0.604-0.097,0.817,0.055l1.658,1.178c0.216,0.153,0.555,0.137,0.754-0.037
		l1.228-1.227c0.171-0.201,0.188-0.54,0.035-0.757l-1.178-1.656c-0.152-0.214-0.183-0.586-0.069-0.824l0.237-0.567
		c0.087-0.249,0.369-0.49,0.629-0.533l2.005-0.34c0.26-0.043,0.488-0.295,0.51-0.559v-1.734c-0.019-0.265-0.247-0.516-0.506-0.56
		L139.994,27.389z"/>
	
		<circle fill="none" stroke="#7AC2E6" stroke-linecap="round" stroke-linejoin="round" stroke-miterlimit="10" cx="133.006" cy="29.155" r="4.4"/>
</g>
<polygon fill="#FFFFFF" stroke="#ABE4FF" stroke-linecap="round" stroke-linejoin="round" stroke-miterlimit="10" points="
	179.677,30.567 168.723,30.567 163.677,35.717 163.677,30.567 160.677,30.567 160.677,16.567 179.677,16.567 "/>
<path fill="none" stroke="#7AC2E6" stroke-linecap="round" stroke-linejoin="round" stroke-miterlimit="10" d="M13.241,127.559
	c-0.049-0.035-0.136-0.029-0.194,0.013c-0.058,0.041-5.038,3.601-5.038,3.601c-0.664,0.475-1.004,0.226-0.758-0.551
	c0,0,1.845-5.833,1.867-5.903c0.023-0.07-0.001-0.157-0.053-0.195s-4.994-4.022-4.994-4.022c-0.655-0.483-0.524-0.885,0.29-0.892
	c0,0,6.067,0.001,6.158,0c0.091,0,0.193-0.083,0.227-0.183c0.033-0.1,1.939-5.529,1.939-5.529c0.258-0.775,0.68-0.775,0.938,0
	c0,0,1.938,5.522,1.959,5.589c0.022,0.067,0.105,0.123,0.183,0.123s6.182,0.001,6.182,0.001c0.814,0.006,0.945,0.407,0.289,0.891
	c0,0-4.938,3.981-4.991,4.021c-0.052,0.039-0.076,0.128-0.054,0.2c0.022,0.071,1.866,5.899,1.866,5.899
	c0.246,0.777-0.095,1.025-0.758,0.551C18.297,131.172,13.29,127.594,13.241,127.559z"/>
<polygon fill="#174E96" points="143.806,44.984 151.133,59.702 143.71,59.567 138.82,49.744 "/>
<polyline fill="#0B1838" points="137.406,50.875 142.193,46.481 148.958,60.068 143.516,62.777 137.59,50.875 "/>
</svg>
