<?xml version="1.0" encoding="utf-8"?>
<!-- Generator: Adobe Illustrator 16.0.0, SVG Export Plug-In . SVG Version: 6.00 Build 0)  -->
<!DOCTYPE svg PUBLIC "-//W3C//DTD SVG 1.1//EN" "http://www.w3.org/Graphics/SVG/1.1/DTD/svg11.dtd">
<svg version="1.1" id="Layer_2" xmlns="http://www.w3.org/2000/svg" xmlns:xlink="http://www.w3.org/1999/xlink" x="0px" y="0px"
	 width="274.102px" height="249.637px" viewBox="0 0 274.102 249.637" enable-background="new 0 0 274.102 249.637"
	 xml:space="preserve">
<circle fill="#FF506A" cx="19.685" cy="114.244" r="19.685"/>
<path fill="#FFFFFF" d="M208.811,83.202c0,0-12.117-8.656-68.843-8.656c-56.725,0-68.843,8.656-68.843,8.656
	c-1.139,0.812-2.062,2.61-2.062,4.006c0,0,0,48.113,0,68.373c0,40.518,68.704,79.777,68.704,79.777c1.211,0.692,3.191,0.692,4.402,0
	c0,0,68.704-39.261,68.704-79.777c0-20.26,0-68.373,0-68.373C210.873,85.813,209.948,84.013,208.811,83.202z"/>
<path fill="#F23041" d="M198.15,155.515c0,33.247-56.377,65.463-56.377,65.463c-0.994,0.567-2.618,0.567-3.611,0
	c0,0-56.376-32.217-56.376-65.463c0-16.624,0-56.104,0-56.104c0-1.146,0.759-2.622,1.691-3.287c0,0,9.943-7.104,56.49-7.104
	s56.49,7.104,56.49,7.104c0.934,0.666,1.691,2.143,1.691,3.287C198.15,99.41,198.15,138.891,198.15,155.515z"/>
<path fill="#005780" d="M220.554,70.918c0,0-14.185-10.132-80.586-10.132S59.382,70.918,59.382,70.918
	c-1.332,0.95-2.414,3.057-2.414,4.688c0,0,0,56.321,0,80.036c0,47.428,80.423,93.387,80.423,93.387c1.418,0.811,3.735,0.811,5.153,0
	c0,0,80.424-45.959,80.424-93.387c0-23.714,0-80.036,0-80.036C222.968,73.975,221.885,71.868,220.554,70.918z M208.074,155.566
	c0,38.918-65.992,76.63-65.992,76.63c-1.164,0.664-3.065,0.664-4.229,0c0,0-65.993-37.712-65.993-76.63c0-19.459,0-65.674,0-65.674
	c0-1.339,0.89-3.067,1.981-3.848c0,0,11.64-8.314,66.126-8.314s66.126,8.314,66.126,8.314c1.093,0.778,1.98,2.508,1.98,3.848
	C208.074,89.892,208.074,136.107,208.074,155.566z"/>
<g>
	
		<circle fill="none" stroke="#FFFFFF" stroke-width="6.25" stroke-linecap="round" stroke-linejoin="round" stroke-miterlimit="10" cx="115.07" cy="180.846" r="3.125"/>
	
		<circle fill="none" stroke="#FFFFFF" stroke-width="6.25" stroke-linecap="round" stroke-linejoin="round" stroke-miterlimit="10" cx="164.866" cy="180.846" r="3.125"/>
	
		<line fill="none" stroke="#FFFFFF" stroke-width="6.25" stroke-linecap="round" stroke-linejoin="round" stroke-miterlimit="10" x1="121.877" y1="171.307" x2="158.52" y2="171.307"/>
	
		<line fill="none" stroke="#FFFFFF" stroke-width="6.25" stroke-linecap="round" stroke-linejoin="round" stroke-miterlimit="10" x1="121.877" y1="171.307" x2="94.584" y2="105.024"/>
	
		<polyline fill="none" stroke="#FFFFFF" stroke-width="6.25" stroke-linecap="round" stroke-linejoin="round" stroke-miterlimit="10" points="
		103.199,120.62 176.597,120.62 170.097,141.815 127.826,151.436 	"/>
	
		<polyline fill="none" stroke="#FFFFFF" stroke-width="6.25" stroke-linecap="round" stroke-linejoin="round" stroke-miterlimit="10" points="
		101.262,120.62 94.584,105.024 81.786,105.024 	"/>
</g>
<g>
	<path fill="none" stroke="#7AC2E6" stroke-linecap="round" stroke-linejoin="round" stroke-miterlimit="10" d="M110.656,33.381
		c0.203-0.548-0.075-1.158-0.623-1.362l-7.388-2.751c-0.548-0.204-1.158,0.075-1.361,0.623L95.74,44.774
		c-0.204,0.548,0.074,1.158,0.622,1.362l7.388,2.751c0.548,0.204,1.158-0.075,1.361-0.623L110.656,33.381z"/>
	
		<line fill="none" stroke="#7AC2E6" stroke-linecap="round" stroke-linejoin="round" stroke-miterlimit="10" x1="96.538" y1="44.066" x2="104.972" y2="47.208"/>
	
		<line fill="none" stroke="#7AC2E6" stroke-linecap="round" stroke-linejoin="round" stroke-miterlimit="10" x1="101.425" y1="30.947" x2="109.859" y2="34.088"/>
</g>
<g>
	<path fill="none" stroke="#7AC2E6" stroke-linecap="round" stroke-linejoin="round" stroke-miterlimit="10" d="M187.352,36.465
		l-4.769-1.125c-0.321-0.076-0.745,0.545-0.821,0.866l-0.275,1.168c-0.075,0.32,0.087,0.81,0.407,0.885l0.292,0.069
		c0.321,0.075,0.607,0.325,0.611,0.655l0.135,7.305c0.004,0.33,0.308,0.508,0.628,0.584l9.344,2.206
		c0.321,0.075,0.682,0.011,0.832-0.283l3.392-6.489c0.15-0.293,0.505-0.333,0.826-0.257l0.292,0.069
		c0.321,0.075,0.685-0.289,0.761-0.609l0.275-1.168c0.075-0.321-0.025-1.066-0.348-1.142l-4.769-1.126"/>
	
		<line fill="none" stroke="#7AC2E6" stroke-linecap="round" stroke-linejoin="round" stroke-miterlimit="10" x1="184.912" y1="44.623" x2="186.062" y2="39.756"/>
	
		<line fill="none" stroke="#7AC2E6" stroke-linecap="round" stroke-linejoin="round" stroke-miterlimit="10" x1="186.859" y1="45.082" x2="188.008" y2="40.216"/>
	
		<line fill="none" stroke="#7AC2E6" stroke-linecap="round" stroke-linejoin="round" stroke-miterlimit="10" x1="188.806" y1="45.542" x2="189.954" y2="40.675"/>
	
		<line fill="none" stroke="#7AC2E6" stroke-linecap="round" stroke-linejoin="round" stroke-miterlimit="10" x1="190.752" y1="46.001" x2="191.9" y2="41.135"/>
	
		<line fill="none" stroke="#7AC2E6" stroke-linecap="round" stroke-linejoin="round" stroke-miterlimit="10" x1="188.697" y1="37.296" x2="190.075" y2="31.457"/>
	
		<line fill="none" stroke="#7AC2E6" stroke-linecap="round" stroke-linejoin="round" stroke-miterlimit="10" x1="192.59" y1="38.215" x2="193.968" y2="32.375"/>
	
		<line fill="none" stroke="#7AC2E6" stroke-linecap="round" stroke-linejoin="round" stroke-miterlimit="10" x1="192.698" y1="46.46" x2="193.847" y2="41.594"/>
</g>
<g>
	<polyline fill="#F25A58" points="222.825,27.307 222.825,33.367 219.487,30.623 216.15,33.367 216.15,27.307 	"/>
	<polygon fill="#ABE4FF" points="219.487,12.23 221.273,14.245 223.795,13.422 224.366,16.09 226.948,16.68 226.151,19.285 
		228.103,21.13 226.151,22.975 226.948,25.58 224.366,26.17 223.795,28.837 221.273,28.015 219.487,30.03 217.702,28.015 
		215.181,28.837 214.609,26.17 212.027,25.58 212.823,22.975 210.873,21.13 212.823,19.285 212.027,16.68 214.609,16.09 
		215.181,13.422 217.702,14.245 	"/>
	<circle fill="#C2EBFF" cx="219.487" cy="21.062" r="5.562"/>
</g>
<g>
	<path fill="none" stroke="#7AC2E6" stroke-linecap="round" stroke-linejoin="round" stroke-miterlimit="10" d="M30.41,37.894
		c-0.667,0-1.214,0.546-1.214,1.213v3.798c0,0.667,0.387,1.6,0.858,2.071l5.562,5.562c0.472,0.473,1.243,0.473,1.716,0l4.509-4.51
		c0.472-0.473,0.472-1.244,0-1.717l-5.563-5.562c-0.472-0.473-1.402-0.858-2.069-0.858h-1.482"/>
	
		<circle fill="none" stroke="#7AC2E6" stroke-linecap="round" stroke-linejoin="round" stroke-miterlimit="10" cx="31.72" cy="40.307" r="0.867"/>
	<path fill="none" stroke="#7AC2E6" stroke-linecap="round" stroke-linejoin="round" stroke-miterlimit="10" d="M27.464,42.427
		c-2.356,0-4.268-1.91-4.268-4.267s1.911-4.267,4.268-4.267c2.355,0,4.267,1.91,4.267,4.267"/>
</g>
<path fill="none" stroke="#7AC2E6" stroke-linecap="round" stroke-linejoin="round" stroke-miterlimit="10" d="M245.309,57.703
	c0.447-0.943,0.364-3.011-1.615-3.95c-2.14-1.016-3.737,0.768-4.05,1.423c-0.233,0.495-0.372,0.989-0.312,1.656
	c0.103,1.135,1.084,1.771,0.806,2.356l-0.27,0.57l-9.321,0.782c-0.921,0.08-1.467,0.893-1.568,1.512
	c-0.1,0.601,0.147,1.461,1.109,1.917l0.002,0.001c0,0,12.405,5.886,13.656,6.48c1.077,0.511,1.848,0.154,2.25-0.303
	c0.415-0.471,0.81-1.303,0.218-2.208l-5.228-7.657"/>
<g>
	<path fill="#F1595C" d="M258.664,95.415c0,0-1.562,0.06-4.917,0.614c-1.646,0.272-3.15,1.34-4.533,2.708
		c-5.527,5.465-6.382,16.445-1.916,24.516c3.008,5.438,7.662,8.176,12.072,7.712c2.14-0.225,4.65-0.506,4.65-0.506
		C269.56,124.99,263.137,103.488,258.664,95.415z"/>
	<path fill="#C2EFFF" d="M259.062,96.173c0,0-1.478,0.057-4.648,0.582c-1.557,0.258-2.979,1.266-4.286,2.56
		c-5.227,5.167-6.033,15.55-1.812,23.18c2.845,5.142,7.245,7.729,11.414,7.292c2.023-0.212,4.398-0.479,4.398-0.479
		C269.363,124.135,263.29,103.806,259.062,96.173z"/>
	<path fill="#F1595C" d="M271.234,103.061c-4.47-8.082-12.571-10.193-18.103-4.722c-5.527,5.465-6.382,16.445-1.916,24.516
		c4.467,8.076,12.566,10.197,18.102,4.722C274.856,122.106,275.707,111.134,271.234,103.061z"/>
	<path fill="#C2EFFF" d="M269.684,104.668c-3.705-6.7-10.421-8.451-15.006-3.915c-4.582,4.53-5.29,13.632-1.589,20.322
		c3.704,6.694,10.417,8.452,15.007,3.914C272.687,120.456,273.392,111.36,269.684,104.668z"/>
	<g>
		<path fill="#FBFBFB" d="M265.178,124.442c-0.086,0-0.172-0.005-0.258-0.017c-0.648-0.084-1.214-0.48-1.517-1.059
			c-0.812,0.527-1.631,0.887-2.373,1.024c-0.121,0.022-0.244,0.034-0.365,0.034c-0.412,0-0.817-0.127-1.158-0.37
			c-0.441-0.312-0.737-0.792-0.818-1.328l-0.303-1.978c-0.158-1.031,0.503-2.01,1.519-2.25c0.542-0.127,1.396-0.565,2.168-1.411
			c0.765-0.846,0.948-1.691,0.896-2.138c-0.186,0.057-0.467,0.166-0.876,0.371c-1.583,0.821-2.797,1.192-3.915,1.192
			c-1.667,0-3.039-0.878-3.861-2.473c-1.118-2.168-0.909-5.065,0.489-7.647l-0.62-1.192c-0.387-0.744-0.269-1.65,0.296-2.271
			l1.191-1.308c0.382-0.418,0.92-0.653,1.479-0.653c0.087,0,0.174,0.005,0.26,0.017c0.634,0.083,1.188,0.464,1.494,1.021
			c0.508-0.309,1.027-0.553,1.566-0.735c0.209-0.07,0.426-0.105,0.643-0.105c0.366,0,0.729,0.101,1.05,0.298
			c0.508,0.312,0.849,0.836,0.931,1.426l0.275,1.977c0.134,0.957-0.437,1.872-1.354,2.175c-0.425,0.141-1.066,0.353-1.93,1.298
			c-0.496,0.544-0.686,1.016-0.74,1.35c0.241-0.095,0.571-0.238,1.021-0.456c1.375-0.688,2.515-1.014,3.562-1.014
			c1.23,0,2.938,0.466,4.084,2.687c1.184,2.292,0.956,5.336-0.532,8.026l0.659,1.271c0.383,0.739,0.269,1.64-0.29,2.259
			l-1.187,1.316C266.282,124.205,265.74,124.442,265.178,124.442z"/>
		<path fill="#F1595C" d="M265.182,118.841l1.184,2.284l-1.188,1.316l-1.139-2.217c-1.108,1.186-2.431,2.025-3.374,2.2l-0.304-1.979
			c0.915-0.216,2.131-0.853,3.187-2.009c1.342-1.483,1.779-3.387,1.137-4.628c-0.626-1.211-1.748-1.149-3.491-0.272
			c-2.381,1.234-4.107,1.51-5.1-0.411c-0.937-1.815-0.543-4.431,1.009-6.648l-1.143-2.198l1.19-1.308l1.107,2.131
			c1.133-1.175,2.097-1.678,2.854-1.935l0.275,1.975c-0.529,0.175-1.566,0.52-2.78,1.851c-1.455,1.596-1.479,3.216-1.016,4.116
			c0.584,1.12,1.579,0.925,3.646-0.074c2.426-1.214,3.99-1.165,4.998,0.789C267.143,113.582,266.946,116.351,265.182,118.841z"/>
	</g>
	
		<rect x="248.119" y="100.066" transform="matrix(-0.9874 0.1579 -0.1579 -0.9874 514.3043 160.1291)" fill="#F1595C" width="5.342" height="0.866"/>
	
		<rect x="250.484" y="97.356" transform="matrix(-0.9875 0.1577 -0.1577 -0.9875 518.5662 154.4242)" fill="#F1595C" width="5.343" height="0.866"/>
	
		<rect x="245.793" y="103.966" transform="matrix(-0.9875 0.1579 -0.1579 -0.9875 510.2973 168.2558)" fill="#F1595C" width="5.343" height="0.866"/>
	
		<rect x="244.981" y="110.415" transform="matrix(-0.9875 0.1579 -0.1579 -0.9875 509.7026 181.1995)" fill="#F1595C" width="5.343" height="0.866"/>
	
		<rect x="245.59" y="116.859" transform="matrix(-0.9875 0.1579 -0.1579 -0.9875 511.9282 193.9198)" fill="#F1595C" width="5.344" height="0.867"/>
	
		<rect x="248.356" y="123.524" transform="matrix(-0.9875 0.1579 -0.1579 -0.9875 518.4794 206.7219)" fill="#F1595C" width="5.343" height="0.867"/>
	
		<rect x="251.114" y="126.644" transform="matrix(-0.9874 0.1579 -0.1579 -0.9874 524.4546 212.4798)" fill="#F1595C" width="5.342" height="0.867"/>
	
		<rect x="253.326" y="128.362" transform="matrix(-0.9875 0.1579 -0.1579 -0.9875 529.1214 215.5522)" fill="#F1595C" width="5.343" height="0.867"/>
</g>
<path fill="none" stroke="#ABE4FF" stroke-width="0.7519" stroke-miterlimit="10" d="M21.836,154.005
	c0.938-4.537,2.458-4.484,3.208-8.106l0.458-2.212c0.428-2.065-0.113-2.345-0.877-3.146c-1.346-1.414-5.009-3.21-8.05-4.334
	c-0.209-0.078-0.738,0.362-0.617-0.222c0.137-0.661,1.175-8.423,1-8.823c-0.263-0.597-2.083-0.854-2.475-0.621
	c-0.94,0.562-2.354,7.926-2.419,8.235c0,0-0.062,0.308-0.357,1.729c-0.396,1.911-0.262,2.712-0.262,2.712
	c-0.159-0.573-0.214-1.79-1.212-2.665c-1.082-0.948-1.946-1.469-3.617-0.45l-0.221,0.182c-0.228,0.187,0.036,0.683,0.531,1.256
	c1.688,1.954,1.828,5.094,2.438,7.248c0.493,1.749,0.278,2.419,0.663,6.771l0,0"/>
<path fill="#ABE4FF" d="M78.299,17.199v2.965v1.481h-2.965c0,0-1.482,0-1.482,1.482c0,1.481,1.482,1.481,1.482,1.481h2.965v1.482
	v7.412H60.51c0,0-1.482,0-1.482-0.741s1.482-0.741,1.482-0.741l0,0h16.307V26.05l-1.482,0.042c-1.438,0-2.965-1.04-2.965-2.965
	s1.526-2.965,2.965-2.965h1.482v-5.931H60.51c-2.965,0-4.447,0.972-4.447,2.965c0,0,0,14.567,0,15.565
	c0,0.995,1.482,2.224,4.447,2.224s19.272,0,19.272,0v-8.49c0-0.004,0-0.126,0-0.404c0-0.683,0-2.083,0-2.965v-5.931h-1.483V17.199z
	 M65.183,23.828c-1.888-0.69-3.139-1.578-3.139-3.247c0-1.562,1.088-2.777,2.921-3.104v-1.76h1.487v1.669
	c1.144,0.038,1.924,0.327,2.504,0.618l-0.491,1.669c-0.436-0.219-1.233-0.636-2.467-0.636c-1.271,0-1.727,0.652-1.727,1.271
	c0,0.742,0.656,1.178,2.215,1.777c2.033,0.762,2.922,1.742,2.922,3.374c0,1.543-1.071,2.886-3.05,3.212v1.869h-1.506v-1.759
	c-1.142-0.038-2.286-0.363-2.938-0.78l0.488-1.726c0.728,0.437,1.724,0.799,2.83,0.799c1.161,0,1.941-0.562,1.941-1.415
	C67.178,24.827,66.543,24.319,65.183,23.828z"/>
<g>
	<path fill="#F25A58" d="M160.195,11.311c0.187-0.923-0.411-1.821-1.335-2.007l-28.409-5.72c-0.924-0.187-1.822,0.412-2.008,1.335
		l-3.7,18.383c-0.187,0.923,0.411,1.822,1.335,2.008l28.41,5.719c0.924,0.187,1.821-0.411,2.009-1.335L160.195,11.311z"/>
	
		<line fill="none" stroke="#F2D795" stroke-width="1.0919" stroke-linecap="round" stroke-linejoin="round" stroke-miterlimit="10" x1="129.698" y1="20.278" x2="133.04" y2="20.951"/>
	
		<line fill="none" stroke="#73263A" stroke-width="1.0919" stroke-linecap="round" stroke-linejoin="round" stroke-miterlimit="10" x1="131.743" y1="7.598" x2="135.085" y2="8.271"/>
	
		<line fill="none" stroke="#F2D795" stroke-width="1.0919" stroke-linecap="round" stroke-linejoin="round" stroke-miterlimit="10" x1="136.383" y1="21.624" x2="139.725" y2="22.296"/>
	
		<line fill="none" stroke="#F2D795" stroke-width="1.0919" stroke-linecap="round" stroke-linejoin="round" stroke-miterlimit="10" x1="149.752" y1="24.315" x2="153.095" y2="24.988"/>
	
		<line fill="none" stroke="#F2D795" stroke-width="1.0919" stroke-linecap="round" stroke-linejoin="round" stroke-miterlimit="10" x1="143.067" y1="22.969" x2="146.41" y2="23.642"/>
	<g>
		
			<rect x="132.509" y="12.911" transform="matrix(0.9803 0.1976 -0.1976 0.9803 5.3029 -25.9651)" fill="#F2D795" width="0.509" height="1.359"/>
		
			<rect x="131.835" y="16.29" transform="matrix(-0.9804 -0.1969 0.1969 -0.9804 258.2024 59.6143)" fill="#F2D795" width="0.461" height="1.359"/>
		<path fill="#F2D795" d="M133.227,14.414c0.146,0.08,0.25,0.211,0.294,0.368l1.474-0.061l0.028-0.143
			c0.13-0.649-0.293-1.287-0.941-1.417l-0.578-0.116L133.227,14.414z"/>
		<polygon fill="#F2D795" points="134.921,15.085 133.523,15.142 133.388,15.814 134.646,16.454 		"/>
		<path fill="#F2D795" d="M133.015,15.847l0.171-0.851c0.028-0.139-0.062-0.272-0.199-0.301l-0.851-0.171
			c-0.138-0.027-0.272,0.062-0.3,0.199l-0.171,0.852c-0.028,0.138,0.062,0.271,0.198,0.3l0.852,0.171
			C132.853,16.073,132.987,15.984,133.015,15.847z"/>
		<path fill="#F2D795" d="M133.262,16.153c-0.111,0.154-0.29,0.24-0.483,0.245l-0.272,1.358l0.625,0.126
			c0.648,0.131,1.287-0.293,1.417-0.942l0.023-0.121L133.262,16.153z"/>
		<path fill="#F2D795" d="M131.624,16.156c-0.139-0.076-0.236-0.197-0.285-0.345l-1.487,0.061l-0.023,0.118
			c-0.132,0.648,0.293,1.286,0.941,1.417l0.578,0.115L131.624,16.156z"/>
		<path fill="#F2D795" d="M131.572,14.442c0.102-0.154,0.267-0.25,0.451-0.27l0.275-1.368l-0.578-0.117
			c-0.649-0.13-1.287,0.293-1.417,0.942l-0.031,0.15L131.572,14.442z"/>
		<polygon fill="#F2D795" points="130.199,14.147 129.925,15.51 131.322,15.453 131.457,14.786 		"/>
	</g>
</g>
<g>
	
		<line fill="none" stroke="#FFFFFF" stroke-width="0.6594" stroke-linecap="round" stroke-linejoin="round" stroke-miterlimit="10" x1="8.134" y1="106.991" x2="8.134" y2="120.179"/>
	
		<line fill="none" stroke="#FFFFFF" stroke-width="0.7913" stroke-linecap="round" stroke-linejoin="round" stroke-miterlimit="10" x1="18.685" y1="106.991" x2="18.685" y2="120.179"/>
	
		<line fill="none" stroke="#FFFFFF" stroke-width="0.6594" stroke-linecap="round" stroke-linejoin="round" stroke-miterlimit="10" x1="31.874" y1="106.991" x2="31.874" y2="120.179"/>
	
		<line fill="none" stroke="#FFFFFF" stroke-width="0.7913" stroke-linecap="round" stroke-linejoin="round" stroke-miterlimit="10" x1="10.772" y1="106.991" x2="10.772" y2="117.542"/>
	
		<line fill="none" stroke="#FFFFFF" stroke-width="0.3957" stroke-linecap="round" stroke-linejoin="round" stroke-miterlimit="10" x1="13.41" y1="106.991" x2="13.41" y2="117.542"/>
	
		<line fill="none" stroke="#FFFFFF" stroke-width="0.6594" stroke-linecap="round" stroke-linejoin="round" stroke-miterlimit="10" x1="16.047" y1="106.991" x2="16.047" y2="117.542"/>
	
		<line fill="none" stroke="#FFFFFF" stroke-width="0.7913" stroke-linecap="round" stroke-linejoin="round" stroke-miterlimit="10" x1="21.323" y1="106.991" x2="21.323" y2="117.542"/>
	
		<line fill="none" stroke="#FFFFFF" stroke-width="0.3957" stroke-linecap="round" stroke-linejoin="round" stroke-miterlimit="10" x1="23.96" y1="106.991" x2="23.96" y2="117.542"/>
	
		<line fill="none" stroke="#FFFFFF" stroke-width="0.6594" stroke-linecap="round" stroke-linejoin="round" stroke-miterlimit="10" x1="26.598" y1="106.991" x2="26.598" y2="117.542"/>
	
		<line fill="none" stroke="#FFFFFF" stroke-width="0.3957" stroke-linecap="round" stroke-linejoin="round" stroke-miterlimit="10" x1="29.236" y1="106.991" x2="29.236" y2="117.542"/>
	
		<line fill="none" stroke="#FFFFFF" stroke-width="0.6594" stroke-linecap="round" stroke-linejoin="round" stroke-miterlimit="10" x1="10.772" y1="122.025" x2="10.772" y2="122.157"/>
	
		<line fill="none" stroke="#FFFFFF" stroke-width="0.6594" stroke-linecap="round" stroke-linejoin="round" stroke-miterlimit="10" x1="13.41" y1="122.025" x2="13.41" y2="122.157"/>
	
		<line fill="none" stroke="#FFFFFF" stroke-width="0.6594" stroke-linecap="round" stroke-linejoin="round" stroke-miterlimit="10" x1="16.047" y1="122.025" x2="16.047" y2="122.157"/>
	
		<line fill="none" stroke="#FFFFFF" stroke-width="0.6594" stroke-linecap="round" stroke-linejoin="round" stroke-miterlimit="10" x1="21.323" y1="122.025" x2="21.323" y2="122.157"/>
	
		<line fill="none" stroke="#FFFFFF" stroke-width="0.6594" stroke-linecap="round" stroke-linejoin="round" stroke-miterlimit="10" x1="23.96" y1="122.025" x2="23.96" y2="122.157"/>
	
		<line fill="none" stroke="#FFFFFF" stroke-width="0.6594" stroke-linecap="round" stroke-linejoin="round" stroke-miterlimit="10" x1="26.598" y1="122.025" x2="26.598" y2="122.157"/>
	
		<line fill="none" stroke="#FFFFFF" stroke-width="0.6594" stroke-linecap="round" stroke-linejoin="round" stroke-miterlimit="10" x1="29.236" y1="122.025" x2="29.236" y2="122.157"/>
</g>
<g>
	<g>
		<path fill="none" stroke="#ABE4FF" stroke-linecap="round" stroke-linejoin="round" stroke-dasharray="3,5" d="M23.299,82.762
			c0.58-5.862,2.093-14.574,14.142-19.08c5.79-2.166,11.463-4.924,15.938-9.188c3.789-3.612,6.729-8.21,8.06-13.252"/>
		<g>
			<circle fill="#ABE4FF" cx="23.34" cy="82.61" r="3.045"/>
		</g>
		<g>
			<polygon fill="#ABE4FF" points="62.561,47.745 61.562,47.805 61.165,41.267 57.266,46.531 56.463,45.936 61.997,38.464 			"/>
		</g>
	</g>
</g>
<g>
	<g>
		<path fill="none" stroke="#ABE4FF" stroke-linecap="round" stroke-linejoin="round" stroke-dasharray="3,5" d="M78.576,5.182
			c10.4-6.479,24.742-6.263,34.797,0.832c2.788,1.967,5.227,4.37,7.575,6.854"/>
		<g>
			<circle fill="#ABE4FF" cx="78.713" cy="5.119" r="3.045"/>
		</g>
		<g>
			<polygon fill="#ABE4FF" points="114.509,10.883 114.946,9.983 120.841,12.838 118.16,6.861 119.072,6.452 122.878,14.935 			"/>
		</g>
	</g>
</g>
<g>
	<g>
		<path fill="none" stroke="#ABE4FF" stroke-linecap="round" stroke-linejoin="round" stroke-dasharray="3,5" d="M169.751,22.21
			c4.121,3.551,10.393,4.34,16.014,4.072c5.673-0.271,11.311-1.279,16.726-2.988"/>
		<g>
			<circle fill="#ABE4FF" cx="169.878" cy="22.299" r="3.045"/>
		</g>
		<g>
			<polygon fill="#ABE4FF" points="197.691,27.915 197.097,27.11 202.363,23.215 195.825,22.813 195.887,21.816 205.166,22.386 			
				"/>
		</g>
	</g>
</g>
<g>
	<g>
		<path fill="none" stroke="#ABE4FF" stroke-linecap="round" stroke-linejoin="round" stroke-dasharray="3,5" d="M236.693,26.285
			c4.929-0.591,10.105,1.29,14.053,4.415c4.712,3.729,7.932,9.014,10.604,14.396c6.91,13.919,2.808,29.324,2.445,44.854"/>
		<g>
			<circle fill="#ABE4FF" cx="236.852" cy="26.305" r="3.045"/>
		</g>
		<g>
			<polygon fill="#ABE4FF" points="260.865,83.948 261.814,83.636 263.863,89.857 266.293,83.774 267.222,84.145 263.773,92.779 			
				"/>
		</g>
	</g>
</g>
</svg>
