<?xml version="1.0" encoding="utf-8"?>
<!-- Generator: Adobe Illustrator 16.0.0, SVG Export Plug-In . SVG Version: 6.00 Build 0)  -->
<!DOCTYPE svg PUBLIC "-//W3C//DTD SVG 1.1//EN" "http://www.w3.org/Graphics/SVG/1.1/DTD/svg11.dtd">
<svg version="1.1" id="Layer_2" xmlns="http://www.w3.org/2000/svg" xmlns:xlink="http://www.w3.org/1999/xlink" x="0px" y="0px"
	 width="296.308px" height="309.89px" viewBox="0 0 296.308 309.89" enable-background="new 0 0 296.308 309.89"
	 xml:space="preserve">
<g>
	<g>
		<path fill="#ABE4FF" d="M221.374,286.47V14.503c0-10.27-50.646-13.799-78.579-13.799c-27.933,0-78.579,3.529-78.579,13.799V286.47
			c0,10.268,49.034,18.678,78.287,18.678S221.374,296.738,221.374,286.47z"/>
		<ellipse fill="#D9F3FF" cx="142.795" cy="282.75" rx="11.596" ry="5.832"/>
		
			<line fill="none" stroke="#04B1D9" stroke-width="1.9516" stroke-linecap="round" stroke-linejoin="round" stroke-miterlimit="10" x1="131.199" y1="24.297" x2="154.392" y2="24.297"/>
		<rect x="77.006" y="48.859" fill="#FFFFFF" width="130.993" height="214.873"/>
		<path opacity="0.5" fill="#ABE4FF" d="M142.795,0.705L142.795,0.705v304.439c29.289-0.055,78.578-8.439,78.578-18.674V14.503
			C221.373,4.233,170.729,0.705,142.795,0.705z"/>
		<circle fill="#04B1D9" cx="179.181" cy="15.25" r="2.903"/>
	</g>
	
		<circle fill="none" stroke="#ABE4FF" stroke-width="1.9516" stroke-linecap="round" stroke-linejoin="round" stroke-miterlimit="10" stroke-dasharray="7.8062,9.7578" cx="143.274" cy="156.295" r="142.299"/>
	<circle fill="#F25A58" cx="272.507" cy="220.849" r="23.801"/>
	<path fill="#FFC5C4" stroke="#FFFFFF" stroke-width="10.4463" stroke-miterlimit="10" d="M43.223,215.589
		c0.11,0,0.231-0.018,0.353-0.033l45.037-14.504c3.461,0.738,10.977,1.377,15.127,1.377c0.628,0,1.229,0.018,1.852,0.018
		c30.754,0,53.958-20.18,53.958-46.949c0-25.982-26.582-47.121-59.249-47.121c-32.666,0-59.248,21.138-59.248,47.121
		c0,9.781,3.72,19.121,10.762,27.072l-10.26,30.611c-0.243,0.6-0.138,1.283,0.28,1.77C42.176,215.369,42.693,215.589,43.223,215.589
		L43.223,215.589z"/>
	
		<line fill="none" stroke="#F25A58" stroke-width="8.7576" stroke-linecap="round" stroke-linejoin="round" stroke-miterlimit="10" x1="67.197" y1="141.076" x2="106.612" y2="141.076"/>
	
		<line fill="none" stroke="#F25A58" stroke-width="8.7576" stroke-linecap="round" stroke-linejoin="round" stroke-miterlimit="10" x1="96.816" y1="157.398" x2="140.837" y2="157.398"/>
	
		<line fill="none" stroke="#F25A58" stroke-width="8.7576" stroke-linecap="round" stroke-linejoin="round" stroke-miterlimit="10" x1="66.504" y1="157.398" x2="83.972" y2="157.398"/>
	
		<line fill="none" stroke="#F25A58" stroke-width="8.7576" stroke-linecap="round" stroke-linejoin="round" stroke-miterlimit="10" x1="66.504" y1="173.945" x2="83.972" y2="173.945"/>
	<g>
		<rect x="7.498" y="68.685" fill="#2596CC" width="47.835" height="30.785"/>
		<polygon fill="#007DB8" points="55.333,68.685 31.415,49.536 7.498,68.685 		"/>
		<g>
			<g>
				<path fill="#65C8D0" d="M15.834,93.198c-0.551,0-0.997-0.446-0.997-0.997V53.625c0-0.551,0.446-0.997,0.997-0.997h30.667
					c0.551,0,0.997,0.446,0.997,0.997v38.576c0,0.551-0.446,0.997-0.997,0.997H15.834z"/>
				<rect x="15.834" y="53.625" fill="#FFFFFF" width="30.667" height="38.576"/>
			</g>
			
				<line fill="none" stroke="#04B1D9" stroke-width="0.997" stroke-linecap="round" stroke-linejoin="round" stroke-miterlimit="10" x1="19.966" y1="69.119" x2="41.84" y2="69.119"/>
			
				<line fill="none" stroke="#04B1D9" stroke-width="0.997" stroke-linecap="round" stroke-linejoin="round" stroke-miterlimit="10" x1="19.771" y1="59.109" x2="33.668" y2="59.109"/>
			
				<line fill="none" stroke="#04B1D9" stroke-width="0.997" stroke-linecap="round" stroke-linejoin="round" stroke-miterlimit="10" x1="19.771" y1="61.989" x2="29.503" y2="61.989"/>
			
				<line fill="none" stroke="#ABD0D9" stroke-width="0.997" stroke-linecap="round" stroke-linejoin="round" stroke-miterlimit="10" x1="19.966" y1="71.833" x2="41.84" y2="71.833"/>
			
				<line fill="none" stroke="#04B1D9" stroke-width="0.997" stroke-linecap="round" stroke-linejoin="round" stroke-miterlimit="10" x1="19.966" y1="79.532" x2="41.84" y2="79.532"/>
			
				<line fill="none" stroke="#ABD0D9" stroke-width="0.997" stroke-linecap="round" stroke-linejoin="round" stroke-miterlimit="10" x1="19.966" y1="82.363" x2="41.84" y2="82.363"/>
			
				<line fill="none" stroke="#ABD0D9" stroke-width="0.997" stroke-linecap="round" stroke-linejoin="round" stroke-miterlimit="10" x1="19.966" y1="74.326" x2="41.84" y2="74.326"/>
			
				<line fill="none" stroke="#ABD0D9" stroke-width="0.997" stroke-linecap="round" stroke-linejoin="round" stroke-miterlimit="10" x1="19.966" y1="84.855" x2="41.84" y2="84.855"/>
		</g>
		<polygon fill="#C8EFF2" points="15.834,73.005 15.834,92.201 46.501,92.201 46.501,73.402 36.177,81.667 36.179,81.668 
			31.415,77.855 26.652,81.668 26.653,81.667 		"/>
		<polygon fill="#007DB8" points="55.333,99.47 55.333,68.796 36.177,84.133 		"/>
		<polygon fill="#ABE4FF" points="26.653,84.133 7.498,68.796 7.498,99.47 		"/>
		<polygon fill="#4BA3CC" points="55.333,99.47 31.415,80.321 7.498,99.47 		"/>
	</g>
	<path fill="#FFFFFF" d="M259.121,233.3c1.53,0,25.146,0,26.618,0c1.473,0,1.965-0.809,1.822-1.889
		c-0.22-1.67-0.888-3.988-2.864-4.959c-3.252-1.596-5.169-1.795-5.924-2.525c-0.755-0.732-1.742-0.732-1.742-0.732
		s-0.175-1.596,0.058-1.861c0.233-0.264,0.987-1.928,0.93-2.658c-0.059-0.73,0.696,0.266,0.929-0.797
		c0.233-1.064,0.871-2.393,0.756-3.258c-0.116-0.865-0.522-0.797-0.522-0.797s0.232-3.191,0.116-3.391s0.696-0.533,0.465-0.932
		c-0.233-0.398-0.814-1.33-0.756-1.596s0.116-0.73-0.232-1.129s0.116-0.467-0.755-0.666s-1.685-0.199-1.626-0.531
		c0.058-0.334,0.812-0.666,0.58-0.666c-0.231,0-1.685-0.465-1.975-0.529c-0.29-0.068-1.968,0.064-2.465,0
		c-0.497-0.068-0.671-0.105-0.903-0.02c-0.232,0.084-0.581-0.385-0.987-0.051c-0.407,0.336-0.232,0.867-0.697,0.801
		s-1.51,0.199-1.51,0.199l-0.522,0.465l0.696,0.398c0,0-0.755,0.332-1.104,1.861s-0.755,1.596-0.581,2.66
		c0.175,1.062,0.29,1.662,0.29,1.994s-0.755,0.465-0.639,1.131c0.116,0.664,0.349,3.057,0.756,3.654
		c0.406,0.598,0.755,0.266,0.755,0.266s0.059,1.197,0.406,1.861c0.349,0.666,0.407,1.064,0.407,1.465
		c0,0.396,0.057,1.395-0.349,1.793c-0.406,0.4-0.712,0.191-1.408,0.457c-0.697,0.266-2.31,1.605-4.052,2.137
		s-4.065,0.664-4.937,2.525c-0.461,0.984-0.646,2.412-0.717,3.541C257.374,232.531,257.59,233.3,259.121,233.3z"/>
	<g>
		<circle fill="#4BA3CC" cx="31.416" cy="228.289" r="23.8"/>
		<path fill="#FFFFFF" d="M18.985,241.919H43.95c0,0,2.158,0.023,1.743-1.986c-0.312-1.512-1.056-3.492-3.001-4.402
			c-3.379-1.58-4.841-1.635-5.626-2.359c-0.784-0.725-1.253-1.262-1.253-1.262s0.182-1.186,0.422-1.447
			c0.242-0.266,1.026-1.912,0.966-2.637c-0.06-0.723,2.053,0.924,1.508-0.32c-0.429-0.98-0.058-3.768-0.179-4.623
			c-0.119-0.857-0.241-3.418-0.363-3.615c-0.119-0.197,0.726-0.529,0.483-0.924c-0.241-0.395-0.845-1.316-0.784-1.58
			c0.06-0.264,0.12-0.725-0.242-1.117c-0.361-0.396-2.296-1.91-3.2-2.107c-0.905-0.197-1.992-0.727-3.285-0.264
			c-3.233,1.15-3.927,3.342-4.259,4.873c-0.228,1.043-0.483,2.305-0.483,2.633c0,0.33-0.125,2.172-0.242,2.832
			c-0.302,1.713-0.801,2.346-1.268,2.898c-0.468,0.555-0.683,0.557-0.444,0.752c0.471,0.383,1.773,0.238,1.773,0.238
			s-0.483,1.248-1.51,1.773c-0.637,0.328,3.319-1.383,1.329,1.451c-0.221,0.312,1.87-0.264,0.966,0.855
			c-0.367,0.455-0.483,0.789-1.208,1.053c-0.724,0.264-1.67,0.988-3.48,1.514c-1.812,0.527-3.569,0.66-4.475,2.504
			c-0.497,1.012-0.752,2.494-0.753,3.633C17.083,242.265,18.985,241.919,18.985,241.919z"/>
	</g>
	<path fill="#ABE4FF" stroke="#FFFFFF" stroke-width="12.4126" stroke-miterlimit="10" d="M254.149,201.976
		c-0.131,0-0.275-0.02-0.419-0.039l-53.514-17.232c-4.112,0.877-13.043,1.637-17.974,1.637c-0.746,0-1.46,0.02-2.2,0.02
		c-36.543,0-64.115-23.979-64.115-55.787c0-30.872,31.586-55.989,70.401-55.989c38.814,0,70.4,25.117,70.4,55.989
		c0,11.623-4.42,22.721-12.787,32.168l12.191,36.372c0.288,0.715,0.163,1.525-0.334,2.102
		C255.394,201.714,254.778,201.976,254.149,201.976L254.149,201.976z"/>
	
		<line fill="none" stroke="#4BA3CC" stroke-width="8.8661" stroke-linecap="round" stroke-linejoin="round" stroke-miterlimit="10" x1="153.642" y1="105.717" x2="193.546" y2="105.717"/>
	
		<line fill="none" stroke="#4BA3CC" stroke-width="8.8661" stroke-linecap="round" stroke-linejoin="round" stroke-miterlimit="10" x1="153.642" y1="153.872" x2="170.624" y2="153.872"/>
	
		<line fill="none" stroke="#4BA3CC" stroke-width="8.8661" stroke-linecap="round" stroke-linejoin="round" stroke-miterlimit="10" x1="183.629" y1="122.242" x2="228.195" y2="122.242"/>
	
		<line fill="none" stroke="#4BA3CC" stroke-width="8.8661" stroke-linecap="round" stroke-linejoin="round" stroke-miterlimit="10" x1="152.94" y1="122.242" x2="170.624" y2="122.242"/>
	
		<line fill="none" stroke="#4BA3CC" stroke-width="8.8661" stroke-linecap="round" stroke-linejoin="round" stroke-miterlimit="10" x1="153.642" y1="138.281" x2="178.62" y2="138.281"/>
	
		<line fill="none" stroke="#4BA3CC" stroke-width="8.8661" stroke-linecap="round" stroke-linejoin="round" stroke-miterlimit="10" x1="189.813" y1="138.281" x2="214.792" y2="138.281"/>
	<path fill="#FF505C" d="M200.828,151.516c-2.336,0-4.282,2.336-4.282,2.336s-1.946-2.336-4.282-2.336s-5.45,1.557-5.45,5.451
		c0,4.672,6.618,10.9,9.732,12.457c3.114-1.557,9.732-7.785,9.732-12.457C206.278,153.073,203.164,151.516,200.828,151.516z"/>
	<g>
		<path fill="#4BA3CC" d="M189.813,265.384c-12.29,0-22.253,9.961-22.253,22.252c0,12.293,9.963,22.254,22.253,22.254
			s22.253-9.961,22.253-22.254C212.066,275.345,202.104,265.384,189.813,265.384z"/>
		<path fill="#FFFFFF" d="M193.309,300.824c-0.823,0.828-1.648,1.488-1.648,2.643c0,0.328-0.494,0.492-0.66,0.822
			c-0.823,0.494-2.144,0.162-2.639,1.318c-0.328,0.658-1.315,0.988-2.143,0.826c-0.328,0,0.166,0.494,0,0.494
			c-0.493,0-0.987,0-1.481,0.164c-0.33,0.164-0.167,0.328,0,0.496c-0.662,0-1.317-0.168-1.979-0.496c0-0.164,0-0.332-0.166-0.496
			c-0.161,0-0.329,0-0.329,0c-0.492-1.318-0.328-2.801-0.987-4.121c-0.328-0.822-1.482-0.986-1.814-1.65
			c-0.66-1.15-1.648-1.975-1.812-3.295c0.163,0,0.327,0,0.327-0.162c0-0.33-0.493-0.494-0.327-0.828
			c0.327-0.326,0.822-0.656,0.986-0.986c0.496-0.658,0.165-1.812-0.491-2.145l-0.332,0.332c-0.66-0.332-0.988-0.988-1.319-1.486
			c0.165,0,0.331-0.162,0.331-0.162c-0.495-0.826-1.155-1.32-1.814-1.977v-0.496c-0.164-0.164-0.493-0.496-0.823-0.66
			c-0.824-0.328-1.154-1.486-1.154-2.309c0-1.154,0.166-2.471-0.164-3.627c-0.165,0-0.165,0.166-0.165,0.332
			c-0.166-1.322,0.495-2.475,0.659-3.627c0.164-0.66,0.496-1.65,1.154-2.307c0.658-0.498,0.99-1.154,1.812-1.32
			c0.164-0.164,0.329-0.494,0.329-0.662c0-0.164-0.329-0.164-0.165-0.326c1.319-1.154,2.639-2.473,3.3-3.959
			c0.163-0.162-0.332-0.326-0.498-0.66c0.992,0,1.485-1.152,2.476-0.656c0.328-0.66,0.987-0.496,1.482-0.496
			c0.166,0,0.166,0.33,0.166,0.496c-1.156,0.496-0.988,1.814-0.661,2.803c0.328-0.332,0.988-0.66,0.661-1.318
			c0.327,0,0.655,0.164,0.823-0.168c0.164,0.332-0.496,0.66,0,0.99c-0.168,0.164-0.168,0.66-0.329,0.824
			c-0.331,0.168-0.991-0.328-0.827,0.168c0,0.326,0.496,0.984,0.988,0.492c0.168-0.166,0.168-0.66,0.495-0.66
			c0.331,0.168-0.327,0.66-0.163,0.99c0.33,0.494,0.494,0,0.824,0c0.036-0.012,0.054-0.025,0.078-0.037
			c0.03-0.041,0.056-0.094,0.088-0.125c0.002,0,0.003,0,0.005-0.002c-0.048-0.109-0.335-0.221-0.335-0.332
			c0.164-0.326,0.492-0.658,0.823-0.658c0.328,0.164,0.494,0.332,0.494,0.824c0,0.168,0.166,0.168,0.328,0.168
			c0.333,0.324,0,0.656,0,0.986c0.168,0.168,0.661,0.33,0.661,0.656c0,0.168-0.328,0.168-0.493,0.168c0-0.168,0-0.332-0.168-0.332
			c-0.162,0-0.328,0-0.328,0.164c0,0.334,0.328,0.498,0.166,0.828c0-0.166-0.166-0.166-0.332-0.166
			c-0.493-0.164,0.166,0.328-0.161,0.328c-0.498-0.162-0.332-0.99-0.99-0.99c0.492,0.168,0.99-0.326,0.99-0.656
			c0.16-0.33,0-1.312-0.655-0.988c0.019,0.043-0.005,0.086-0.093,0.127c-0.128,0.174-0.242,0.398-0.242,0.531
			c-0.166,0.498-0.824-0.166-0.992,0.33c0,0.33,0.168,0.492,0.332,0.656c-0.332,0-0.66-0.326-0.824-0.488
			c-0.824-0.168-1.483,0.324-1.978,0.986c-0.329,0.658,0.166,1.484,0.826,1.811c0.161,0.17-0.168,0.496-0.332,0.826
			c0,0.164-0.164,0.66,0.164,0.66c0.823-0.166,0.99-0.99,1.483-1.65c0.328-0.33,0.328-0.988,0.823-1.482
			c0.167,0,0.497,0.166,0.661,0.328c0.166,0.332,0,0.658,0,0.992c0.166,0.496,0.659,0.162,0.987-0.168
			c0.166,0.494,0.166,0.824,0.166,1.32c0.166,0.328,0.661,0.494,0.823,0.986c0.105,0.314,0.059,0.512-0.033,0.66h0.033
			c-0.063,0.064-0.106,0.129-0.16,0.193c0,0.156,0.007,0.312,0.16,0.467c0.166,0,0.166,0,0.333,0
			c-0.167,0.328,0.328,0.494,0.161,0.826c-0.328-0.498-0.989-0.164-1.317-0.498c0.264-0.264,0.439-0.529,0.663-0.795
			c0-0.008-0.002-0.018-0.002-0.025c0.047-0.049,0.091-0.105,0.129-0.168h-2.273c-0.164,0-0.331,0.168-0.331,0.332
			c0,0.166,0.331,0.166,0.497,0.166c0.164,0.33-0.33,0.49-0.166,0.824c0.163,0.162,0.327,0.477,0.645,0.486
			c0.126-0.078,0.245-0.172,0.345-0.322c-0.165,0.164-0.165,0.326-0.331,0.326c-0.005,0-0.008-0.004-0.014-0.004
			c-0.288,0.178-0.629,0.221-0.976,0.336c0-0.166,0-0.332-0.163-0.332c-0.332-0.162-0.824,0-0.987,0.166
			c-0.661,0.824-1.814,0.824-2.144,1.646c-0.166,0.334-0.166,0.828-0.328,0.828c-0.827,0.494-1.652,0.658-1.979,1.482v1.648
			c-0.332-0.494-0.332-0.988-0.332-1.484c0-0.66-0.823-1.152-1.483-1.152c-0.164,0-0.164,0.164-0.164,0.328
			c-0.33-0.658-0.987-0.822-1.481-0.492c-0.99,0.826-1.487,2.307-0.99,3.461c0.329,0.658,1.152,0.494,1.484-0.164
			c0.162-0.168,0.823,0,0.823,0.33c-0.166,0.492-1.155,1.316-0.661,1.646c0.33,0.164,0.825,0.332,0.989,0.494
			c0.331,0.66-0.328,1.32-0.164,1.98c0.164,0.656,0.661,0.656,1.318,0.656c0.329,0,0.329,0.66,0.494,0.66
			c0.66-0.164,0.66-0.824,1.486-0.66c0.161,0,0.161-0.164,0.327-0.328c0,0.164-0.166,0.492,0.166,0.66
			c0.167-0.168,0.329-0.168,0.495-0.168c0.167,0.168,0.329,0.332,0.495,0.496c0.492,0,1.151,0.168,1.648,0.33
			c0.655,0.33,1.317,1.154,1.978,1.814c0.66,0.494,1.811,0,2.144,0.824c0,0.492,0.659,0.824,0.161,1.15
			c0.659,0.496,1.65,0.334,2.31,0.826c0.493,0.164,1.319,0,1.812,0.33c0.496,0.164,0.991,0.33,1.485,0.66
			C193.472,300.164,193.472,300.662,193.309,300.824z"/>
		<path fill="#FFFFFF" d="M188.856,274.453l-0.164,0.164c0.164-0.496,0.164-1.154,0-1.648c-0.164-0.328-0.659-0.328-0.99-0.328
			c0.167,0,0.331,0,0.331-0.164c0-0.168,0-0.332-0.164-0.332c0.164,0,0.659,0,0.492-0.164c-0.328-0.658-0.82,0.496-1.48,0.328
			c-0.168-0.164-0.496-0.164-0.662-0.164c-0.223,0.15-0.202,0.229-0.122,0.289c0.061,0.033,0.118,0.078,0.183,0.102
			c0.138,0.055,0.275,0.105,0.434,0.105c-0.162,0-0.162,0-0.328,0c0-0.043-0.047-0.074-0.105-0.105
			c-0.062-0.031-0.132-0.062-0.183-0.102c-0.095-0.051-0.19-0.104-0.281-0.17c-0.038-0.021-0.079-0.039-0.1-0.084
			c-0.328-0.268-0.633-0.602-0.979-0.857c0.494-0.168,0.33,0.658,0.822,0.33c0.12,0,0.071,0.336,0.156,0.527
			c0.033,0.027,0.066,0.057,0.1,0.084c0.026,0.014,0.038,0.045,0.075,0.045c0.167,0,0.167-0.164,0.167-0.328
			c0.161,0.164,0.327,0.164,0.493,0.164c0.33-0.164,0.162-0.658,0.33-0.822c0.165,0,0.327,0,0.493,0.164
			c0.659-0.824,1.482,0.166,2.309,0.166c0.162,0,0.162-0.166,0.162-0.33c0.496,0,0.827,0,1.155,0.33c0,0,0.166-0.166,0.166-0.33
			c0.165,0.822,0.657,1.646,0.989,2.475c0.136,0.342,0,0.656,0,0.986c-0.332-0.166-0.495,0.168-0.658,0.168
			c-0.166,0.162-0.331,0.488-0.331,0.656c-0.989,0.166-0.825,1.154-1.154,1.814c-0.167-0.168-0.659-0.168-0.826-0.334
			c-0.493-0.658-0.824-1.648-0.163-2.305C189.186,274.617,189.022,274.453,188.856,274.453z"/>
		<path fill="#FFFFFF" d="M181.771,291.099c-0.495,0.166-0.823-0.162-1.322-0.162c0.166,0,0.332,0,0.332-0.166
			c0-0.162,0-0.33,0-0.33c0.329-0.164,0.329,0.33,0.662,0.33C181.443,290.937,181.443,291.099,181.771,291.099z"/>
		<path fill="#FFFFFF" d="M180.121,290.115h-0.493c-0.495-0.66-0.991-1.156-1.482-1.65c0.656,0.33,1.15,0.822,1.648,1.316
			C179.957,289.947,179.957,289.947,180.121,290.115z"/>
		<path fill="#FFFFFF" d="M193.309,275.937c0,0-0.165-0.164-0.165-0.33c0-0.52,1.153-0.656,1.153,0
			C194.131,275.937,193.638,276.101,193.309,275.937z"/>
		<path fill="#FFFFFF" d="M197.098,278.902c0-0.164,0-0.494-0.161-0.658l0.161-0.166l-0.161-0.16c0.656-0.334,0.656,0.49,0.656,0.82
			C197.593,278.902,197.264,278.902,197.098,278.902z"/>
		<path fill="#FFFFFF" d="M198.417,278.738c-0.161-0.164,0-0.66-0.493-0.494c0-0.166,0.165-0.326,0.165-0.326
			c-0.332-0.496-0.991-0.496-1.32-0.994c0-0.162,0-0.328,0.168-0.328c0.161,0.328,0.492,0.658,0.656,0.658
			c0.496,0.168,0.663,0.664,1.154,0.824c0.713,0.145,0.193,0.533-0.278,0.848C198.489,278.871,198.485,278.804,198.417,278.738z"/>
		<path fill="#FFFFFF" d="M206.329,298.521c0.495-1.154,1.318-2.309,0.658-3.299c-0.491-0.986,0-1.814-0.491-2.637
			c-0.167,0-0.167,0.166-0.167,0.328h-0.659c0-0.162,0-0.328-0.166-0.328c-0.656,0.166-0.986,0.986-1.482,1.154
			c-0.657,0.328-1.152,0.822-1.646,0.988c-0.66,0-1.153-0.492-1.648-0.66c-0.495-0.328-0.659-0.988-1.317-1.154v-0.66
			c0-0.162-0.166-0.162-0.331-0.162c0.657-0.66,0-1.814,0-2.473c0-0.988,0.657-2.146,0.989-3.131
			c0.164-0.828,0.164-1.65,0.495-2.473c0.164,0,0.492-0.17,0.659-0.17c0.165-0.16,0.493-0.49,0.493-0.822
			c0.328-0.494,0.99-0.824,1.483-0.99c0.66-0.326,0.494,0.658,0.988,0.99c0.167,0,0.331,0,0.331-0.332
			c0.495,0.168,0.658,0.332,1.319,0.168c0.164-0.168,0.164-0.33,0.164-0.494c-0.331-0.332-0.497-0.494-0.331-0.822h0.659
			c1.156-0.824,0.99-2.475,0-2.805c-0.328-0.164,0,0.33,0,0.66c0-0.164-0.164-0.33-0.164-0.33c-0.495,0.492-0.989,0.166-1.484-0.33
			c-0.163-0.164-0.327,0-0.327,0.164c-0.167,0.496,0.164,0.826,0.659,0.826c-0.332,0.166,0.163,0.492,0,0.492
			c-0.991-0.492-1.648-1.482-2.802-1.318c-0.168,0-0.168,0.166-0.168,0.332c0.495,0.494,0.989,0.494,1.649,0.494
			c-0.494,0.33,0.166,0.492,0.166,0.492c-0.66,0.168-1.617-0.787-2.111-0.787s-0.692,1.285-0.525,1.941
			c0,0.168-0.331,0.168-0.331,0.332c-0.164,0.326,0.164,0.492,0.331,0.822c0.165,0.494-0.331,0.66-0.659,1.156
			c-0.168,0.16-0.331-0.166-0.495-0.33c-0.168,0.164-0.332,0.164-0.496,0.164c-0.493-0.66-0.493-1.32-0.824-1.977
			c0.496-0.168,1.152-0.168,1.32-0.494c0.327-0.828-0.496-1.32-1.32-1.488c1.152-0.326,0.662-1.977,0.824-2.799
			c0-0.166-0.493-0.166-0.493-0.494c0,0,0.331,0,0.331,0.162c0.162,0,0.162-0.162,0.162-0.328c-0.162-0.328-0.659-0.662-0.988-0.826
			c-0.166,0-0.166,0.498-0.166,0.662c-0.493-0.164-0.824-0.498-1.153-0.824c-0.166-0.33,0.165-0.66,0-0.992
			c-0.327-0.658-0.823-1.316-1.154-1.977c0.659-0.164,0.988-0.658,1.647-0.492c0.167,0,0.332,0.328,0.332,0.328
			c0.494-0.328-0.165-0.658-0.332-0.988c-0.062-0.062-0.122-0.068-0.175-0.055c-0.007,0.115-0.03,0.217-0.153,0.217
			c0-0.102,0.066-0.193,0.153-0.217c0.003-0.037,0.011-0.07,0.011-0.109c-0.329-0.494-0.656-0.99-0.987-1.156
			c-0.331-0.162-0.991-0.162-1.319-0.33c0-0.164,0-0.49-0.162-0.49c-1.155,0-2.146-0.664-3.301-0.334
			c0.332-0.162-0.163-0.494,0-0.656c-0.823-0.334-1.646-0.496-2.471-0.334c-1.319,0.334-2.64-0.162-3.793,0.496
			c-0.822,0.494-1.812,0.66-2.637,0.828c0.331,0,0.66-0.168,0.824-0.334c0,0-0.164-0.162-0.327-0.162
			c9.229-3.131,19.778,1.154,24.393,9.723c0.167,0.166-0.327,0.33-0.165,0.496c1.319,1.154,1.485,2.969,1.979,4.615
			c-0.328-0.824-0.988-1.482-1.647-2.141c-0.167,0-0.332,0-0.332,0.16c0.66,1.65,2.475,2.637,2.475,4.621
			c0,5.117-0.823,10.383-4.121,14.334c0-0.326,0.328-0.326,0.328-0.49C206.329,299.343,206.165,298.849,206.329,298.521z"/>
	</g>
	<g>
		<circle fill="#F25A58" cx="215.573" cy="40.986" r="15.073"/>
		<g>
			<path fill="#FFFFFF" d="M215.508,45.268h-0.487c0.056-0.999,0.18-1.826,0.374-2.48s0.597-1.564,1.208-2.729
				c0.476-0.896,0.784-1.584,0.928-2.064c0.143-0.479,0.214-0.965,0.214-1.457c0-1.007-0.268-1.808-0.803-2.402
				s-1.191-0.892-1.969-0.892c-0.69,0-1.233,0.163-1.629,0.488c-0.397,0.325-0.596,0.678-0.596,1.059
				c0,0.293,0.119,0.654,0.357,1.082s0.356,0.753,0.356,0.976c0,0.285-0.091,0.525-0.273,0.72c-0.183,0.194-0.404,0.291-0.666,0.291
				c-0.333,0-0.637-0.165-0.91-0.494s-0.41-0.787-0.41-1.374c0-0.896,0.385-1.689,1.154-2.379c0.769-0.69,1.812-1.035,3.128-1.035
				c1.633,0,2.835,0.476,3.604,1.427c0.571,0.698,0.856,1.471,0.856,2.319c0,0.579-0.129,1.173-0.387,1.784
				c-0.258,0.61-0.747,1.328-1.469,2.153c-1.149,1.3-1.854,2.222-2.111,2.765S215.563,44.316,215.508,45.268z M215.342,46.743
				c0.372,0,0.688,0.129,0.945,0.387s0.387,0.573,0.387,0.946c0,0.364-0.131,0.676-0.393,0.934
				c-0.262,0.257-0.575,0.386-0.939,0.386c-0.365,0-0.677-0.129-0.935-0.386c-0.257-0.258-0.386-0.569-0.386-0.934
				c0-0.373,0.129-0.688,0.386-0.946C214.665,46.872,214.977,46.743,215.342,46.743z"/>
		</g>
	</g>
	<g>
		<circle fill="#FFA58F" cx="142.789" cy="237.275" r="18.154"/>
		<g>
			
				<path fill="none" stroke="#FFFFFF" stroke-width="0.9222" stroke-linecap="round" stroke-linejoin="round" stroke-miterlimit="10" d="
				M151.311,235.98c0,0-2.999-4.576-8.521-4.576s-8.521,4.576-8.521,4.576c-0.347,0.527-0.314,1.365,0.071,1.863
				c0,0,3.559,4.627,8.45,4.627s8.45-4.627,8.45-4.627C151.623,237.345,151.655,236.507,151.311,235.98z"/>
			
				<ellipse fill="none" stroke="#FFFFFF" stroke-width="0.9222" stroke-linecap="round" stroke-linejoin="round" stroke-miterlimit="10" cx="142.783" cy="236.936" rx="2.739" ry="2.767"/>
		</g>
	</g>
	<g>
		<circle fill="#FF506A" cx="100.3" cy="18.153" r="18.153"/>
		<path fill="#FFFFFF" d="M102.894,20.251c-0.91-0.219-1.361-1.412-0.556-2.259c1.077-1.035,1.795-2.801,1.795-4.559
			c0-2.723-1.716-4.38-3.833-4.38c-2.116,0-3.833,1.658-3.833,4.38c0,1.752,0.714,3.513,1.785,4.548h-0.007
			c0.821,0.85,0.363,2.059-0.557,2.272c-3.562,0.688-6.148,2.656-6.148,4.13c0,1.815,3.922,2.19,8.76,2.19
			c4.839,0,8.761-0.375,8.761-2.19C109.061,22.908,106.466,20.936,102.894,20.251z"/>
	</g>
</g>
</svg>
