<?xml version="1.0" encoding="utf-8"?>
<!-- Generator: Adobe Illustrator 16.0.0, SVG Export Plug-In . SVG Version: 6.00 Build 0)  -->
<!DOCTYPE svg PUBLIC "-//W3C//DTD SVG 1.1//EN" "http://www.w3.org/Graphics/SVG/1.1/DTD/svg11.dtd">
<svg version="1.1" id="Layer_2" xmlns="http://www.w3.org/2000/svg" xmlns:xlink="http://www.w3.org/1999/xlink" x="0px" y="0px"
	 width="276.072px" height="272.102px" viewBox="0 0 276.072 272.102" enable-background="new 0 0 276.072 272.102"
	 xml:space="preserve">
<g>
	<path fill="#4BA3CC" d="M55.969,198.986c0,0-1.219-3.222-8.555-2.739c-8.233,0.542-14.533,10.857-21.685,11.328
		c-5.758,0.38-8.554-2.736-8.554-2.736l5.961,18.71c0,0,2.13,3.163,8.555,2.739c8.075-0.529,13.449-10.788,21.685-11.33
		c6.3-0.414,8.079,1.364,8.517,2.249L55.969,198.986z M53.3,213.826c-0.927,0.061-1.871,0.238-2.803,0.528
		c-3.249,1.011-6.062,3.255-8.783,5.426c-2.642,2.107-5.137,4.099-7.907,4.961h-0.001c-0.744,0.231-1.46,0.367-2.19,0.415
		c-5.008,0.33-7.033-1.646-7.461-2.145l-4.915-15.426c1.555,0.716,3.738,1.308,6.563,1.121c0.748-0.049,1.523-0.197,2.302-0.439
		c2.905-0.903,5.567-2.965,8.386-5.147c2.764-2.141,5.623-4.354,8.632-5.289c0.812-0.253,1.585-0.4,2.364-0.451
		c5.931-0.391,7.294,1.786,7.423,2.021l4.865,14.966C58.324,213.898,56.253,213.631,53.3,213.826z"/>
	<path fill="#4BA3CC" d="M44.515,208.025c-1.302-3.966-4.72-5.589-7.638-3.626c-2.916,1.959-4.223,6.762-2.923,10.722
		c1.301,3.963,4.717,5.589,7.638,3.626C44.513,216.787,45.818,211.987,44.515,208.025z M40.753,215.127l0.401,1.344l-0.77,0.584
		l-0.383-1.304c-0.715,0.522-1.508,0.837-2.032,0.835l0.04-1.09c0.512-0.022,1.228-0.24,1.911-0.752
		c0.87-0.658,1.299-1.632,1.081-2.362c-0.212-0.713-0.819-0.795-1.842-0.502c-1.401,0.418-2.354,0.39-2.689-0.74
		c-0.317-1.067,0.16-2.428,1.218-3.458l-0.388-1.294l0.771-0.579l0.376,1.255c0.727-0.514,1.294-0.685,1.726-0.745l-0.054,1.086
		c-0.302,0.04-0.892,0.118-1.678,0.707c-0.942,0.706-1.12,1.571-0.963,2.102c0.198,0.659,0.751,0.656,1.96,0.331
		c1.422-0.402,2.256-0.217,2.596,0.932C42.34,212.51,41.953,213.973,40.753,215.127z"/>
	<path fill="#4BA3CC" d="M48.277,203.055c-1.248,0.839-1.807,2.894-1.25,4.588c0.557,1.695,2.019,2.391,3.268,1.551
		c1.25-0.839,1.808-2.892,1.25-4.587C50.988,202.911,49.526,202.216,48.277,203.055z M50.142,207.723l-0.444,0.139l-0.924-2.972
		l-0.011,0.003l-0.492,0.504l-0.198-0.323l0.619-0.629l0.393-0.122L50.142,207.723z"/>
	<path fill="#4BA3CC" d="M27.661,212.948c-1.248,0.838-1.807,2.893-1.25,4.588c0.557,1.695,2.019,2.391,3.268,1.551
		c1.25-0.839,1.808-2.892,1.25-4.587C30.372,212.802,28.909,212.109,27.661,212.948z M29.525,217.616l-0.444,0.138l-0.924-2.971
		l-0.011,0.003l-0.492,0.503l-0.198-0.322l0.619-0.629l0.393-0.122L29.525,217.616z"/>
</g>
<g opacity="0.4">
	<g>
		<path fill="#4BA3CC" d="M233.973,176.656c0,4.435-3.628,8.063-8.063,8.063H50.521c-4.435,0-8.063-3.629-8.063-8.063V51.832
			c0-4.435,3.629-8.063,8.063-8.063h175.388c4.436,0,8.063,3.629,8.063,8.063V176.656z"/>
		<path fill="#FFFFFF" d="M50.522,181.263c-2.541,0-4.608-2.067-4.608-4.607V51.832c0-2.541,2.067-4.608,4.608-4.608h175.387
			c2.541,0,4.607,2.067,4.607,4.608v124.824c0,2.54-2.066,4.607-4.607,4.607H50.522z"/>
	</g>
	<g>
		<path fill="#4BA3CC" d="M233.973,65.172c0,0.284-0.298,0.516-0.663,0.516s-4.292,0-8.727,0H52.184c-4.435,0-8.438,0-8.895,0
			c-0.457,0-0.831-0.232-0.831-0.516c0-0.284,0-4.145,0-8.58v-5.201c0-4.435,3.629-8.063,8.063-8.063h175.388
			c4.436,0,8.063,3.628,8.063,8.063v5.201C233.973,61.027,233.973,64.888,233.973,65.172z"/>
	</g>
	<g>
		<path fill="#FFFFFF" d="M173.17,54.391c0,2.534-2.073,4.607-4.607,4.607H78.35c-2.534,0-4.608-2.073-4.608-4.607l0,0
			c0-2.535,2.074-4.608,4.608-4.608h90.212C171.097,49.783,173.17,51.856,173.17,54.391L173.17,54.391z"/>
	</g>
	<circle fill="#FFFFFF" cx="54.16" cy="54.391" r="4.608"/>
	<circle fill="#FFFFFF" cx="65.941" cy="54.391" r="4.608"/>
	<circle fill="#FFFFFF" cx="180.517" cy="54.391" r="4.608"/>
	<circle fill="#FFFFFF" cx="194.198" cy="54.391" r="4.608"/>
	<circle fill="#FFFFFF" cx="207.59" cy="54.391" r="4.608"/>
	<circle fill="#FFFFFF" cx="225.756" cy="49.783" r="2.398"/>
	<circle fill="#FFFFFF" cx="218.65" cy="49.783" r="2.398"/>
	<rect x="114.029" y="101.335" fill="#4BA3CC" width="51.043" height="51.001"/>
	<g>
		<g>
			
				<line fill="none" stroke="#4BA3CC" stroke-width="1.3653" stroke-linecap="round" stroke-linejoin="round" stroke-miterlimit="10" x1="170.895" y1="138.517" x2="210.048" y2="138.517"/>
			
				<line fill="none" stroke="#4BA3CC" stroke-width="1.3653" stroke-linecap="round" stroke-linejoin="round" stroke-miterlimit="10" x1="170.895" y1="133.056" x2="210.048" y2="133.056"/>
			
				<line fill="none" stroke="#4BA3CC" stroke-width="1.3653" stroke-linecap="round" stroke-linejoin="round" stroke-miterlimit="10" x1="170.895" y1="127.595" x2="210.048" y2="127.595"/>
			
				<line fill="none" stroke="#4BA3CC" stroke-width="1.3653" stroke-linecap="round" stroke-linejoin="round" stroke-miterlimit="10" x1="170.895" y1="122.134" x2="210.048" y2="122.134"/>
			
				<line fill="none" stroke="#4BA3CC" stroke-width="1.3653" stroke-linecap="round" stroke-linejoin="round" stroke-miterlimit="10" x1="170.895" y1="116.673" x2="210.048" y2="116.673"/>
			
				<line fill="none" stroke="#4BA3CC" stroke-width="1.3653" stroke-linecap="round" stroke-linejoin="round" stroke-miterlimit="10" x1="170.895" y1="111.212" x2="210.048" y2="111.212"/>
		</g>
	</g>
	
		<line fill="none" stroke="#4BA3CC" stroke-width="1.3653" stroke-linecap="round" stroke-linejoin="round" stroke-miterlimit="10" x1="170.895" y1="102.109" x2="203.885" y2="102.109"/>
</g>
<g>
	<path fill="#F15A24" d="M276.055,193.455c0,0,0.937-6-10.731-11.646c-13.094-6.336-31.731,3.994-43.105-1.51
		c-9.157-4.43-10.732-11.642-10.732-11.642l-7.147,33.873c0,0,0.511,6.704,10.731,11.646c12.84,6.217,30.008-4.832,43.106,1.505
		c10.019,4.85,11.198,9.125,11.099,10.862L276.055,193.455z"/>
	<path fill="#FBB03B" d="M259.047,213.881c-1.476-0.714-3.076-1.262-4.758-1.629c-5.859-1.279-12.127-0.287-18.188,0.673
		c-5.885,0.932-11.442,1.812-16.439,0.723c-0.001,0-0.001-0.001-0.002-0.001c-1.342-0.293-2.559-0.708-3.72-1.271
		c-7.966-3.853-9.351-8.644-9.572-9.783l5.893-27.926c1.761,2.451,4.593,5.258,9.086,7.432c1.19,0.575,2.506,1.023,3.913,1.33
		c5.24,1.144,11.115,0.301,17.336-0.592c6.101-0.875,12.409-1.78,17.838-0.596c1.464,0.32,2.779,0.767,4.019,1.367
		c9.431,4.563,9.626,9.087,9.619,9.561l-5.568,27.178C266.686,218.366,263.743,216.154,259.047,213.881z"/>
	<path fill="#F15A24" d="M250.626,197.341c1.457-7.213-2.371-12.676-8.553-12.208c-6.175,0.465-12.36,6.69-13.813,13.894
		c-1.455,7.208,2.367,12.675,8.553,12.207C242.998,210.772,249.176,204.55,250.626,197.341z M238.678,204.956l-0.555,2.409
		l-1.689,0.226l0.547-2.332c-1.55,0.178-3.04-0.029-3.841-0.489l1.01-1.637c0.804,0.411,2.09,0.701,3.583,0.512
		c1.907-0.252,3.411-1.372,3.714-2.682c0.295-1.277-0.564-1.932-2.388-2.373c-2.512-0.578-3.948-1.452-3.478-3.476
		c0.443-1.912,2.358-3.582,4.876-4.241l0.532-2.32l1.686-0.217l-0.516,2.25c1.562-0.155,2.58,0.077,3.296,0.36l-1.028,1.618
		c-0.497-0.201-1.47-0.596-3.188-0.376c-2.059,0.263-3.085,1.434-3.307,2.383c-0.27,1.184,0.581,1.659,2.717,2.214
		c2.531,0.621,3.647,1.631,3.169,3.688C243.389,202.325,241.521,204.231,238.678,204.956z"/>
	<path fill="#F15A24" d="M260.721,192.999c-2.643,0.199-5.288,2.862-5.91,5.944c-0.623,3.083,1.013,5.423,3.659,5.223
		c2.646-0.198,5.29-2.86,5.91-5.944C265.003,195.135,263.365,192.797,260.721,192.999z M259.516,201.777l-0.802-0.175l1.17-5.359
		l-0.019-0.004l-1.192,0.343l-0.022-0.667l1.496-0.425l0.708,0.154L259.516,201.777z"/>
	<path fill="#F15A24" d="M220.503,190.218c-2.643,0.199-5.288,2.862-5.91,5.944c-0.623,3.084,1.013,5.422,3.659,5.223
		c2.646-0.198,5.289-2.86,5.91-5.944C224.785,192.355,223.147,190.018,220.503,190.218z M219.298,198.997l-0.802-0.175l1.17-5.359
		l-0.019-0.004l-1.192,0.343l-0.022-0.667l1.496-0.425l0.708,0.154L219.298,198.997z"/>
</g>
<g>
	<path fill="#5ECCFF" d="M227.502,182.571c0,3.283-2.686,5.969-5.969,5.969h-2.984c-3.283,0-6.62,2.606-7.416,5.791l-17.996,71.981
		c-0.796,3.185-4.133,5.79-7.416,5.79h-95.5c-3.283,0-6.62-2.605-7.417-5.79l-17.995-71.981c-0.796-3.185-4.134-5.791-7.417-5.791
		h-2.984c-3.283,0-5.969-2.686-5.969-5.969v-11.938c0-3.282,2.686-5.969,5.969-5.969h167.125c3.283,0,5.969,2.687,5.969,5.969
		V182.571z M108.127,206.446c0-3.282-2.686-5.969-5.969-5.969l0,0c-3.283,0-5.969,2.687-5.969,5.969v35.812
		c0,3.283,2.686,5.969,5.969,5.969l0,0c3.283,0,5.969-2.686,5.969-5.969V206.446z M132.002,206.446c0-3.282-2.686-5.969-5.969-5.969
		l0,0c-3.283,0-5.969,2.687-5.969,5.969v35.812c0,3.283,2.686,5.969,5.969,5.969l0,0c3.283,0,5.969-2.686,5.969-5.969V206.446z
		 M179.752,206.446c0-3.282-2.686-5.969-5.969-5.969l0,0c-3.283,0-5.969,2.687-5.969,5.969v35.812c0,3.283,2.686,5.969,5.969,5.969
		l0,0c3.283,0,5.969-2.686,5.969-5.969V206.446z M155.877,206.446c0-3.282-2.686-5.969-5.969-5.969l0,0
		c-3.283,0-5.969,2.687-5.969,5.969v35.812c0,3.283,2.686,5.969,5.969,5.969l0,0c3.283,0,5.969-2.686,5.969-5.969V206.446z"/>
	<g>
		<path fill="#FFFFFF" d="M164.316,180.092c-3.192,0-6.19-1.239-8.439-3.488c-4.654-4.656-4.653-12.229,0-16.882l45.697-45.698
			c2.25-2.25,5.248-3.489,8.441-3.489s6.191,1.239,8.44,3.489c2.25,2.249,3.489,5.247,3.489,8.44c0,3.193-1.239,6.191-3.489,8.441
			l-45.698,45.697C170.508,178.853,167.51,180.092,164.316,180.092z"/>
		<path fill="#F25A58" d="M168.537,172.382c-2.321,2.321-6.119,2.321-8.44,0c-2.32-2.32-2.32-6.119,0.001-8.44l45.697-45.698
			c2.321-2.321,6.12-2.321,8.44,0c2.321,2.321,2.321,6.119,0,8.44L168.537,172.382z"/>
	</g>
	<g>
		<path fill="#FFFFFF" d="M111.625,180.092c-3.194,0-6.191-1.239-8.442-3.49l-45.698-45.697c-4.654-4.654-4.654-12.228,0-16.882
			c2.25-2.25,5.248-3.489,8.44-3.489c3.193,0,6.191,1.239,8.441,3.489l45.698,45.698c4.654,4.654,4.655,12.227,0.001,16.881
			C117.815,178.853,114.818,180.092,111.625,180.092L111.625,180.092z"/>
		<path fill="#F25A58" d="M107.404,172.382c2.321,2.321,6.12,2.321,8.441,0c2.321-2.32,2.32-6.119-0.001-8.44l-45.698-45.698
			c-2.321-2.321-6.12-2.321-8.44,0s-2.321,6.119,0,8.44L107.404,172.382z"/>
	</g>
	<path fill="#4BA3CC" d="M64.809,194.331l17.995,71.981c0.796,3.185,4.134,5.79,7.417,5.79h95.5c3.283,0,6.62-2.605,7.416-5.79
		l17.996-71.981c0.796-3.185,4.133-5.791,7.416-5.791H57.393C60.675,188.54,64.013,191.146,64.809,194.331z M167.814,206.446
		c0-3.282,2.686-5.969,5.969-5.969s5.969,2.687,5.969,5.969v35.812c0,3.283-2.686,5.969-5.969,5.969s-5.969-2.686-5.969-5.969
		V206.446z M143.939,206.446c0-3.282,2.686-5.969,5.969-5.969s5.969,2.687,5.969,5.969v35.812c0,3.283-2.686,5.969-5.969,5.969
		s-5.969-2.686-5.969-5.969V206.446z M120.064,206.446c0-3.282,2.686-5.969,5.969-5.969s5.969,2.687,5.969,5.969v35.812
		c0,3.283-2.686,5.969-5.969,5.969s-5.969-2.686-5.969-5.969V206.446z M96.189,206.446c0-3.282,2.686-5.969,5.969-5.969
		s5.969,2.687,5.969,5.969v35.812c0,3.283-2.686,5.969-5.969,5.969s-5.969-2.686-5.969-5.969V206.446z"/>
	<path fill="#043573" d="M193.137,266.312l0.297-1.186H82.508l0.296,1.186c0.796,3.185,4.134,5.79,7.417,5.79h95.5
		C189.004,272.102,192.341,269.497,193.137,266.312z"/>
</g>
<g>
	<path fill="#F15A24" d="M42.083,230.852c0,0-1.259,0.529-3.83,2.018c-1.261,0.729-2.163,2.065-2.871,3.609
		c-2.835,6.17-0.15,15.409,5.986,20.63c4.134,3.519,8.783,4.322,12.245,2.585c1.679-0.843,3.646-1.847,3.646-1.847
		C60.101,251.669,48.227,236.073,42.083,230.852z"/>
	<path fill="#FBB03B" d="M42.641,231.348c0,0-1.19,0.502-3.621,1.908c-1.192,0.689-2.044,1.953-2.715,3.413
		c-2.68,5.833-0.142,14.568,5.66,19.505c3.909,3.326,8.304,4.087,11.577,2.444c1.588-0.797,3.447-1.746,3.447-1.746
		C59.677,251.032,48.45,236.286,42.641,231.348z"/>
	<path fill="#F15A24" d="M54.714,233.229c-6.144-5.229-13.417-4.459-16.252,1.718c-2.834,6.169-0.15,15.408,5.986,20.63
		c6.14,5.225,13.414,4.463,16.251-1.719C63.542,247.681,60.857,238.451,54.714,233.229z"/>
	<path fill="#FBB03B" d="M53.941,235.02c-5.093-4.335-11.122-3.697-13.472,1.424c-2.35,5.114-0.125,12.773,4.962,17.102
		c5.09,4.331,11.12,3.699,13.472-1.425C61.26,247,59.034,239.348,53.941,235.02z"/>
	<g>
		<path fill="#FBD08D" d="M52.041,253.31c-0.084,0-0.17-0.011-0.253-0.033c-0.261-0.068-0.482-0.239-0.615-0.475l-0.857-1.523
			c-0.254-0.452-0.119-1.024,0.312-1.314c0.241-0.162,1.07-0.797,1.616-2.166c0.53-1.347,0.273-2.564-0.237-3.024
			c-0.08-0.072-0.194-0.157-0.284-0.157c-0.091,0-0.45,0.067-1.256,0.944c-0.91,1.013-2.15,2.186-3.599,2.186
			c-0.739,0-1.444-0.298-2.096-0.886c-1.479-1.334-2.101-3.691-1.653-6.131l-1.179-1.058c-0.311-0.278-0.415-0.721-0.261-1.108
			l0.57-1.436c0.12-0.303,0.381-0.527,0.698-0.602c0.075-0.018,0.152-0.026,0.228-0.026c0.243,0,0.48,0.089,0.665,0.254l0.604,0.542
			c0.403-0.654,0.866-1.193,1.399-1.63c0.18-0.147,0.403-0.227,0.631-0.227c0.063,0,0.127,0.007,0.19,0.019
			c0.291,0.057,0.542,0.24,0.684,0.501l0.833,1.529c0.23,0.422,0.125,0.948-0.249,1.251c-0.343,0.277-0.918,0.742-1.403,1.962
			c-0.557,1.398-0.148,2.274,0.181,2.572c0.084,0.074,0.126,0.089,0.127,0.089c0.079-0.01,0.416-0.143,1.441-1.222
			c0.768-0.83,1.967-1.946,3.411-1.946c0.796,0,1.572,0.336,2.306,0.998c1.568,1.416,2.221,3.898,1.733,6.45l1.237,1.112
			c0.309,0.277,0.413,0.717,0.261,1.104l-0.565,1.442c-0.119,0.305-0.38,0.531-0.699,0.605c-0.075,0.018-0.152,0.026-0.228,0.026
			c-0.245,0-0.483-0.09-0.668-0.258l-0.642-0.582c-0.551,0.93-1.217,1.679-1.867,2.072C52.399,253.261,52.221,253.31,52.041,253.31z
			"/>
		<path fill="#F15A24" d="M54.628,247.993l1.671,1.503l-0.565,1.442l-1.613-1.462c-0.541,1.311-1.362,2.403-2.08,2.838l-0.857-1.523
			c0.681-0.458,1.479-1.353,1.985-2.623c0.64-1.627,0.411-3.317-0.497-4.134c-0.885-0.797-1.784-0.401-2.938,0.853
			c-1.566,1.743-2.893,2.5-4.295,1.234c-1.325-1.194-1.809-3.453-1.224-5.744l-1.611-1.445l0.57-1.436l1.562,1.4
			c0.564-1.31,1.197-2.017,1.738-2.461l0.833,1.53c-0.379,0.306-1.121,0.906-1.703,2.368c-0.698,1.753-0.219,3.084,0.438,3.679
			c0.823,0.735,1.575,0.269,2.957-1.186c1.608-1.738,2.903-2.181,4.328-0.895C54.61,243.089,55.303,245.414,54.628,247.993z"/>
	</g>
	
		<rect x="34.868" y="237.054" transform="matrix(0.8683 -0.496 0.496 0.8683 -112.8736 49.7212)" fill="#F15A24" width="4.668" height="0.758"/>
	
		<rect x="35.967" y="234.11" transform="matrix(0.8683 -0.496 0.496 0.8683 -111.2686 49.8787)" fill="#F15A24" width="4.668" height="0.757"/>
	
		<rect x="34.169" y="240.958" transform="matrix(0.8683 -0.496 0.496 0.8683 -114.8923 49.8809)" fill="#F15A24" width="4.668" height="0.758"/>
	
		<rect x="35.493" y="246.478" transform="matrix(0.8683 -0.496 0.496 0.8683 -117.4662 51.2724)" fill="#F15A24" width="4.668" height="0.758"/>
	
		<rect x="37.976" y="251.565" transform="matrix(0.8683 -0.496 0.496 0.8683 -119.6625 53.1739)" fill="#F15A24" width="4.668" height="0.758"/>
	
		<rect x="42.29" y="256.162" transform="matrix(0.8682 -0.4961 0.4961 0.8682 -121.4002 55.9407)" fill="#F15A24" width="4.669" height="0.758"/>
	
		<rect x="45.504" y="257.855" transform="matrix(0.8682 -0.4962 0.4962 0.8682 -121.8273 57.7672)" fill="#F15A24" width="4.668" height="0.758"/>
	
		<rect x="47.843" y="258.578" transform="matrix(0.8683 -0.496 0.496 0.8683 -121.8414 58.9915)" fill="#F15A24" width="4.668" height="0.757"/>
</g>
<g>
	<path fill="#FFFFFF" d="M137.844,98.122c-2.322,0-4.527-1.045-6.048-2.868c-0.07-0.084-0.138-0.17-0.203-0.258l-25.104-33.684
		c-1.789-2.26-2.181-5.028-1.045-7.441c1.16-2.464,3.619-3.935,6.579-3.935h10.847c-0.772-31.464-7.601-37.339-8.524-37.985
		c-2.683-0.44-4.784-2.672-4.983-5.467c-0.222-3.125,2.008-5.889,5.109-6.332C114.721,0.117,115.648,0,117.072,0
		c3.747,0,13.36,0.9,21.699,9.24c8.547,8.547,13.28,22.222,14.103,40.697h11.037c2.966,0,5.429,1.472,6.589,3.937
		c1.138,2.417,0.741,5.191-1.057,7.454l-25.358,33.691c-0.065,0.087-0.134,0.173-0.204,0.257
		C142.355,97.084,140.155,98.122,137.844,98.122z"/>
	<path fill="#4BA3CC" d="M139.315,91.43l25.418-33.771c0.806-0.974,0.443-1.753-0.823-1.753h-16.877
		c0-54.375-31.718-49.844-31.718-49.844s13.594,0,13.594,49.844h-16.887c-1.256,0-1.619,0.779-0.813,1.753l25.169,33.771
		C137.184,92.395,138.502,92.395,139.315,91.43z"/>
</g>
<g>
	
		<line fill="none" stroke="#F25A58" stroke-width="3.0021" stroke-linecap="round" stroke-linejoin="round" stroke-miterlimit="10" x1="24.772" y1="111.507" x2="24.772" y2="142.236"/>
	
		<line fill="none" stroke="#F25A58" stroke-width="3.0021" stroke-linecap="round" stroke-linejoin="round" stroke-miterlimit="10" x1="9.408" y1="126.872" x2="40.136" y2="126.872"/>
	
		<circle fill="none" stroke="#F25A58" stroke-width="3.0021" stroke-linecap="round" stroke-linejoin="round" stroke-miterlimit="10" cx="24.772" cy="126.872" r="23.271"/>
</g>
<g>
	<g>
		
			<line fill="none" stroke="#4BA3CC" stroke-linecap="round" stroke-linejoin="round" stroke-miterlimit="10" x1="95.299" y1="104.574" x2="90.473" y2="99.748"/>
		
			<line fill="none" stroke="#4BA3CC" stroke-linecap="round" stroke-linejoin="round" stroke-miterlimit="10" x1="100.125" y1="99.748" x2="95.299" y2="104.574"/>
	</g>
	
		<line fill="none" stroke="#4BA3CC" stroke-linecap="round" stroke-linejoin="round" stroke-miterlimit="10" x1="95.299" y1="91.574" x2="95.299" y2="104.574"/>
	<path fill="none" stroke="#4BA3CC" stroke-linecap="round" stroke-linejoin="round" stroke-miterlimit="10" d="M86.299,104.574v5
		c0,0.552,0.448,1,1,1h16c0.552,0,1-0.448,1-1v-5"/>
</g>
<g>
	<g>
		<path fill="#FFFFFF" d="M125.273,135.305v9.8c0,0.772,0.632,1.405,1.404,1.405h9.8v-11.205H125.273z"/>
		<path fill="#FFFFFF" d="M136.477,119.854h-9.8c-0.772,0-1.404,0.632-1.404,1.405v9.8h11.204V119.854z"/>
		<path fill="#FFFFFF" d="M150.523,119.854h-9.8v11.205h11.204v-9.8C151.928,120.487,151.296,119.854,150.523,119.854z"/>
		<path fill="#FFFFFF" d="M140.724,146.51h9.8c0.772,0,1.404-0.632,1.404-1.405v-9.8h-11.204V146.51z"/>
	</g>
	<path fill="#FFFFFF" d="M145.591,109.071c-7.242-7.242-8.46,8.46-8.46,8.46h2.938C140.069,117.531,152.832,116.313,145.591,109.071
		z M140.468,115.786h-1.531c0,0,0.634-8.178,4.406-4.406C147.115,115.151,140.468,115.786,140.468,115.786z"/>
	<path fill="#FFFFFF" d="M136.356,115.738c-1.337-0.201-5.736-1.13-2.509-4.358c1.677-1.676,2.732-0.99,3.389,0.288
		c0.226-0.738,0.496-1.47,0.819-2.148c-1.264-2.388-3.281-3.623-6.456-0.448c-6.004,6.004,1.743,7.868,4.566,8.329
		C136.188,117.13,136.244,116.531,136.356,115.738z"/>
</g>
</svg>
