<?xml version="1.0" encoding="utf-8"?>
<!-- Generator: Adobe Illustrator 16.0.0, SVG Export Plug-In . SVG Version: 6.00 Build 0)  -->
<!DOCTYPE svg PUBLIC "-//W3C//DTD SVG 1.1//EN" "http://www.w3.org/Graphics/SVG/1.1/DTD/svg11.dtd">
<svg version="1.1" id="Layer_2" xmlns="http://www.w3.org/2000/svg" xmlns:xlink="http://www.w3.org/1999/xlink" x="0px" y="0px"
	 width="311.26px" height="284.462px" viewBox="0 0 311.26 284.462" enable-background="new 0 0 311.26 284.462"
	 xml:space="preserve">
<g opacity="0.28">
	<path fill="#87D5FF" d="M117.99,184.189l-8-3.574l-0.455,0.337l0.051-0.708l-0.081-0.092l-0.02-0.397l0.05-0.056l-0.522-0.014
		l-1.793-0.81l-1.905,1.609l0.278-0.787l-1.358-0.675l-1.519,0.521l1.674-3.134l-0.806-1.641l-0.577-0.605l-3.068-0.791
		l-1.103,0.145l-1.28-0.735l-0.916-1.701l-1.614-0.187l0.71-0.654l-1.169-0.396l-0.383-0.34l-0.121,0.138l-0.148-0.408l0.887-0.18
		l-2.077,0.091l0.486,0.114l-5.557-1.374l0.369,0.48l-1.682,0.47l0.077-0.016l0.418-0.992l-3.91,1.739l-0.995,1.909l-4.316-1.047
		l0.098,0.158l-1.631-2.637l0.325-2.404l-0.321-0.489l0.153,0.124l-0.878-0.566l0.081,0.038l-3.579-0.105l0.482-2.531l0.154,0.501
		l0.401-2.903l-3.506,2.407l0.108-0.06l-3.757,0.116l0.121,0.069l-0.301-0.141l0.129,0.04l-1.697-2.854l0.296,0.671l-0.308-5.581
		l0.854-0.886l0.303-0.033l0.352-0.161l-0.192,0.132l1.466-0.98l-0.2,0.151l0.829-0.55l-0.077,0.156l2.263,0.228l0.084,0.229
		l0.852-0.204l0.672,0.515l0.19-0.032l-0.347-0.631l0.136-0.323l-0.87-0.088l2.546-0.237l0.212,0.051l0.925-0.062l-0.283,0.007
		l0.73,0.105l-0.062,0.153l2.518,2.23l0.024,0.193l0.602,0.492l0.9,1.582l-0.173-0.004l0.894-0.548l-0.486-2.298l0.073-0.164
		l0.129,0.572l-0.846-3.062l0.548-1.176l0.134,0.05l0.011-0.11l0.603-0.282l0.606-0.565l0.028,0.153l1.065-0.882l0.021,0.219
		l0.443-0.757l0.769-0.045l-0.475-0.363l0.026-0.36l1.112-0.231l-0.058-0.183l-0.792-0.266l0.435,0.11l-0.036-0.072l0.104,0.043
		l0.001-0.13l0.282,0.162l0.245,0.284l-1.474-1.471l0.424-0.173l0.334-0.025l0.053-0.04l-0.692-0.586l0.658,0.483l0.071-0.17
		l-0.66-1.029l0.121,0.592l0.019-0.097l0.453,0.3l-0.289-0.519l0.243,0.24l-0.142-0.69l0.196-0.338l0.046,0.081l0.025-0.116
		l0.027,0.059l0.22-0.205l-0.01,0.081l0.084-0.006l-0.112,0.099l0.109,0.034l-0.293,0.312l0.072-0.059l-0.17,0.213l-0.009,0.197
		l0.292,0.107l0.029,0.307l0.093-0.07l-0.065,1.19l0.738-1.194l-0.097-0.223l0.097-1.388l0.104,1.031l0.764-1.041l-0.013,0.205
		l0.095-1.472l-0.015,0.504l2.229-1.059l0.208,0.051l0.817-0.295l-0.73-0.303l0.928-1.572l-0.007,0.071l0.142,0.016l0.011-0.144
		l0.123-0.087l0.082,0.012l0.682-0.614l0.045,0.134l-0.088,0.108l3.589-1.692l0.273,0.117l-0.371,0.542l1.184-0.043l-0.659,0.36
		l-0.268-0.332l-1.1,0.673l0.194-0.067l-0.552,0.339l0.238-0.139l0.45,1.062l1.067-0.977l2.267-0.923l-2.228-0.693l0.192-0.091
		l-1.277-1.062l0.529-0.672l-0.294-0.074l0.038-0.058l-1.462-0.19l1.881-0.893l0.262,0.038l-9.016,4.076l3.168-3.694l2.402-0.76
		l-0.052-0.052l10.536-3.583l-0.269-0.172l-1.376-1.802l-2.118,0.524l2.568-1.072l-2.089-0.286l0.343-0.428l-1.013,0.137
		l0.048-0.792l-0.635-0.383l-0.106-0.377l-0.502-0.113l-0.419-0.421l0.173-0.038l0.793,0.185l-1.623-1.629l0.111-0.49l-0.347,0.101
		l0.27-0.906l-0.643,0.004l0.168-0.28l-0.387-0.585l-0.465-0.344l-0.224,0.307l-0.008,0.483l-0.321,0.091l-0.364,0.569l-1.582,1.079
		l-0.067-0.511l-0.264,0.329l-0.839,0.292l-0.956-1.064l-0.429-1.594l0.988-1.299l-2.355-0.729l-0.451-0.311l-2.493-0.538
		l-1.579,0.908l-0.572,0.955l0.508,0.014l0.206,1.566l-2.029,5.978l1.086,2.792l-0.391,1.203l-0.382,0.492l-1.291-0.407
		l-3.876-4.561l-6.017-2.272l-1.684-1.623l-0.537-0.961l0.169-1.811l1.335-2.426l0.582,0.259l0.508-0.56l-0.388-0.277l-0.066-1.01
		l-1.058-0.801l3.03,0.229l0.076-0.202l1.885-0.372l-2.71-1.978l1.025-0.06l-0.083-0.086l2.745-0.682l0.008-0.133l2.524,0.385
		l-1.13-0.95l0.722,0.096l1.993-3.016l0.541-0.343l-3.618-1.047l0.572,1.592l-1.433,1.841l-1.531-0.946l-1.618-0.134l-0.705-1.569
		l0.524-0.213l-0.88-0.104l0.248-0.168l-1.492-0.047l0.783-0.562l-0.46-0.1l0.164-0.201l0.644,0.114l-3.693-2.186l0.4,0.127
		l-0.412,1.241l0.006,0.224l2.102,1.784l-0.992,0.895l0.976,0.232l-2.221,2.446l0.214,0.458l-0.546-0.622l0.862,0.056l0.002-0.205
		l-0.476-1.588l-1.566-0.203l-0.606,0.375l1.154,0.592l-1.316-0.496l0.238,0.378l-8.849-0.717l2.527-0.462l-1.738,0.843l0.55,1.671
		l-0.087,0.687l-1.062-0.988l-5.958-1.172l1.262-0.728l-9.022-1.488l-0.444-0.947l0.19,0.055l-2.765-0.569l0.261,0.157l-1.177,0.851
		l0.146-0.398l-1.791,1.138l-0.304-0.228l-1.557,0.917l3.091-1.994l-3.981,1.24l-0.201-0.646l-1.003,0.982l0.296,0.495l-14.351-2.65
		l0.151-0.166l-0.399-0.386l-3.36-0.182l-0.214-0.731l-3.165,1.183l0.597,0.17l-0.412,0.376l-0.197-0.083l-0.01-0.214l0.123-0.147
		l-1.812,0.623l0.269-0.146l-1.24,1.311l-2.579,0.758l-0.376,0.756l0.088-0.074l-0.207,0.095l5.628,2.8l-2.04-0.675l1.351,1.002
		l-2.576-0.038l0.12-0.51l0.219,0.002l-3.685,1.166l1.553,0.679l-0.692,0.144l4.668,0.996l-2.835,2.437l0.175-0.114l-1.047,1.334
		l0.584,0.655l-0.041,0.293l1.364,0.081l-0.275,0.063l-0.4,0.337l-0.843,0.065l2.292,0.349l0.634-0.532l0.259,1.998l-0.43,0.582
		l2.743,0.298l0.121-0.709l1.717-0.201l-0.561,2.017l-1.251,0.76l-1.161,1.265l-0.78-0.218l-1.853,1.397l1.832-0.834l1.325-0.098
		l1.188-0.683l0.169-0.429l4.08-2.864l-0.73-0.34l0.436-0.604l0.394-0.263l0.155-0.568l3.179-1.557l0.222,0.792l-2.357,1.487
		l0.661-0.064l-0.788,0.613l2.854-1.527l0.763-0.94l1.259,0.138l-0.092,0.389l-0.153,0.105l0.77,0.1l-0.193,0.222l1.037-0.245
		l2.82,0.979l2.078,0.085l-0.256,0.284l-0.44,0.082l2.846,1.163l-0.493-0.319l0.78-0.218l0.278,0.188l0.632,0.811l-0.354-1.191
		l0.088-0.007l-0.073-0.127l0.104-0.139l1.863,1.919l0.066,0.383l1.344,1.649l-0.577,0.582l0.09,0.18l0.933-0.62l0.865,0.239
		l-0.02,0.988l0.217-0.596l0.202,0.115l-0.056,1.453l0.94,0.435l0.518,0.677l-0.839-0.329l0.732,0.749l-0.187,0.628l0.146,0.654
		l0.939-1.204l0.253,0.895l-0.871,0.076l0.89,0.329l0.15,0.729l0.532,0.418l-0.472,0.108l0.779-0.069l0.583-0.25l0.785,0.769
		l0.312,0.558l0.604,0.312l-0.127,2.459l0.302-0.51l-0.207,0.21l0.119-0.779l-1.659-0.264l0.49,1.541l0.255-0.009l-0.09,0.568
		l-0.083-0.185l-0.025,0.348l0.733,0.134l-0.917,2.878l0.078-0.014l0.006,2.709l-0.054,0.032l1.182,2.611l-0.087-0.102l-0.018,0.235
		l1.265-0.066l-0.468,0.569l6.871,9.289l-0.831-0.153l1.614,0.821l2.705,3.666l-1.537-3.605l0.062,0.288l-2.756-4.945l9.041,11.641
		l3.987,2.207l4.946,0.486l4.738,2.451l-0.173-0.073l1.027-0.062l0.129,0.349l-0.284-0.014l4.113,4.208l2.463,0.488l0.224-0.938
		l1.417,0.084l0.292,0.312l-0.568,0.062l0.814,1.518l-0.041,1.768l0.096-0.03l0.044,0.258l0.241,0.026L79,178.754l0.237,1.473
		l0.141-0.242l-0.503,3.04l1.804,4.391l6.369,6.963l-2.426,21.541l1.216-0.248l-0.096,0.954l-0.173,0.077l-0.259,3.062l-0.868,1.189
		l0.179-0.809l-0.564,0.431l0.487-0.817l-0.944,0.756l-0.435,0.828l0.383-0.452l0.73,1.159l-0.447,0.119l0.807-0.051l0.284,0.566
		l-1.03-0.194l0.494,0.519l-0.182,1.125l0.33,0.12l-0.681,0.648l0.583,0.353l0.254-0.02l-1.236,0.21l1,1.055l1.157,0.136
		l-0.528-0.294l0.447,1.029l-1.39-0.303l0.559,0.821l1.833-0.266l-1.323,0.734l0.432,0.251l1.197-0.709l-0.632,0.782l-0.448-0.201
		l3.451-1.198l-0.92-0.82l0.418-1.772l2.365-2.386l-0.309-2.822l1.946-2.307l-0.423-0.345l0.479-0.393l-0.515-1.46l2.296-1.438
		l0.108-0.007l4.583-2.94l-1.274-3.757l3.293,2.155l2.582-3.845l0.065,0.071l-0.013-0.669l0.631,0.204l-1.267,1.746l2.886-5.775
		l-0.046-0.46l0.469-0.053l-0.048,0.085l0.218-0.334l3.703-1.823l-0.255,0.042l0.763-0.3l2.388-1.873l1.148-5.797l-0.035,0.085
		l-0.069-0.444l0.204-0.69l1.313-1.358l-0.029,0.162l1.258-1.477L117.99,184.189L117.99,184.189z M80.867,139.452l-3.528,1.375
		l-0.364-0.293l0.686-0.965l0.185,0.193l-0.575,0.437L80.867,139.452L80.867,139.452z M80.205,138.778l1.776-0.576l0.593,0.044
		l-0.146,0.023l0.152-0.163l-0.614,0.016l1.53-0.418l-0.242,0.507l-0.137,0.108L80.205,138.778L80.205,138.778z M69.62,135.266
		l3.19-2.2l-0.176,0.409l0.265-0.59l2.885,1.129l2.744,2.116l1.019,0.375l0.625,0.79l0.015,0.112l-1.725-0.478l-0.604,2.298
		l-0.826-0.93l-0.063-0.363l0.156-0.818l-1.448-0.761l-0.483,1.049l-0.062-0.034l0.048-0.423l-1.57,3.674l0.057-3.248l-0.062-0.068
		l-0.51,0.309l0.882-1.418l0.306,0.312l2.314-0.38l-0.908-0.842l-2.96-0.033l-0.17-0.462l-1.933,0.674l0.07-0.385L69.62,135.266
		L69.62,135.266z M100.32,130.016l-1.481,1.065l-0.688,1.536l-0.009,0.266l-0.711,0.263l2.543,1.01l-0.231,0.342l1.152-0.175
		l-1.007,0.762l1.275-0.635l-0.076,0.186l0.493-0.411l-0.159,0.942l1.256-0.931l-0.353,0.313l0.172-0.749l-0.814,0.137l0.637-0.667
		l-0.847,0.26l-0.304-1.246l-0.76,0.496l-0.019-0.452l-0.611,0.042l-0.063-0.54l-0.568,0.362L100.32,130.016L100.32,130.016z
		 M84.147,217.288l0.703-0.631l-0.486-0.686L84.147,217.288L84.147,217.288z M83.967,219.022l0.558,0.624l0.125-1.12l-0.169-0.145
		l-0.615,0.536L83.967,219.022L83.967,219.022z M41.139,133.4l0.755-0.073l-4.125-2.446l0.717,0.236l-0.019,0.199l-0.323,0.308
		l1.485,0.505l0.262,0.64l0.873-0.133L41.139,133.4L41.139,133.4z M32.331,123.934l-1.011-0.301l0.828,0.83L32.331,123.934
		L32.331,123.934z M31.487,123.06l0.239-0.354l-0.305-0.332l-0.386-0.074l-0.153-0.148L31.487,123.06L31.487,123.06z
		 M33.272,124.853l-0.087,0.3l1.39,1.213l-0.523-0.884l0.394-0.009L33.272,124.853L33.272,124.853z M91.807,229.975l-2.465-1.805
		l-1.837-0.38l0.879,0.766l0.268,1.155l-0.23,0.193l-1.132-0.663l-0.057-0.324l0.331,0.937h-1.389L91.807,229.975L91.807,229.975z
		 M85.849,228.915l-0.681-0.248l-0.641,0.039l0.929,0.371L85.849,228.915L85.849,228.915z M89.47,230.977l-1.541-0.707l-0.089,0.295
		l0.693,0.407L89.47,230.977L89.47,230.977z M86.317,229.503l0.635-0.138l-0.837-0.264L86.317,229.503L86.317,229.503z
		 M133.396,114.883l2.187-1.233l0.542-0.618l-1.168-1.271l0.446-0.395l-3.178,0.317l0.133,0.595l-1.133-0.054l-0.713-0.438
		l-0.719,1.144l-0.454-0.637l0.121-0.341l-1.178-0.669l0.348,0.247l-0.113,0.562l-0.703-0.22l-0.078,0.203l0.206,0.182l-0.491,0.295
		l1.728,0.127l-0.57,0.348l0.64,0.032l-1.943,0.429l2.092,0.326l-0.397,0.427l0.507-0.089l-1.063,0.403l0.042,0.347l1.337-0.145
		l2.466,0.623L133.396,114.883L133.396,114.883z M127.075,106.906l-0.001-0.22l1.794-0.792l-4.656,0.121l0.962-0.563l-2.201-0.074
		l1.639-1.798l4.058,1.158l0.017-0.604l0.393-0.778l-4.034-1.549l3.748,0.956l-4.524-1.64l0.777-0.088l-0.526-0.399l2.14-0.17
		l-0.638-0.514l4.304,0.591l-1.266-1.786l0.811-0.146l-1.025-0.79l-0.323-2.756l1.656-1.642l1.188,0.062l-1.959-0.12l4.848-5.181
		l-0.712-0.351l4.582-1.813l-7.793-0.981l-8.06-0.192l7.186-1.124l-9.027-0.818l5.355-0.592l-11.123-0.236l0.699,0.45l-7.336,0.445
		l4.397,0.521l-8.271,0.514l1.245,1.122l-2.99-0.834l-0.458,1.376l-4.905-0.673l2.277,1.262l-5.507,0.949l-0.988,1.555l-4.975,2.523
		l-0.094,1.752l3.169,1l-3.73,0.63l0.893-0.108l1.356,0.603l-1.176,0.444l11.359,3.221l-0.837,0.672l1.341,1.837l0.074,1.333
		l0.636-0.32l0.705,1.146l0.316-1.119l0.182,1.243l1.434-0.146l-1.157,0.563l1.153,0.472l0.954,0.915l-3.321-0.433l3.639,1.049
		l-0.673,1.214l0.669,0.058l-0.817,0.641l0.38-0.114l-2.211,0.768l1.866-0.18l-2.168,1.272l2.446-0.341l0.235,0.371l-2.577,1.962
		l2.052-1.032l-1.861,1.182l1.976,0.417l-0.715,2.116l0.673-0.776l-0.07,0.217l0.224-0.79l0.817,1.038l-0.709-0.153l-0.75,0.484
		l1.092-0.147l0.151,0.135l-1.105,0.283l1.506,1.294l0.206,1.077l0.623,0.201l0.909,1.409l0.035,0.345l-0.057-0.128l1.654-0.503
		l0.968,0.727l-0.537,0.362l-0.01,0.217l0.991-0.09l0.136,0.444l0.351,0.084l-0.256-0.211l0.013-0.693l1.164-1.488l-0.306-1.32
		l0.659-0.651l0.937-2.576l1.293-0.333l0.908-0.935l0.659-0.355l-0.347-0.176l0.174,1.058l1.226-0.524l0.127,0.248l0.44-0.86
		l3.04-2.885l1.379,0.274L127.075,106.906L127.075,106.906z M90.237,162.762l0.948-0.417l0.021,0.036L90.237,162.762L90.237,162.762
		z M82.103,162.82l-1.422-0.371l0.962,0.557l0.392-0.219l-0.022,0.022L82.103,162.82L82.103,162.82z M83.437,161.082l0.84-0.293
		l-2.772-1.226l0.19-0.027l-3.535-1.352l-2.784,1.234l2.083-0.546l1.367,0.236l2.378,2.014l2.202-0.134L83.437,161.082
		L83.437,161.082z M88.957,162.568l-0.804-0.833l0.336-0.099l-3.611-0.396l0.937,0.968l-1.83,0.152l2.61,0.715L88.957,162.568
		L88.957,162.568z M143.079,123.238l-0.064,0.585l0.465,0.115l-0.369,1.711l0.534-1.078l0.168,0.09l0.186,0.264l-0.28,1.482
		l1.61-0.311l0.246,1.92l-1.161,0.455l0.104,0.428l-1.101,0.754l1.006,0.25l-0.124,0.103l1.546-0.194l-2.767,1.867l3.711-0.83
		l-0.072-0.085l2.432-0.525l-0.85-0.115l0.281-0.299l-1.212-2.289l0.666,0.134l-0.171-0.592l-3.181-2.341l0.411-0.322l-0.708-1.476
		l0.928-1.306l-1.807,0.933l-0.365,0.411L143.079,123.238L143.079,123.238z M142.146,122.023l-0.293,0.627l0.455-0.344
		L142.146,122.023L142.146,122.023z M78.983,114.99l-0.314-0.189l-1.06-0.176l-2.854-2.084l-1.675,2.674L78.983,114.99
		L78.983,114.99z M139.388,129.364l0.04,0.016l0.267,0.282l-0.448,0.311l0.511-0.092l-0.266,0.224l2.464-0.87l0.55,0.004
		l-0.119-0.113l0.21-2.013l0.567-0.331l-0.097-0.209l0.16,0.127l-1.615-1.084l0.055,0.073l-0.307,0.389l-0.079-0.253l-0.87,0.596
		l0.542,0.047l-1.683,0.569l0.136,0.094l0.067-0.024l-0.05,0.271l0.166,0.301l-0.064,0.243l-0.069,0.06l0.812,0.157l-0.848,0.733
		l0.973-0.126l-0.964,0.316l0.115,0.176L139.388,129.364L139.388,129.364z M69.547,85.837l1.263-0.13l-0.675,0.417l2.586-0.195
		l-1.384,0.558l3.665-0.074l-3.711,0.745l5.13-0.466l-2.856,1.031l3.772-0.282l-0.568,0.384l5.151-1.703l-1.572,0.962l1.603,0.146
		l-5.27,1.097l2.458,1.267l-2.963,1.173l-0.852-0.034l2.42,0.181l-4.981,1.489l1.401-0.308l-0.255,0.484l1.232-0.826l-0.109,0.533
		l1.988,0.456l-5.99,2.699l0.88,0.126l0.043-0.623l0.864,0.332l4.259-0.244l0.398-1.002l0.35-0.437l5.551-1.469l-1.05-0.342
		l1.703-0.396l-3.562-0.661l3.521-0.292l-2.076-0.539l3.175-0.161l-1.252-0.459l2.837-0.147l-0.607-0.377l6.254-2.754l-3.384,0.468
		l6.452-2.21l-6.236-0.652l1.758-0.577l-4.294-0.2l0.415,0.252l-1.476,0.382l-3.834-0.607l1.338,0.844l-3.94-0.637l1.207,0.488
		L77.8,83.883l1.937,1.375l-2.853-0.705l0.336,0.27l-3.658-0.315l1.35,0.487L69.547,85.837L69.547,85.837z M85.614,103.574
		l-0.515,0.507l-0.873-0.19l-0.483,0.103l0.051-0.529l-0.433-0.053l0.855-0.426l-1.471,0.414l-2.385-1.008l0.098,0.75l-1.116-0.471
		l-0.693,0.117l-4.09-1.612l1.029,0.5l-0.315,0.676l0.292,0.529l-1.397,0.092l0.781,1.335l-1.363,0.197l1.346-0.534l0.065-3.805
		l-1.883,4.337l-1.988-0.078l7.397,1.979l-0.697-0.491l1.93-0.467l0.291-0.312l1.664,1.45l0.769-0.014l0.504,0.676l-0.805,0.765
		l1.605-0.516l0.552,0.491l0.19,0.021l0.259,4.618l-1.931,0.261l0.375,0.455l-0.077,0.176l0.46,0.069l0.202-0.054l1.211,0.342
		l1.624,1.361l-0.525,0.221l5.097,1.922l-2.407-2.375l0.83,0.025l2.392,1.481l0.364-0.366l-0.436-1.156l0.453,0.698l0.218-0.62
		l-1.016-0.821l0.055-0.265l-1.003-0.426l-1.761-1.931l1.344,0.233l-0.601-0.611l0.746-0.22l1.166,0.592l1.041-0.159l-0.094,1.68
		l0.245-0.395l0.569,0.654l0.127-1.286l1.26-0.256l-0.482-0.524l0.369-0.336l0.661-0.066l-2.016-0.189l0.569-0.591l-1.426-0.167
		l0.594,0.005l0.135-0.316l-0.846-0.617l-0.485,0.459l-0.851-0.229l0.154-0.655l-0.405,0.368l-0.026-0.611l-2.257-0.627l1.254,0.126
		l0.114-0.222l-1.108-0.245l2.028-0.139l-2.208-0.481l0.208-0.707l-0.9-0.097l1.459-0.734l-2.637,0.605l-1.034-1.08l1.242-0.696
		L85.614,103.574L85.614,103.574z M157.171,89.553l1.141,0.808l0.275,0.595l-0.892,0.005l2.81,1.001l0.641-0.665l1.201,0.201
		l0.335,0.459l-2.46,0.76l2.341,0.379l-2.583,0.46l6.323-2.203l-0.764-0.453l0.229-0.146l-2.659-0.62l-1.139,0.776l-3.253-1.127
		l1.173-0.37l-0.005-0.106L157.171,89.553L157.171,89.553z M226.62,88.429l4.963-0.104l0.378-0.738l-3.944-0.185L226.62,88.429
		L226.62,88.429z M231.729,88.627l-3.878,1.299l5.89,1.013l-0.762-0.627l-0.88-1.401L231.729,88.627L231.729,88.627z
		 M265.577,97.625l5.257,0.452l-0.895-1.184l2.812,0.225l-6.572-0.396L265.577,97.625L265.577,97.625z M234.027,91.559l-0.838,1.099
		l5.199-1.029l-2.516-0.452l0.589-0.876l-0.727,0.083L234.027,91.559L234.027,91.559z M163.687,88.839l2.097,0.602l-0.953,0.302
		l2.74,0.343l3.565-1.375l-3.352-0.12l-0.709,0.268l-2.297-0.808l-0.065,0.586l-1.393,0.039L163.687,88.839L163.687,88.839z
		 M169.318,93.173l-1.244-0.72l-2.769-0.608l0.284,0.109l0.939,0.914l-0.623,0.845l1.286,0.259L169.318,93.173L169.318,93.173z
		 M203.919,95.428l-7.966,2.31l0.496,0.361l-0.311,0.778l-2.038,1.216l3.029-0.08l2.533-1.937l5.912-1.96L203.919,95.428
		L203.919,95.428z M192.228,102.839l1.571,0.855l0.181,0.309l0.458,0.323l-0.258,0.086l-0.405,0.306l3.643,0.224l-1.027-3.922
		l-2.627,0.463L192.228,102.839L192.228,102.839z M7.858,126.369l-1.519,0.21l0.069,0.148l1.495-0.294L7.858,126.369L7.858,126.369z
		 M5.66,119.56l-1.495,0.095L5.66,119.56L5.66,119.56z M3.028,115.727l-2.563-0.658l-0.038,0.375L3.028,115.727L3.028,115.727z
		 M3.83,127.788l-1.084,0.78L3.83,127.788L3.83,127.788z M5.068,127.542l-0.141,0.023l0.273-0.27l-1.354,0.708l1.287-0.433
		L5.068,127.542L5.068,127.542z M17.066,122.856l-0.7-0.383l-0.398,0.39l0.002,0.411l-0.595,0.254l0.238,0.092l0.318-0.038
		L17.066,122.856L17.066,122.856z M61.267,106.49l-6.012-5.495l0.542,2.125l-2.881-1.786l0.391,0.561l-1.452,0.49l0.537-0.574
		l-2.792,0.194l-2.766,1.485l2.094,0.261l-2.639,0.82l5.791,1.015l-3.837,1.472l10.088,0.611l1.058-0.412l-0.269-0.696
		L61.267,106.49L61.267,106.49z M59.893,95.961l-1.086,0.278l-0.159,0.181l0.811,0.025l-0.234,0.268L59.893,95.961L59.893,95.961z
		 M65.21,98.057L65.21,98.057L65.21,98.057L65.21,98.057z M82.792,108.545L82.792,108.545L82.792,108.545L82.792,108.545z
		 M64.957,102.407l-1.531-0.964l1.023-0.783l-0.33-0.098l0.53-0.319l-2.774-0.354l0.271,0.07l-0.902,0.092l0.379,0.563l-0.856-0.092
		L62.221,101l-0.261,0.5l1.55,1.688l1.307-0.748L64.957,102.407L64.957,102.407z M65.347,107.178l-1.944-0.332l-0.952,0.637
		l3.684,0.339L65.347,107.178L65.347,107.178z M69.583,100.852l0.769-0.928l-3.729,0.339l0.417,1.478L69.583,100.852L69.583,100.852
		z M39.945,103.015l5.151-0.45l3.757-2.036l-3.199-0.849l-0.382-0.361l-4.408-0.193L39.945,103.015L39.945,103.015z M53.312,92.903
		l-2.574,0.63L53.312,92.903L53.312,92.903z M66.667,88.86l-1.826-0.169l2.036,0.773l-1.143,0.609l3.807,0.087l-2.458,0.718
		l1.971,0.846l-0.842,0.154l2.884,0.533l-0.47-0.807l1.714,0.21l0.181-1.033l-0.028,0.637l2.421-1.09l-1.935-0.564l-0.539-0.999
		l-0.238-0.028l-5.169-2.414l0.846,0.353l-1.957,0.633l1.362,0.553l-1.893-0.261l0.501,0.639l1.104,0.336L66.667,88.86L66.667,88.86
		z M62.021,89.152l1.045,0.311L62.021,89.152L62.021,89.152z M63.705,91.643l0.031,0.053l0.958,0.753l-0.613,0.113l1.999-0.248
		L63.705,91.643L63.705,91.643z M62.909,95.225l0.114,0.263l-1.717-0.018l0.784,0.287l-0.327,0.073l0.702,0.219l-0.137,0.357
		l-2.092-0.6l0.499,0.086l0.108,0.427l0.394,0.336l-1.567,0.344l3.094-0.171l-1.302,0.504l-0.017,0.102l2.625,0.375l0.29-0.501
		L62.909,95.225L62.909,95.225z M65.516,93.668l2.454-0.319L65.516,93.668L65.516,93.668z M70.79,98.79l1.165-0.473l1.564,0.573
		l-0.055-0.114l6.293-0.609l-0.842-0.198l0.082-0.781l-8.037-0.128l-1.513-1.139l1.878-0.066l-1.91-0.423l0.774,0.005l-2.569,0.084
		l-2.815-0.826L65.16,94.9l-0.426,0.078l4.121,1.8l1.046,1.558L70.79,98.79L70.79,98.79z M42.645,96.011l2.662-0.302l1.464-0.82
		l1.725-0.24l-0.446-0.355l0.738-0.308l-1.059-0.128l-5.323,2.212L42.645,96.011L42.645,96.011z M49.526,93.15l0.849-0.081
		l-1.211-0.281L49.526,93.15L49.526,93.15z M50.115,95.904l-1.634-0.177l0.003,0.105l0.896,0.17l-1.61,0.425l1.428,0.057
		l-1.866,0.436l1.753-0.105l-2.128,0.747l5.638,0.077l-2.87,0.944l4.831-0.544l1.578-1.179l-0.952-0.217l-0.331-0.488l-1.257,0.272
		L50.115,95.904L50.115,95.904z M50.76,92.205L50.76,92.205L50.76,92.205L50.76,92.205z M57.317,90.806l0.485,0.383l0.93-0.168
		l0.442,0.342l-1.395,0.406l1.944,0.274l0.133-0.949l-0.133-0.169L57.317,90.806L57.317,90.806z M301.087,211.794l-1.916-0.032
		l-0.574-1.087l-0.488,0.423l-0.43-1.104l0.163,0.012l-0.168-0.405l0.007,0.002l-0.812-0.505l-0.141,0.13l-0.206-0.528l-0.291,0.024
		l0.791,0.831l0.483,1.139l0.636,0.577l-0.168,0.128l0.167,0.579l-0.671,1.329l0.419,2.151l1.413-0.623l1.397-1.438L301.087,211.794
		L301.087,211.794z M297.462,215.415l-0.086-0.006l0.226-0.226l-0.433,0.256l0.176-0.358l-0.909-0.403l-0.877,0.853l-0.781,1.557
		l-0.037-0.172l-0.201,0.321l-0.105,0.063l-0.264,0.017l0.078,0.077l-0.461,0.252l0.043,0.021l-0.064,0.094l-2.033,1.482
		l-0.048-0.136l-0.13,0.267l-0.025,0.219l-0.064,0.127l-0.201-0.003l0.061,0.132l0.011,0.19l-0.245,0.188l-0.059,0.161l0.229-0.09
		l1.983,0.531l1.521-1.635l0.208-0.678l0.683-0.585l0.471,0.073l-0.092,0.062l0.043-0.382l1.583-2.417L297.462,215.415
		L297.462,215.415z M254.491,169.642L254.491,169.642L254.491,169.642L254.491,169.642z M253.058,169.784l0.658,0.693l0.274-1.576
		L253.058,169.784L253.058,169.784z M252.279,167.47l-1.013-0.716l0.905,0.96L252.279,167.47L252.279,167.47z M250.553,178.996
		l0.792,3.988l0.481-2.488l1.484,1.423l-1.172-2.097l1.785-0.936l-2.917-0.586l4.463-1.354l-0.105-0.156l-4.522,2.167
		L250.553,178.996L250.553,178.996z M252.717,168.064l-0.064,1.249l0.808-0.859L252.717,168.064L252.717,168.064z M254.674,168.417
		l0.617,1.25l-0.033-0.287l0.133,0.153L254.674,168.417L254.674,168.417z M254.031,167.59l-0.277-0.12l-0.067,0.567l0.763,0.15
		L254.031,167.59L254.031,167.59z M275.31,216.294l-1.28-0.96l-1.83-0.501l0.444,1.548l0.083-0.051l0.117,0.354l-0.231-0.268
		l0.882,1.157l0.662-0.207l0.259-0.376l0.132,0.25l0.287,0.192l0.137-0.039l0.23-1.244L275.31,216.294L275.31,216.294z
		 M279.805,202.886l-9.548-15.521l-0.424,1.16l-0.078-0.068l0.042,0.714l-3.772,2.921l-0.54-3.403l-0.307-0.247l-0.24,0.411
		l-0.29-0.525l-3.529-0.478l0.774,0.734l-0.259,0.147l-0.963-0.196l-1.423,2.66l-1.344,0.165l-1.73-1.174l-1.33,1.734l0.123-0.146
		l0.106,0.521l-0.966-0.195l-0.071,1.173l-0.51-0.948l-7.581,5.338l-0.015-0.584l-0.029,4.113l-0.549-0.723l0.344,0.667
		l-0.426-0.229L245.124,201l1.881,4.081l-0.327,2.742l4.192,0.763l11.593-2.357l1.498,2.618l0.729,0.381l1.557-2.295l-0.772,2.544
		l1.035-1.028l0.081,1.389l0.949-0.001l-0.275-0.029l4.892,2.568l-0.232-0.072l1.723,1l-0.157-0.416l3.302-2.14l1.003-2.433
		l-0.092-0.023L279.805,202.886L279.805,202.886z M247.287,185.39l-1.056-0.245l0.529,0.607L247.287,185.39L247.287,185.39z
		 M177.528,146.632l0.079-0.066l-1.937,0.559l1.502,0.091L177.528,146.632L177.528,146.632z M157.618,125.167l0.504,1.143
		l0.004-1.419L157.618,125.167L157.618,125.167z M157.885,126.44L157.885,126.44L157.885,126.44L157.885,126.44z M156.376,125.974
		L156.376,125.974L156.376,125.974L156.376,125.974z M159.729,144.297l-0.858-0.196l0.787,0.993l1.254,0.475l0.448-1.551
		L159.729,144.297L159.729,144.297z M154.961,141.519l0.1,0.806l0.651,0.73l0.454-0.911l-0.053-0.785L154.961,141.519
		L154.961,141.519z M155.911,139.559l-0.32,0.064l-0.206,0.356l0.07,0.426l0.369,0.491L155.911,139.559L155.911,139.559z
		 M238.366,179.809l1.291,0.605l-0.96-0.716L238.366,179.809L238.366,179.809z M241.557,177.201l0.77,2.473l0.834,1.025l2.959,0.278
		l0.156,0.12l1.485-0.213l-0.078-0.163l0.181-0.303l-0.059,0.021l-0.027-0.696l1.404-2.452l0.922,0.099l-1.026-0.889l-0.078-0.732
		l-0.11-0.035l-0.441-0.59l0.39-0.092l0.924-0.579l-0.278-0.493l0.848-0.179l0.006-0.142l-1.507-0.443l-0.612-0.615l-4.778,4.438
		l-1.089-0.37l-0.81,0.503l0.103-0.012L241.557,177.201L241.557,177.201z M245.079,185.288l1.245,0.413l-2.793-1.717l-2.842-0.606
		l-2.031,0.355l2.043,1.053L245.079,185.288L245.079,185.288z M241.583,161.336l1.311-0.321l-1.211,0.184l0.085,0.006
		L241.583,161.336L241.583,161.336z M254.663,167.483l1.236,1.31L254.663,167.483L254.663,167.483z M259.228,148.863l0.327,0.467
		l-0.269-0.198l0.077,0.463l0.626-0.082l0.122,0.037l-0.378,1.251l0.334,0.106l0.057-0.507l0.026,0.66l1.04-2.113L259.228,148.863
		L259.228,148.863z M262.071,146.784l-1.721,1.477l1.055,0.131l3.998-1.162l0.222,0.45l2.561-1.013l-0.172,0.693l0.884-0.781
		l0.5-5.628l-0.562,0.27l-0.356-0.092l-2.63,3.699L262.071,146.784L262.071,146.784z M251.049,158.206l0.206,0.6l-0.01-0.005
		l0.471,0.46L251.049,158.206L251.049,158.206z M250.962,164.318l0.515,1.162l0.045,0.935l1.686,0.529l-0.097-0.638l1.422,0.774
		l-0.307-0.064l0.062-0.596l-0.648,0.043l-0.757-4.146L250.962,164.318L250.962,164.318z M218.202,171.898l-1.205-1.758
		l-0.295-0.083l-0.288,1.1L218.202,171.898L218.202,171.898z M191.138,191.019l-0.9-2.474l-1.116,2.244l-0.451,0.027l-0.325,0.654
		l-2.23,1.595l-0.914,3.064l0.227,2.877l2.13,1.046l1.827-3.113l1.266-5.474l0.4,0.444L191.138,191.019L191.138,191.019z
		 M238.356,182.967l-0.561-2.534l-3.232-3.864l-4.859-3.08l5.714,7.583L238.356,182.967L238.356,182.967z M261.308,148.866
		l0.579,0.416l-0.057,0.132l1.321-0.46l0.479-0.546l-0.976-0.404L261.308,148.866L261.308,148.866z M277.282,187.046l0.182-0.088
		l-3.345-2.913l0.767-0.146l-5.504-3.346l-2.625-0.354l-3.036,0.502l-3.304-1.264l2.512,0.577l-0.111,0.163l-0.078,0.28l-1.484,0.14
		l1.328,0.53l0.278-0.304l3.861,2.233l0.45,1.009l0.27,0.283l0.062,0.678l0.745-0.051l1.458,1.012l0.336-0.779l1.444-0.152
		l-0.041-0.064l0.088,0.002l-0.247-0.414l2,0.651l2.501,1.751L277.282,187.046L277.282,187.046z M269.696,128.958l0.234,7.311
		l1.164-0.119l1.102-2.813l-2.042-6.375L269.696,128.958L269.696,128.958z M268.431,139.455l-0.209,1.465l0.915-0.378l-0.718-0.541
		l4.737-1.083l-0.397-0.979l-3.191-1.071L268.431,139.455L268.431,139.455z M252.853,185.668l0.491-0.467l0.138,0.03l-2.613,0.17
		L252.853,185.668L252.853,185.668z M250.034,185.644l-0.164-0.246l-0.822-0.228l0.411,0.379l-1.241,0.354L250.034,185.644
		L250.034,185.644z M255.619,186.135l1.621-0.729l-3.17,1.583L255.619,186.135L255.619,186.135z M250.124,186.431l1.542,0.42
		L250.124,186.431L250.124,186.431z M259.522,181.11l0.731,0.397l-2.514-0.542l0.021,0.233L259.522,181.11L259.522,181.11z
		 M311.26,111.791l-0.71-0.149l-2.064-1.162l-0.29,0.305l0.162-0.312l-1.196-0.031l0.417,1.226l-1.124-1.609l-2.575-1.764
		l0.272,0.443l-0.598-0.583l0.184,0.111l-9.411-2.299l-0.28,0.729l-7.988,1.624l-0.97-3.184l-6.839-0.515l0.283-0.063l-1.714-0.317
		l-1.008-0.766l0.036-0.075l0.902-0.211l-4.316,0.225l0.064-0.273l1.002-0.336l-0.193,0.305l0.709-0.557l-2.287,0.059l1.773-0.146
		l-4.426-0.38l-1.665,0.412l0.03,0.265l0.869-0.044l-0.713,0.381l0.537,0.726l-1.837,0.415l-4.457-1.099l-2.741,0.295l-0.291-0.339
		l-1.199-0.733l1.337,0.513l-0.742-0.708l0.154-0.582l0.432-0.352l-3.007-0.547l-2.639,0.703l0.194,0.178l-3.712-0.553l0.413-0.445
		l-4.314,0.283l-0.149,1.123l-0.752-2.138l-1.104-0.111l-1.618,0.379l1.032,0.115l-4.915,1.557l7.369-4.453l-1.094-0.656l0.888,0.46
		l-0.428-1.175l-0.284,0.326l-0.613-0.573l-4.772-0.368l0.897-0.599l-2.771-0.313l1.595-0.52l-3.758,1.616l-2.471,0.008l0.547,1.186
		l-5.626-0.185l1.087-0.085l-6.212,1.458l0.427,0.293l-1.397,0.5l1.234,0.473l-1.055,0.08l1.348,0.84l-0.734,1.124l0.27-1.146
		l-3.391,5.92l-0.192-0.018l-0.15-0.172l0.161-1.134l-0.557,0.862l0.87-1.977l-5-0.696l0.706,0.246l-1.889,0.066l2.619,1.425
		l-3.689-2.867l-0.77,5.287l3.229,0.77l1.092,1.929l-1.555-1.475l-6.953,2.625l1.439,0.062l0.579-0.309l0.47-6.875l-1.946-2.152
		l-2.403,2.91l0.043,2.31l1.927,0.904l-7.703-0.959l-0.92,1.708l-0.739-0.576l-4.273,0.836l1.057-1.071l-7.035,3.135l0.337-1.451
		l-2.883-1.21l0.662,3.845l-0.483-0.162l-2.659,1.873l-4.717,0.031l-1.366-2.195l0.254-0.16l-1.513-1.026l0.89,0.107l1.306,0.623
		l4.547-2.182l0.065,0.152l-5.736-1.492l-0.901-0.847l0.774,0.011l-3.618-0.788l1.872-0.303l-2.377,0.146l-0.253-0.659l-1.128,0.412
		l0.065-0.817l-1.389,1.277l0.633-1.087l-2.084,1.278l-1.725-0.342l0.54,0.568l-1.648,0.756l0.231-0.924l-0.586,0.787l-0.623,0.133
		l-2.054,1.256l0.898,0.064l-1.081,0.83l-0.593-0.098l-0.705,0.202l-0.016,0.196l0.697,0.472l-0.989,0.112l0.853,0.035l-1.266,0.649
		l0.062,0.706l-1.073,0.279l0.113,1.065l-1.391,0.808l0.289-0.082l-1.75,1.547l1.6-0.438l-0.242,0.141l-0.357,0.59l-2.027-0.099
		l0.192,0.922l-1.621,0.167l1.167-0.015l-2.574,0.931l1.403,0.206l-1.195,0.501l1.807,0.066l0.139,0.291l-2.229,0.223l0.55,0.451
		l0.034,0.723l-0.466,0.614l1.588-1.111l-1.058,0.898l0.384-0.031l-0.892,0.844l1.057-0.501l-0.035,0.704l0.282,0.966l0.189,0.101
		l2.059-0.886l1.104-1.142l0.681,0.917l-0.12,0.832l1.21,2.357l-0.159,0.181l0.355,1.051l2.461-1.387l1.008-2.356l-0.61-0.179
		l2.063-0.864l-0.562-0.04l-0.659-3.032l0.231,0.052l0.145-0.719l0.347-0.486l0.048-0.313l0.351-0.203l-0.162-0.01l1.016-0.573
		l0.006-0.114l1.639-2.472l0.58-0.409l2.767,0.36l-3.14,3.15l0.024,2.875l0.672,1.045l0.43,0.258l3.129-1.022l-0.062,0.276
		l1.792-0.101l-0.112-0.062l1.4,0.85l-5.211,0.633l-0.321,0.733l0.729,0.539l-2.222,0.932l-1.156,3.147l0.445-0.752l-2.3,1.033
		l0.312,0.132l-4.27,0.593l0.649,0.568l-4.05-0.973l-0.354-0.668l0.386-0.956l0.878-0.721l-0.272-1.574l-2.01,1.199l0.797,0.063
		l-0.886,0.114l0.351,1.762l1.04,1.851l-3.756,0.462l-1.054,1.765l-0.152,0.017l0.231,0.14l-0.042,0.096l-3.251,2.134l-1.972-0.232
		l0.412,1.133l-2.459,0.381l-0.075,0.146l-0.3,0.142l2.521,0.89l0.61,1.574l-0.152-0.031l0.567,0.813l-0.457-0.561l-0.141,0.911
		l0.145-0.024l-6.598,1.558l-0.309,2.899l0.389,1.917l-0.183-0.022l-0.099,1.391l1.832-0.241l0.401,0.437l0.154-0.079l2.688,0.174
		l2.823-1.991l0.44-2.065l0.867-0.318l1.797-2.17l2.113-0.094l1.043-0.433h1.285l4.595,3.24l1.189,2.651l2.248-1.87l-4.986-5.884
		l-0.09,0.082l1.16-0.169l0.066,0.833l1.383,0.591l-0.299,0.016l2.233,1.457l-0.583-0.169l1.375,0.587l0.581,2.068l1.57,1.485
		l0.153,0.431l1.365,0.522l-0.882,1.197l0.512,0.283l0.575-0.001l-0.372-1.07l0.655,0.1l-0.379-0.455l0.834,0.221l-1.245-1.175
		l0.651-0.306l-0.349-1.418l0.633,0.66l-0.232-0.289l0.481,0.257l0.34-0.182l-0.499-0.604l2.602,0.122l-0.507,0.554l2.365-0.94
		l0.087-0.224l-1.352-1.263l1.206-2.183l-0.07,0.011l0.247-0.43l-0.04,0.228l2.159-2.14l0.169-0.468l0.703,0.641l-0.878,0.065
		l0.193,0.246l1.558,0.242l0.061,0.159l-0.993,0.575l3.492,0.01l-1.154-1.111L178,136.067l3.219-1.235l-0.18,0.119l0.633,0.085
		l-0.678,0.436l-0.631,0.029l0.624,0.582l-1.521,0.761l4.031,3.327l-1.954,1.125l-3.433-0.943l-5.234,0.999l0.686,0.272
		l-0.906,0.205l0.229,0.111l-1.037,0.042l-1.489,0.917l0.674-0.083l0.21,1.091l-0.731,0.173l0.835,1.278l0.84-0.052l-0.136,0.271
		l6.839-0.154l0.113,0.1l-3.403,5.275l-0.383,0.001l0.104-0.178l0.21,0.133l-1.351-0.072l0.31-0.141l-8.468-1.141l-4.241,1.425
		l-4.226-1.875l-0.419-0.419l0.354-3.074l-0.062-0.194l-12.044,1.619l-1.979-0.479l-3.056,2.859l-1.17,3.32l-4.964,5.21l0.155-0.154
		l-1.07,2.713l0.444,0.085l0.073,1.094l0.12-0.035l-1.057,4.165l1.81,1.116l-0.651,0.16l-0.227,0.607l0.176,0.296l1.002,0.231
		l0.02,0.713l0.323,0.389l0.072-0.067l0.776,0.721l-0.002,0.336l0.676,0.754l0.364,0.773l6.37,2.239l-0.263-0.017l1.143-0.067
		l-0.491-0.006l1.366,0.09l-0.196,0.014l6.008-1.253l-0.258,0.133l1.723,0.696l0.079,0.117l-0.063,0.273l0.683,0.614l0.265-0.037
		l0.242,0.087l-0.08-0.299l1.625,0.046l0.927,0.697l0.226,3.112l-0.176,0.128l-0.379-0.255l-0.559,0.795l0.551,0.625l-0.266-0.014
		l0.225,0.505l0.656,0.551l-0.292-0.07l2.873,2.894l-0.013,2.687l0.033-0.093l-0.966,5.813l5.576,16.994l0.719,0.257l7.191-1.657
		l4.534-6.308l-0.091,0.168l2.176-3.44l-0.631-2.447l5.149-4.519l-0.136-3.261l-0.654-0.656l-0.376-1.896l1.376-4.915l8.847-10.728
		l-0.138,0.095l0.192-1.193l-7.5,0.223l0.41-1.146l-2.76-1.929l-2.263-5.253l0.092,0.058l-4.028-8.112l1.421,2.042l0.647-1.653
		l-0.3,1.377l3.706,4.702h-0.05l3.354,6.717l-0.079-0.053l0.679,2.278l10.421-4.174l2.251-2.732l0.01-2.621l-1.583-2.547
		l-1.044,1.205l-3.084,0.62l-0.29-0.243l-0.005-1.402l-0.394,1.238l-0.561-1.702l-0.785-0.759l-0.939-1.919l0.737-0.87l2.161,2.405
		l2.115,0.745l2.514,0.095l1.834,1.437l6.373-0.026l-0.289-0.043l1.302,1.421l0.183,0.016l0.22,0.134l0.042-0.094l0.525,0.005
		l1.471,0.685l-1.293,0.63l2.622,0.503l0.125-0.399l0.538,0.032l-0.229,0.478l0.489-0.048l-0.429,0.258l0.104-0.009l0.218,1.943
		l-0.132,0.266l0.118-0.156l0.824,3.29h-0.113l2.097,4.726l2.721,0.63l0.641-3.894l0.129,0.197l1.646-3.208l3.454-2.535l1.455-2.064
		l0.299,0.55l0.304-0.325l0.186,0.336l0.167-0.311l0.369-0.163l0.074,0.453l0.358-0.623l-0.027,0.396l0.22-0.12l0.294-0.669
		l-0.243-0.495l0.288-0.122l0.752,0.634l0.272,0.526l0.057-0.048l0.738,1.828l-0.013-0.237l0.28,0.14l-0.016,0.195l0.067,0.004
		l0.525,0.238l-0.184,0.48l0.475,0.072l0.173,0.482l-0.064,0.007l0.456,1.947l-0.035,0.53l0.199-0.243l0.389,0.074l1.292-1.14
		l0.752,0.729l0.363,2.541l0.044-0.288l0.58,1.953l-0.27,1.45l0.12-0.134l2.016,5.553l2.517,1.761l-0.924-2.277l-2.356-2.816
		l0.33,0.318l-0.328-1.096l1.8-3.34l0.288,0.165l1.868,3.099l0.911-1.203l0.262-0.189l0.281-0.067l0.123-0.143l2.239-1.331
		l0.027,0.088l-0.034-0.438l0.084,0.021l0.12-0.18l-0.17-1.085l0.035,0.078l-2.518-3.486l0.105,0.04l1.719-3.7l0.895,0.189
		l0.204,0.118l0.192,1.027l-0.084-0.009l0.45-0.821l2.3-0.775l0.457-0.823l0.556,0.745l2.661-1.159l0.409-0.797l1.528-0.83
		l-0.415-0.664l0.385-0.605l0.203-0.056l0.792-1.066l0.74-0.26l-0.059-0.59l-0.08-0.185l0.051-0.327l0.496-0.358l-1.623-0.345
		l1.445-0.631l-1.582-0.958l1.571,0.219l0.688-5.472l-3.125-0.493l-0.044-1.267l2.44-0.203l-0.563,0.651l3.771,0.046l-0.741,0.55
		l0.477,0.072l-0.222,0.124l1.619,1.086l-0.595,0.129l0.371,1.089l-0.017,0.719l-0.104,0.066l0.044,0.055l0.687,0.225l1.932-1.531
		l-1.739-3.458l2.716-3.133l1.119-0.643l-0.126,0.191l0.381-0.226l-0.006,0.444l7.33-11.091l-1.874-1.406l-0.351,0.902l-0.356-0.491
		l-0.425-0.179l0.28-0.214l-0.438,0.54l-0.375,0.02l2.393-4.236l8.078-2.385l0.25-0.258l1.256-0.086l-0.158,0.078l1.526,0.341
		l-0.979,0.177l3.469-0.135l0.006-0.214l-0.874-0.212l5.289-3.041l-0.445,1.219l0.506-0.089l-0.177,0.498l4.503-2.355l-0.18,0.097
		l-7.266,13.839l1.481-2.346l1.334-0.112l1.667-1.816l0.92-2.185l-0.057,0.587l0.218-2.133l-0.715,0.09l1.479-2.721l1.922-0.749
		l-0.143,0.81l3.577-0.148l7.248-4.672l-0.484-1.117l-3.16-0.438l2.296-0.245l-0.757-0.256l3.13-0.023v0.01l0.271-1.56l0.993-0.308
		l-0.354,0.521l5.634,2.221l-0.607-0.53l0.573-0.875l-0.313-0.323l1.44,0.238l-0.297-0.396L311.26,111.791L311.26,111.791z
		 M194.913,141.47l-0.285,0.2l-1.23,0.148l0.078,0.775l0.172,0.166l-0.068,0.342l0.449,2.379l0.203-0.075l-3.01-0.12l-1.107-1.924
		l1.068-1.275l-1.868-1.915l-0.467-1.769l-0.158,0.341l-0.394-1.377l0.068,0.062l0.472-0.808l1.484-0.878l3.296,1.144l-1.422,0.841
		l-1.069-0.053l2.19,2.488L194.913,141.47L194.913,141.47z"/>
</g>
<g>
	<g>
		<path fill="#DFF1F9" d="M249.327,269.109c0,4.352-3.561,7.912-7.912,7.912H69.333c-4.352,0-7.912-3.561-7.912-7.912V8.343
			c0-4.351,3.56-7.911,7.912-7.911h172.082c4.352,0,7.912,3.56,7.912,7.911V269.109z"/>
		<path fill="#FFFFFF" d="M69.333,273.631c-2.493,0-4.521-2.028-4.521-4.521V8.343c0-2.493,2.028-4.521,4.521-4.521h172.082
			c2.493,0,4.521,2.028,4.521,4.521v260.766c0,2.493-2.028,4.521-4.521,4.521H69.333z"/>
	</g>
	<g>
		<path fill="#DFF1F9" d="M249.327,21.433c0,0.278-0.293,0.506-0.651,0.506s-4.211,0-8.562,0H70.964c-4.352,0-8.278,0-8.727,0
			s-0.815-0.228-0.815-0.506c0-0.279,0-4.067,0-8.418V7.912c0-4.351,3.56-7.912,7.912-7.912h172.082
			c4.352,0,7.912,3.561,7.912,7.912v5.103C249.327,17.366,249.327,21.154,249.327,21.433z"/>
	</g>
	<g>
		<path fill="#FFFFFF" d="M189.669,10.854c0,2.486-2.034,4.521-4.521,4.521H96.637c-2.486,0-4.521-2.035-4.521-4.521l0,0
			c0-2.486,2.035-4.521,4.521-4.521h88.512C187.635,6.333,189.669,8.368,189.669,10.854L189.669,10.854z"/>
	</g>
	<circle fill="#FFFFFF" cx="72.903" cy="10.854" r="4.521"/>
	<circle fill="#FFFFFF" cx="84.461" cy="10.854" r="4.521"/>
	<circle fill="#FFFFFF" fill-opacity="0.26" cx="196.878" cy="10.854" r="4.521"/>
	<circle fill="#FFFFFF" fill-opacity="0.26" cx="210.301" cy="10.854" r="4.521"/>
	<circle fill="#FFFFFF" fill-opacity="0.26" cx="223.441" cy="10.854" r="4.521"/>
	<circle fill="#FFFFFF" fill-opacity="0.26" cx="241.265" cy="6.333" r="2.353"/>
	<circle fill="#FFFFFF" fill-opacity="0.26" cx="234.292" cy="6.333" r="2.353"/>
	<rect x="68.382" y="25.469" fill="#DFF1F9" width="174.316" height="7.263"/>
	<rect x="92.116" y="37.837" fill="none" width="9.272" height="9.271"/>
	<rect x="127.181" y="37.837" fill="none" width="78.669" height="30.085"/>
	<rect x="127.181" y="122.285" fill="none" width="30.109" height="30.085"/>
	<line fill="none" x1="104.684" y1="39.762" x2="121.841" y2="39.762"/>
	<line fill="none" x1="104.684" y1="43.153" x2="121.841" y2="43.153"/>
	<rect x="127.373" y="107.141" fill="none" width="6.682" height="6.682"/>
	<line fill="none" x1="136.466" y1="108.271" x2="153.623" y2="108.271"/>
	<line fill="none" x1="136.466" y1="111.662" x2="206.212" y2="111.662"/>
	<rect x="127.373" y="155.07" fill="none" width="6.682" height="6.682"/>
	<line fill="none" x1="136.466" y1="156.2" x2="153.623" y2="156.2"/>
	<line fill="none" x1="136.466" y1="159.591" x2="206.212" y2="159.591"/>
	<g>
	</g>
	<g>
	</g>
	<line fill="none" x1="127.874" y1="74.032" x2="193.576" y2="74.032"/>
	<g>
	</g>
	<line fill="none" x1="127.874" y1="172.023" x2="193.576" y2="172.023"/>
	<g>
	</g>
	<line fill="none" x1="160.725" y1="122.77" x2="199.052" y2="122.77"/>
	<rect x="127.181" y="214.409" fill="none" width="30.109" height="30.085"/>
	<rect x="127.373" y="247.194" fill="none" width="6.682" height="6.682"/>
	<line fill="none" x1="136.466" y1="248.324" x2="153.623" y2="248.324"/>
	<line fill="none" x1="136.466" y1="251.715" x2="206.212" y2="251.715"/>
	<g>
	</g>
	<line fill="none" x1="160.725" y1="214.894" x2="199.052" y2="214.894"/>
</g>
<g>
	<g>
		<path fill="#4BA3CC" d="M271.637,238.064l-42.413-42.413c-4.178-4.175-7.564-2.533-11.334,0.89l-17.186-17.187l-8.147,8.148
			l17.185,17.186c-3.423,3.77-5.065,7.158-0.89,11.335l42.413,42.413c2.813,2.812,6.5,4.219,10.187,4.219
			c3.686,0,7.372-1.406,10.186-4.219C277.262,252.811,277.262,243.691,271.637,238.064z"/>
	</g>
	<path fill="#0587BF" d="M192.557,187.503l17.185,17.186c-3.423,3.77-5.065,7.158-0.89,11.335l42.413,42.413
		c2.813,2.812,6.5,4.219,10.187,4.219c3.686,0,7.372-1.406,10.186-4.219L196.63,183.43L192.557,187.503z"/>
</g>
<g opacity="0.18">
	<g>
		
			<line fill="none" stroke="#FFFFFF" stroke-width="2" stroke-linecap="round" stroke-linejoin="round" stroke-miterlimit="10" x1="14.227" y1="138.533" x2="27.454" y2="151.76"/>
		
			<line fill="none" stroke="#FFFFFF" stroke-width="2" stroke-linecap="round" stroke-linejoin="round" stroke-miterlimit="10" x1="1" y1="151.76" x2="14.227" y2="138.533"/>
	</g>
	
		<line fill="none" stroke="#FFFFFF" stroke-width="2" stroke-linecap="round" stroke-linejoin="round" stroke-miterlimit="10" x1="14.227" y1="174.836" x2="14.227" y2="138.533"/>
</g>
<g opacity="0.18">
	<g>
		
			<line fill="none" stroke="#FFFFFF" stroke-linecap="round" stroke-linejoin="round" stroke-miterlimit="10" x1="40.15" y1="192.776" x2="46.105" y2="198.731"/>
		
			<line fill="none" stroke="#FFFFFF" stroke-linecap="round" stroke-linejoin="round" stroke-miterlimit="10" x1="34.196" y1="198.731" x2="40.15" y2="192.776"/>
	</g>
	
		<line fill="none" stroke="#FFFFFF" stroke-linecap="round" stroke-linejoin="round" stroke-miterlimit="10" x1="40.15" y1="209.12" x2="40.15" y2="192.776"/>
</g>
<g opacity="0.18">
	<g>
		
			<line fill="none" stroke="#FFFFFF" stroke-width="0.4301" stroke-linecap="round" stroke-linejoin="round" stroke-miterlimit="10" x1="91.709" y1="196.393" x2="85.754" y2="202.348"/>
		
			<line fill="none" stroke="#FFFFFF" stroke-width="0.4301" stroke-linecap="round" stroke-linejoin="round" stroke-miterlimit="10" x1="85.754" y1="190.438" x2="91.709" y2="196.393"/>
	</g>
	
		<line fill="none" stroke="#FFFFFF" stroke-width="0.4301" stroke-linecap="round" stroke-linejoin="round" stroke-miterlimit="10" x1="75.365" y1="196.393" x2="91.709" y2="196.393"/>
</g>
<g opacity="0.18">
	<g>
		
			<line fill="none" stroke="#FFFFFF" stroke-linecap="round" stroke-linejoin="round" stroke-miterlimit="10" x1="142.235" y1="229.452" x2="153.81" y2="241.026"/>
		
			<line fill="none" stroke="#FFFFFF" stroke-linecap="round" stroke-linejoin="round" stroke-miterlimit="10" x1="130.662" y1="241.026" x2="142.235" y2="229.452"/>
	</g>
	
		<line fill="none" stroke="#FFFFFF" stroke-linecap="round" stroke-linejoin="round" stroke-miterlimit="10" x1="142.235" y1="261.218" x2="142.235" y2="229.452"/>
</g>
<g opacity="0.18">
	<g>
		
			<line fill="none" stroke="#FFFFFF" stroke-width="0.8359" stroke-linecap="round" stroke-linejoin="round" stroke-miterlimit="10" x1="118.523" y1="70.402" x2="130.097" y2="81.976"/>
		
			<line fill="none" stroke="#FFFFFF" stroke-width="0.8359" stroke-linecap="round" stroke-linejoin="round" stroke-miterlimit="10" x1="106.949" y1="81.976" x2="118.523" y2="70.402"/>
	</g>
	
		<line fill="none" stroke="#FFFFFF" stroke-width="0.8359" stroke-linecap="round" stroke-linejoin="round" stroke-miterlimit="10" x1="118.523" y1="102.167" x2="118.523" y2="70.402"/>
</g>
<g opacity="0.18">
	<g>
		
			<line fill="none" stroke="#FFFFFF" stroke-width="0.8359" stroke-linecap="round" stroke-linejoin="round" stroke-miterlimit="10" x1="256.464" y1="64.754" x2="268.038" y2="76.328"/>
		
			<line fill="none" stroke="#FFFFFF" stroke-width="0.8359" stroke-linecap="round" stroke-linejoin="round" stroke-miterlimit="10" x1="244.89" y1="76.328" x2="256.464" y2="64.754"/>
	</g>
	
		<line fill="none" stroke="#FFFFFF" stroke-width="0.8359" stroke-linecap="round" stroke-linejoin="round" stroke-miterlimit="10" x1="256.464" y1="96.52" x2="256.464" y2="64.754"/>
</g>
<g opacity="0.18">
	<g>
		
			<line fill="none" stroke="#FFFFFF" stroke-linecap="round" stroke-linejoin="round" stroke-miterlimit="10" x1="268.038" y1="167.104" x2="279.612" y2="178.679"/>
		
			<line fill="none" stroke="#FFFFFF" stroke-linecap="round" stroke-linejoin="round" stroke-miterlimit="10" x1="256.464" y1="178.679" x2="268.038" y2="167.104"/>
	</g>
	
		<line fill="none" stroke="#FFFFFF" stroke-linecap="round" stroke-linejoin="round" stroke-miterlimit="10" x1="268.038" y1="198.87" x2="268.038" y2="167.104"/>
</g>
<path fill="#4BA3CC" d="M230.337,151.469l-5.485-3.471c-1.824-0.547-3.198-2.545-3.052-4.442c0,0,0.078-1.048,0.078-3.34
	s-0.078-3.34-0.078-3.34c-0.146-1.897,1.228-3.896,3.052-4.442l5.485-3.472c1.578-0.473,2.592-2.177,2.261-3.789l-3.06-11.532
	c-0.516-1.563-2.239-2.532-3.846-2.152l-6.562-0.251c-1.857,0.439-4.076-0.586-4.954-2.275l-3.322-5.737
	c-1.037-1.6-0.811-4.038,0.494-5.423l3.086-5.826c1.129-1.198,1.158-3.181,0.058-4.407l-8.435-8.429
	c-1.227-1.101-3.204-1.071-4.402,0.058l-5.836,3.085c-1.386,1.305-3.818,1.531-5.418,0.495l-5.743-3.327
	c-1.689-0.867-2.715-3.098-2.275-4.95l-0.244-6.557c0.38-1.602-0.585-3.331-2.152-3.842l-11.532-3.069
	c-1.616-0.331-3.321,0.688-3.789,2.265l-3.466,5.481c-0.541,1.825-2.546,3.198-4.438,3.052c0,0-1.048-0.079-3.345-0.079
	c-2.297,0-3.344,0.079-3.344,0.079c-1.893,0.146-3.897-1.227-4.438-3.052l-3.467-5.481c-0.468-1.578-2.172-2.596-3.789-2.265
	l-11.532,3.069c-1.568,0.511-2.532,2.24-2.152,3.842l-0.245,6.557c0.439,1.852-0.586,4.083-2.275,4.95l-5.743,3.327
	c-1.6,1.037-4.032,0.811-5.418-0.495l-5.836-3.085c-1.197-1.129-3.175-1.159-4.402-0.058l-8.434,8.429
	c-1.101,1.227-1.071,3.209,0.058,4.407l3.085,5.826c1.305,1.385,1.531,3.823,0.495,5.423l-3.322,5.737
	c-0.878,1.689-3.097,2.715-4.955,2.275l-6.562,0.251c-1.606-0.38-3.331,0.589-3.847,2.152l-3.059,11.532
	c-0.331,1.612,0.682,3.316,2.26,3.789l5.486,3.472c1.824,0.547,3.198,2.545,3.051,4.442c0,0-0.078,1.048-0.078,3.34
	s0.078,3.34,0.078,3.34c0.147,1.897-1.227,3.896-3.051,4.442l-5.486,3.471c-1.578,0.473-2.591,2.177-2.26,3.789l3.059,11.532
	c0.516,1.563,2.24,2.532,3.847,2.152l6.562,0.251c1.858-0.439,4.077,0.586,4.955,2.275l3.322,5.738
	c1.037,1.599,0.811,4.037-0.495,5.422l-3.085,5.826c-1.129,1.198-1.159,3.181-0.058,4.407l8.434,8.429
	c1.227,1.102,3.205,1.071,4.402-0.058l5.836-3.085c1.386-1.306,3.818-1.531,5.418-0.495l5.743,3.327
	c1.689,0.867,2.714,3.098,2.275,4.95l0.245,6.557c-0.38,1.602,0.584,3.331,2.152,3.842l11.532,3.068
	c1.617,0.331,3.321-0.687,3.789-2.265l3.467-5.481c0.541-1.824,2.545-3.197,4.438-3.051c0,0,1.047,0.078,3.344,0.078
	c2.297,0,3.345-0.078,3.345-0.078c1.892-0.146,3.896,1.227,4.438,3.051l3.466,5.481c0.468,1.578,2.173,2.596,3.789,2.265
	l11.532-3.068c1.567-0.511,2.532-2.24,2.152-3.842l0.244-6.557c-0.439-1.853,0.586-4.083,2.275-4.95l5.743-3.327
	c1.6-1.036,4.032-0.811,5.418,0.495l5.836,3.085c1.198,1.129,3.176,1.159,4.402,0.058l8.435-8.429
	c1.101-1.227,1.071-3.209-0.058-4.407l-3.086-5.826c-1.305-1.385-1.531-3.823-0.494-5.422l3.322-5.738
	c0.878-1.689,3.097-2.715,4.954-2.275l6.562-0.251c1.606,0.38,3.33-0.589,3.846-2.152l3.06-11.532
	C232.929,153.646,231.915,151.941,230.337,151.469z M153.416,196.034c-30.828,0-55.819-24.991-55.819-55.819
	s24.992-55.819,55.819-55.819c30.827,0,55.819,24.992,55.819,55.819S184.243,196.034,153.416,196.034z"/>
<path fill="#0587BF" d="M209.235,140.215c0,30.828-24.992,55.819-55.819,55.819c-30.828,0-55.819-24.991-55.819-55.819H84.954
	c0,2.292,0.078,3.34,0.078,3.34c0.147,1.897-1.227,3.896-3.051,4.442l-5.486,3.471c-1.578,0.473-2.591,2.177-2.26,3.789
	l3.059,11.532c0.516,1.563,2.24,2.532,3.847,2.152l6.562,0.251c1.858-0.439,4.077,0.586,4.955,2.275l3.322,5.738
	c1.037,1.599,0.811,4.037-0.495,5.422l-3.085,5.826c-1.129,1.198-1.159,3.181-0.058,4.407l8.434,8.429
	c1.227,1.102,3.205,1.071,4.402-0.058l5.836-3.085c1.386-1.306,3.819-1.531,5.418-0.495l5.743,3.327
	c1.689,0.867,2.714,3.098,2.275,4.95l0.245,6.557c-0.38,1.602,0.584,3.331,2.152,3.842l11.532,3.068
	c1.617,0.331,3.321-0.687,3.789-2.265l3.467-5.481c0.541-1.824,2.545-3.197,4.438-3.051c0,0,1.047,0.078,3.344,0.078
	c2.297,0,3.345-0.078,3.345-0.078c1.892-0.146,3.896,1.227,4.438,3.051l3.466,5.481c0.468,1.578,2.173,2.596,3.789,2.265
	l11.532-3.068c1.567-0.511,2.532-2.24,2.152-3.842l0.244-6.557c-0.439-1.853,0.586-4.083,2.275-4.95l5.743-3.327
	c1.6-1.036,4.032-0.811,5.418,0.495l5.837,3.085c1.197,1.129,3.175,1.159,4.401,0.058l8.435-8.429
	c1.101-1.227,1.071-3.209-0.058-4.407l-3.086-5.826c-1.305-1.385-1.531-3.823-0.494-5.422l3.322-5.738
	c0.878-1.689,3.097-2.715,4.954-2.275l6.562-0.251c1.606,0.38,3.33-0.589,3.847-2.152l3.059-11.532
	c0.331-1.612-0.683-3.316-2.261-3.789l-5.485-3.471c-1.825-0.547-3.198-2.545-3.052-4.442c0,0,0.078-1.048,0.078-3.34H209.235z"/>
<g>
	<circle opacity="0.4" fill="#54D6FF" cx="153.416" cy="140.215" r="55.819"/>
	<circle fill="none" stroke="#53AFAB" stroke-width="15.6758" stroke-miterlimit="10" cx="153.416" cy="140.215" r="55.819"/>
	<circle fill="none" stroke="#4BA3CC" stroke-width="5.291" stroke-miterlimit="10" cx="153.416" cy="140.215" r="55.819"/>
</g>
<g>
	<g>
		<path fill="none" stroke="#0668A4" stroke-width="7" stroke-miterlimit="10" d="M215.123,140.215
			c0,34.08-27.627,61.708-61.707,61.708s-61.707-27.628-61.707-61.708"/>
	</g>
</g>
<g>
	<path fill="#F25A58" d="M125.749,169.47v-20.632h14.242v-9.136h-14.242v-20.708l6.076,0.077c3.395,0,7.916-0.894,9.246-2.224
		c3.505-3.505,4.514-4.805,4.555-4.858l1.796-2.485l3.008,0.079h20.327v39.255h14.242v20.632H125.749z"/>
	<path fill="#FFFFFF" d="M164.757,154.838v-39.255H150.43c0,0-1.017,1.406-5.117,5.506c-4.1,4.1-13.564,3.981-13.564,3.981v8.631
		h14.242v21.136h-14.242v8.632h47.25v-8.632H164.757z"/>
</g>
<g>
	<line fill="none" stroke="#FF936C" stroke-miterlimit="10" x1="119.561" y1="185.326" x2="93.258" y2="204.098"/>
	<line fill="none" stroke="#FF936C" stroke-miterlimit="10" x1="93.258" y1="204.098" x2="61.955" y2="200.39"/>
	<line fill="none" stroke="#FF936C" stroke-miterlimit="10" x1="61.955" y1="200.39" x2="35.652" y2="229.644"/>
	<circle fill="#F05B58" stroke="#FF936C" stroke-width="2" stroke-miterlimit="10" cx="119.561" cy="185.326" r="4.937"/>
	<circle fill="#F05B58" stroke="#FF936C" stroke-width="2" stroke-miterlimit="10" cx="93.258" cy="204.098" r="4.937"/>
	<circle fill="#F05B58" stroke="#FF936C" stroke-width="2" stroke-miterlimit="10" cx="61.955" cy="200.39" r="4.937"/>
	<circle fill="#F05B58" stroke="#FF936C" stroke-width="2" stroke-miterlimit="10" cx="35.653" cy="229.644" r="4.937"/>
</g>
<g>
	<line fill="none" stroke="#FF936C" stroke-miterlimit="10" x1="295.712" y1="75.7" x2="269.409" y2="94.472"/>
	<line fill="none" stroke="#FF936C" stroke-miterlimit="10" x1="269.409" y1="94.472" x2="238.106" y2="90.763"/>
	<line fill="none" stroke="#FF936C" stroke-miterlimit="10" x1="238.106" y1="90.763" x2="211.804" y2="120.017"/>
	<circle fill="#F05B58" stroke="#FF936C" stroke-width="2" stroke-miterlimit="10" cx="295.711" cy="75.7" r="4.937"/>
	<circle fill="#F05B58" stroke="#FF936C" stroke-width="2" stroke-miterlimit="10" cx="269.409" cy="94.472" r="4.937"/>
	<circle fill="#F05B58" stroke="#FF936C" stroke-width="2" stroke-miterlimit="10" cx="238.106" cy="90.763" r="4.937"/>
	<circle fill="#F05B58" stroke="#FF936C" stroke-width="2" stroke-miterlimit="10" cx="211.803" cy="120.017" r="4.937"/>
</g>
<g>
	<g>
		<path fill="#ABE4FF" d="M103.305,278.441c0,3.312,2.709,6.021,6.021,6.021h28.271c3.312,0,6.021-2.709,6.021-6.021v-5.852
			c0-3.312-2.709-6.021-6.02-6.021h-1.368c-3.312,0-6.63-0.968-7.374-2.15c-0.745-1.183-2.162-3.196-3.149-4.475
			s-2.603-1.278-3.59,0s-2.404,3.292-3.148,4.475s-4.063,2.15-7.374,2.15h-2.268c-3.311,0-6.021,2.709-6.021,6.021V278.441z"/>
	</g>
	
		<line fill="none" stroke="#4BA3CC" stroke-width="2.5779" stroke-linecap="round" stroke-linejoin="round" stroke-miterlimit="10" x1="136.455" y1="275.291" x2="119.432" y2="275.291"/>
	
		<line fill="none" stroke="#4BA3CC" stroke-width="2.5779" stroke-linecap="round" stroke-linejoin="round" stroke-miterlimit="10" x1="113.973" y1="275.291" x2="110.091" y2="275.291"/>
	
		<line fill="none" stroke="#4BA3CC" stroke-width="3" stroke-linecap="round" stroke-linejoin="round" stroke-miterlimit="10" x1="221.913" y1="246.001" x2="85.107" y2="246.001"/>
	<path fill="#F25A58" d="M115.962,246.001c0,4.415,3.612,8.027,8.027,8.027l0,0c4.415,0,8.027-3.612,8.027-8.027l0,0
		c0-4.415-3.612-8.027-8.027-8.027l0,0C119.574,237.974,115.962,241.586,115.962,246.001L115.962,246.001z"/>
</g>
<g>
	<g>
		
			<line fill="none" stroke="#ABE4FF" stroke-linecap="round" stroke-linejoin="round" stroke-miterlimit="10" x1="88.321" y1="43.379" x2="95.244" y2="50.302"/>
		
			<line fill="none" stroke="#ABE4FF" stroke-linecap="round" stroke-linejoin="round" stroke-miterlimit="10" x1="81.398" y1="50.302" x2="88.321" y2="43.379"/>
	</g>
	
		<line fill="none" stroke="#ABE4FF" stroke-linecap="round" stroke-linejoin="round" stroke-miterlimit="10" x1="88.321" y1="62.379" x2="88.321" y2="43.379"/>
</g>
<g>
	<g>
		
			<line fill="none" stroke="#ABE4FF" stroke-width="0.8178" stroke-linecap="round" stroke-linejoin="round" stroke-miterlimit="10" x1="201.399" y1="252.946" x2="207.061" y2="258.608"/>
		
			<line fill="none" stroke="#ABE4FF" stroke-width="0.8178" stroke-linecap="round" stroke-linejoin="round" stroke-miterlimit="10" x1="195.737" y1="258.608" x2="201.399" y2="252.946"/>
	</g>
	
		<line fill="none" stroke="#ABE4FF" stroke-width="0.8178" stroke-linecap="round" stroke-linejoin="round" stroke-miterlimit="10" x1="201.399" y1="268.485" x2="201.399" y2="252.946"/>
</g>
<g>
	<g>
		
			<line fill="none" stroke="#ABE4FF" stroke-width="2.1235" stroke-linecap="round" stroke-linejoin="round" stroke-miterlimit="10" x1="35.652" y1="159.591" x2="50.353" y2="174.292"/>
		
			<line fill="none" stroke="#ABE4FF" stroke-width="2.1235" stroke-linecap="round" stroke-linejoin="round" stroke-miterlimit="10" x1="20.952" y1="174.292" x2="35.652" y2="159.591"/>
	</g>
	
		<line fill="none" stroke="#ABE4FF" stroke-width="2.1235" stroke-linecap="round" stroke-linejoin="round" stroke-miterlimit="10" x1="35.652" y1="199.938" x2="35.652" y2="159.591"/>
</g>
<g>
	<g>
		
			<line fill="none" stroke="#ABE4FF" stroke-width="1.2326" stroke-linecap="round" stroke-linejoin="round" stroke-miterlimit="10" x1="269.409" y1="59.134" x2="277.941" y2="67.667"/>
		
			<line fill="none" stroke="#ABE4FF" stroke-width="1.2326" stroke-linecap="round" stroke-linejoin="round" stroke-miterlimit="10" x1="260.876" y1="67.667" x2="269.409" y2="59.134"/>
	</g>
	
		<line fill="none" stroke="#ABE4FF" stroke-width="1.2326" stroke-linecap="round" stroke-linejoin="round" stroke-miterlimit="10" x1="269.409" y1="82.553" x2="269.409" y2="59.134"/>
</g>
<g>
	<g>
		
			<line fill="none" stroke="#FFFFFF" stroke-linecap="round" stroke-linejoin="round" stroke-miterlimit="10" x1="185.933" y1="118.639" x2="192.855" y2="125.562"/>
		
			<line fill="none" stroke="#FFFFFF" stroke-linecap="round" stroke-linejoin="round" stroke-miterlimit="10" x1="179.01" y1="125.562" x2="185.933" y2="118.639"/>
	</g>
	
		<line fill="none" stroke="#FFFFFF" stroke-linecap="round" stroke-linejoin="round" stroke-miterlimit="10" x1="185.933" y1="137.639" x2="185.933" y2="118.639"/>
</g>
</svg>
